<svg width="380" height="131" viewBox="0 0 380 131" fill="none" xmlns="http://www.w3.org/2000/svg">
<rect width="380" height="131" fill="#FFA842"/>
<path d="M104.17 101.23C104.17 101.89 103.62 102.22 102.52 102.22C101.787 102.22 101.127 102.183 100.54 102.11L86.57 101.89L72.6 102.11C72.0867 102.183 71.5367 102.22 70.95 102.22C69.4833 102.22 68.75 101.853 68.75 101.12C68.75 100.313 69.74 99.91 71.72 99.91C78.1733 99.8367 81.4 99.1767 81.4 97.93C81.4 97.8567 81.3267 97.5633 81.18 97.05L80.3 94.08L79.75 92.54C79.09 90.2667 77.4767 85.2433 74.91 77.47H51.37C46.97 89.2033 44.77 95.95 44.77 97.71C44.77 98.7367 45.21 99.36 46.09 99.58C46.31 99.6533 48.1433 99.8 51.59 100.02C53.7167 100.093 54.78 100.46 54.78 101.12C54.78 101.853 53.8267 102.22 51.92 102.22C48.5467 102.22 44.6233 102.073 40.15 101.78C39.05 101.707 37.9133 101.67 36.74 101.67C35.5667 101.67 34.43 101.743 33.33 101.89C32.7433 101.963 32.2667 102 31.9 102C30.8733 102 30.36 101.67 30.36 101.01C30.36 100.35 31.4967 99.9833 33.77 99.91C36.1167 99.8367 37.8033 99.5067 38.83 98.92C39.8567 98.26 40.6633 97.05 41.25 95.29C50.71 68.3033 58.41 46.6333 64.35 30.28C64.4967 29.4 64.79 28.41 65.23 27.31L65.78 25.33C66 24.5233 66.2933 24.12 66.66 24.12C66.88 24.12 67.0633 24.34 67.21 24.78C68.1633 27.64 70.3267 33.6167 73.7 42.71C76.34 49.8233 82.9033 67.68 93.39 96.28C93.9767 97.8933 94.71 98.92 95.59 99.36C96.5433 99.8 98.45 100.057 101.31 100.13C103.217 100.203 104.17 100.57 104.17 101.23ZM74.25 74.94C73.0767 71.64 71.1333 66.1767 68.42 58.55L63.14 43.48C60.06 51.5467 56.3567 62.0333 52.03 74.94H74.25ZM146.362 97.05C146.362 98.2967 145.042 99.6167 142.402 101.01C139.835 102.33 137.342 102.99 134.922 102.99C129.862 102.99 127.222 100.387 127.002 95.18C124.215 100.607 119.889 103.32 114.022 103.32C110.869 103.32 108.265 102.403 106.212 100.57C104.159 98.6633 103.132 96.2433 103.132 93.31C103.132 87.2967 106.762 82.53 114.022 79.01C116.515 77.8367 120.842 76.6633 127.002 75.49V72.74C127.002 66.2867 126.672 62.0333 126.012 59.98C124.839 56.24 122.199 54.37 118.092 54.37C115.525 54.37 113.362 55.0667 111.602 56.46C109.915 57.8533 109.072 59.6133 109.072 61.74C109.072 62.3267 109.512 62.62 110.392 62.62C111.345 62.62 112.189 63.06 112.922 63.94C113.655 64.82 114.022 65.81 114.022 66.91C114.022 70.1367 112.409 71.75 109.182 71.75C107.495 71.75 106.102 71.2 105.002 70.1C103.902 68.9267 103.352 67.46 103.352 65.7C103.352 62.2533 104.709 59.2833 107.422 56.79C110.429 54.0767 114.609 52.72 119.962 52.72C128.029 52.72 132.979 54.92 134.812 59.32C135.472 61.0067 135.802 64.3433 135.802 69.33V89.9C135.802 93.2733 135.839 95.2533 135.912 95.84C136.279 98.48 137.342 99.8 139.102 99.8C141.155 99.8 142.842 99.0667 144.162 97.6C144.895 96.7933 145.445 96.39 145.812 96.39C146.179 96.39 146.362 96.61 146.362 97.05ZM127.002 85.39V77.36C121.502 78.6067 117.542 80.2567 115.122 82.31C112.775 84.29 111.602 86.9667 111.602 90.34C111.602 92.6867 112.262 94.63 113.582 96.17C114.975 97.6367 116.699 98.37 118.752 98.37C121.905 98.37 124.435 96.61 126.342 93.09C126.782 92.2833 127.002 89.7167 127.002 85.39Z" fill="black"/>
<path d="M264.864 95.448C264.864 97.896 263.748 99.708 261.516 100.884C260.436 101.46 258.888 101.82 256.872 101.964C256.32 101.988 254.688 102 251.976 102H247.584C247.176 102 246.972 101.892 246.972 101.676C246.972 101.46 247.344 101.352 248.088 101.352C248.952 101.352 249.456 101.268 249.6 101.1C249.768 100.908 249.852 100.356 249.852 99.444V79.968C249.852 78.912 249.804 78.3 249.708 78.132C249.54 77.844 248.928 77.688 247.872 77.664C247.224 77.664 246.9 77.544 246.9 77.304C246.9 77.088 247.2 76.98 247.8 76.98C247.824 76.98 247.968 76.98 248.232 76.98C248.496 77.004 248.736 77.016 248.952 77.016L255.972 77.088C258.564 77.112 260.496 77.544 261.768 78.384C263.256 79.368 264 80.796 264 82.668C264 84.3 263.388 85.644 262.164 86.7C260.94 87.732 259.224 88.38 257.016 88.644V88.86C259.2 89.004 260.904 89.46 262.128 90.228C263.952 91.38 264.864 93.12 264.864 95.448ZM260.04 83.028C260.04 80.724 259.512 79.188 258.456 78.42C257.904 78.012 256.86 77.808 255.324 77.808C254.916 77.808 254.28 77.844 253.416 77.916V88.356H253.74L255.72 88.284C257.088 88.236 258.144 87.756 258.888 86.844C259.656 85.908 260.04 84.636 260.04 83.028ZM261.084 95.052C261.084 92.028 259.86 90.156 257.412 89.436C256.692 89.22 255.36 89.112 253.416 89.112V99.84C253.416 100.536 253.488 100.932 253.632 101.028C253.872 101.196 254.544 101.28 255.648 101.28C257.304 101.28 258.624 100.752 259.608 99.696C260.592 98.64 261.084 97.092 261.084 95.052ZM282.766 94.224C282.766 96.552 282.058 98.508 280.642 100.092C279.226 101.652 277.462 102.432 275.35 102.432C273.166 102.432 271.342 101.652 269.878 100.092C268.414 98.508 267.682 96.552 267.682 94.224C267.682 91.824 268.39 89.832 269.806 88.248C271.246 86.664 273.034 85.872 275.17 85.872C277.33 85.872 279.13 86.676 280.57 88.284C282.034 89.868 282.766 91.848 282.766 94.224ZM279.49 94.188C279.49 91.548 279.082 89.496 278.266 88.032C277.666 86.952 276.658 86.412 275.242 86.412C273.898 86.412 272.842 87.108 272.074 88.5C271.33 89.868 270.958 91.776 270.958 94.224C270.958 96.648 271.354 98.544 272.146 99.912C272.962 101.256 274.09 101.928 275.53 101.928C276.634 101.928 277.45 101.508 277.978 100.668C278.986 99.084 279.49 96.924 279.49 94.188ZM301.071 101.28C301.071 101.448 300.903 101.532 300.567 101.532H300.387C300.195 101.532 299.991 101.52 299.775 101.496C299.583 101.496 299.487 101.496 299.487 101.496C298.311 101.496 297.315 101.736 296.499 102.216C296.163 102.408 295.959 102.504 295.887 102.504C295.671 102.504 295.563 102.36 295.563 102.072L295.599 100.956C294.567 101.94 293.343 102.432 291.927 102.432C289.911 102.432 288.243 101.664 286.923 100.128C285.627 98.568 284.979 96.588 284.979 94.188C284.979 91.716 285.627 89.712 286.923 88.176C288.243 86.64 289.959 85.872 292.071 85.872C293.703 85.872 294.927 86.46 295.743 87.636V82.02C295.743 80.196 295.659 79.068 295.491 78.636C295.347 78.276 295.131 78.108 294.843 78.132C294.147 78.204 293.727 78.24 293.583 78.24C293.271 78.24 293.115 78.132 293.115 77.916C293.115 77.7 293.247 77.592 293.511 77.592L294.807 77.628C295.527 77.652 296.631 77.316 298.119 76.62C298.215 76.572 298.299 76.548 298.371 76.548C298.611 76.548 298.731 76.836 298.731 77.412C298.731 77.556 298.731 77.808 298.731 78.168C298.707 78.552 298.695 78.888 298.695 79.176V91.596C298.695 97.284 298.755 100.332 298.875 100.74C298.923 100.908 299.487 100.992 300.567 100.992C300.903 100.992 301.071 101.088 301.071 101.28ZM295.743 92.244C295.743 89.94 295.491 88.464 294.987 87.816C294.339 87 293.511 86.592 292.503 86.592C291.207 86.592 290.175 87.264 289.407 88.608C288.639 89.952 288.255 91.752 288.255 94.008C288.255 96.168 288.591 98.016 289.263 99.552C289.551 100.2 289.971 100.74 290.523 101.172C291.099 101.58 291.687 101.784 292.287 101.784C293.031 101.784 293.703 101.568 294.303 101.136C294.903 100.68 295.287 100.14 295.455 99.516C295.647 98.892 295.743 96.468 295.743 92.244ZM317.184 94.224C317.184 96.552 316.476 98.508 315.06 100.092C313.644 101.652 311.88 102.432 309.768 102.432C307.584 102.432 305.76 101.652 304.296 100.092C302.832 98.508 302.1 96.552 302.1 94.224C302.1 91.824 302.808 89.832 304.224 88.248C305.664 86.664 307.452 85.872 309.588 85.872C311.748 85.872 313.548 86.676 314.988 88.284C316.452 89.868 317.184 91.848 317.184 94.224ZM313.908 94.188C313.908 91.548 313.5 89.496 312.684 88.032C312.084 86.952 311.076 86.412 309.66 86.412C308.316 86.412 307.26 87.108 306.492 88.5C305.748 89.868 305.376 91.776 305.376 94.224C305.376 96.648 305.772 98.544 306.564 99.912C307.38 101.256 308.508 101.928 309.948 101.928C311.052 101.928 311.868 101.508 312.396 100.668C313.404 99.084 313.908 96.924 313.908 94.188ZM335.741 101.784C335.741 101.976 335.561 102.072 335.201 102.072H334.769C334.337 102.024 333.749 102 333.005 102C330.653 102 329.261 102.024 328.829 102.072H328.577C328.265 102.072 328.109 101.988 328.109 101.82C328.109 101.7 328.169 101.628 328.289 101.604C328.433 101.58 328.901 101.556 329.693 101.532C330.149 101.508 330.413 101.448 330.485 101.352C330.557 101.232 330.593 100.836 330.593 100.164V93.252C330.593 90.636 330.497 89.076 330.305 88.572C329.897 87.492 329.081 86.952 327.857 86.952C326.657 86.952 325.649 87.48 324.833 88.536C324.593 88.848 324.473 89.28 324.473 89.832L324.509 101.064C324.509 101.352 324.761 101.508 325.265 101.532L326.345 101.568C326.585 101.568 326.705 101.652 326.705 101.82C326.705 101.988 326.561 102.072 326.273 102.072H325.697C325.169 102.024 324.329 102 323.177 102C322.913 102 322.337 102.012 321.449 102.036C320.585 102.06 320.081 102.072 319.937 102.072H319.721C319.361 102.072 319.181 101.988 319.181 101.82C319.181 101.652 319.397 101.544 319.829 101.496C320.141 101.496 320.441 101.496 320.729 101.496C321.089 101.496 321.305 101.412 321.377 101.244L321.485 100.704V92.856C321.485 90.12 321.461 88.608 321.413 88.32C321.365 88.032 321.065 87.888 320.513 87.888C320.345 87.888 320.057 87.912 319.649 87.96H319.469C318.989 87.96 318.749 87.876 318.749 87.708C318.749 87.492 319.001 87.384 319.505 87.384C320.225 87.36 321.005 87.228 321.845 86.988C322.685 86.748 323.273 86.472 323.609 86.16C323.825 85.968 323.993 85.872 324.113 85.872C324.281 85.872 324.365 86.1 324.365 86.556V88.284C325.613 86.676 327.221 85.872 329.189 85.872C330.917 85.872 332.165 86.508 332.933 87.78C333.365 88.5 333.581 89.868 333.581 91.884V100.092C333.581 100.86 333.617 101.28 333.689 101.352C333.833 101.496 334.181 101.568 334.733 101.568C334.805 101.568 334.937 101.556 335.129 101.532H335.381C335.621 101.532 335.741 101.616 335.741 101.784ZM341.907 79.356C341.907 80.436 341.367 80.976 340.287 80.976C339.831 80.976 339.447 80.832 339.135 80.544C338.823 80.232 338.667 79.86 338.667 79.428C338.667 78.3 339.207 77.736 340.287 77.736C341.367 77.736 341.907 78.276 341.907 79.356ZM344.607 101.784C344.607 102 344.403 102.108 343.995 102.108C344.019 102.108 343.731 102.084 343.131 102.036C342.411 101.988 341.811 101.964 341.331 101.964L337.587 102.036C337.467 102.06 337.323 102.072 337.155 102.072C336.891 102.072 336.759 101.988 336.759 101.82C336.759 101.58 336.999 101.46 337.479 101.46C338.391 101.436 338.883 101.376 338.955 101.28C339.051 101.16 339.099 100.656 339.099 99.768L339.063 88.86C339.039 88.26 339.003 87.912 338.955 87.816C338.931 87.696 338.787 87.636 338.523 87.636L337.479 87.672C337.383 87.696 337.263 87.708 337.119 87.708C336.855 87.708 336.723 87.612 336.723 87.42C336.723 87.252 336.927 87.156 337.335 87.132C338.943 87.06 340.323 86.676 341.475 85.98L341.835 85.764C342.027 86.124 342.123 86.784 342.123 87.744C342.123 87.696 342.123 87.816 342.123 88.104C342.099 88.392 342.087 88.86 342.087 89.508V99.336C342.087 100.296 342.099 100.86 342.123 101.028C342.171 101.196 342.303 101.304 342.519 101.352C342.879 101.448 343.407 101.496 344.103 101.496C344.439 101.496 344.607 101.592 344.607 101.784Z" fill="black"/>
</svg>
