<svg width="169" height="169" viewBox="0 0 169 169" fill="none" xmlns="http://www.w3.org/2000/svg">
<mask id="mask0" mask-type="alpha" maskUnits="userSpaceOnUse" x="0" y="0" width="169" height="169">
<circle cx="84.5" cy="84.5" r="83.5" fill="#090909" stroke="white" stroke-width="2"/>
</mask>
<g mask="url(#mask0)">
<circle cx="84.5" cy="84.5" r="83.5" fill="#090909" stroke="white" stroke-width="2"/>
<path d="M23.4564 54.6777C24.1361 54.4409 24.8284 53.9717 25.4954 54.0013C35.0825 54.4832 44.6569 55.1215 54.244 55.54C64.9372 56.0007 75.6345 56.2501 86.3277 56.6474C91.689 56.8461 97.0461 57.2476 102.407 57.4252C112.049 57.7422 121.696 57.9578 131.342 58.2156C136.463 58.3509 141.583 58.465 146.704 58.6383C147.126 58.6383 147.548 59.1794 148 59.4837C147.578 59.7416 147.181 60.2023 146.759 60.2192C145.054 60.2974 143.346 60.2889 141.642 60.1938C138.995 60.0374 137.1 61.7832 137.07 64.5011C137.007 69.5101 137.02 74.519 136.851 79.5238C136.585 87.3564 136.188 95.1636 135.855 103.013C135.783 104.704 135.741 106.433 135.698 108.14C135.656 109.848 136.775 111.192 138.518 111.277C140.87 111.395 143.221 111.505 145.573 111.484C147.075 111.484 147.633 112.152 147.481 113.521C147 117.913 146.48 122.301 145.982 126.688C145.754 128.679 145.56 130.67 145.324 132.657C144.479 140.379 143.664 148.102 142.791 155.821C141.946 163.378 141.072 170.932 140.224 178.486C140.123 179.365 140.14 180.257 140.004 181.127C139.868 181.763 139.687 182.389 139.464 183L138.991 182.937C138.81 181.123 138.649 179.301 138.447 177.488C137.699 170.771 136.897 164.059 136.205 157.338C135.677 152.236 135.306 147.121 134.829 142.011C134.238 135.671 133.596 129.33 132.988 122.99C132.727 120.242 132.486 117.49 132.266 114.734C132.182 113.673 131.929 112.993 130.603 112.997C122.835 112.997 115.068 113.069 107.304 112.879C101.394 112.735 95.4842 112.156 89.5529 111.928C83.0222 111.674 76.4662 111.683 69.9524 111.437C57.5495 110.977 45.1509 110.402 32.7522 109.907C29.7972 109.789 26.8421 109.861 23.9166 109.709C23.2622 109.675 22.6501 109.07 22 108.728C22.6712 108.415 23.334 107.861 24.0137 107.836C25.4785 107.781 26.9687 108.03 28.4167 108.098C30.5655 108.204 31.9755 106.868 32.043 104.717C32.4483 91.8665 32.8536 79.0151 33.2588 66.1623C33.3264 64.1038 33.3601 62.041 33.4235 59.9783C33.5121 57.2815 32.0472 55.7936 29.3581 55.8697C27.412 55.9542 25.4237 56.1613 23.4564 54.6777ZM105.975 59.2301V58.9723C103.746 58.9723 101.513 58.9469 99.2793 58.9723C98.3272 58.9551 97.4067 59.3141 96.7169 59.9715C96.0272 60.6289 95.6237 61.5318 95.5939 62.4849C95.3449 69.1339 95.1718 75.7871 94.8932 82.4362C94.6905 87.6734 94.357 92.9106 94.1924 98.1478C94.0911 101.5 94.1248 104.856 94.2388 108.204C94.2852 109.582 95.1253 110.444 96.6577 110.478C101.12 110.571 105.582 110.74 110.044 110.816C112.957 110.867 114.114 109.742 114.236 106.843C114.371 103.668 114.451 100.502 114.574 97.3109C114.833 90.4885 115.096 83.6634 115.363 76.8354C115.536 72.3675 115.617 67.8912 115.925 63.4317C116.106 60.811 114.975 59.2639 112.32 59.2047C110.196 59.1963 108.085 59.2301 105.975 59.2301ZM53.3744 83.9452H53.4757C53.1887 91.131 52.8636 98.3169 52.6314 105.503C52.5343 108.462 53.5897 109.455 56.4772 109.51C60.1795 109.582 63.9198 109.362 67.5714 109.831C71.3497 110.317 72.7006 108.318 72.8019 105.042C73.1438 93.9716 73.6462 82.9054 74.0219 71.8349C74.1486 68.2505 74.233 64.6491 74.2414 61.0773C74.2414 59.6148 72.975 58.3213 71.7085 58.2663C67.3688 58.0719 63.0206 57.9958 58.6935 57.6746C58.0962 57.6196 57.494 57.6961 56.9293 57.8988C56.3646 58.1015 55.851 58.4255 55.4246 58.848C54.9983 59.2705 54.6694 59.7813 54.461 60.3446C54.2527 60.9079 54.17 61.51 54.2187 62.1087C54.3406 63.1031 54.404 64.1037 54.4087 65.1056C54.0878 71.3869 53.7248 77.6639 53.3786 83.9452H53.3744Z" fill="#FFA842"/>
<ellipse cx="64" cy="65.5" rx="4" ry="8.5" fill="#FFA842"/>
<ellipse cx="105" cy="66.5" rx="4" ry="8.5" fill="#FFA842"/>
</g>
</svg>
