<svg width="169" height="169" viewBox="0 0 169 169" fill="none" xmlns="http://www.w3.org/2000/svg">
<circle cx="84.5" cy="84.5" r="84.5" fill="#FFA842"/>
<path d="M137.492 114.555C133.621 114.555 129.749 114.515 125.877 114.577C124.678 114.594 123.951 114.149 123.794 113.011C123.404 110.18 123.017 107.342 122.781 104.491C122.634 102.716 122.798 100.918 122.749 99.1325C122.749 98.7696 122.421 98.4133 122.241 98.0536C121.913 98.2694 121.425 98.4067 121.239 98.7075C119.516 101.601 117.838 104.521 116.148 107.434C115.195 109.068 114.255 110.729 113.279 112.358C112.971 112.933 112.526 113.423 111.983 113.786C111.441 114.148 110.817 114.372 110.167 114.437C105.669 114.993 101.254 114.764 96.8972 113.476C92.2523 112.093 89.2125 108.843 87.3028 104.648C85.1114 99.8257 85.0819 94.6632 85.832 89.4844C86.1825 87.0617 87.5812 85.597 89.9987 85.3943C94.5551 85.015 99.1246 84.7404 103.694 84.5148C109.518 84.2172 115.349 84.0309 121.173 83.7072C121.694 83.6778 122.582 83.001 122.611 82.576C122.801 79.7937 122.749 76.9296 121.163 74.5364C119.773 72.4927 117.718 70.9913 115.346 70.2861C109.122 68.3244 102.8 67.8699 96.5795 70.2239C94.684 70.9217 92.949 71.994 91.4783 73.3765C90.0077 74.759 88.8315 76.4234 88.0202 78.2701C87.5681 79.2509 87.1062 80.2514 86.5592 81.1865C86.3856 81.484 85.8713 81.8109 85.5994 81.7488C85.4292 81.6579 85.2849 81.5253 85.18 81.3634C85.0752 81.2016 85.0132 81.0158 85 80.8235C85.0576 79.6848 85.2165 78.5535 85.475 77.4429C86.497 73.3986 87.2995 69.2693 88.7211 65.3688C90.4343 60.6608 92.9795 56.2699 96.8186 52.9448C99.807 50.3778 103.36 48.5508 107.189 47.6123C112.484 46.2722 117.955 45.7626 123.407 46.1019C129.146 46.4451 134.754 47.4881 139.694 50.7772C144.869 54.2265 148.004 58.9508 148.921 65.1269C149.232 67.2226 149.629 69.315 149.734 71.4238C149.829 73.3528 149.54 75.2982 149.498 77.2369C149.413 81.1908 149.358 85.1436 149.334 89.0953C149.311 92.5151 149.154 95.9612 149.399 99.3516C149.727 103.841 150.34 108.307 150.906 112.756C151.165 114.787 151.001 115.016 148.941 114.999C145.125 114.967 141.309 114.999 137.476 114.999L137.492 114.555ZM118.992 85.7833V85.7016C117.354 85.8879 115.736 86.0285 114.127 86.2934C113.678 86.3686 113.03 86.7674 112.925 87.1434C112.077 90.2232 112.689 94.8822 117.305 95.2778C121.442 95.6309 123.201 94.8365 122.899 90.609C122.857 90.0173 122.817 89.4222 122.732 88.8337C122.591 87.8137 122.755 86.326 122.166 85.8912C121.438 85.4041 120.076 85.7931 118.992 85.7931V85.7833Z" fill="#090909"/>
<path d="M32.5076 114.555C36.3794 114.555 40.2512 114.515 44.1231 114.577C45.3219 114.594 46.0491 114.149 46.2064 113.011C46.5962 110.18 46.9827 107.342 47.2186 104.491C47.366 102.716 47.2022 100.918 47.2513 99.1325C47.2513 98.7696 47.5789 98.4133 47.759 98.0536C48.0866 98.2694 48.5747 98.4067 48.7614 98.7075C50.4844 101.601 52.1615 104.521 53.8518 107.434C54.805 109.068 55.7451 110.729 56.7212 112.358C57.029 112.933 57.4739 113.423 58.0166 113.786C58.5593 114.148 59.1832 114.372 59.8331 114.437C64.3306 114.993 68.7462 114.764 73.1028 113.476C77.7477 112.093 80.7875 108.843 82.6972 104.648C84.8886 99.8257 84.9181 94.6632 84.168 89.4844C83.8175 87.0617 82.4188 85.597 80.0013 85.3943C75.4449 85.015 70.8754 84.7404 66.3058 84.5148C60.4817 84.2172 54.651 84.0309 48.8269 83.7072C48.3061 83.6778 47.4184 83.001 47.3889 82.576C47.1989 79.7937 47.2513 76.9296 48.8367 74.5364C50.2272 72.4927 52.2823 70.9913 54.6543 70.2861C60.878 68.3244 67.2001 67.8699 73.4205 70.2239C75.316 70.9217 77.051 71.994 78.5217 73.3765C79.9923 74.759 81.1685 76.4234 81.9798 78.2701C82.4319 79.2509 82.8938 80.2514 83.4408 81.1865C83.6144 81.484 84.1287 81.8109 84.4006 81.7488C84.5708 81.6579 84.7151 81.5253 84.82 81.3634C84.9248 81.2016 84.9868 81.0158 85 80.8235C84.9424 79.6848 84.7835 78.5535 84.525 77.4429C83.503 73.3986 82.7005 69.2693 81.2789 65.3688C79.5657 60.6608 77.0205 56.2699 73.1814 52.9448C70.193 50.3778 66.6398 48.5508 62.8107 47.6123C57.516 46.2722 52.0446 45.7626 46.5929 46.1019C40.8539 46.4451 35.246 47.4881 30.3063 50.7772C25.1308 54.2265 21.996 58.9508 21.0788 65.1269C20.7676 67.2226 20.3713 69.315 20.2664 71.4238C20.1714 73.3528 20.4597 75.2982 20.5023 77.2369C20.5874 81.1908 20.642 85.1436 20.6661 89.0953C20.689 92.5151 20.8462 95.9612 20.6005 99.3516C20.273 103.841 19.6604 108.307 19.0938 112.756C18.835 114.787 18.9987 115.016 21.0591 114.999C24.8753 114.967 28.6914 114.999 32.5239 114.999L32.5076 114.555ZM51.0085 85.7833V85.7016C52.6463 85.8879 54.2645 86.0285 55.8728 86.2934C56.3216 86.3686 56.9702 86.7674 57.075 87.1434C57.9234 90.2232 57.3109 94.8822 52.6955 95.2778C48.5583 95.6309 46.7993 94.8365 47.1006 90.609C47.1432 90.0173 47.1825 89.4222 47.2677 88.8337C47.4085 87.8137 47.2448 86.326 47.8344 85.8912C48.5616 85.4041 49.9242 85.7931 51.0085 85.7931V85.7833Z" fill="#090909"/>
<circle cx="60" cy="71" r="6" fill="#090909"/>
<circle cx="102" cy="71" r="6" fill="#090909"/>
</svg>
