<svg width="256" height="118" viewBox="0 0 256 118" fill="none" xmlns="http://www.w3.org/2000/svg">
<rect width="256" height="118" fill="#00278C"/>
<path d="M33.014 33.81C32.3513 34.7153 31.4413 35.168 30.284 35.168C29.1267 35.168 28.212 34.7153 27.54 33.81C26.8773 32.9047 26.546 31.7473 26.546 30.338C26.546 28.9287 26.8773 27.7713 27.54 26.866C28.212 25.9607 29.1267 25.508 30.284 25.508C31.4413 25.508 32.3513 25.9607 33.014 26.866C33.686 27.7713 34.022 28.9287 34.022 30.338C34.022 31.7473 33.686 32.9047 33.014 33.81ZM30.284 33.782C30.956 33.782 31.4833 33.46 31.866 32.816C32.2487 32.1627 32.44 31.3367 32.44 30.338C32.44 29.33 32.2487 28.504 31.866 27.86C31.4833 27.2067 30.956 26.88 30.284 26.88C29.6027 26.88 29.0707 27.202 28.688 27.846C28.3147 28.49 28.128 29.3207 28.128 30.338C28.128 31.346 28.3147 32.172 28.688 32.816C29.0707 33.46 29.6027 33.782 30.284 33.782ZM37.7503 35H36.3503V29.456H34.8243V28.238H39.2763V29.456H37.7503V35ZM41.7475 35H40.3475V28.238H41.7475V30.898H44.0995V28.238H45.4855V35H44.0995V32.116H41.7475V35ZM51.8744 34.146C51.3611 34.8273 50.6471 35.168 49.7324 35.168C48.8177 35.168 48.0991 34.8273 47.5764 34.146C47.0631 33.4647 46.8064 32.62 46.8064 31.612C46.8064 30.604 47.0631 29.764 47.5764 29.092C48.0897 28.4107 48.8084 28.07 49.7324 28.07C50.6564 28.07 51.3751 28.4107 51.8884 29.092C52.4017 29.764 52.6584 30.604 52.6584 31.612C52.6584 32.62 52.3971 33.4647 51.8744 34.146ZM48.6264 33.264C48.8784 33.712 49.2471 33.936 49.7324 33.936C50.2177 33.936 50.5864 33.712 50.8384 33.264C51.0904 32.816 51.2164 32.2653 51.2164 31.612C51.2164 30.9587 51.0904 30.4127 50.8384 29.974C50.5864 29.526 50.2177 29.302 49.7324 29.302C49.2471 29.302 48.8784 29.526 48.6264 29.974C48.3744 30.4127 48.2484 30.9587 48.2484 31.612C48.2484 32.2653 48.3744 32.816 48.6264 33.264ZM58.6683 34.258C58.183 34.8647 57.497 35.168 56.6103 35.168C55.7237 35.168 55.005 34.8367 54.4543 34.174C53.913 33.502 53.6423 32.648 53.6423 31.612C53.6423 30.576 53.913 29.7267 54.4543 29.064C54.9957 28.4013 55.7143 28.07 56.6103 28.07C57.497 28.07 58.183 28.3733 58.6683 28.98L57.9543 29.932C57.6277 29.512 57.2263 29.302 56.7503 29.302C56.237 29.302 55.831 29.5213 55.5323 29.96C55.2337 30.3987 55.0843 30.9493 55.0843 31.612C55.0843 32.284 55.2337 32.8393 55.5323 33.278C55.831 33.7167 56.237 33.936 56.7503 33.936C57.217 33.936 57.6183 33.726 57.9543 33.306L58.6683 34.258ZM61.1469 35H59.7889V28.238H61.1889V32.48L63.4989 28.238H64.9269V35H63.5409V30.618L61.1469 35ZM68.9358 35H67.5358V29.456H66.0098V28.238H70.4618V29.456H68.9358V35ZM74.235 35.168C73.311 35.168 72.5737 34.8413 72.023 34.188C71.4724 33.5347 71.197 32.676 71.197 31.612C71.197 30.604 71.4584 29.764 71.981 29.092C72.513 28.4107 73.2177 28.07 74.095 28.07C74.9817 28.07 75.6724 28.406 76.167 29.078C76.6617 29.75 76.909 30.6133 76.909 31.668V32.074H72.611C72.639 32.6527 72.807 33.124 73.115 33.488C73.423 33.8427 73.843 34.02 74.375 34.02C74.9817 34.02 75.4904 33.7773 75.901 33.292L76.573 34.132C75.9664 34.8227 75.187 35.168 74.235 35.168ZM75.551 31.08C75.5417 30.5853 75.4157 30.1513 75.173 29.778C74.9397 29.3953 74.5757 29.204 74.081 29.204C73.605 29.204 73.2457 29.3953 73.003 29.778C72.7604 30.1607 72.625 30.5947 72.597 31.08H75.551ZM77.5899 35.168V33.978C77.8792 33.978 78.1032 33.824 78.2619 33.516C78.4299 33.208 78.5512 32.6293 78.6259 31.78L78.9339 28.238H83.3019V35H81.9159V29.456H80.2079L80.0259 31.892C79.9326 33.0867 79.6852 33.9313 79.2839 34.426C78.8826 34.9207 78.3179 35.168 77.5899 35.168ZM84.9588 28.238H86.3588V30.716H87.8568C88.5941 30.716 89.1541 30.9213 89.5368 31.332C89.9288 31.7427 90.1248 32.256 90.1248 32.872C90.1248 33.4787 89.9241 33.9873 89.5228 34.398C89.1308 34.7993 88.5755 35 87.8568 35H84.9588V28.238ZM87.6888 31.892H86.3588V33.824H87.6888C88.0061 33.824 88.2535 33.7353 88.4308 33.558C88.6081 33.3807 88.6968 33.1473 88.6968 32.858C88.6968 32.578 88.6081 32.3493 88.4308 32.172C88.2535 31.9853 88.0061 31.892 87.6888 31.892ZM92.7846 35H91.3846V28.238H92.7846V30.898H95.1366V28.238H96.5226V35H95.1366V32.116H92.7846V35ZM103.066 35H101.68V34.314C101.269 34.8833 100.676 35.168 99.9015 35.168C99.3228 35.168 98.8328 34.9673 98.4315 34.566C98.0302 34.1553 97.8295 33.6047 97.8295 32.914C97.8295 32.2233 98.0302 31.6867 98.4315 31.304C98.8328 30.912 99.3228 30.716 99.9015 30.716C100.695 30.716 101.288 30.9867 101.68 31.528V30.548C101.68 30.1373 101.563 29.82 101.33 29.596C101.106 29.372 100.784 29.26 100.364 29.26C99.7475 29.26 99.1875 29.5167 98.6835 30.03L98.1375 29.05C98.7908 28.3967 99.6168 28.07 100.616 28.07C101.362 28.07 101.955 28.2613 102.394 28.644C102.842 29.0173 103.066 29.596 103.066 30.38V35ZM100.406 34.202C100.966 34.202 101.39 33.9547 101.68 33.46V32.438C101.549 32.2047 101.367 32.0227 101.134 31.892C100.9 31.752 100.658 31.682 100.406 31.682C100.051 31.682 99.7662 31.7987 99.5515 32.032C99.3368 32.2653 99.2295 32.5687 99.2295 32.942C99.2295 33.3153 99.3368 33.6187 99.5515 33.852C99.7662 34.0853 100.051 34.202 100.406 34.202ZM106.059 35H104.463L105.919 32.34C105.536 32.2373 105.214 32.018 104.953 31.682C104.691 31.3367 104.561 30.898 104.561 30.366C104.561 29.75 104.761 29.2413 105.163 28.84C105.564 28.4387 106.119 28.238 106.829 28.238H109.811V35H108.411V32.508H107.291L106.059 35ZM106.997 31.346H108.411V29.4H106.997C106.679 29.4 106.427 29.4887 106.241 29.666C106.063 29.8433 105.975 30.0767 105.975 30.366C105.975 30.6553 106.063 30.8933 106.241 31.08C106.418 31.2573 106.67 31.346 106.997 31.346ZM119.125 34.258C118.64 34.8647 117.954 35.168 117.067 35.168C116.181 35.168 115.462 34.8367 114.911 34.174C114.37 33.502 114.099 32.648 114.099 31.612C114.099 30.576 114.37 29.7267 114.911 29.064C115.453 28.4013 116.171 28.07 117.067 28.07C117.954 28.07 118.64 28.3733 119.125 28.98L118.411 29.932C118.085 29.512 117.683 29.302 117.207 29.302C116.694 29.302 116.288 29.5213 115.989 29.96C115.691 30.3987 115.541 30.9493 115.541 31.612C115.541 32.284 115.691 32.8393 115.989 33.278C116.288 33.7167 116.694 33.936 117.207 33.936C117.674 33.936 118.075 33.726 118.411 33.306L119.125 34.258ZM119.672 35.168V33.978C119.961 33.978 120.185 33.824 120.344 33.516C120.512 33.208 120.633 32.6293 120.708 31.78L121.016 28.238H125.384V35H123.998V29.456H122.29L122.108 31.892C122.015 33.0867 121.767 33.9313 121.366 34.426C120.965 34.9207 120.4 35.168 119.672 35.168ZM131.773 34.146C131.26 34.8273 130.546 35.168 129.631 35.168C128.716 35.168 127.998 34.8273 127.475 34.146C126.962 33.4647 126.705 32.62 126.705 31.612C126.705 30.604 126.962 29.764 127.475 29.092C127.988 28.4107 128.707 28.07 129.631 28.07C130.555 28.07 131.274 28.4107 131.787 29.092C132.3 29.764 132.557 30.604 132.557 31.612C132.557 32.62 132.296 33.4647 131.773 34.146ZM128.525 33.264C128.777 33.712 129.146 33.936 129.631 33.936C130.116 33.936 130.485 33.712 130.737 33.264C130.989 32.816 131.115 32.2653 131.115 31.612C131.115 30.9587 130.989 30.4127 130.737 29.974C130.485 29.526 130.116 29.302 129.631 29.302C129.146 29.302 128.777 29.526 128.525 29.974C128.273 30.4127 128.147 30.9587 128.147 31.612C128.147 32.2653 128.273 32.816 128.525 33.264ZM134.445 35H132.807L135.089 31.276L132.849 28.238H134.473L136.335 30.842V28.238H137.735V30.842L139.597 28.238H141.221L138.981 31.276L141.263 35H139.625L138.029 32.172L137.735 32.564V35H136.335V32.564L136.041 32.172L134.445 35ZM143.603 35H142.203V28.238H143.603V30.898H145.955V28.238H147.341V35H145.955V32.116H143.603V35ZM153.73 34.146C153.217 34.8273 152.503 35.168 151.588 35.168C150.673 35.168 149.955 34.8273 149.432 34.146C148.919 33.4647 148.662 32.62 148.662 31.612C148.662 30.604 148.919 29.764 149.432 29.092C149.945 28.4107 150.664 28.07 151.588 28.07C152.512 28.07 153.231 28.4107 153.744 29.092C154.257 29.764 154.514 30.604 154.514 31.612C154.514 32.62 154.253 33.4647 153.73 34.146ZM150.482 33.264C150.734 33.712 151.103 33.936 151.588 33.936C152.073 33.936 152.442 33.712 152.694 33.264C152.946 32.816 153.072 32.2653 153.072 31.612C153.072 30.9587 152.946 30.4127 152.694 29.974C152.442 29.526 152.073 29.302 151.588 29.302C151.103 29.302 150.734 29.526 150.482 29.974C150.23 30.4127 150.104 30.9587 150.104 31.612C150.104 32.2653 150.23 32.816 150.482 33.264ZM160.524 34.258C160.038 34.8647 159.352 35.168 158.466 35.168C157.579 35.168 156.86 34.8367 156.31 34.174C155.768 33.502 155.498 32.648 155.498 31.612C155.498 30.576 155.768 29.7267 156.31 29.064C156.851 28.4013 157.57 28.07 158.466 28.07C159.352 28.07 160.038 28.3733 160.524 28.98L159.81 29.932C159.483 29.512 159.082 29.302 158.606 29.302C158.092 29.302 157.686 29.5213 157.388 29.96C157.089 30.3987 156.94 30.9493 156.94 31.612C156.94 32.284 157.089 32.8393 157.388 33.278C157.686 33.7167 158.092 33.936 158.606 33.936C159.072 33.936 159.474 33.726 159.81 33.306L160.524 34.258ZM163.996 35H162.596V29.456H161.07V28.238H165.522V29.456H163.996V35ZM166.594 28.238H167.994V30.716H169.492C170.229 30.716 170.789 30.9213 171.172 31.332C171.564 31.7427 171.76 32.256 171.76 32.872C171.76 33.4787 171.559 33.9873 171.158 34.398C170.766 34.7993 170.21 35 169.492 35H166.594V28.238ZM169.324 31.892H167.994V33.824H169.324C169.641 33.824 169.888 33.7353 170.066 33.558C170.243 33.3807 170.332 33.1473 170.332 32.858C170.332 32.578 170.243 32.3493 170.066 32.172C169.888 31.9853 169.641 31.892 169.324 31.892ZM28.828 45.07C29.472 45.07 29.9807 45.4247 30.354 46.134V42.662H31.754V46.134C32.1273 45.4247 32.636 45.07 33.28 45.07C33.952 45.07 34.4793 45.3873 34.862 46.022C35.254 46.6567 35.45 47.52 35.45 48.612C35.45 49.6947 35.254 50.558 34.862 51.202C34.4793 51.846 33.952 52.168 33.28 52.168C32.6267 52.168 32.118 51.8087 31.754 51.09V54.576H30.354V51.09C30.186 51.4353 29.9667 51.7013 29.696 51.888C29.4253 52.0747 29.136 52.168 28.828 52.168C28.156 52.168 27.624 51.8507 27.232 51.216C26.8493 50.572 26.658 49.704 26.658 48.612C26.658 47.52 26.8493 46.6567 27.232 46.022C27.624 45.3873 28.156 45.07 28.828 45.07ZM29.276 46.302C28.8933 46.302 28.5993 46.5167 28.394 46.946C28.1887 47.3753 28.086 47.9307 28.086 48.612C28.086 49.284 28.1933 49.8393 28.408 50.278C28.6227 50.7167 28.9213 50.936 29.304 50.936C29.5093 50.936 29.71 50.8473 29.906 50.67C30.102 50.4833 30.2513 50.2593 30.354 49.998V47.226C30.2513 46.9647 30.0973 46.7453 29.892 46.568C29.696 46.3907 29.4907 46.302 29.276 46.302ZM32.804 50.936C33.1867 50.936 33.4853 50.7167 33.7 50.278C33.9147 49.8393 34.022 49.284 34.022 48.612C34.022 47.9307 33.9193 47.3753 33.714 46.946C33.5087 46.5167 33.2147 46.302 32.832 46.302C32.6173 46.302 32.4073 46.3907 32.202 46.568C32.006 46.7453 31.8567 46.9647 31.754 47.226V49.998C31.8567 50.2593 32.006 50.4833 32.202 50.67C32.398 50.8473 32.5987 50.936 32.804 50.936ZM41.6615 51.146C41.1482 51.8273 40.4342 52.168 39.5195 52.168C38.6048 52.168 37.8862 51.8273 37.3635 51.146C36.8502 50.4647 36.5935 49.62 36.5935 48.612C36.5935 47.604 36.8502 46.764 37.3635 46.092C37.8768 45.4107 38.5955 45.07 39.5195 45.07C40.4435 45.07 41.1622 45.4107 41.6755 46.092C42.1888 46.764 42.4455 47.604 42.4455 48.612C42.4455 49.62 42.1842 50.4647 41.6615 51.146ZM38.4135 50.264C38.6655 50.712 39.0342 50.936 39.5195 50.936C40.0048 50.936 40.3735 50.712 40.6255 50.264C40.8775 49.816 41.0035 49.2653 41.0035 48.612C41.0035 47.9587 40.8775 47.4127 40.6255 46.974C40.3735 46.526 40.0048 46.302 39.5195 46.302C39.0342 46.302 38.6655 46.526 38.4135 46.974C38.1615 47.4127 38.0355 47.9587 38.0355 48.612C38.0355 49.2653 38.1615 49.816 38.4135 50.264ZM45.1655 52H43.7655V45.238H45.1655V47.898H47.5175V45.238H48.9035V52H47.5175V49.116H45.1655V52ZM53.2624 52.168C52.3384 52.168 51.601 51.8413 51.0504 51.188C50.4997 50.5347 50.2244 49.676 50.2244 48.612C50.2244 47.604 50.4857 46.764 51.0084 46.092C51.5404 45.4107 52.245 45.07 53.1224 45.07C54.009 45.07 54.6997 45.406 55.1944 46.078C55.689 46.75 55.9364 47.6133 55.9364 48.668V49.074H51.6384C51.6664 49.6527 51.8344 50.124 52.1424 50.488C52.4504 50.8427 52.8704 51.02 53.4024 51.02C54.009 51.02 54.5177 50.7773 54.9284 50.292L55.6004 51.132C54.9937 51.8227 54.2144 52.168 53.2624 52.168ZM54.5784 48.08C54.569 47.5853 54.443 47.1513 54.2004 46.778C53.967 46.3953 53.603 46.204 53.1084 46.204C52.6324 46.204 52.273 46.3953 52.0304 46.778C51.7877 47.1607 51.6524 47.5947 51.6244 48.08H54.5784ZM59.5432 52H58.1432V46.456H56.6172V45.238H61.0692V46.456H59.5432V52ZM63.4985 52H62.1405V45.238H63.5405V49.48L65.8505 45.238H67.2785V52H65.8925V47.618L63.4985 52ZM68.7394 45.238H70.1254V47.226C70.1254 47.6087 70.2187 47.884 70.4054 48.052C70.592 48.2107 70.9 48.29 71.3294 48.29C71.7774 48.29 72.16 48.2153 72.4774 48.066V45.238H73.8634V52H72.4774V49.158C72.0574 49.4007 71.53 49.522 70.8954 49.522C70.1114 49.522 69.556 49.3727 69.2294 49.074C68.9027 48.7753 68.7394 48.318 68.7394 47.702V45.238ZM78.2135 52.168C77.2895 52.168 76.5522 51.8413 76.0015 51.188C75.4509 50.5347 75.1755 49.676 75.1755 48.612C75.1755 47.604 75.4369 46.764 75.9595 46.092C76.4915 45.4107 77.1962 45.07 78.0735 45.07C78.9602 45.07 79.6509 45.406 80.1455 46.078C80.6402 46.75 80.8875 47.6133 80.8875 48.668V49.074H76.5895C76.6175 49.6527 76.7855 50.124 77.0935 50.488C77.4015 50.8427 77.8215 51.02 78.3535 51.02C78.9602 51.02 79.4689 50.7773 79.8795 50.292L80.5515 51.132C79.9449 51.8227 79.1655 52.168 78.2135 52.168ZM79.5295 48.08C79.5202 47.5853 79.3942 47.1513 79.1515 46.778C78.9182 46.3953 78.5542 46.204 78.0595 46.204C77.5835 46.204 77.2242 46.3953 76.9815 46.778C76.7389 47.1607 76.6035 47.5947 76.5755 48.08H79.5295ZM86.8324 51.258C86.3471 51.8647 85.6611 52.168 84.7744 52.168C83.8877 52.168 83.1691 51.8367 82.6184 51.174C82.0771 50.502 81.8064 49.648 81.8064 48.612C81.8064 47.576 82.0771 46.7267 82.6184 46.064C83.1597 45.4013 83.8784 45.07 84.7744 45.07C85.6611 45.07 86.3471 45.3733 86.8324 45.98L86.1184 46.932C85.7917 46.512 85.3904 46.302 84.9144 46.302C84.4011 46.302 83.9951 46.5213 83.6964 46.96C83.3977 47.3987 83.2484 47.9493 83.2484 48.612C83.2484 49.284 83.3977 49.8393 83.6964 50.278C83.9951 50.7167 84.4011 50.936 84.9144 50.936C85.3811 50.936 85.7824 50.726 86.1184 50.306L86.8324 51.258ZM93.399 52H91.761L90.165 49.172L89.353 50.264V52H87.953V45.238H89.353V48.556L91.733 45.238H93.357L91.117 48.276L93.399 52ZM95.6957 52H94.3377V45.238H95.7377V49.48L98.0477 45.238H99.4757V52H98.0897V47.618L95.6957 52ZM106.159 52H104.633L103.275 49.536L101.917 52H100.391L102.407 48.556L100.503 45.238H102.029L103.275 47.562L104.521 45.238H106.047L104.143 48.556L106.159 52ZM114.723 51.258C114.238 51.8647 113.552 52.168 112.665 52.168C111.778 52.168 111.06 51.8367 110.509 51.174C109.968 50.502 109.697 49.648 109.697 48.612C109.697 47.576 109.968 46.7267 110.509 46.064C111.05 45.4013 111.769 45.07 112.665 45.07C113.552 45.07 114.238 45.3733 114.723 45.98L114.009 46.932C113.682 46.512 113.281 46.302 112.805 46.302C112.292 46.302 111.886 46.5213 111.587 46.96C111.288 47.3987 111.139 47.9493 111.139 48.612C111.139 49.284 111.288 49.8393 111.587 50.278C111.886 50.7167 112.292 50.936 112.805 50.936C113.272 50.936 113.673 50.726 114.009 50.306L114.723 51.258ZM117.202 52H115.844V45.238H117.244V49.48L119.554 45.238H120.982V52H119.596V47.618L117.202 52ZM127.329 51.258C126.843 51.8647 126.157 52.168 125.271 52.168C124.384 52.168 123.665 51.8367 123.115 51.174C122.573 50.502 122.303 49.648 122.303 48.612C122.303 47.576 122.573 46.7267 123.115 46.064C123.656 45.4013 124.375 45.07 125.271 45.07C126.157 45.07 126.843 45.3733 127.329 45.98L126.615 46.932C126.288 46.512 125.887 46.302 125.41 46.302C124.897 46.302 124.491 46.5213 124.193 46.96C123.894 47.3987 123.745 47.9493 123.745 48.612C123.745 49.284 123.894 49.8393 124.193 50.278C124.491 50.7167 124.897 50.936 125.41 50.936C125.877 50.936 126.279 50.726 126.615 50.306L127.329 51.258ZM130.801 52H129.401V46.456H127.875V45.238H132.327V46.456H130.801V52ZM136.1 52.168C135.176 52.168 134.439 51.8413 133.888 51.188C133.338 50.5347 133.062 49.676 133.062 48.612C133.062 47.604 133.324 46.764 133.846 46.092C134.378 45.4107 135.083 45.07 135.96 45.07C136.847 45.07 137.538 45.406 138.032 46.078C138.527 46.75 138.774 47.6133 138.774 48.668V49.074H134.476C134.504 49.6527 134.672 50.124 134.98 50.488C135.288 50.8427 135.708 51.02 136.24 51.02C136.847 51.02 137.356 50.7773 137.766 50.292L138.438 51.132C137.832 51.8227 137.052 52.168 136.1 52.168ZM137.416 48.08C137.407 47.5853 137.281 47.1513 137.038 46.778C136.805 46.3953 136.441 46.204 135.946 46.204C135.47 46.204 135.111 46.3953 134.868 46.778C134.626 47.1607 134.49 47.5947 134.462 48.08H137.416ZM146.679 52H145.307V47.59L143.641 52H143.081L141.429 47.59V52H140.029V45.238H141.821L143.361 49.312L144.901 45.238H146.679V52ZM156.223 51.202C155.784 51.846 155.187 52.168 154.431 52.168C153.675 52.168 153.096 51.8087 152.695 51.09V54.576H151.295V45.238H152.695V46.134C152.891 45.798 153.143 45.5367 153.451 45.35C153.759 45.1633 154.085 45.07 154.431 45.07C155.196 45.07 155.798 45.3873 156.237 46.022C156.675 46.6567 156.895 47.52 156.895 48.612C156.895 49.6947 156.671 50.558 156.223 51.202ZM154.011 50.936C154.477 50.936 154.832 50.7213 155.075 50.292C155.327 49.8533 155.453 49.2933 155.453 48.612C155.453 47.9307 155.327 47.3753 155.075 46.946C154.832 46.5167 154.477 46.302 154.011 46.302C153.749 46.302 153.493 46.3907 153.241 46.568C152.998 46.7453 152.816 46.9647 152.695 47.226V49.998C152.816 50.2593 152.998 50.4833 153.241 50.67C153.493 50.8473 153.749 50.936 154.011 50.936ZM163.071 52H161.685V51.314C161.275 51.8833 160.682 52.168 159.907 52.168C159.329 52.168 158.839 51.9673 158.437 51.566C158.036 51.1553 157.835 50.6047 157.835 49.914C157.835 49.2233 158.036 48.6867 158.437 48.304C158.839 47.912 159.329 47.716 159.907 47.716C160.701 47.716 161.293 47.9867 161.685 48.528V47.548C161.685 47.1373 161.569 46.82 161.335 46.596C161.111 46.372 160.789 46.26 160.369 46.26C159.753 46.26 159.193 46.5167 158.689 47.03L158.143 46.05C158.797 45.3967 159.623 45.07 160.621 45.07C161.368 45.07 161.961 45.2613 162.399 45.644C162.847 46.0173 163.071 46.596 163.071 47.38V52ZM160.411 51.202C160.971 51.202 161.396 50.9547 161.685 50.46V49.438C161.555 49.2047 161.373 49.0227 161.139 48.892C160.906 48.752 160.663 48.682 160.411 48.682C160.057 48.682 159.772 48.7987 159.557 49.032C159.343 49.2653 159.235 49.5687 159.235 49.942C159.235 50.3153 159.343 50.6187 159.557 50.852C159.772 51.0853 160.057 51.202 160.411 51.202ZM166.807 52.168C165.649 52.168 164.763 51.804 164.147 51.076L164.833 50.222C165.318 50.7633 165.967 51.034 166.779 51.034C167.199 51.034 167.525 50.9453 167.759 50.768C168.001 50.5907 168.123 50.3527 168.123 50.054C168.123 49.4473 167.651 49.144 166.709 49.144H165.449V48.024H166.681C167.101 48.024 167.427 47.9447 167.661 47.786C167.903 47.618 168.025 47.3847 168.025 47.086C168.025 46.8153 167.899 46.6007 167.647 46.442C167.404 46.2833 167.082 46.204 166.681 46.204C165.943 46.204 165.365 46.4653 164.945 46.988L164.231 46.148C164.847 45.4293 165.649 45.07 166.639 45.07C167.488 45.07 168.165 45.2333 168.669 45.56C169.173 45.8867 169.425 46.3347 169.425 46.904C169.425 47.3053 169.271 47.66 168.963 47.968C168.664 48.2667 168.305 48.458 167.885 48.542C168.323 48.5887 168.706 48.7567 169.033 49.046C169.369 49.3353 169.537 49.7087 169.537 50.166C169.537 50.754 169.289 51.2347 168.795 51.608C168.309 51.9813 167.647 52.168 166.807 52.168ZM170.258 52.168V50.978C170.547 50.978 170.771 50.824 170.93 50.516C171.098 50.208 171.219 49.6293 171.294 48.78L171.602 45.238H175.97V52H174.584V46.456H172.876L172.694 48.892C172.601 50.0867 172.353 50.9313 171.952 51.426C171.551 51.9207 170.986 52.168 170.258 52.168ZM178.985 52H177.627V45.238H179.027V49.48L181.337 45.238H182.765V52H181.379V47.618L178.985 52ZM184.226 45.238H185.612V47.226C185.612 47.6087 185.705 47.884 185.892 48.052C186.078 48.2107 186.386 48.29 186.816 48.29C187.264 48.29 187.646 48.2153 187.964 48.066V45.238H189.35V52H187.964V49.158C187.544 49.4007 187.016 49.522 186.382 49.522C185.598 49.522 185.042 49.3727 184.716 49.074C184.389 48.7753 184.226 48.318 184.226 47.702V45.238ZM192.398 52H190.998V45.238H192.398V47.898H194.75V45.238H196.136V52H194.75V49.116H192.398V52ZM197.793 45.238H199.193V47.716H200.691C201.428 47.716 201.988 47.9213 202.371 48.332C202.763 48.7427 202.959 49.256 202.959 49.872C202.959 50.4787 202.758 50.9873 202.357 51.398C201.965 51.7993 201.409 52 200.691 52H197.793V45.238ZM200.523 48.892H199.193V50.824H200.523C200.84 50.824 201.087 50.7353 201.265 50.558C201.442 50.3807 201.531 50.1473 201.531 49.858C201.531 49.578 201.442 49.3493 201.265 49.172C201.087 48.9853 200.84 48.892 200.523 48.892ZM205.213 52H203.827V45.238H205.213V52ZM211.897 52H210.371L209.013 49.536L207.655 52H206.129L208.145 48.556L206.241 45.238H207.767L209.013 47.562L210.259 45.238H211.785L209.881 48.556L211.897 52ZM28.17 69H26.574L28.03 66.34C27.6473 66.2373 27.3253 66.018 27.064 65.682C26.8027 65.3367 26.672 64.898 26.672 64.366C26.672 63.75 26.8727 63.2413 27.274 62.84C27.6753 62.4387 28.2307 62.238 28.94 62.238H31.922V69H30.522V66.508H29.402L28.17 69ZM29.108 65.346H30.522V63.4H29.108C28.7907 63.4 28.5387 63.4887 28.352 63.666C28.1747 63.8433 28.086 64.0767 28.086 64.366C28.086 64.6553 28.1747 64.8933 28.352 65.08C28.5293 65.2573 28.7813 65.346 29.108 65.346ZM35.6659 69.168C34.5086 69.168 33.6219 68.804 33.0059 68.076L33.6919 67.222C34.1772 67.7633 34.8259 68.034 35.6379 68.034C36.0579 68.034 36.3846 67.9453 36.6179 67.768C36.8606 67.5907 36.9819 67.3527 36.9819 67.054C36.9819 66.4473 36.5106 66.144 35.5679 66.144H34.3079V65.024H35.5399C35.9599 65.024 36.2866 64.9447 36.5199 64.786C36.7626 64.618 36.8839 64.3847 36.8839 64.086C36.8839 63.8153 36.7579 63.6007 36.5059 63.442C36.2632 63.2833 35.9412 63.204 35.5399 63.204C34.8026 63.204 34.2239 63.4653 33.8039 63.988L33.0899 63.148C33.7059 62.4293 34.5086 62.07 35.4979 62.07C36.3472 62.07 37.0239 62.2333 37.5279 62.56C38.0319 62.8867 38.2839 63.3347 38.2839 63.904C38.2839 64.3053 38.1299 64.66 37.8219 64.968C37.5232 65.2667 37.1639 65.458 36.7439 65.542C37.1826 65.5887 37.5652 65.7567 37.8919 66.046C38.2279 66.3353 38.3959 66.7087 38.3959 67.166C38.3959 67.754 38.1486 68.2347 37.6539 68.608C37.1686 68.9813 36.5059 69.168 35.6659 69.168ZM39.6912 62.238H41.0912V64.716H42.5892C43.3266 64.716 43.8866 64.9213 44.2692 65.332C44.6612 65.7427 44.8572 66.256 44.8572 66.872C44.8572 67.4787 44.6566 67.9873 44.2552 68.398C43.8632 68.7993 43.3079 69 42.5892 69H39.6912V62.238ZM42.4212 65.892H41.0912V67.824H42.4212C42.7386 67.824 42.9859 67.7353 43.1632 67.558C43.3406 67.3807 43.4292 67.1473 43.4292 66.858C43.4292 66.578 43.3406 66.3493 43.1632 66.172C42.9859 65.9853 42.7386 65.892 42.4212 65.892ZM47.1112 69H45.7252V62.238H47.1112V69ZM54.2154 69H52.5774L50.9814 66.172L50.1694 67.264V69H48.7694V62.238H50.1694V65.556L52.5494 62.238H54.1734L51.9334 65.276L54.2154 69ZM59.7904 68.146C59.2771 68.8273 58.5631 69.168 57.6484 69.168C56.7338 69.168 56.0151 68.8273 55.4924 68.146C54.9791 67.4647 54.7224 66.62 54.7224 65.612C54.7224 64.604 54.9791 63.764 55.4924 63.092C56.0058 62.4107 56.7244 62.07 57.6484 62.07C58.5724 62.07 59.2911 62.4107 59.8044 63.092C60.3178 63.764 60.5744 64.604 60.5744 65.612C60.5744 66.62 60.3131 67.4647 59.7904 68.146ZM56.5424 67.264C56.7944 67.712 57.1631 67.936 57.6484 67.936C58.1338 67.936 58.5024 67.712 58.7544 67.264C59.0064 66.816 59.1324 66.2653 59.1324 65.612C59.1324 64.9587 59.0064 64.4127 58.7544 63.974C58.5024 63.526 58.1338 63.302 57.6484 63.302C57.1631 63.302 56.7944 63.526 56.5424 63.974C56.2904 64.4127 56.1644 64.9587 56.1644 65.612C56.1644 66.2653 56.2904 66.816 56.5424 67.264ZM65.1004 69H61.8944V62.238H65.0164C65.679 62.238 66.183 62.4013 66.5284 62.728C66.883 63.0453 67.0604 63.456 67.0604 63.96C67.0604 64.352 66.953 64.6833 66.7384 64.954C66.533 65.2153 66.253 65.3973 65.8984 65.5C66.2717 65.584 66.5797 65.7847 66.8224 66.102C67.065 66.41 67.1864 66.7647 67.1864 67.166C67.1864 67.7167 67.009 68.16 66.6544 68.496C66.309 68.832 65.791 69 65.1004 69ZM64.8064 67.824C65.441 67.824 65.7584 67.544 65.7584 66.984C65.7584 66.7413 65.6744 66.536 65.5064 66.368C65.3477 66.2 65.1144 66.116 64.8064 66.116H63.2944V67.824H64.8064ZM64.7504 64.954C65.329 64.954 65.6184 64.6973 65.6184 64.184C65.6184 63.9507 65.5437 63.764 65.3944 63.624C65.2544 63.4747 65.0397 63.4 64.7504 63.4H63.2944V64.954H64.7504ZM76.4154 68.146C75.9021 68.8273 75.1881 69.168 74.2734 69.168C73.3588 69.168 72.6401 68.8273 72.1174 68.146C71.6041 67.4647 71.3474 66.62 71.3474 65.612C71.3474 64.604 71.6041 63.764 72.1174 63.092C72.6308 62.4107 73.3494 62.07 74.2734 62.07C75.1974 62.07 75.9161 62.4107 76.4294 63.092C76.9428 63.764 77.1994 64.604 77.1994 65.612C77.1994 66.62 76.9381 67.4647 76.4154 68.146ZM73.1674 67.264C73.4194 67.712 73.7881 67.936 74.2734 67.936C74.7588 67.936 75.1274 67.712 75.3794 67.264C75.6314 66.816 75.7574 66.2653 75.7574 65.612C75.7574 64.9587 75.6314 64.4127 75.3794 63.974C75.1274 63.526 74.7588 63.302 74.2734 63.302C73.7881 63.302 73.4194 63.526 73.1674 63.974C72.9154 64.4127 72.7894 64.9587 72.7894 65.612C72.7894 66.2653 72.9154 66.816 73.1674 67.264ZM81.0954 67.936C81.5807 67.936 81.9494 67.712 82.2014 67.264C82.4534 66.8067 82.5794 66.2467 82.5794 65.584C82.5794 64.9493 82.4534 64.4127 82.2014 63.974C81.9494 63.526 81.5807 63.302 81.0954 63.302C80.6194 63.302 80.2554 63.526 80.0034 63.974C79.7514 64.4127 79.6254 64.9493 79.6254 65.584C79.6254 66.2467 79.7514 66.8067 80.0034 67.264C80.2554 67.712 80.6194 67.936 81.0954 67.936ZM81.0954 69.168C80.162 69.168 79.4434 68.8133 78.9394 68.104C78.4354 67.3853 78.1834 66.452 78.1834 65.304C78.1834 63.5773 78.3934 62.3593 78.8134 61.65C79.2427 60.9407 80.008 60.4927 81.1094 60.306C81.604 60.222 81.9447 60.1333 82.1314 60.04C82.3274 59.9467 82.4254 59.8207 82.4254 59.662H83.8114C83.8114 59.97 83.7367 60.2407 83.5874 60.474C83.438 60.698 83.228 60.8753 82.9574 61.006C82.696 61.1367 82.4534 61.2347 82.2294 61.3C82.0054 61.3653 81.7487 61.4213 81.4594 61.468C80.1714 61.6733 79.4714 62.2287 79.3594 63.134C79.5554 62.8073 79.826 62.5507 80.1714 62.364C80.5167 62.168 80.904 62.07 81.3334 62.07C82.164 62.07 82.8174 62.4107 83.2934 63.092C83.7787 63.7733 84.0214 64.6087 84.0214 65.598C84.0214 66.5967 83.7647 67.4413 83.2514 68.132C82.738 68.8227 82.0194 69.168 81.0954 69.168ZM85.1446 71.646L85.3546 70.414C85.476 70.4793 85.6253 70.512 85.8026 70.512C86.176 70.512 86.4326 70.3253 86.5726 69.952L86.8526 69.14L84.5846 62.238H86.0686L87.5666 67.32L89.0786 62.238H90.5626L87.8886 70.274C87.7113 70.8153 87.4593 71.1933 87.1326 71.408C86.8153 71.632 86.4046 71.744 85.9006 71.744C85.6113 71.744 85.3593 71.7113 85.1446 71.646ZM96.0883 68.258C95.6029 68.8647 94.9169 69.168 94.0303 69.168C93.1436 69.168 92.4249 68.8367 91.8743 68.174C91.3329 67.502 91.0623 66.648 91.0623 65.612C91.0623 64.576 91.3329 63.7267 91.8743 63.064C92.4156 62.4013 93.1343 62.07 94.0303 62.07C94.9169 62.07 95.6029 62.3733 96.0883 62.98L95.3743 63.932C95.0476 63.512 94.6463 63.302 94.1703 63.302C93.6569 63.302 93.2509 63.5213 92.9523 63.96C92.6536 64.3987 92.5043 64.9493 92.5043 65.612C92.5043 66.284 92.6536 66.8393 92.9523 67.278C93.2509 67.7167 93.6569 67.936 94.1703 67.936C94.6369 67.936 95.0383 67.726 95.3743 67.306L96.0883 68.258ZM96.6348 69.168V67.978C96.9241 67.978 97.1481 67.824 97.3068 67.516C97.4748 67.208 97.5961 66.6293 97.6708 65.78L97.9788 62.238H102.347V69H100.961V63.456H99.2528L99.0708 65.892C98.9775 67.0867 98.7301 67.9313 98.3288 68.426C97.9275 68.9207 97.3628 69.168 96.6348 69.168ZM108.89 69H107.504V68.314C107.093 68.8833 106.5 69.168 105.726 69.168C105.147 69.168 104.657 68.9673 104.256 68.566C103.854 68.1553 103.654 67.6047 103.654 66.914C103.654 66.2233 103.854 65.6867 104.256 65.304C104.657 64.912 105.147 64.716 105.726 64.716C106.519 64.716 107.112 64.9867 107.504 65.528V64.548C107.504 64.1373 107.387 63.82 107.154 63.596C106.93 63.372 106.608 63.26 106.188 63.26C105.572 63.26 105.012 63.5167 104.508 64.03L103.962 63.05C104.615 62.3967 105.441 62.07 106.44 62.07C107.186 62.07 107.779 62.2613 108.218 62.644C108.666 63.0173 108.89 63.596 108.89 64.38V69ZM106.23 68.202C106.79 68.202 107.214 67.9547 107.504 67.46V66.438C107.373 66.2047 107.191 66.0227 106.958 65.892C106.724 65.752 106.482 65.682 106.23 65.682C105.875 65.682 105.59 65.7987 105.376 66.032C105.161 66.2653 105.054 66.5687 105.054 66.942C105.054 67.3153 105.161 67.6187 105.376 67.852C105.59 68.0853 105.875 68.202 106.23 68.202ZM113.745 69H110.539V62.238H113.661C114.324 62.238 114.828 62.4013 115.173 62.728C115.528 63.0453 115.705 63.456 115.705 63.96C115.705 64.352 115.598 64.6833 115.383 64.954C115.178 65.2153 114.898 65.3973 114.543 65.5C114.916 65.584 115.224 65.7847 115.467 66.102C115.71 66.41 115.831 66.7647 115.831 67.166C115.831 67.7167 115.654 68.16 115.299 68.496C114.954 68.832 114.436 69 113.745 69ZM113.451 67.824C114.086 67.824 114.403 67.544 114.403 66.984C114.403 66.7413 114.319 66.536 114.151 66.368C113.992 66.2 113.759 66.116 113.451 66.116H111.939V67.824H113.451ZM113.395 64.954C113.974 64.954 114.263 64.6973 114.263 64.184C114.263 63.9507 114.188 63.764 114.039 63.624C113.899 63.4747 113.684 63.4 113.395 63.4H111.939V64.954H113.395ZM116.787 69.168V67.978C117.076 67.978 117.3 67.824 117.459 67.516C117.627 67.208 117.748 66.6293 117.823 65.78L118.131 62.238H122.499V69H121.113V63.456H119.405L119.223 65.892C119.13 67.0867 118.882 67.9313 118.481 68.426C118.08 68.9207 117.515 69.168 116.787 69.168ZM125.514 69H124.156V62.238H125.556V66.48L127.866 62.238H129.294V69H127.908V64.618L125.514 69ZM134.157 69H130.951V62.238H134.073C134.736 62.238 135.24 62.4013 135.585 62.728C135.94 63.0453 136.117 63.456 136.117 63.96C136.117 64.352 136.01 64.6833 135.795 64.954C135.59 65.2153 135.31 65.3973 134.955 65.5C135.328 65.584 135.636 65.7847 135.879 66.102C136.122 66.41 136.243 66.7647 136.243 67.166C136.243 67.7167 136.066 68.16 135.711 68.496C135.366 68.832 134.848 69 134.157 69ZM133.863 67.824C134.498 67.824 134.815 67.544 134.815 66.984C134.815 66.7413 134.731 66.536 134.563 66.368C134.404 66.2 134.171 66.116 133.863 66.116H132.351V67.824H133.863ZM133.807 64.954C134.386 64.954 134.675 64.6973 134.675 64.184C134.675 63.9507 134.6 63.764 134.451 63.624C134.311 63.4747 134.096 63.4 133.807 63.4H132.351V64.954H133.807ZM142.659 69H141.273V68.314C140.863 68.8833 140.27 69.168 139.495 69.168C138.917 69.168 138.427 68.9673 138.025 68.566C137.624 68.1553 137.423 67.6047 137.423 66.914C137.423 66.2233 137.624 65.6867 138.025 65.304C138.427 64.912 138.917 64.716 139.495 64.716C140.289 64.716 140.881 64.9867 141.273 65.528V64.548C141.273 64.1373 141.157 63.82 140.923 63.596C140.699 63.372 140.377 63.26 139.957 63.26C139.341 63.26 138.781 63.5167 138.277 64.03L137.731 63.05C138.385 62.3967 139.211 62.07 140.209 62.07C140.956 62.07 141.549 62.2613 141.987 62.644C142.435 63.0173 142.659 63.596 142.659 64.38V69ZM139.999 68.202C140.559 68.202 140.984 67.9547 141.273 67.46V66.438C141.143 66.2047 140.961 66.0227 140.727 65.892C140.494 65.752 140.251 65.682 139.999 65.682C139.645 65.682 139.36 65.7987 139.145 66.032C138.931 66.2653 138.823 66.5687 138.823 66.942C138.823 67.3153 138.931 67.6187 139.145 67.852C139.36 68.0853 139.645 68.202 139.999 68.202ZM147.01 69.168C146.086 69.168 145.349 68.8413 144.798 68.188C144.248 67.5347 143.972 66.676 143.972 65.612C143.972 64.604 144.234 63.764 144.756 63.092C145.288 62.4107 145.993 62.07 146.87 62.07C147.757 62.07 148.448 62.406 148.942 63.078C149.437 63.75 149.684 64.6133 149.684 65.668V66.074H145.386C145.414 66.6527 145.582 67.124 145.89 67.488C146.198 67.8427 146.618 68.02 147.15 68.02C147.757 68.02 148.266 67.7773 148.676 67.292L149.348 68.132C148.742 68.8227 147.962 69.168 147.01 69.168ZM148.326 65.08C148.317 64.5853 148.191 64.1513 147.948 63.778C147.715 63.3953 147.351 63.204 146.856 63.204C146.38 63.204 146.021 63.3953 145.778 63.778C145.536 64.1607 145.4 64.5947 145.372 65.08H148.326ZM153.291 69H151.891V63.456H150.365V62.238H154.817V63.456H153.291V69ZM160.255 69H158.855V62.238H160.255V64.898H162.607V62.238H163.993V69H162.607V66.116H160.255V69ZM170.536 69H169.15V68.314C168.74 68.8833 168.147 69.168 167.372 69.168C166.794 69.168 166.304 68.9673 165.902 68.566C165.501 68.1553 165.3 67.6047 165.3 66.914C165.3 66.2233 165.501 65.6867 165.902 65.304C166.304 64.912 166.794 64.716 167.372 64.716C168.166 64.716 168.758 64.9867 169.15 65.528V64.548C169.15 64.1373 169.034 63.82 168.8 63.596C168.576 63.372 168.254 63.26 167.834 63.26C167.218 63.26 166.658 63.5167 166.154 64.03L165.608 63.05C166.262 62.3967 167.088 62.07 168.086 62.07C168.833 62.07 169.426 62.2613 169.864 62.644C170.312 63.0173 170.536 63.596 170.536 64.38V69ZM167.876 68.202C168.436 68.202 168.861 67.9547 169.15 67.46V66.438C169.02 66.2047 168.838 66.0227 168.604 65.892C168.371 65.752 168.128 65.682 167.876 65.682C167.522 65.682 167.237 65.7987 167.022 66.032C166.808 66.2653 166.7 66.5687 166.7 66.942C166.7 67.3153 166.808 67.6187 167.022 67.852C167.237 68.0853 167.522 68.202 167.876 68.202ZM171.611 69.168V67.978C171.901 67.978 172.125 67.824 172.283 67.516C172.451 67.208 172.573 66.6293 172.647 65.78L172.955 62.238H177.323V69H175.937V63.456H174.229L174.047 65.892C173.954 67.0867 173.707 67.9313 173.305 68.426C172.904 68.9207 172.339 69.168 171.611 69.168ZM180.338 69H178.98V62.238H180.38V66.48L182.69 62.238H184.118V69H182.732V64.618L180.338 69ZM185.579 62.238H186.965V64.226C186.965 64.6087 187.059 64.884 187.245 65.052C187.432 65.2107 187.74 65.29 188.169 65.29C188.617 65.29 189 65.2153 189.317 65.066V62.238H190.703V69H189.317V66.158C188.897 66.4007 188.37 66.522 187.735 66.522C186.951 66.522 186.396 66.3727 186.069 66.074C185.743 65.7753 185.579 65.318 185.579 64.702V62.238ZM193.709 69H192.351V62.238H193.751V66.48L196.061 62.238H197.489V69H196.103V64.618L193.709 69ZM201.848 69.168C200.924 69.168 200.187 68.8413 199.636 68.188C199.086 67.5347 198.81 66.676 198.81 65.612C198.81 64.604 199.072 63.764 199.594 63.092C200.126 62.4107 200.831 62.07 201.708 62.07C202.595 62.07 203.286 62.406 203.78 63.078C204.275 63.75 204.522 64.6133 204.522 65.668V66.074H200.224C200.252 66.6527 200.42 67.124 200.728 67.488C201.036 67.8427 201.456 68.02 201.988 68.02C202.595 68.02 203.104 67.7773 203.514 67.292L204.186 68.132C203.58 68.8227 202.8 69.168 201.848 69.168ZM203.164 65.08C203.155 64.5853 203.029 64.1513 202.786 63.778C202.553 63.3953 202.189 63.204 201.694 63.204C201.218 63.204 200.859 63.3953 200.616 63.778C200.374 64.1607 200.238 64.5947 200.21 65.08H203.164ZM31.712 86H30.326V85.314C29.9153 85.8833 29.3227 86.168 28.548 86.168C27.9693 86.168 27.4793 85.9673 27.078 85.566C26.6767 85.1553 26.476 84.6047 26.476 83.914C26.476 83.2233 26.6767 82.6867 27.078 82.304C27.4793 81.912 27.9693 81.716 28.548 81.716C29.3413 81.716 29.934 81.9867 30.326 82.528V81.548C30.326 81.1373 30.2093 80.82 29.976 80.596C29.752 80.372 29.43 80.26 29.01 80.26C28.394 80.26 27.834 80.5167 27.33 81.03L26.784 80.05C27.4373 79.3967 28.2633 79.07 29.262 79.07C30.0087 79.07 30.6013 79.2613 31.04 79.644C31.488 80.0173 31.712 80.596 31.712 81.38V86ZM29.052 85.202C29.612 85.202 30.0367 84.9547 30.326 84.46V83.438C30.1953 83.2047 30.0133 83.0227 29.78 82.892C29.5467 82.752 29.304 82.682 29.052 82.682C28.6973 82.682 28.4127 82.7987 28.198 83.032C27.9833 83.2653 27.876 83.5687 27.876 83.942C27.876 84.3153 27.9833 84.6187 28.198 84.852C28.4127 85.0853 28.6973 85.202 29.052 85.202ZM32.7872 86.168V84.978C33.0765 84.978 33.3005 84.824 33.4592 84.516C33.6272 84.208 33.7485 83.6293 33.8232 82.78L34.1312 79.238H38.4992V86H37.1132V80.456H35.4052L35.2232 82.892C35.1298 84.0867 34.8825 84.9313 34.4812 85.426C34.0798 85.9207 33.5152 86.168 32.7872 86.168ZM42.1581 79.07C42.8021 79.07 43.3107 79.4247 43.6841 80.134V76.662H45.0841V80.134C45.4574 79.4247 45.9661 79.07 46.6101 79.07C47.2821 79.07 47.8094 79.3873 48.1921 80.022C48.5841 80.6567 48.7801 81.52 48.7801 82.612C48.7801 83.6947 48.5841 84.558 48.1921 85.202C47.8094 85.846 47.2821 86.168 46.6101 86.168C45.9567 86.168 45.4481 85.8087 45.0841 85.09V88.576H43.6841V85.09C43.5161 85.4353 43.2967 85.7013 43.0261 85.888C42.7554 86.0747 42.4661 86.168 42.1581 86.168C41.4861 86.168 40.9541 85.8507 40.5621 85.216C40.1794 84.572 39.9881 83.704 39.9881 82.612C39.9881 81.52 40.1794 80.6567 40.5621 80.022C40.9541 79.3873 41.4861 79.07 42.1581 79.07ZM42.6061 80.302C42.2234 80.302 41.9294 80.5167 41.7241 80.946C41.5187 81.3753 41.4161 81.9307 41.4161 82.612C41.4161 83.284 41.5234 83.8393 41.7381 84.278C41.9527 84.7167 42.2514 84.936 42.6341 84.936C42.8394 84.936 43.0401 84.8473 43.2361 84.67C43.4321 84.4833 43.5814 84.2593 43.6841 83.998V81.226C43.5814 80.9647 43.4274 80.7453 43.2221 80.568C43.0261 80.3907 42.8207 80.302 42.6061 80.302ZM46.1341 84.936C46.5167 84.936 46.8154 84.7167 47.0301 84.278C47.2447 83.8393 47.3521 83.284 47.3521 82.612C47.3521 81.9307 47.2494 81.3753 47.0441 80.946C46.8387 80.5167 46.5447 80.302 46.1621 80.302C45.9474 80.302 45.7374 80.3907 45.5321 80.568C45.3361 80.7453 45.1867 80.9647 45.0841 81.226V83.998C45.1867 84.2593 45.3361 84.4833 45.5321 84.67C45.7281 84.8473 45.9287 84.936 46.1341 84.936ZM55.1456 86H53.7596V85.314C53.3489 85.8833 52.7563 86.168 51.9816 86.168C51.4029 86.168 50.9129 85.9673 50.5116 85.566C50.1103 85.1553 49.9096 84.6047 49.9096 83.914C49.9096 83.2233 50.1103 82.6867 50.5116 82.304C50.9129 81.912 51.4029 81.716 51.9816 81.716C52.7749 81.716 53.3676 81.9867 53.7596 82.528V81.548C53.7596 81.1373 53.6429 80.82 53.4096 80.596C53.1856 80.372 52.8636 80.26 52.4436 80.26C51.8276 80.26 51.2676 80.5167 50.7636 81.03L50.2176 80.05C50.8709 79.3967 51.6969 79.07 52.6956 79.07C53.4423 79.07 54.0349 79.2613 54.4736 79.644C54.9216 80.0173 55.1456 80.596 55.1456 81.38V86ZM52.4856 85.202C53.0456 85.202 53.4703 84.9547 53.7596 84.46V83.438C53.6289 83.2047 53.4469 83.0227 53.2136 82.892C52.9803 82.752 52.7376 82.682 52.4856 82.682C52.1309 82.682 51.8463 82.7987 51.6316 83.032C51.4169 83.2653 51.3096 83.5687 51.3096 83.942C51.3096 84.3153 51.4169 84.6187 51.6316 84.852C51.8463 85.0853 52.1309 85.202 52.4856 85.202ZM60.0008 86H56.7948V79.238H59.9168C60.5794 79.238 61.0834 79.4013 61.4288 79.728C61.7834 80.0453 61.9608 80.456 61.9608 80.96C61.9608 81.352 61.8534 81.6833 61.6388 81.954C61.4334 82.2153 61.1534 82.3973 60.7988 82.5C61.1721 82.584 61.4801 82.7847 61.7228 83.102C61.9654 83.41 62.0868 83.7647 62.0868 84.166C62.0868 84.7167 61.9094 85.16 61.5548 85.496C61.2094 85.832 60.6914 86 60.0008 86ZM59.7068 84.824C60.3414 84.824 60.6588 84.544 60.6588 83.984C60.6588 83.7413 60.5748 83.536 60.4068 83.368C60.2481 83.2 60.0148 83.116 59.7068 83.116H58.1948V84.824H59.7068ZM59.6508 81.954C60.2294 81.954 60.5188 81.6973 60.5188 81.184C60.5188 80.9507 60.4441 80.764 60.2948 80.624C60.1548 80.4747 59.9401 80.4 59.6508 80.4H58.1948V81.954H59.6508ZM64.975 86H63.617V79.238H65.017V83.48L67.327 79.238H68.755V86H67.369V81.618L64.975 86ZM72.7639 86H71.3639V80.456H69.8379V79.238H74.2899V80.456H72.7639V86ZM80.0932 85.146C79.5798 85.8273 78.8658 86.168 77.9512 86.168C77.0365 86.168 76.3178 85.8273 75.7952 85.146C75.2818 84.4647 75.0252 83.62 75.0252 82.612C75.0252 81.604 75.2818 80.764 75.7952 80.092C76.3085 79.4107 77.0272 79.07 77.9512 79.07C78.8752 79.07 79.5938 79.4107 80.1072 80.092C80.6205 80.764 80.8772 81.604 80.8772 82.612C80.8772 83.62 80.6158 84.4647 80.0932 85.146ZM76.8452 84.264C77.0972 84.712 77.4658 84.936 77.9512 84.936C78.4365 84.936 78.8052 84.712 79.0572 84.264C79.3092 83.816 79.4352 83.2653 79.4352 82.612C79.4352 81.9587 79.3092 81.4127 79.0572 80.974C78.8052 80.526 78.4365 80.302 77.9512 80.302C77.4658 80.302 77.0972 80.526 76.8452 80.974C76.5932 81.4127 76.4672 81.9587 76.4672 82.612C76.4672 83.2653 76.5932 83.816 76.8452 84.264ZM85.4031 86H82.1971V79.238H85.3191C85.9818 79.238 86.4858 79.4013 86.8311 79.728C87.1858 80.0453 87.3631 80.456 87.3631 80.96C87.3631 81.352 87.2558 81.6833 87.0411 81.954C86.8358 82.2153 86.5558 82.3973 86.2011 82.5C86.5744 82.584 86.8824 82.7847 87.1251 83.102C87.3678 83.41 87.4891 83.7647 87.4891 84.166C87.4891 84.7167 87.3118 85.16 86.9571 85.496C86.6118 85.832 86.0938 86 85.4031 86ZM85.1091 84.824C85.7438 84.824 86.0611 84.544 86.0611 83.984C86.0611 83.7413 85.9771 83.536 85.8091 83.368C85.6504 83.2 85.4171 83.116 85.1091 83.116H83.5971V84.824H85.1091ZM85.0531 81.954C85.6318 81.954 85.9211 81.6973 85.9211 81.184C85.9211 80.9507 85.8464 80.764 85.6971 80.624C85.5571 80.4747 85.3424 80.4 85.0531 80.4H83.5971V81.954H85.0531ZM93.3862 86H91.9862V79.238H93.3862V81.898H95.7382V79.238H97.1242V86H95.7382V83.116H93.3862V86ZM101.483 86.168C100.559 86.168 99.8217 85.8413 99.2711 85.188C98.7204 84.5347 98.4451 83.676 98.4451 82.612C98.4451 81.604 98.7064 80.764 99.2291 80.092C99.7611 79.4107 100.466 79.07 101.343 79.07C102.23 79.07 102.92 79.406 103.415 80.078C103.91 80.75 104.157 81.6133 104.157 82.668V83.074H99.8591C99.8871 83.6527 100.055 84.124 100.363 84.488C100.671 84.8427 101.091 85.02 101.623 85.02C102.23 85.02 102.738 84.7773 103.149 84.292L103.821 85.132C103.214 85.8227 102.435 86.168 101.483 86.168ZM102.799 82.08C102.79 81.5853 102.664 81.1513 102.421 80.778C102.188 80.3953 101.824 80.204 101.329 80.204C100.853 80.204 100.494 80.3953 100.251 80.778C100.008 81.1607 99.8731 81.5947 99.8451 82.08H102.799ZM110.144 85.146C109.631 85.8273 108.917 86.168 108.002 86.168C107.087 86.168 106.369 85.8273 105.846 85.146C105.333 84.4647 105.076 83.62 105.076 82.612C105.076 81.604 105.333 80.764 105.846 80.092C106.359 79.4107 107.078 79.07 108.002 79.07C108.926 79.07 109.645 79.4107 110.158 80.092C110.671 80.764 110.928 81.604 110.928 82.612C110.928 83.62 110.667 84.4647 110.144 85.146ZM106.896 84.264C107.148 84.712 107.517 84.936 108.002 84.936C108.487 84.936 108.856 84.712 109.108 84.264C109.36 83.816 109.486 83.2653 109.486 82.612C109.486 81.9587 109.36 81.4127 109.108 80.974C108.856 80.526 108.487 80.302 108.002 80.302C107.517 80.302 107.148 80.526 106.896 80.974C106.644 81.4127 106.518 81.9587 106.518 82.612C106.518 83.2653 106.644 83.816 106.896 84.264ZM111.674 87.722V84.894C111.991 84.8287 112.225 84.6653 112.374 84.404C112.523 84.1427 112.635 83.6013 112.71 82.78L113.018 79.238H117.386V84.782H118.114V87.722H116.714V86H113.06V87.722H111.674ZM114.292 80.456L114.11 82.892C114.045 83.732 113.793 84.362 113.354 84.782H116V80.456H114.292ZM120.51 86H119.152V79.238H120.552V83.48L122.862 79.238H124.29V86H122.904V81.618L120.51 86ZM127.347 86H125.947V79.238H127.347V81.898H129.699V79.238H131.085V86H129.699V83.116H127.347V86ZM137.628 86H136.242V85.314C135.831 85.8833 135.239 86.168 134.464 86.168C133.885 86.168 133.395 85.9673 132.994 85.566C132.593 85.1553 132.392 84.6047 132.392 83.914C132.392 83.2233 132.593 82.6867 132.994 82.304C133.395 81.912 133.885 81.716 134.464 81.716C135.257 81.716 135.85 81.9867 136.242 82.528V81.548C136.242 81.1373 136.125 80.82 135.892 80.596C135.668 80.372 135.346 80.26 134.926 80.26C134.31 80.26 133.75 80.5167 133.246 81.03L132.7 80.05C133.353 79.3967 134.179 79.07 135.178 79.07C135.925 79.07 136.517 79.2613 136.956 79.644C137.404 80.0173 137.628 80.596 137.628 81.38V86ZM134.968 85.202C135.528 85.202 135.953 84.9547 136.242 84.46V83.438C136.111 83.2047 135.929 83.0227 135.696 82.892C135.463 82.752 135.22 82.682 134.968 82.682C134.613 82.682 134.329 82.7987 134.114 83.032C133.899 83.2653 133.792 83.5687 133.792 83.942C133.792 84.3153 133.899 84.6187 134.114 84.852C134.329 85.0853 134.613 85.202 134.968 85.202ZM144.723 86H143.085L141.489 83.172L140.677 84.264V86H139.277V79.238H140.677V82.556L143.057 79.238H144.681L142.441 82.276L144.723 86ZM150.298 85.146C149.785 85.8273 149.071 86.168 148.156 86.168C147.242 86.168 146.523 85.8273 146 85.146C145.487 84.4647 145.23 83.62 145.23 82.612C145.23 81.604 145.487 80.764 146 80.092C146.514 79.4107 147.232 79.07 148.156 79.07C149.08 79.07 149.799 79.4107 150.312 80.092C150.826 80.764 151.082 81.604 151.082 82.612C151.082 83.62 150.821 84.4647 150.298 85.146ZM147.05 84.264C147.302 84.712 147.671 84.936 148.156 84.936C148.642 84.936 149.01 84.712 149.262 84.264C149.514 83.816 149.64 83.2653 149.64 82.612C149.64 81.9587 149.514 81.4127 149.262 80.974C149.01 80.526 148.642 80.302 148.156 80.302C147.671 80.302 147.302 80.526 147.05 80.974C146.798 81.4127 146.672 81.9587 146.672 82.612C146.672 83.2653 146.798 83.816 147.05 84.264ZM155.608 86H152.402V79.238H155.524C156.187 79.238 156.691 79.4013 157.036 79.728C157.391 80.0453 157.568 80.456 157.568 80.96C157.568 81.352 157.461 81.6833 157.246 81.954C157.041 82.2153 156.761 82.3973 156.406 82.5C156.78 82.584 157.088 82.7847 157.33 83.102C157.573 83.41 157.694 83.7647 157.694 84.166C157.694 84.7167 157.517 85.16 157.162 85.496C156.817 85.832 156.299 86 155.608 86ZM155.314 84.824C155.949 84.824 156.266 84.544 156.266 83.984C156.266 83.7413 156.182 83.536 156.014 83.368C155.856 83.2 155.622 83.116 155.314 83.116H153.802V84.824H155.314ZM155.258 81.954C155.837 81.954 156.126 81.6973 156.126 81.184C156.126 80.9507 156.052 80.764 155.902 80.624C155.762 80.4747 155.548 80.4 155.258 80.4H153.802V81.954H155.258ZM163.956 85.146C163.443 85.8273 162.729 86.168 161.814 86.168C160.9 86.168 160.181 85.8273 159.658 85.146C159.145 84.4647 158.888 83.62 158.888 82.612C158.888 81.604 159.145 80.764 159.658 80.092C160.172 79.4107 160.89 79.07 161.814 79.07C162.738 79.07 163.457 79.4107 163.97 80.092C164.484 80.764 164.74 81.604 164.74 82.612C164.74 83.62 164.479 84.4647 163.956 85.146ZM160.708 84.264C160.96 84.712 161.329 84.936 161.814 84.936C162.3 84.936 162.668 84.712 162.92 84.264C163.172 83.816 163.298 83.2653 163.298 82.612C163.298 81.9587 163.172 81.4127 162.92 80.974C162.668 80.526 162.3 80.302 161.814 80.302C161.329 80.302 160.96 80.526 160.708 80.974C160.456 81.4127 160.33 81.9587 160.33 82.612C160.33 83.2653 160.456 83.816 160.708 84.264ZM170.26 79.238V80.456H167.46V86H166.06V79.238H170.26ZM176.07 85.146C175.556 85.8273 174.842 86.168 173.928 86.168C173.013 86.168 172.294 85.8273 171.772 85.146C171.258 84.4647 171.002 83.62 171.002 82.612C171.002 81.604 171.258 80.764 171.772 80.092C172.285 79.4107 173.004 79.07 173.928 79.07C174.852 79.07 175.57 79.4107 176.084 80.092C176.597 80.764 176.854 81.604 176.854 82.612C176.854 83.62 176.592 84.4647 176.07 85.146ZM172.822 84.264C173.074 84.712 173.442 84.936 173.928 84.936C174.413 84.936 174.782 84.712 175.034 84.264C175.286 83.816 175.412 83.2653 175.412 82.612C175.412 81.9587 175.286 81.4127 175.034 80.974C174.782 80.526 174.413 80.302 173.928 80.302C173.442 80.302 173.074 80.526 172.822 80.974C172.57 81.4127 172.444 81.9587 172.444 82.612C172.444 83.2653 172.57 83.816 172.822 84.264ZM186.068 85.202C185.63 85.846 185.032 86.168 184.276 86.168C183.52 86.168 182.942 85.8087 182.54 85.09V88.576H181.14V79.238H182.54V80.134C182.736 79.798 182.988 79.5367 183.296 79.35C183.604 79.1633 183.931 79.07 184.276 79.07C185.042 79.07 185.644 79.3873 186.082 80.022C186.521 80.6567 186.74 81.52 186.74 82.612C186.74 83.6947 186.516 84.558 186.068 85.202ZM183.856 84.936C184.323 84.936 184.678 84.7213 184.92 84.292C185.172 83.8533 185.298 83.2933 185.298 82.612C185.298 81.9307 185.172 81.3753 184.92 80.946C184.678 80.5167 184.323 80.302 183.856 80.302C183.595 80.302 183.338 80.3907 183.086 80.568C182.844 80.7453 182.662 80.9647 182.54 81.226V83.998C182.662 84.2593 182.844 84.4833 183.086 84.67C183.338 84.8473 183.595 84.936 183.856 84.936ZM192.917 86H191.531V85.314C191.12 85.8833 190.528 86.168 189.753 86.168C189.174 86.168 188.684 85.9673 188.283 85.566C187.882 85.1553 187.681 84.6047 187.681 83.914C187.681 83.2233 187.882 82.6867 188.283 82.304C188.684 81.912 189.174 81.716 189.753 81.716C190.546 81.716 191.139 81.9867 191.531 82.528V81.548C191.531 81.1373 191.414 80.82 191.181 80.596C190.957 80.372 190.635 80.26 190.215 80.26C189.599 80.26 189.039 80.5167 188.535 81.03L187.989 80.05C188.642 79.3967 189.468 79.07 190.467 79.07C191.214 79.07 191.806 79.2613 192.245 79.644C192.693 80.0173 192.917 80.596 192.917 81.38V86ZM190.257 85.202C190.817 85.202 191.242 84.9547 191.531 84.46V83.438C191.4 83.2047 191.218 83.0227 190.985 82.892C190.752 82.752 190.509 82.682 190.257 82.682C189.902 82.682 189.618 82.7987 189.403 83.032C189.188 83.2653 189.081 83.5687 189.081 83.942C189.081 84.3153 189.188 84.6187 189.403 84.852C189.618 85.0853 189.902 85.202 190.257 85.202ZM196.652 86.168C195.495 86.168 194.608 85.804 193.992 85.076L194.678 84.222C195.164 84.7633 195.812 85.034 196.624 85.034C197.044 85.034 197.371 84.9453 197.604 84.768C197.847 84.5907 197.968 84.3527 197.968 84.054C197.968 83.4473 197.497 83.144 196.554 83.144H195.294V82.024H196.526C196.946 82.024 197.273 81.9447 197.506 81.786C197.749 81.618 197.87 81.3847 197.87 81.086C197.87 80.8153 197.744 80.6007 197.492 80.442C197.25 80.2833 196.928 80.204 196.526 80.204C195.789 80.204 195.21 80.4653 194.79 80.988L194.076 80.148C194.692 79.4293 195.495 79.07 196.484 79.07C197.334 79.07 198.01 79.2333 198.514 79.56C199.018 79.8867 199.27 80.3347 199.27 80.904C199.27 81.3053 199.116 81.66 198.808 81.968C198.51 82.2667 198.15 82.458 197.73 82.542C198.169 82.5887 198.552 82.7567 198.878 83.046C199.214 83.3353 199.382 83.7087 199.382 84.166C199.382 84.754 199.135 85.2347 198.64 85.608C198.155 85.9813 197.492 86.168 196.652 86.168ZM207.328 86H205.956V81.59L204.29 86H203.73L202.078 81.59V86H200.678V79.238H202.47L204.01 83.312L205.55 79.238H207.328V86ZM211.678 86.168C210.754 86.168 210.017 85.8413 209.466 85.188C208.916 84.5347 208.64 83.676 208.64 82.612C208.64 81.604 208.902 80.764 209.424 80.092C209.956 79.4107 210.661 79.07 211.538 79.07C212.425 79.07 213.116 79.406 213.61 80.078C214.105 80.75 214.352 81.6133 214.352 82.668V83.074H210.054C210.082 83.6527 210.25 84.124 210.558 84.488C210.866 84.8427 211.286 85.02 211.818 85.02C212.425 85.02 212.934 84.7773 213.344 84.292L214.016 85.132C213.41 85.8227 212.63 86.168 211.678 86.168ZM212.994 82.08C212.985 81.5853 212.859 81.1513 212.616 80.778C212.383 80.3953 212.019 80.204 211.524 80.204C211.048 80.204 210.689 80.3953 210.446 80.778C210.204 81.1607 210.068 81.5947 210.04 82.08H212.994ZM220.535 85.202C220.097 85.846 219.499 86.168 218.743 86.168C217.987 86.168 217.409 85.8087 217.007 85.09V88.576H215.607V79.238H217.007V80.134C217.203 79.798 217.455 79.5367 217.763 79.35C218.071 79.1633 218.398 79.07 218.743 79.07C219.509 79.07 220.111 79.3873 220.549 80.022C220.988 80.6567 221.207 81.52 221.207 82.612C221.207 83.6947 220.983 84.558 220.535 85.202ZM218.323 84.936C218.79 84.936 219.145 84.7213 219.387 84.292C219.639 83.8533 219.765 83.2933 219.765 82.612C219.765 81.9307 219.639 81.3753 219.387 80.946C219.145 80.5167 218.79 80.302 218.323 80.302C218.062 80.302 217.805 80.3907 217.553 80.568C217.311 80.7453 217.129 80.9647 217.007 81.226V83.998C217.129 84.2593 217.311 84.4833 217.553 84.67C217.805 84.8473 218.062 84.936 218.323 84.936ZM227.384 86H225.998V85.314C225.587 85.8833 224.995 86.168 224.22 86.168C223.641 86.168 223.151 85.9673 222.75 85.566C222.349 85.1553 222.148 84.6047 222.148 83.914C222.148 83.2233 222.349 82.6867 222.75 82.304C223.151 81.912 223.641 81.716 224.22 81.716C225.013 81.716 225.606 81.9867 225.998 82.528V81.548C225.998 81.1373 225.881 80.82 225.648 80.596C225.424 80.372 225.102 80.26 224.682 80.26C224.066 80.26 223.506 80.5167 223.002 81.03L222.456 80.05C223.109 79.3967 223.935 79.07 224.934 79.07C225.681 79.07 226.273 79.2613 226.712 79.644C227.16 80.0173 227.384 80.596 227.384 81.38V86ZM224.724 85.202C225.284 85.202 225.709 84.9547 225.998 84.46V83.438C225.867 83.2047 225.685 83.0227 225.452 82.892C225.219 82.752 224.976 82.682 224.724 82.682C224.369 82.682 224.085 82.7987 223.87 83.032C223.655 83.2653 223.548 83.5687 223.548 83.942C223.548 84.3153 223.655 84.6187 223.87 84.852C224.085 85.0853 224.369 85.202 224.724 85.202ZM229.901 86.154C229.649 86.154 229.43 86.0607 229.243 85.874C229.056 85.6873 228.963 85.4633 228.963 85.202C228.963 84.95 229.056 84.7307 229.243 84.544C229.43 84.3573 229.649 84.264 229.901 84.264C230.162 84.264 230.382 84.3573 230.559 84.544C230.746 84.7307 230.839 84.95 230.839 85.202C230.839 85.4633 230.746 85.6873 230.559 85.874C230.382 86.0607 230.162 86.154 229.901 86.154Z" fill="white"/>
</svg>
