<svg width="256" height="178" viewBox="0 0 256 178" fill="none" xmlns="http://www.w3.org/2000/svg">
<rect width="256" height="178" fill="#502B00"/>
<path d="M116.12 122H131.672L112.088 54.32H80.408L60.92 122H76.472L82.52 100.304H109.976L116.12 122ZM86.264 86.864L94.328 58.16H98.168L106.232 86.864H86.264ZM135.59 108.752C135.59 113.744 138.182 122.96 153.254 122.96C166.79 122.96 171.494 116.144 173.318 108.08H177.158L174.758 113.84V114.8C174.758 119.408 177.35 122 181.958 122H192.614V108.56H185.606V94.928C185.606 78.992 173.894 72.56 160.55 72.56C147.014 72.56 136.55 79.76 136.55 92.048H150.95C150.95 87.632 154.406 85.04 160.55 85.04C167.174 85.04 170.246 87.44 170.246 91.376L154.982 93.488C140.582 95.504 135.59 100.4 135.59 108.752ZM150.95 105.872C150.95 103.088 153.254 102.416 157.862 101.744L170.246 100.016C170.246 105.968 164.678 109.52 156.23 109.52C153.638 109.52 150.95 108.656 150.95 105.872Z" fill="#FFA842"/>
</svg>
