<svg width="256" height="118" viewBox="0 0 256 118" fill="none" xmlns="http://www.w3.org/2000/svg">
<rect width="256" height="118" fill="#00278C"/>
<path d="M28.56 24.89C28.56 27.872 30.968 30.28 33.95 30.28C36.932 30.28 39.34 27.872 39.34 24.89C39.34 21.908 36.932 19.5 33.95 19.5C30.968 19.5 28.56 21.908 28.56 24.89ZM30.03 24.904C30.03 22.58 31.64 20.9 33.95 20.9C36.26 20.9 37.856 22.58 37.856 24.904C37.856 27.2 36.26 28.88 33.95 28.88C31.64 28.88 30.03 27.2 30.03 24.904ZM40.1745 24.68H42.2745V30H43.6745V24.68H45.7745V23.42H40.1745V24.68ZM46.9005 30H48.3005V27.2H51.1005V30H52.5005V23.42H51.1005V25.94H48.3005V23.42H46.9005V30ZM53.754 26.71C53.754 28.74 55.364 30.14 57.184 30.14C59.004 30.14 60.614 28.74 60.614 26.71C60.614 24.68 59.004 23.28 57.184 23.28C55.364 23.28 53.754 24.68 53.754 26.71ZM55.154 26.71C55.154 25.52 55.854 24.54 57.184 24.54C58.514 24.54 59.214 25.52 59.214 26.71C59.214 27.9 58.514 28.88 57.184 28.88C55.854 28.88 55.154 27.9 55.154 26.71ZM62.8233 26.71C62.8233 25.52 63.5513 24.54 64.8813 24.54C65.7213 24.54 66.3513 25.1 66.5753 25.66L67.7373 24.96C67.1913 23.98 66.1413 23.28 64.8113 23.28C63.0473 23.28 61.4513 24.68 61.4513 26.71C61.4513 28.74 63.0473 30.14 64.8113 30.14C66.1413 30.14 67.2053 29.44 67.7513 28.46L66.5893 27.76C66.3653 28.32 65.7213 28.88 64.8813 28.88C63.5513 28.88 62.8233 27.9 62.8233 26.71ZM68.8713 30H70.4813L73.0993 25.52V30H74.4713V23.42H72.8613L70.2433 27.9V23.42H68.8713V30ZM75.5847 24.68H77.6847V30H79.0847V24.68H81.1847V23.42H75.5847V24.68ZM87.6952 27.06L87.8352 26.64C87.8352 24.61 86.4352 23.28 84.7552 23.28C82.9352 23.28 81.5352 24.68 81.5352 26.71C81.5352 28.74 83.0052 30.14 84.7552 30.14C86.0852 30.14 87.0652 29.44 87.6252 28.46L86.4492 27.9C86.2392 28.46 85.6652 28.88 84.8252 28.88C83.6352 28.88 82.9352 28.04 82.9352 27.06H87.6952ZM84.7552 24.54C85.5952 24.54 86.2952 25.1 86.3652 25.828H83.0052C83.2152 25.1 83.7752 24.54 84.7552 24.54ZM89.3036 28.18C89.3036 28.6 89.0236 28.88 88.6036 28.88H88.3236V30.14L88.5336 30.28C89.8636 30.28 90.7036 29.51 90.7036 28.11V24.68H93.0836V30H94.4836V23.42H89.3036V28.18ZM96.3003 30H98.4003C100.08 30 101.06 29.02 101.06 27.69C101.06 26.36 100.08 25.38 98.4003 25.38H97.7003V23.42H96.3003V30ZM97.7003 28.754V26.626H98.4703C99.2403 26.626 99.6743 27.06 99.6743 27.69C99.6743 28.32 99.2403 28.754 98.4703 28.754H97.7003ZM102.463 30H103.863V27.2H106.663V30H108.063V23.42H106.663V25.94H103.863V23.42H102.463V30ZM116.036 23.42H114.776L114.636 23.98L114.566 24.05L114.496 23.98C114.076 23.56 113.376 23.28 112.676 23.28C110.856 23.28 109.316 24.68 109.316 26.71C109.316 28.74 110.856 30.14 112.676 30.14C113.376 30.14 114.076 29.86 114.496 29.44L114.566 29.37L114.636 29.44L114.776 30H116.036V23.42ZM114.776 26.71C114.776 27.9 113.936 28.88 112.746 28.88C111.416 28.88 110.702 27.9 110.702 26.71C110.702 25.52 111.416 24.54 112.746 24.54C113.936 24.54 114.776 25.52 114.776 26.71ZM118.911 30L121.081 27.312H121.333V30H122.621V23.42H119.891C118.281 23.42 117.511 24.246 117.511 25.436C117.511 26.29 118.281 27.2 119.625 27.312L117.441 29.86V30H118.911ZM118.841 25.38C118.841 24.89 119.177 24.54 119.779 24.54H121.361V26.22H119.849C119.247 26.22 118.841 25.884 118.841 25.38ZM128.763 26.71C128.763 25.52 129.491 24.54 130.821 24.54C131.661 24.54 132.291 25.1 132.515 25.66L133.677 24.96C133.131 23.98 132.081 23.28 130.751 23.28C128.987 23.28 127.391 24.68 127.391 26.71C127.391 28.74 128.987 30.14 130.751 30.14C132.081 30.14 133.145 29.44 133.691 28.46L132.529 27.76C132.305 28.32 131.661 28.88 130.821 28.88C129.491 28.88 128.763 27.9 128.763 26.71ZM135.091 28.18C135.091 28.6 134.811 28.88 134.391 28.88H134.111V30.14L134.321 30.28C135.651 30.28 136.491 29.51 136.491 28.11V24.68H138.871V30H140.271V23.42H135.091V28.18ZM141.527 26.71C141.527 28.74 143.137 30.14 144.957 30.14C146.777 30.14 148.387 28.74 148.387 26.71C148.387 24.68 146.777 23.28 144.957 23.28C143.137 23.28 141.527 24.68 141.527 26.71ZM142.927 26.71C142.927 25.52 143.627 24.54 144.957 24.54C146.287 24.54 146.987 25.52 146.987 26.71C146.987 27.9 146.287 28.88 144.957 28.88C143.627 28.88 142.927 27.9 142.927 26.71ZM154.193 26.08V23.42H152.793V26.08L150.413 23.42H148.593L151.603 26.626L148.523 30H150.273L152.793 27.2V30H154.193V27.2L156.713 30H158.463L155.382 26.626L158.393 23.42H156.573L154.193 26.08ZM159.516 30H160.916V27.2H163.716V30H165.116V23.42H163.716V25.94H160.916V23.42H159.516V30ZM166.369 26.71C166.369 28.74 167.979 30.14 169.799 30.14C171.619 30.14 173.229 28.74 173.229 26.71C173.229 24.68 171.619 23.28 169.799 23.28C167.979 23.28 166.369 24.68 166.369 26.71ZM167.769 26.71C167.769 25.52 168.469 24.54 169.799 24.54C171.129 24.54 171.829 25.52 171.829 26.71C171.829 27.9 171.129 28.88 169.799 28.88C168.469 28.88 167.769 27.9 167.769 26.71ZM175.438 26.71C175.438 25.52 176.166 24.54 177.496 24.54C178.336 24.54 178.966 25.1 179.19 25.66L180.352 24.96C179.806 23.98 178.756 23.28 177.426 23.28C175.662 23.28 174.066 24.68 174.066 26.71C174.066 28.74 175.662 30.14 177.426 30.14C178.756 30.14 179.82 29.44 180.366 28.46L179.204 27.76C178.98 28.32 178.336 28.88 177.496 28.88C176.166 28.88 175.438 27.9 175.438 26.71ZM180.926 24.68H183.026V30H184.426V24.68H186.526V23.42H180.926V24.68ZM187.793 30H189.893C191.573 30 192.553 29.02 192.553 27.69C192.553 26.36 191.573 25.38 189.893 25.38H189.193V23.42H187.793V30ZM189.193 28.754V26.626H189.963C190.733 26.626 191.167 27.06 191.167 27.69C191.167 28.32 190.733 28.754 189.963 28.754H189.193ZM33.6 47C35.84 47 37.24 45.53 37.24 43.71C37.24 41.89 35.84 40.42 33.6 40.42V36.36H32.2V40.42C29.96 40.42 28.56 41.89 28.56 43.71C28.56 45.53 29.96 47 32.2 47V49.968H33.6V47ZM29.96 43.71C29.96 42.52 30.66 41.68 32.13 41.68H32.2V45.74H32.13C30.66 45.74 29.96 44.9 29.96 43.71ZM33.6 45.74V41.68H33.67C35.14 41.68 35.84 42.52 35.84 43.71C35.84 44.9 35.14 45.74 33.67 45.74H33.6ZM38.2227 43.71C38.2227 45.74 39.8327 47.14 41.6527 47.14C43.4727 47.14 45.0827 45.74 45.0827 43.71C45.0827 41.68 43.4727 40.28 41.6527 40.28C39.8327 40.28 38.2227 41.68 38.2227 43.71ZM39.6227 43.71C39.6227 42.52 40.3227 41.54 41.6527 41.54C42.9827 41.54 43.6827 42.52 43.6827 43.71C43.6827 44.9 42.9827 45.88 41.6527 45.88C40.3227 45.88 39.6227 44.9 39.6227 43.71ZM46.34 47H47.74V44.2H50.54V47H51.94V40.42H50.54V42.94H47.74V40.42H46.34V47ZM59.3534 44.06L59.4934 43.64C59.4934 41.61 58.0934 40.28 56.4134 40.28C54.5934 40.28 53.1934 41.68 53.1934 43.71C53.1934 45.74 54.6634 47.14 56.4134 47.14C57.7434 47.14 58.7234 46.44 59.2834 45.46L58.1074 44.9C57.8974 45.46 57.3234 45.88 56.4834 45.88C55.2934 45.88 54.5934 45.04 54.5934 44.06H59.3534ZM56.4134 41.54C57.2534 41.54 57.9534 42.1 58.0234 42.828H54.6634C54.8734 42.1 55.4334 41.54 56.4134 41.54ZM59.698 41.68H61.798V47H63.198V41.68H65.298V40.42H59.698V41.68ZM66.424 47H68.034L70.652 42.52V47H72.024V40.42H70.414L67.796 44.9V40.42H66.424V47ZM78.8774 40.42H77.4774V42.52C77.4494 43.332 76.8194 43.92 76.0074 43.92C75.1674 43.92 74.6774 43.36 74.6774 42.38V40.42H73.2774V42.52C73.2774 44.06 74.1874 45.18 75.7974 45.18C76.4274 45.18 76.9874 44.9 77.3374 44.48L77.4074 44.41L77.4774 44.48V47H78.8774V40.42ZM86.164 44.06L86.304 43.64C86.304 41.61 84.904 40.28 83.224 40.28C81.404 40.28 80.004 41.68 80.004 43.71C80.004 45.74 81.474 47.14 83.224 47.14C84.554 47.14 85.534 46.44 86.094 45.46L84.918 44.9C84.708 45.46 84.134 45.88 83.294 45.88C82.104 45.88 81.404 45.04 81.404 44.06H86.164ZM83.224 41.54C84.064 41.54 84.764 42.1 84.834 42.828H81.474C81.684 42.1 82.244 41.54 83.224 41.54ZM88.4443 43.71C88.4443 42.52 89.1723 41.54 90.5023 41.54C91.3423 41.54 91.9723 42.1 92.1963 42.66L93.3583 41.96C92.8123 40.98 91.7623 40.28 90.4323 40.28C88.6683 40.28 87.0723 41.68 87.0723 43.71C87.0723 45.74 88.6683 47.14 90.4323 47.14C91.7623 47.14 92.8263 46.44 93.3723 45.46L92.2103 44.76C91.9863 45.32 91.3423 45.88 90.5023 45.88C89.1723 45.88 88.4443 44.9 88.4443 43.71ZM95.8923 43.08V40.42H94.4923V47H95.8923V44.2L98.6923 47H100.512L97.2083 43.584L100.372 40.42H98.5523L95.8923 43.08ZM101.219 47H102.829L105.447 42.52V47H106.819V40.42H105.209L102.591 44.9V40.42H101.219V47ZM110.662 42.436L109.332 40.42H107.792L109.892 43.612L107.652 47H109.192L110.662 44.774L112.132 47H113.672L111.432 43.612L113.532 40.42H111.992L110.662 42.436ZM118.823 43.71C118.823 42.52 119.551 41.54 120.881 41.54C121.721 41.54 122.351 42.1 122.575 42.66L123.737 41.96C123.191 40.98 122.141 40.28 120.811 40.28C119.047 40.28 117.451 41.68 117.451 43.71C117.451 45.74 119.047 47.14 120.811 47.14C122.141 47.14 123.205 46.44 123.751 45.46L122.589 44.76C122.365 45.32 121.721 45.88 120.881 45.88C119.551 45.88 118.823 44.9 118.823 43.71ZM124.871 47H126.481L129.099 42.52V47H130.471V40.42H128.861L126.243 44.9V40.42H124.871V47ZM133.097 43.71C133.097 42.52 133.825 41.54 135.155 41.54C135.995 41.54 136.625 42.1 136.849 42.66L138.011 41.96C137.465 40.98 136.415 40.28 135.085 40.28C133.321 40.28 131.725 41.68 131.725 43.71C131.725 45.74 133.321 47.14 135.085 47.14C136.415 47.14 137.479 46.44 138.025 45.46L136.863 44.76C136.639 45.32 135.995 45.88 135.155 45.88C133.825 45.88 133.097 44.9 133.097 43.71ZM138.585 41.68H140.685V47H142.085V41.68H144.185V40.42H138.585V41.68ZM150.695 44.06L150.835 43.64C150.835 41.61 149.435 40.28 147.755 40.28C145.935 40.28 144.535 41.68 144.535 43.71C144.535 45.74 146.005 47.14 147.755 47.14C149.085 47.14 150.065 46.44 150.625 45.46L149.449 44.9C149.239 45.46 148.665 45.88 147.825 45.88C146.635 45.88 145.935 45.04 145.935 44.06H150.695ZM147.755 41.54C148.595 41.54 149.295 42.1 149.365 42.828H146.005C146.215 42.1 146.775 41.54 147.755 41.54ZM155.454 44.704L153.634 40.42H152.024V47H153.284V42.66L154.824 46.3H156.084L157.624 42.66V47H158.884V40.42H157.274L155.454 44.704ZM163.932 49.968H165.318V46.44L165.402 46.37L165.472 46.44C165.892 46.86 166.606 47.14 167.292 47.14C169.112 47.14 170.652 45.74 170.652 43.71C170.652 41.68 169.112 40.28 167.292 40.28C166.592 40.28 165.892 40.56 165.472 40.98L165.402 41.05L165.318 40.98L165.192 40.42H163.932V49.968ZM165.192 43.71C165.192 42.52 166.032 41.54 167.222 41.54C168.552 41.54 169.252 42.52 169.252 43.71C169.252 44.9 168.552 45.88 167.222 45.88C166.032 45.88 165.192 44.9 165.192 43.71ZM178.216 40.42H176.956L176.816 40.98L176.746 41.05L176.676 40.98C176.256 40.56 175.556 40.28 174.856 40.28C173.036 40.28 171.496 41.68 171.496 43.71C171.496 45.74 173.036 47.14 174.856 47.14C175.556 47.14 176.256 46.86 176.676 46.44L176.746 46.37L176.816 46.44L176.956 47H178.216V40.42ZM176.956 43.71C176.956 44.9 176.116 45.88 174.926 45.88C173.596 45.88 172.882 44.9 172.882 43.71C172.882 42.52 173.596 41.54 174.926 41.54C176.116 41.54 176.956 42.52 176.956 43.71ZM181.035 44.27H181.945C182.715 44.27 183.205 44.55 183.205 45.04C183.205 45.46 182.855 45.894 181.945 45.894C181.105 45.894 180.685 45.39 180.615 44.9L179.341 45.32C179.635 46.3 180.545 47.14 181.945 47.14C183.625 47.14 184.535 46.16 184.535 45.11C184.535 44.466 184.157 43.962 183.583 43.654C184.101 43.318 184.395 42.8 184.395 42.24C184.395 41.12 183.345 40.28 181.945 40.28C180.545 40.28 179.425 41.26 179.425 42.24H180.741C180.741 41.89 181.175 41.526 181.945 41.526C182.715 41.526 183.065 41.89 183.065 42.31C183.065 42.73 182.715 43.038 182.015 43.038H181.035V44.27ZM186.073 45.18C186.073 45.6 185.793 45.88 185.373 45.88H185.093V47.14L185.303 47.28C186.633 47.28 187.473 46.51 187.473 45.11V41.68H189.853V47H191.253V40.42H186.073V45.18ZM192.93 47H194.54L197.158 42.52V47H198.53V40.42H196.92L194.302 44.9V40.42H192.93V47ZM205.383 40.42H203.983V42.52C203.955 43.332 203.325 43.92 202.513 43.92C201.673 43.92 201.183 43.36 201.183 42.38V40.42H199.783V42.52C199.783 44.06 200.693 45.18 202.303 45.18C202.933 45.18 203.493 44.9 203.843 44.48L203.913 44.41L203.983 44.48V47H205.383V40.42ZM206.93 47H208.33V44.2H211.13V47H212.53V40.42H211.13V42.94H208.33V40.42H206.93V47ZM214.203 47H216.583C218.263 47 219.243 46.02 219.243 44.69C219.243 43.36 218.263 42.38 216.583 42.38H215.603V40.42H214.203V47ZM219.803 47H221.203V40.42H219.803V47ZM215.603 45.74V43.64H216.653C217.423 43.64 217.843 44.06 217.843 44.69C217.843 45.32 217.423 45.74 216.653 45.74H215.603ZM225.055 42.436L223.725 40.42H222.185L224.285 43.612L222.045 47H223.585L225.055 44.774L226.525 47H228.065L225.825 43.612L227.925 40.42H226.385L225.055 42.436ZM30.03 64L32.2 61.312H32.452V64H33.74V57.42H31.01C29.4 57.42 28.63 58.246 28.63 59.436C28.63 60.29 29.4 61.2 30.744 61.312L28.56 63.86V64H30.03ZM29.96 59.38C29.96 58.89 30.296 58.54 30.898 58.54H32.48V60.22H30.968C30.366 60.22 29.96 59.884 29.96 59.38ZM36.7006 61.27H37.6106C38.3806 61.27 38.8706 61.55 38.8706 62.04C38.8706 62.46 38.5206 62.894 37.6106 62.894C36.7706 62.894 36.3506 62.39 36.2806 61.9L35.0066 62.32C35.3006 63.3 36.2106 64.14 37.6106 64.14C39.2906 64.14 40.2006 63.16 40.2006 62.11C40.2006 61.466 39.8226 60.962 39.2486 60.654C39.7666 60.318 40.0606 59.8 40.0606 59.24C40.0606 58.12 39.0106 57.28 37.6106 57.28C36.2106 57.28 35.0906 58.26 35.0906 59.24H36.4066C36.4066 58.89 36.8406 58.526 37.6106 58.526C38.3806 58.526 38.7306 58.89 38.7306 59.31C38.7306 59.73 38.3806 60.038 37.6806 60.038H36.7006V61.27ZM41.4591 64H43.8391C45.5191 64 46.4991 63.02 46.4991 61.69C46.4991 60.36 45.5191 59.38 43.8391 59.38H42.8591V57.42H41.4591V64ZM47.0591 64H48.4591V57.42H47.0591V64ZM42.8591 62.74V60.64H43.9091C44.6791 60.64 45.0991 61.06 45.0991 61.69C45.0991 62.32 44.6791 62.74 43.9091 62.74H42.8591ZM51.5408 60.08V57.42H50.1408V64H51.5408V61.2L54.3408 64H56.1608L52.8568 60.584L56.0208 57.42H54.2008L51.5408 60.08ZM56.1739 60.71C56.1739 62.74 57.7839 64.14 59.6039 64.14C61.4239 64.14 63.0339 62.74 63.0339 60.71C63.0339 58.68 61.4239 57.28 59.6039 57.28C57.7839 57.28 56.1739 58.68 56.1739 60.71ZM57.5739 60.71C57.5739 59.52 58.2739 58.54 59.6039 58.54C60.9339 58.54 61.6339 59.52 61.6339 60.71C61.6339 61.9 60.9339 62.88 59.6039 62.88C58.2739 62.88 57.5739 61.9 57.5739 60.71ZM64.2912 64H67.1612C68.7012 64 69.6112 63.23 69.6112 62.04C69.6112 61.466 69.2752 60.962 68.6872 60.64C69.1912 60.318 69.4712 59.828 69.4712 59.31C69.4712 58.19 68.6312 57.42 67.0912 57.42H64.2912V64ZM65.6632 62.796V61.27H67.3012C67.7912 61.27 68.2112 61.48 68.2112 62.04C68.2112 62.46 67.8612 62.796 67.3012 62.796H65.6632ZM65.6632 60.08V58.624H67.1612C67.7212 58.624 68.0712 58.89 68.0712 59.38C68.0712 59.87 67.6512 60.08 67.1612 60.08H65.6632ZM73.961 60.71C73.961 62.74 75.571 64.14 77.391 64.14C79.211 64.14 80.821 62.74 80.821 60.71C80.821 58.68 79.211 57.28 77.391 57.28C75.571 57.28 73.961 58.68 73.961 60.71ZM75.361 60.71C75.361 59.52 76.061 58.54 77.391 58.54C78.721 58.54 79.421 59.52 79.421 60.71C79.421 61.9 78.721 62.88 77.391 62.88C76.061 62.88 75.361 61.9 75.361 60.71ZM86.6983 54.2C86.0543 54.452 85.5363 54.648 84.8783 54.872C82.9463 55.544 81.5323 56.734 81.8543 60.78C82.0083 62.74 83.4083 64.14 85.2283 64.14C86.9783 64.14 88.6583 62.74 88.6583 60.71C88.6583 58.68 87.1183 57.28 85.2983 57.28C84.3883 57.28 83.6883 57.756 83.3383 58.19L83.2683 58.26L83.1983 58.19C83.1423 57.364 83.8143 56.51 85.2703 56.076C85.8723 55.894 86.5863 55.642 87.1603 55.404C88.1263 54.998 88.7843 54.55 88.6583 53.5L88.5183 53.36H87.3983V53.486C87.3983 53.836 87.1183 54.032 86.6983 54.2ZM83.1983 60.71C83.1983 59.52 83.9683 58.54 85.2283 58.54C86.4883 58.54 87.2723 59.52 87.2723 60.71C87.2723 61.9 86.4883 62.88 85.2283 62.88C84.1083 62.88 83.1983 61.97 83.1983 60.71ZM91.6584 61.368L90.2024 57.42H88.7884L91.0004 63.132L89.6284 66.8H91.0284L94.5284 57.42H93.1284L91.6584 61.368ZM96.0322 60.71C96.0322 59.52 96.7602 58.54 98.0902 58.54C98.9302 58.54 99.5602 59.1 99.7842 59.66L100.946 58.96C100.4 57.98 99.3502 57.28 98.0202 57.28C96.2562 57.28 94.6602 58.68 94.6602 60.71C94.6602 62.74 96.2562 64.14 98.0202 64.14C99.3502 64.14 100.414 63.44 100.96 62.46L99.7982 61.76C99.5742 62.32 98.9302 62.88 98.0902 62.88C96.7602 62.88 96.0322 61.9 96.0322 60.71ZM102.36 62.18C102.36 62.6 102.08 62.88 101.66 62.88H101.38V64.14L101.59 64.28C102.92 64.28 103.76 63.51 103.76 62.11V58.68H106.14V64H107.54V57.42H102.36V62.18ZM115.517 57.42H114.257L114.117 57.98L114.047 58.05L113.977 57.98C113.557 57.56 112.857 57.28 112.157 57.28C110.337 57.28 108.797 58.68 108.797 60.71C108.797 62.74 110.337 64.14 112.157 64.14C112.857 64.14 113.557 63.86 113.977 63.44L114.047 63.37L114.117 63.44L114.257 64H115.517V57.42ZM114.257 60.71C114.257 61.9 113.417 62.88 112.227 62.88C110.897 62.88 110.183 61.9 110.183 60.71C110.183 59.52 110.897 58.54 112.227 58.54C113.417 58.54 114.257 59.52 114.257 60.71ZM117.201 64H120.071C121.611 64 122.521 63.23 122.521 62.04C122.521 61.466 122.185 60.962 121.597 60.64C122.101 60.318 122.381 59.828 122.381 59.31C122.381 58.19 121.541 57.42 120.001 57.42H117.201V64ZM118.573 62.796V61.27H120.211C120.701 61.27 121.121 61.48 121.121 62.04C121.121 62.46 120.771 62.796 120.211 62.796H118.573ZM118.573 60.08V58.624H120.071C120.631 58.624 120.981 58.89 120.981 59.38C120.981 59.87 120.561 60.08 120.071 60.08H118.573ZM124.208 62.18C124.208 62.6 123.928 62.88 123.508 62.88H123.228V64.14L123.438 64.28C124.768 64.28 125.608 63.51 125.608 62.11V58.68H127.988V64H129.388V57.42H124.208V62.18ZM131.065 64H132.675L135.293 59.52V64H136.665V57.42H135.055L132.437 61.9V57.42H131.065V64ZM138.338 64H141.208C142.748 64 143.658 63.23 143.658 62.04C143.658 61.466 143.322 60.962 142.734 60.64C143.238 60.318 143.518 59.828 143.518 59.31C143.518 58.19 142.678 57.42 141.138 57.42H138.338V64ZM139.71 62.796V61.27H141.348C141.838 61.27 142.258 61.48 142.258 62.04C142.258 62.46 141.908 62.796 141.348 62.796H139.71ZM139.71 60.08V58.624H141.208C141.768 58.624 142.118 58.89 142.118 59.38C142.118 59.87 141.698 60.08 141.208 60.08H139.71ZM151.365 57.42H150.105L149.965 57.98L149.895 58.05L149.825 57.98C149.405 57.56 148.705 57.28 148.005 57.28C146.185 57.28 144.645 58.68 144.645 60.71C144.645 62.74 146.185 64.14 148.005 64.14C148.705 64.14 149.405 63.86 149.825 63.44L149.895 63.37L149.965 63.44L150.105 64H151.365V57.42ZM150.105 60.71C150.105 61.9 149.265 62.88 148.075 62.88C146.745 62.88 146.031 61.9 146.031 60.71C146.031 59.52 146.745 58.54 148.075 58.54C149.265 58.54 150.105 59.52 150.105 60.71ZM158.789 61.06L158.929 60.64C158.929 58.61 157.529 57.28 155.849 57.28C154.029 57.28 152.629 58.68 152.629 60.71C152.629 62.74 154.099 64.14 155.849 64.14C157.179 64.14 158.159 63.44 158.719 62.46L157.543 61.9C157.333 62.46 156.759 62.88 155.919 62.88C154.729 62.88 154.029 62.04 154.029 61.06H158.789ZM155.849 58.54C156.689 58.54 157.389 59.1 157.459 59.828H154.099C154.309 59.1 154.869 58.54 155.849 58.54ZM159.134 58.68H161.234V64H162.634V58.68H164.734V57.42H159.134V58.68ZM169.223 64H170.623V61.2H173.423V64H174.823V57.42H173.423V59.94H170.623V57.42H169.223V64ZM182.796 57.42H181.536L181.396 57.98L181.326 58.05L181.256 57.98C180.836 57.56 180.136 57.28 179.436 57.28C177.616 57.28 176.076 58.68 176.076 60.71C176.076 62.74 177.616 64.14 179.436 64.14C180.136 64.14 180.836 63.86 181.256 63.44L181.326 63.37L181.396 63.44L181.536 64H182.796V57.42ZM181.536 60.71C181.536 61.9 180.696 62.88 179.506 62.88C178.176 62.88 177.462 61.9 177.462 60.71C177.462 59.52 178.176 58.54 179.506 58.54C180.696 58.54 181.536 59.52 181.536 60.71ZM184.761 62.18C184.761 62.6 184.481 62.88 184.061 62.88H183.781V64.14L183.991 64.28C185.321 64.28 186.161 63.51 186.161 62.11V58.68H188.541V64H189.941V57.42H184.761V62.18ZM191.617 64H193.227L195.845 59.52V64H197.217V57.42H195.607L192.989 61.9V57.42H191.617V64ZM204.071 57.42H202.671V59.52C202.643 60.332 202.013 60.92 201.201 60.92C200.361 60.92 199.871 60.36 199.871 59.38V57.42H198.471V59.52C198.471 61.06 199.381 62.18 200.991 62.18C201.621 62.18 202.181 61.9 202.531 61.48L202.601 61.41L202.671 61.48V64H204.071V57.42ZM205.617 64H207.227L209.845 59.52V64H211.217V57.42H209.607L206.989 61.9V57.42H205.617V64ZM218.631 61.06L218.771 60.64C218.771 58.61 217.371 57.28 215.691 57.28C213.871 57.28 212.471 58.68 212.471 60.71C212.471 62.74 213.941 64.14 215.691 64.14C217.021 64.14 218.001 63.44 218.561 62.46L217.385 61.9C217.175 62.46 216.601 62.88 215.761 62.88C214.571 62.88 213.871 62.04 213.871 61.06H218.631ZM215.691 58.54C216.531 58.54 217.231 59.1 217.301 59.828H213.941C214.151 59.1 214.711 58.54 215.691 58.54ZM35.14 74.42H33.88L33.74 74.98L33.67 75.05L33.6 74.98C33.18 74.56 32.48 74.28 31.78 74.28C29.96 74.28 28.42 75.68 28.42 77.71C28.42 79.74 29.96 81.14 31.78 81.14C32.48 81.14 33.18 80.86 33.6 80.44L33.67 80.37L33.74 80.44L33.88 81H35.14V74.42ZM33.88 77.71C33.88 78.9 33.04 79.88 31.85 79.88C30.52 79.88 29.806 78.9 29.806 77.71C29.806 76.52 30.52 75.54 31.85 75.54C33.04 75.54 33.88 76.52 33.88 77.71ZM37.1044 79.18C37.1044 79.6 36.8244 79.88 36.4044 79.88H36.1244V81.14L36.3344 81.28C37.6644 81.28 38.5044 80.51 38.5044 79.11V75.68H40.8844V81H42.2844V74.42H37.1044V79.18ZM48.7211 81C50.9611 81 52.3611 79.53 52.3611 77.71C52.3611 75.89 50.9611 74.42 48.7211 74.42V70.36H47.3211V74.42C45.0811 74.42 43.6811 75.89 43.6811 77.71C43.6811 79.53 45.0811 81 47.3211 81V83.968H48.7211V81ZM45.0811 77.71C45.0811 76.52 45.7811 75.68 47.2511 75.68H47.3211V79.74H47.2511C45.7811 79.74 45.0811 78.9 45.0811 77.71ZM48.7211 79.74V75.68H48.7911C50.2611 75.68 50.9611 76.52 50.9611 77.71C50.9611 78.9 50.2611 79.74 48.7911 79.74H48.7211ZM60.0638 74.42H58.8038L58.6638 74.98L58.5938 75.05L58.5238 74.98C58.1038 74.56 57.4038 74.28 56.7038 74.28C54.8838 74.28 53.3438 75.68 53.3438 77.71C53.3438 79.74 54.8838 81.14 56.7038 81.14C57.4038 81.14 58.1038 80.86 58.5238 80.44L58.5938 80.37L58.6638 80.44L58.8038 81H60.0638V74.42ZM58.8038 77.71C58.8038 78.9 57.9638 79.88 56.7738 79.88C55.4438 79.88 54.7298 78.9 54.7298 77.71C54.7298 76.52 55.4438 75.54 56.7738 75.54C57.9638 75.54 58.8038 76.52 58.8038 77.71ZM61.7482 81H64.6182C66.1582 81 67.0682 80.23 67.0682 79.04C67.0682 78.466 66.7322 77.962 66.1442 77.64C66.6482 77.318 66.9282 76.828 66.9282 76.31C66.9282 75.19 66.0882 74.42 64.5482 74.42H61.7482V81ZM63.1202 79.796V78.27H64.7582C65.2482 78.27 65.6682 78.48 65.6682 79.04C65.6682 79.46 65.3182 79.796 64.7582 79.796H63.1202ZM63.1202 77.08V75.624H64.6182C65.1782 75.624 65.5282 75.89 65.5282 76.38C65.5282 76.87 65.1082 77.08 64.6182 77.08H63.1202ZM68.4748 81H70.0848L72.7028 76.52V81H74.0748V74.42H72.4648L69.8468 78.9V74.42H68.4748V81ZM75.1882 75.68H77.2882V81H78.6882V75.68H80.7882V74.42H75.1882V75.68ZM81.1388 77.71C81.1388 79.74 82.7488 81.14 84.5688 81.14C86.3888 81.14 87.9988 79.74 87.9988 77.71C87.9988 75.68 86.3888 74.28 84.5688 74.28C82.7488 74.28 81.1388 75.68 81.1388 77.71ZM82.5388 77.71C82.5388 76.52 83.2388 75.54 84.5688 75.54C85.8988 75.54 86.5988 76.52 86.5988 77.71C86.5988 78.9 85.8988 79.88 84.5688 79.88C83.2388 79.88 82.5388 78.9 82.5388 77.71ZM89.256 81H92.126C93.666 81 94.576 80.23 94.576 79.04C94.576 78.466 94.24 77.962 93.652 77.64C94.156 77.318 94.436 76.828 94.436 76.31C94.436 75.19 93.596 74.42 92.056 74.42H89.256V81ZM90.628 79.796V78.27H92.266C92.756 78.27 93.176 78.48 93.176 79.04C93.176 79.46 92.826 79.796 92.266 79.796H90.628ZM90.628 77.08V75.624H92.126C92.686 75.624 93.036 75.89 93.036 76.38C93.036 76.87 92.616 77.08 92.126 77.08H90.628ZM99.3459 81H100.746V78.2H103.546V81H104.946V74.42H103.546V76.94H100.746V74.42H99.3459V81ZM112.359 78.06L112.499 77.64C112.499 75.61 111.099 74.28 109.419 74.28C107.599 74.28 106.199 75.68 106.199 77.71C106.199 79.74 107.669 81.14 109.419 81.14C110.749 81.14 111.729 80.44 112.289 79.46L111.113 78.9C110.903 79.46 110.329 79.88 109.489 79.88C108.299 79.88 107.599 79.04 107.599 78.06H112.359ZM109.419 75.54C110.259 75.54 110.959 76.1 111.029 76.828H107.669C107.879 76.1 108.439 75.54 109.419 75.54ZM113.268 77.71C113.268 79.74 114.878 81.14 116.698 81.14C118.518 81.14 120.128 79.74 120.128 77.71C120.128 75.68 118.518 74.28 116.698 74.28C114.878 74.28 113.268 75.68 113.268 77.71ZM114.668 77.71C114.668 76.52 115.368 75.54 116.698 75.54C118.028 75.54 118.728 76.52 118.728 77.71C118.728 78.9 118.028 79.88 116.698 79.88C115.368 79.88 114.668 78.9 114.668 77.71ZM120.548 82.68H121.948V81H126.428V82.68H127.828V79.74H126.988V74.42H121.808V78.76C121.808 79.362 121.486 79.712 120.982 79.74H120.548V82.68ZM122.704 79.74C123.012 79.488 123.208 79.124 123.208 78.62V75.68H125.588V79.74H122.704ZM128.945 81H130.555L133.173 76.52V81H134.545V74.42H132.935L130.317 78.9V74.42H128.945V81ZM136.219 81H137.619V78.2H140.419V81H141.819V74.42H140.419V76.94H137.619V74.42H136.219V81ZM149.792 74.42H148.532L148.392 74.98L148.322 75.05L148.252 74.98C147.832 74.56 147.132 74.28 146.432 74.28C144.612 74.28 143.072 75.68 143.072 77.71C143.072 79.74 144.612 81.14 146.432 81.14C147.132 81.14 147.832 80.86 148.252 80.44L148.322 80.37L148.392 80.44L148.532 81H149.792V74.42ZM148.532 77.71C148.532 78.9 147.692 79.88 146.502 79.88C145.172 79.88 144.458 78.9 144.458 77.71C144.458 76.52 145.172 75.54 146.502 75.54C147.692 75.54 148.532 76.52 148.532 77.71ZM152.877 77.08V74.42H151.477V81H152.877V78.2L155.677 81H157.497L154.193 77.584L157.357 74.42H155.537L152.877 77.08ZM157.51 77.71C157.51 79.74 159.12 81.14 160.94 81.14C162.76 81.14 164.37 79.74 164.37 77.71C164.37 75.68 162.76 74.28 160.94 74.28C159.12 74.28 157.51 75.68 157.51 77.71ZM158.91 77.71C158.91 76.52 159.61 75.54 160.94 75.54C162.27 75.54 162.97 76.52 162.97 77.71C162.97 78.9 162.27 79.88 160.94 79.88C159.61 79.88 158.91 78.9 158.91 77.71ZM165.627 81H168.497C170.037 81 170.947 80.23 170.947 79.04C170.947 78.466 170.611 77.962 170.023 77.64C170.527 77.318 170.807 76.828 170.807 76.31C170.807 75.19 169.967 74.42 168.427 74.42H165.627V81ZM166.999 79.796V78.27H168.637C169.127 78.27 169.547 78.48 169.547 79.04C169.547 79.46 169.197 79.796 168.637 79.796H166.999ZM166.999 77.08V75.624H168.497C169.057 75.624 169.407 75.89 169.407 76.38C169.407 76.87 168.987 77.08 168.497 77.08H166.999ZM171.934 77.71C171.934 79.74 173.544 81.14 175.364 81.14C177.184 81.14 178.794 79.74 178.794 77.71C178.794 75.68 177.184 74.28 175.364 74.28C173.544 74.28 171.934 75.68 171.934 77.71ZM173.334 77.71C173.334 76.52 174.034 75.54 175.364 75.54C176.694 75.54 177.394 76.52 177.394 77.71C177.394 78.9 176.694 79.88 175.364 79.88C174.034 79.88 173.334 78.9 173.334 77.71ZM180.051 81H181.451V75.68H184.811V74.42H180.051V81ZM185.018 77.71C185.018 79.74 186.628 81.14 188.448 81.14C190.268 81.14 191.878 79.74 191.878 77.71C191.878 75.68 190.268 74.28 188.448 74.28C186.628 74.28 185.018 75.68 185.018 77.71ZM186.418 77.71C186.418 76.52 187.118 75.54 188.448 75.54C189.778 75.54 190.478 76.52 190.478 77.71C190.478 78.9 189.778 79.88 188.448 79.88C187.118 79.88 186.418 78.9 186.418 77.71ZM28.84 100.968H30.226V97.44L30.31 97.37L30.38 97.44C30.8 97.86 31.514 98.14 32.2 98.14C34.02 98.14 35.56 96.74 35.56 94.71C35.56 92.68 34.02 91.28 32.2 91.28C31.5 91.28 30.8 91.56 30.38 91.98L30.31 92.05L30.226 91.98L30.1 91.42H28.84V100.968ZM30.1 94.71C30.1 93.52 30.94 92.54 32.13 92.54C33.46 92.54 34.16 93.52 34.16 94.71C34.16 95.9 33.46 96.88 32.13 96.88C30.94 96.88 30.1 95.9 30.1 94.71ZM43.1244 91.42H41.8644L41.7244 91.98L41.6544 92.05L41.5844 91.98C41.1644 91.56 40.4644 91.28 39.7644 91.28C37.9444 91.28 36.4044 92.68 36.4044 94.71C36.4044 96.74 37.9444 98.14 39.7644 98.14C40.4644 98.14 41.1644 97.86 41.5844 97.44L41.6544 97.37L41.7244 97.44L41.8644 98H43.1244V91.42ZM41.8644 94.71C41.8644 95.9 41.0244 96.88 39.8344 96.88C38.5044 96.88 37.7904 95.9 37.7904 94.71C37.7904 93.52 38.5044 92.54 39.8344 92.54C41.0244 92.54 41.8644 93.52 41.8644 94.71ZM45.9428 95.27H46.8528C47.6228 95.27 48.1128 95.55 48.1128 96.04C48.1128 96.46 47.7628 96.894 46.8528 96.894C46.0128 96.894 45.5928 96.39 45.5228 95.9L44.2488 96.32C44.5428 97.3 45.4528 98.14 46.8528 98.14C48.5328 98.14 49.4428 97.16 49.4428 96.11C49.4428 95.466 49.0648 94.962 48.4908 94.654C49.0088 94.318 49.3028 93.8 49.3028 93.24C49.3028 92.12 48.2528 91.28 46.8528 91.28C45.4528 91.28 44.3328 92.26 44.3328 93.24H45.6488C45.6488 92.89 46.0828 92.526 46.8528 92.526C47.6228 92.526 47.9728 92.89 47.9728 93.31C47.9728 93.73 47.6228 94.038 46.9228 94.038H45.9428V95.27ZM54.1313 95.704L52.3113 91.42H50.7013V98H51.9613V93.66L53.5013 97.3H54.7613L56.3013 93.66V98H57.5613V91.42H55.9513L54.1313 95.704ZM64.9863 95.06L65.1263 94.64C65.1263 92.61 63.7263 91.28 62.0463 91.28C60.2263 91.28 58.8263 92.68 58.8263 94.71C58.8263 96.74 60.2963 98.14 62.0463 98.14C63.3763 98.14 64.3563 97.44 64.9163 96.46L63.7403 95.9C63.5303 96.46 62.9563 96.88 62.1163 96.88C60.9263 96.88 60.2263 96.04 60.2263 95.06H64.9863ZM62.0463 92.54C62.8863 92.54 63.5863 93.1 63.6563 93.828H60.2963C60.5063 93.1 61.0663 92.54 62.0463 92.54ZM66.3146 100.968H67.7006V97.44L67.7846 97.37L67.8546 97.44C68.2746 97.86 68.9886 98.14 69.6746 98.14C71.4946 98.14 73.0346 96.74 73.0346 94.71C73.0346 92.68 71.4946 91.28 69.6746 91.28C68.9746 91.28 68.2746 91.56 67.8546 91.98L67.7846 92.05L67.7006 91.98L67.5746 91.42H66.3146V100.968ZM67.5746 94.71C67.5746 93.52 68.4146 92.54 69.6046 92.54C70.9346 92.54 71.6346 93.52 71.6346 94.71C71.6346 95.9 70.9346 96.88 69.6046 96.88C68.4146 96.88 67.5746 95.9 67.5746 94.71ZM80.599 91.42H79.339L79.199 91.98L79.129 92.05L79.059 91.98C78.639 91.56 77.939 91.28 77.239 91.28C75.419 91.28 73.879 92.68 73.879 94.71C73.879 96.74 75.419 98.14 77.239 98.14C77.939 98.14 78.639 97.86 79.059 97.44L79.129 97.37L79.199 97.44L79.339 98H80.599V91.42ZM79.339 94.71C79.339 95.9 78.499 96.88 77.309 96.88C75.979 96.88 75.265 95.9 75.265 94.71C75.265 93.52 75.979 92.54 77.309 92.54C78.499 92.54 79.339 93.52 79.339 94.71ZM81.8634 98H83.5434V96.18H81.8634V98Z" fill="white"/>
</svg>
