<svg width="256" height="178" viewBox="0 0 256 178" fill="none" xmlns="http://www.w3.org/2000/svg">
<rect width="256" height="178" fill="#502B00"/>
<path d="M113.656 126H132.088L96.856 51.408H67.192L31.96 126H50.296L60.568 103.44H103.384L113.656 126ZM79.576 61.872H84.472L98.584 92.88H65.368L79.576 61.872ZM193.094 111.408L193.958 91.536C194.342 80.688 185.222 71.472 167.942 71.472C141.062 71.472 135.974 89.616 135.974 89.616L152.486 93.84C152.486 93.84 152.582 82.032 167.174 82.032C176.966 82.032 178.118 87.984 178.118 92.88C148.934 95.376 138.47 105.648 138.47 114.576C138.47 122.64 144.422 127.248 154.214 127.248C170.726 127.248 179.75 110.064 180.23 109.2C180.23 119.952 183.11 127.248 194.534 127.248C202.886 127.248 207.302 122.256 207.302 122.256L204.134 111.888C204.134 111.888 201.35 116.688 196.934 116.688C194.054 116.688 192.998 114.384 193.094 111.408ZM154.982 111.312C154.982 106.224 160.646 99.6 178.118 97.968V101.712C178.118 101.712 171.686 116.688 160.55 116.688C155.75 116.688 154.982 113.616 154.982 111.312Z" fill="#FFA842"/>
</svg>
