<svg width="256" height="178" viewBox="0 0 256 178" fill="none" xmlns="http://www.w3.org/2000/svg">
<rect width="256" height="178" fill="#FFA842"/>
<path d="M60.12 115.848V117H74.712V115.848C73.272 115.656 68.28 115.272 68.76 112.872L77.88 86.184H107.256L116.76 112.776C117.72 115.752 112.44 115.56 110.904 115.848V117H133.56V115.848C131.064 115.464 127.512 115.08 126.84 112.872C126.744 112.776 106.584 56.328 106.584 56.328C103.224 46.824 101.592 42.408 96.312 42.408C90.936 42.408 89.592 47.4 86.52 56.52C86.52 56.52 67.416 112.68 67.416 112.776C66.264 115.464 62.616 115.464 60.12 115.848ZM87.96 56.52C88.824 53.832 89.88 50.28 92.472 50.28C95.064 50.28 95.736 53.832 96.6 56.328L106.872 85.032H78.264L87.96 56.52ZM136.3 109.224C137.356 115.176 142.732 117.48 148.684 117.48C160.3 117.576 168.46 109.32 172.204 106.056C172.204 111.432 171.436 117.672 177.58 117.672C183.724 117.672 189.58 111.048 189.58 111.048L188.62 110.376C186.508 112.68 184.78 113.544 183.532 113.544C181.9 113.544 181.132 112.008 181.132 109.992C181.132 106.536 181.036 95.976 181.036 81.288C181.036 68.616 173.26 63.144 162.604 63.144C160.972 63.144 159.244 63.336 157.42 63.528C144.268 65.352 139.276 72.552 141.868 76.104C142.444 76.968 143.212 77.256 143.98 77.256C146.668 77.256 150.604 73.992 155.788 73.512C161.164 73.032 162.7 74.952 162.892 77.352C163.564 83.592 150.124 88.968 145.708 91.944C140.14 95.784 134.956 101.064 136.3 109.224ZM155.212 90.696C162.796 84.936 164.62 80.616 164.14 76.968C163.564 72.168 157.804 70.92 151.564 71.592C150.316 71.688 148.972 71.4 149.644 70.344C151.372 67.464 155.596 65.064 160.588 64.968C166.444 64.872 172.204 68.808 172.204 81.192V104.52C169.804 106.824 164.908 109.896 161.356 111.432C159.628 112.296 157.612 112.68 155.5 112.68C151.564 112.68 147.628 111.144 146.188 107.496C144.076 102.024 147.628 96.456 155.212 90.696Z" fill="black"/>
</svg>
