<svg width="380" height="131" viewBox="0 0 380 131" fill="none" xmlns="http://www.w3.org/2000/svg">
<rect width="380" height="131" fill="#FFA842"/>
<path d="M28 98V48H38V38H48V28H78V38H88V48H98V98H78V78H48V98H28ZM48 68H78V48H68V38H58V48H48V68ZM118 98V88H108V78H118V68H158V58H118V48H168V58H178V98H118ZM128 88H158V78H128V88Z" fill="black"/>
<path d="M205 77.75V62H218.5V64.25H220.75V71H218.5V73.25H209.5V77.75H205ZM209.5 71H216.25V64.25H209.5V71ZM229.75 68.75H232V71H229.75V77.75H225.25V66.5H229.75V68.75ZM238.75 66.5V68.75H232V66.5H238.75ZM243.25 77.75V75.5H241V68.75H243.25V66.5H254.5V68.75H256.75V73.25H245.5V75.5H254.5V77.75H243.25ZM245.5 71H252.25V68.75H245.5V71ZM259 77.75V75.5H270.25V73.25H261.25V71H259V68.75H261.25V66.5H272.5V68.75H263.5V71H272.5V73.25H274.75V75.5H272.5V77.75H259ZM277 77.75V75.5H288.25V73.25H279.25V71H277V68.75H279.25V66.5H290.5V68.75H281.5V71H290.5V73.25H292.75V75.5H290.5V77.75H277ZM207.25 97.75V95.5H205V93.25H209.5V95.5H216.25V91H207.25V88.75H205V84.25H207.25V82H218.5V84.25H220.75V86.5H216.25V84.25H209.5V88.75H218.5V91H220.75V95.5H218.5V97.75H207.25ZM229.75 97.75V88.75H225.25V86.5H229.75V82H234.25V86.5H238.75V88.75H234.25V97.75H229.75ZM243.25 97.75V95.5H241V93.25H243.25V91H252.25V88.75H243.25V86.5H254.5V88.75H256.75V97.75H243.25ZM245.5 95.5H252.25V93.25H245.5V95.5ZM265.75 88.75H268V91H265.75V97.75H261.25V86.5H265.75V88.75ZM274.75 86.5V88.75H268V86.5H274.75ZM283.75 97.75V88.75H279.25V86.5H283.75V82H288.25V86.5H292.75V88.75H288.25V97.75H283.75ZM313 97.75V93.25H315.25V91H317.5V88.75H322V86.5H324.25V84.25H317.5V86.5H313V84.25H315.25V82H326.5V84.25H328.75V88.75H326.5V91H324.25V93.25H319.75V95.5H328.75V97.75H313ZM331 97.75V82H344.5V84.25H346.75V91H344.5V93.25H335.5V97.75H331ZM335.5 91H342.25V84.25H335.5V91Z" fill="black"/>
</svg>
