<svg width="256" height="118" viewBox="0 0 256 118" fill="none" xmlns="http://www.w3.org/2000/svg">
<rect width="256" height="118" fill="#2B66FF"/>
<path d="M21.5 24.722C21.5 25.142 21.5793 25.5293 21.738 25.884C21.8967 26.2387 22.1113 26.5467 22.382 26.808C22.6527 27.0693 22.9653 27.2747 23.32 27.424C23.684 27.564 24.0667 27.634 24.468 27.634C24.8693 27.634 25.2473 27.564 25.602 27.424C25.966 27.2747 26.2833 27.0693 26.554 26.808C26.834 26.5467 27.0533 26.2387 27.212 25.884C27.3707 25.5293 27.45 25.142 27.45 24.722C27.45 24.302 27.3707 23.9147 27.212 23.56C27.0533 23.2053 26.834 22.8973 26.554 22.636C26.2833 22.3747 25.966 22.174 25.602 22.034C25.2473 21.8847 24.8693 21.81 24.468 21.81C24.0667 21.81 23.684 21.8847 23.32 22.034C22.9653 22.174 22.6527 22.3747 22.382 22.636C22.1113 22.8973 21.8967 23.2053 21.738 23.56C21.5793 23.9147 21.5 24.302 21.5 24.722ZM18.63 24.722C18.63 23.938 18.7747 23.21 19.064 22.538C19.3533 21.8567 19.7547 21.264 20.268 20.76C20.7813 20.256 21.3927 19.864 22.102 19.584C22.8207 19.2947 23.6093 19.15 24.468 19.15C25.3173 19.15 26.1013 19.2947 26.82 19.584C27.5387 19.864 28.1547 20.256 28.668 20.76C29.1907 21.264 29.5967 21.8567 29.886 22.538C30.1753 23.21 30.32 23.938 30.32 24.722C30.32 25.506 30.1753 26.2387 29.886 26.92C29.5967 27.592 29.1907 28.18 28.668 28.684C28.1547 29.188 27.5387 29.5847 26.82 29.874C26.1013 30.154 25.3173 30.294 24.468 30.294C23.6093 30.294 22.8207 30.154 22.102 29.874C21.3927 29.5847 20.7813 29.188 20.268 28.684C19.7547 28.18 19.3533 27.592 19.064 26.92C18.7747 26.2387 18.63 25.506 18.63 24.722ZM37.1213 24.932H35.4413V30H32.9073V24.932H31.2273V22.818H37.1213V24.932ZM43.3647 25.296V22.818H45.8987V30H43.3647V27.382H40.7887V30H38.2547V22.818H40.7887V25.296H43.3647ZM50.0276 26.374C50.0276 26.6167 50.0696 26.8407 50.1536 27.046C50.247 27.242 50.3636 27.4147 50.5036 27.564C50.653 27.7133 50.8256 27.83 51.0216 27.914C51.227 27.998 51.4416 28.04 51.6656 28.04C51.8896 28.04 52.0996 27.998 52.2956 27.914C52.501 27.83 52.6736 27.7133 52.8136 27.564C52.963 27.4147 53.0796 27.242 53.1636 27.046C53.257 26.8407 53.3036 26.6213 53.3036 26.388C53.3036 26.164 53.257 25.954 53.1636 25.758C53.0796 25.5527 52.963 25.3753 52.8136 25.226C52.6736 25.0767 52.501 24.96 52.2956 24.876C52.0996 24.792 51.8896 24.75 51.6656 24.75C51.4416 24.75 51.227 24.792 51.0216 24.876C50.8256 24.96 50.653 25.0767 50.5036 25.226C50.3636 25.3753 50.247 25.548 50.1536 25.744C50.0696 25.94 50.0276 26.15 50.0276 26.374ZM47.3536 26.346C47.3536 25.814 47.461 25.3193 47.6756 24.862C47.8903 24.3953 48.189 23.994 48.5716 23.658C48.9543 23.3127 49.407 23.042 49.9296 22.846C50.4616 22.65 51.0403 22.552 51.6656 22.552C52.2816 22.552 52.851 22.65 53.3736 22.846C53.9056 23.0327 54.363 23.2987 54.7456 23.644C55.1376 23.98 55.441 24.386 55.6556 24.862C55.8703 25.3287 55.9776 25.8467 55.9776 26.416C55.9776 26.9853 55.8656 27.508 55.6416 27.984C55.427 28.4507 55.1283 28.8567 54.7456 29.202C54.363 29.538 53.901 29.7993 53.3596 29.986C52.8276 30.1727 52.249 30.266 51.6236 30.266C51.0076 30.266 50.4383 30.1727 49.9156 29.986C49.393 29.7993 48.9403 29.5333 48.5576 29.188C48.1843 28.8427 47.8903 28.432 47.6756 27.956C47.461 27.4707 47.3536 26.934 47.3536 26.346ZM62.8544 25.142C62.4157 24.8433 61.9724 24.694 61.5244 24.694C61.2817 24.694 61.053 24.736 60.8384 24.82C60.633 24.904 60.451 25.0253 60.2924 25.184C60.1337 25.3333 60.0077 25.5153 59.9144 25.73C59.8304 25.9353 59.7884 26.1687 59.7884 26.43C59.7884 26.682 59.8304 26.9153 59.9144 27.13C60.0077 27.3353 60.129 27.5173 60.2784 27.676C60.437 27.8253 60.6237 27.942 60.8384 28.026C61.053 28.11 61.2817 28.152 61.5244 28.152C62.0004 28.152 62.4437 27.9887 62.8544 27.662V29.818C62.229 30.0887 61.6364 30.224 61.0764 30.224C60.5537 30.224 60.0544 30.1353 59.5784 29.958C59.1117 29.7807 58.6964 29.5287 58.3324 29.202C57.9777 28.866 57.693 28.4693 57.4784 28.012C57.2637 27.5453 57.1564 27.0273 57.1564 26.458C57.1564 25.8887 57.259 25.3707 57.4644 24.904C57.6697 24.428 57.9497 24.022 58.3044 23.686C58.659 23.3407 59.079 23.0747 59.5644 22.888C60.059 22.692 60.5864 22.594 61.1464 22.594C61.7624 22.594 62.3317 22.7247 62.8544 22.986V25.142ZM66.8336 22.818V26.836L69.8436 22.818H72.3776V30H69.8436V25.996L66.8196 30H64.2996V22.818H66.8336ZM79.422 24.932H77.742V30H75.208V24.932H73.528V22.818H79.422V24.932ZM85.9559 25.366C85.8719 25.0113 85.6992 24.7267 85.4379 24.512C85.1766 24.2973 84.8592 24.19 84.4859 24.19C84.0939 24.19 83.7719 24.2927 83.5199 24.498C83.2772 24.7033 83.1232 24.9927 83.0579 25.366H85.9559ZM82.9879 26.836C82.9879 27.928 83.5012 28.474 84.5279 28.474C85.0786 28.474 85.4939 28.25 85.7739 27.802H88.2239C87.7292 29.4447 86.4926 30.266 84.5139 30.266C83.9072 30.266 83.3519 30.1773 82.8479 30C82.3439 29.8133 81.9099 29.552 81.5459 29.216C81.1912 28.88 80.9159 28.4787 80.7199 28.012C80.5239 27.5453 80.4259 27.0227 80.4259 26.444C80.4259 25.8467 80.5192 25.31 80.7059 24.834C80.8926 24.3487 81.1586 23.938 81.5039 23.602C81.8492 23.266 82.2646 23.0093 82.7499 22.832C83.2446 22.6453 83.7999 22.552 84.4159 22.552C85.0226 22.552 85.5686 22.6453 86.0539 22.832C86.5392 23.0093 86.9499 23.2707 87.2859 23.616C87.6219 23.9613 87.8786 24.386 88.0559 24.89C88.2332 25.3847 88.3219 25.9447 88.3219 26.57V26.836H82.9879ZM89.4343 27.914C89.4623 27.9233 89.5043 27.928 89.5603 27.928C89.6817 27.928 89.789 27.9187 89.8823 27.9C89.9757 27.8813 90.0503 27.844 90.1063 27.788C90.1623 27.7227 90.2043 27.6293 90.2323 27.508C90.2603 27.3867 90.2743 27.228 90.2743 27.032V22.818H97.2743V30H94.7403V24.932H92.8083V27.312C92.8083 27.8253 92.729 28.2687 92.5703 28.642C92.421 29.0153 92.211 29.3233 91.9403 29.566C91.6697 29.8087 91.3383 29.986 90.9463 30.098C90.5637 30.2193 90.1437 30.28 89.6863 30.28H89.4343V27.914ZM101.561 28.18H102.541C103.045 28.18 103.297 27.942 103.297 27.466C103.297 27.0087 103.045 26.78 102.541 26.78H101.561V28.18ZM101.561 22.818V24.946H103.045C103.903 24.946 104.557 25.1467 105.005 25.548C105.453 25.94 105.677 26.514 105.677 27.27C105.677 27.6807 105.616 28.054 105.495 28.39C105.373 28.7167 105.191 29.0013 104.949 29.244C104.715 29.4867 104.426 29.6733 104.081 29.804C103.735 29.9347 103.334 30 102.877 30H99.0265V22.818H101.561ZM112.093 25.296V22.818H114.627V30H112.093V27.382H109.517V30H106.983V22.818H109.517V25.296H112.093ZM118.714 26.388C118.714 26.6213 118.756 26.8407 118.84 27.046C118.924 27.242 119.036 27.4147 119.176 27.564C119.325 27.7133 119.498 27.83 119.694 27.914C119.899 27.998 120.119 28.04 120.352 28.04C120.576 28.04 120.786 27.998 120.982 27.914C121.187 27.83 121.36 27.7133 121.5 27.564C121.649 27.4147 121.766 27.242 121.85 27.046C121.943 26.85 121.99 26.64 121.99 26.416C121.99 26.192 121.943 25.982 121.85 25.786C121.766 25.5807 121.649 25.4033 121.5 25.254C121.36 25.1047 121.187 24.988 120.982 24.904C120.786 24.82 120.576 24.778 120.352 24.778C120.119 24.778 119.899 24.82 119.694 24.904C119.498 24.988 119.325 25.1047 119.176 25.254C119.036 25.4033 118.924 25.576 118.84 25.772C118.756 25.9587 118.714 26.164 118.714 26.388ZM121.906 22.818H124.454V30H121.906V29.202C121.365 29.8833 120.632 30.224 119.708 30.224C119.185 30.224 118.705 30.1307 118.266 29.944C117.827 29.748 117.445 29.4773 117.118 29.132C116.791 28.7867 116.535 28.3807 116.348 27.914C116.171 27.4473 116.082 26.9387 116.082 26.388C116.082 25.8747 116.171 25.3893 116.348 24.932C116.525 24.4653 116.773 24.0593 117.09 23.714C117.407 23.3687 117.785 23.098 118.224 22.902C118.663 22.6967 119.148 22.594 119.68 22.594C120.576 22.594 121.318 22.9067 121.906 23.532V22.818ZM130.183 24.666H129.399C129.156 24.666 128.965 24.736 128.825 24.876C128.685 25.0067 128.615 25.1887 128.615 25.422C128.615 25.6647 128.685 25.856 128.825 25.996C128.965 26.1267 129.156 26.192 129.399 26.192H130.183V24.666ZM127.565 27.564C127.154 27.4333 126.837 27.1767 126.613 26.794C126.389 26.4113 126.277 25.94 126.277 25.38C126.277 25.0253 126.333 24.694 126.445 24.386C126.566 24.0687 126.743 23.798 126.977 23.574C127.21 23.3407 127.499 23.1587 127.845 23.028C128.19 22.888 128.591 22.818 129.049 22.818H132.717V30H130.183V27.76H129.749L128.517 30H125.843L127.565 27.564ZM144.626 25.142C144.187 24.8433 143.744 24.694 143.296 24.694C143.053 24.694 142.825 24.736 142.61 24.82C142.405 24.904 142.223 25.0253 142.064 25.184C141.905 25.3333 141.779 25.5153 141.686 25.73C141.602 25.9353 141.56 26.1687 141.56 26.43C141.56 26.682 141.602 26.9153 141.686 27.13C141.779 27.3353 141.901 27.5173 142.05 27.676C142.209 27.8253 142.395 27.942 142.61 28.026C142.825 28.11 143.053 28.152 143.296 28.152C143.772 28.152 144.215 27.9887 144.626 27.662V29.818C144.001 30.0887 143.408 30.224 142.848 30.224C142.325 30.224 141.826 30.1353 141.35 29.958C140.883 29.7807 140.468 29.5287 140.104 29.202C139.749 28.866 139.465 28.4693 139.25 28.012C139.035 27.5453 138.928 27.0273 138.928 26.458C138.928 25.8887 139.031 25.3707 139.236 24.904C139.441 24.428 139.721 24.022 140.076 23.686C140.431 23.3407 140.851 23.0747 141.336 22.888C141.831 22.692 142.358 22.594 142.918 22.594C143.534 22.594 144.103 22.7247 144.626 22.986V25.142ZM145.735 27.914C145.763 27.9233 145.805 27.928 145.861 27.928C145.982 27.928 146.09 27.9187 146.183 27.9C146.276 27.8813 146.351 27.844 146.407 27.788C146.463 27.7227 146.505 27.6293 146.533 27.508C146.561 27.3867 146.575 27.228 146.575 27.032V22.818H153.575V30H151.041V24.932H149.109V27.312C149.109 27.8253 149.03 28.2687 148.871 28.642C148.722 29.0153 148.512 29.3233 148.241 29.566C147.97 29.8087 147.639 29.986 147.247 30.098C146.864 30.2193 146.444 30.28 145.987 30.28H145.735V27.914ZM157.707 26.374C157.707 26.6167 157.749 26.8407 157.833 27.046C157.927 27.242 158.043 27.4147 158.183 27.564C158.333 27.7133 158.505 27.83 158.701 27.914C158.907 27.998 159.121 28.04 159.345 28.04C159.569 28.04 159.779 27.998 159.975 27.914C160.181 27.83 160.353 27.7133 160.493 27.564C160.643 27.4147 160.759 27.242 160.843 27.046C160.937 26.8407 160.983 26.6213 160.983 26.388C160.983 26.164 160.937 25.954 160.843 25.758C160.759 25.5527 160.643 25.3753 160.493 25.226C160.353 25.0767 160.181 24.96 159.975 24.876C159.779 24.792 159.569 24.75 159.345 24.75C159.121 24.75 158.907 24.792 158.701 24.876C158.505 24.96 158.333 25.0767 158.183 25.226C158.043 25.3753 157.927 25.548 157.833 25.744C157.749 25.94 157.707 26.15 157.707 26.374ZM155.033 26.346C155.033 25.814 155.141 25.3193 155.355 24.862C155.57 24.3953 155.869 23.994 156.251 23.658C156.634 23.3127 157.087 23.042 157.609 22.846C158.141 22.65 158.72 22.552 159.345 22.552C159.961 22.552 160.531 22.65 161.053 22.846C161.585 23.0327 162.043 23.2987 162.425 23.644C162.817 23.98 163.121 24.386 163.335 24.862C163.55 25.3287 163.657 25.8467 163.657 26.416C163.657 26.9853 163.545 27.508 163.321 27.984C163.107 28.4507 162.808 28.8567 162.425 29.202C162.043 29.538 161.581 29.7993 161.039 29.986C160.507 30.1727 159.929 30.266 159.303 30.266C158.687 30.266 158.118 30.1727 157.595 29.986C157.073 29.7993 156.62 29.5333 156.237 29.188C155.864 28.8427 155.57 28.432 155.355 27.956C155.141 27.4707 155.033 26.934 155.033 26.346ZM174.594 22.818H177.31L174.314 26.262L177.674 30H174.804L172.298 27.088V30H169.764V27.088L167.23 30H164.36L167.734 26.262L164.738 22.818H167.454L169.764 25.758V22.818H172.298V25.758L174.594 22.818ZM183.761 25.296V22.818H186.295V30H183.761V27.382H181.185V30H178.651V22.818H181.185V25.296H183.761ZM190.424 26.374C190.424 26.6167 190.466 26.8407 190.55 27.046C190.643 27.242 190.76 27.4147 190.9 27.564C191.049 27.7133 191.222 27.83 191.418 27.914C191.623 27.998 191.838 28.04 192.062 28.04C192.286 28.04 192.496 27.998 192.692 27.914C192.897 27.83 193.07 27.7133 193.21 27.564C193.359 27.4147 193.476 27.242 193.56 27.046C193.653 26.8407 193.7 26.6213 193.7 26.388C193.7 26.164 193.653 25.954 193.56 25.758C193.476 25.5527 193.359 25.3753 193.21 25.226C193.07 25.0767 192.897 24.96 192.692 24.876C192.496 24.792 192.286 24.75 192.062 24.75C191.838 24.75 191.623 24.792 191.418 24.876C191.222 24.96 191.049 25.0767 190.9 25.226C190.76 25.3753 190.643 25.548 190.55 25.744C190.466 25.94 190.424 26.15 190.424 26.374ZM187.75 26.346C187.75 25.814 187.857 25.3193 188.072 24.862C188.287 24.3953 188.585 23.994 188.968 23.658C189.351 23.3127 189.803 23.042 190.326 22.846C190.858 22.65 191.437 22.552 192.062 22.552C192.678 22.552 193.247 22.65 193.77 22.846C194.302 23.0327 194.759 23.2987 195.142 23.644C195.534 23.98 195.837 24.386 196.052 24.862C196.267 25.3287 196.374 25.8467 196.374 26.416C196.374 26.9853 196.262 27.508 196.038 27.984C195.823 28.4507 195.525 28.8567 195.142 29.202C194.759 29.538 194.297 29.7993 193.756 29.986C193.224 30.1727 192.645 30.266 192.02 30.266C191.404 30.266 190.835 30.1727 190.312 29.986C189.789 29.7993 189.337 29.5333 188.954 29.188C188.581 28.8427 188.287 28.432 188.072 27.956C187.857 27.4707 187.75 26.934 187.75 26.346ZM203.251 25.142C202.812 24.8433 202.369 24.694 201.921 24.694C201.678 24.694 201.45 24.736 201.235 24.82C201.03 24.904 200.848 25.0253 200.689 25.184C200.53 25.3333 200.404 25.5153 200.311 25.73C200.227 25.9353 200.185 26.1687 200.185 26.43C200.185 26.682 200.227 26.9153 200.311 27.13C200.404 27.3353 200.526 27.5173 200.675 27.676C200.834 27.8253 201.02 27.942 201.235 28.026C201.45 28.11 201.678 28.152 201.921 28.152C202.397 28.152 202.84 27.9887 203.251 27.662V29.818C202.626 30.0887 202.033 30.224 201.473 30.224C200.95 30.224 200.451 30.1353 199.975 29.958C199.508 29.7807 199.093 29.5287 198.729 29.202C198.374 28.866 198.09 28.4693 197.875 28.012C197.66 27.5453 197.553 27.0273 197.553 26.458C197.553 25.8887 197.656 25.3707 197.861 24.904C198.066 24.428 198.346 24.022 198.701 23.686C199.056 23.3407 199.476 23.0747 199.961 22.888C200.456 22.692 200.983 22.594 201.543 22.594C202.159 22.594 202.728 22.7247 203.251 22.986V25.142ZM210.002 24.932H208.322V30H205.788V24.932H204.108V22.818H210.002V24.932ZM213.684 28.18H214.664C215.168 28.18 215.42 27.942 215.42 27.466C215.42 27.0087 215.168 26.78 214.664 26.78H213.684V28.18ZM213.684 22.818V24.946H215.168C216.026 24.946 216.68 25.1467 217.128 25.548C217.576 25.94 217.8 26.514 217.8 27.27C217.8 27.6807 217.739 28.054 217.618 28.39C217.496 28.7167 217.314 29.0013 217.072 29.244C216.838 29.4867 216.549 29.6733 216.204 29.804C215.858 29.9347 215.457 30 215 30H211.15V22.818H213.684ZM21.094 43.416C21.094 43.6307 21.1313 43.836 21.206 44.032C21.29 44.2187 21.402 44.3913 21.542 44.55C21.6913 44.6993 21.8687 44.8207 22.074 44.914C22.2887 44.998 22.5267 45.04 22.788 45.04V41.778C22.5267 41.778 22.2887 41.8247 22.074 41.918C21.8687 42.002 21.6913 42.1233 21.542 42.282C21.402 42.4313 21.29 42.604 21.206 42.8C21.1313 42.996 21.094 43.2013 21.094 43.416ZM26.806 43.416C26.806 43.2013 26.764 42.996 26.68 42.8C26.6053 42.604 26.4933 42.4313 26.344 42.282C26.204 42.1233 26.0267 42.002 25.812 41.918C25.6067 41.8247 25.3733 41.778 25.112 41.778V45.04C25.3733 45.04 25.6067 44.998 25.812 44.914C26.0267 44.8207 26.204 44.6993 26.344 44.55C26.4933 44.3913 26.6053 44.2187 26.68 44.032C26.764 43.836 26.806 43.6307 26.806 43.416ZM22.788 50.584V47.14C22.6387 47.1773 22.4893 47.2007 22.34 47.21C22.2 47.2193 22.0413 47.224 21.864 47.224C21.3787 47.224 20.9353 47.1307 20.534 46.944C20.1327 46.7573 19.7873 46.5007 19.498 46.174C19.2087 45.838 18.9847 45.4367 18.826 44.97C18.6673 44.5033 18.588 43.99 18.588 43.43C18.588 42.8607 18.6673 42.3427 18.826 41.876C18.9847 41.4 19.2087 40.994 19.498 40.658C19.7873 40.322 20.1327 40.0607 20.534 39.874C20.9353 39.6873 21.3787 39.594 21.864 39.594C22.032 39.594 22.1907 39.6033 22.34 39.622C22.4893 39.6313 22.6387 39.6593 22.788 39.706V36.878H25.112V39.706C25.2707 39.6593 25.42 39.6313 25.56 39.622C25.7093 39.6033 25.8633 39.594 26.022 39.594C26.5073 39.594 26.9507 39.6873 27.352 39.874C27.7627 40.0607 28.1127 40.322 28.402 40.658C28.6913 40.994 28.9153 41.4 29.074 41.876C29.242 42.3427 29.326 42.856 29.326 43.416C29.326 43.9853 29.242 44.5033 29.074 44.97C28.9153 45.4367 28.6913 45.838 28.402 46.174C28.1127 46.51 27.7627 46.7713 27.352 46.958C26.9507 47.1353 26.5073 47.224 26.022 47.224C25.8633 47.224 25.7093 47.2193 25.56 47.21C25.42 47.2007 25.2707 47.1773 25.112 47.14V50.584H22.788ZM33.1702 43.374C33.1702 43.6167 33.2122 43.8407 33.2962 44.046C33.3895 44.242 33.5062 44.4147 33.6462 44.564C33.7955 44.7133 33.9682 44.83 34.1642 44.914C34.3695 44.998 34.5842 45.04 34.8082 45.04C35.0322 45.04 35.2422 44.998 35.4382 44.914C35.6435 44.83 35.8162 44.7133 35.9562 44.564C36.1055 44.4147 36.2222 44.242 36.3062 44.046C36.3995 43.8407 36.4462 43.6213 36.4462 43.388C36.4462 43.164 36.3995 42.954 36.3062 42.758C36.2222 42.5527 36.1055 42.3753 35.9562 42.226C35.8162 42.0767 35.6435 41.96 35.4382 41.876C35.2422 41.792 35.0322 41.75 34.8082 41.75C34.5842 41.75 34.3695 41.792 34.1642 41.876C33.9682 41.96 33.7955 42.0767 33.6462 42.226C33.5062 42.3753 33.3895 42.548 33.2962 42.744C33.2122 42.94 33.1702 43.15 33.1702 43.374ZM30.4962 43.346C30.4962 42.814 30.6035 42.3193 30.8182 41.862C31.0329 41.3953 31.3315 40.994 31.7142 40.658C32.0969 40.3127 32.5495 40.042 33.0722 39.846C33.6042 39.65 34.1829 39.552 34.8082 39.552C35.4242 39.552 35.9935 39.65 36.5162 39.846C37.0482 40.0327 37.5055 40.2987 37.8882 40.644C38.2802 40.98 38.5835 41.386 38.7982 41.862C39.0129 42.3287 39.1202 42.8467 39.1202 43.416C39.1202 43.9853 39.0082 44.508 38.7842 44.984C38.5695 45.4507 38.2709 45.8567 37.8882 46.202C37.5055 46.538 37.0435 46.7993 36.5022 46.986C35.9702 47.1727 35.3915 47.266 34.7662 47.266C34.1502 47.266 33.5809 47.1727 33.0582 46.986C32.5355 46.7993 32.0829 46.5333 31.7002 46.188C31.3269 45.8427 31.0329 45.432 30.8182 44.956C30.6035 44.4707 30.4962 43.934 30.4962 43.346ZM45.6889 42.296V39.818H48.2229V47H45.6889V44.382H43.1129V47H40.5789V39.818H43.1129V42.296H45.6889ZM55.2078 42.366C55.1238 42.0113 54.9512 41.7267 54.6898 41.512C54.4285 41.2973 54.1112 41.19 53.7378 41.19C53.3458 41.19 53.0238 41.2927 52.7718 41.498C52.5292 41.7033 52.3752 41.9927 52.3098 42.366H55.2078ZM52.2398 43.836C52.2398 44.928 52.7532 45.474 53.7798 45.474C54.3305 45.474 54.7458 45.25 55.0258 44.802H57.4758C56.9812 46.4447 55.7445 47.266 53.7658 47.266C53.1592 47.266 52.6038 47.1773 52.0998 47C51.5958 46.8133 51.1618 46.552 50.7978 46.216C50.4432 45.88 50.1678 45.4787 49.9718 45.012C49.7758 44.5453 49.6778 44.0227 49.6778 43.444C49.6778 42.8467 49.7712 42.31 49.9578 41.834C50.1445 41.3487 50.4105 40.938 50.7558 40.602C51.1012 40.266 51.5165 40.0093 52.0018 39.832C52.4965 39.6453 53.0518 39.552 53.6678 39.552C54.2745 39.552 54.8205 39.6453 55.3058 39.832C55.7912 40.0093 56.2018 40.2707 56.5378 40.616C56.8738 40.9613 57.1305 41.386 57.3078 41.89C57.4852 42.3847 57.5738 42.9447 57.5738 43.57V43.836H52.2398ZM64.3283 41.932H62.6483V47H60.1143V41.932H58.4343V39.818H64.3283V41.932ZM67.9958 39.818V43.836L71.0058 39.818H73.5398V47H71.0058V42.996L67.9818 47H65.4618V39.818H67.9958ZM79.6042 45.292C79.4362 45.3293 79.2635 45.362 79.0862 45.39C78.9182 45.4087 78.7362 45.418 78.5402 45.418C77.9055 45.418 77.3595 45.334 76.9022 45.166C76.4448 44.9887 76.0715 44.7367 75.7822 44.41C75.4928 44.074 75.2782 43.6633 75.1382 43.178C75.0075 42.6927 74.9422 42.1373 74.9422 41.512V39.818H77.4762V41.596C77.4762 41.96 77.5042 42.2587 77.5602 42.492C77.6255 42.716 77.7142 42.8887 77.8262 43.01C77.9382 43.1313 78.0688 43.2153 78.2182 43.262C78.3675 43.2993 78.5308 43.318 78.7082 43.318C79.0722 43.318 79.3708 43.2013 79.6042 42.968V39.818H82.1382V47H79.6042V45.292ZM89.1278 42.366C89.0438 42.0113 88.8711 41.7267 88.6098 41.512C88.3484 41.2973 88.0311 41.19 87.6578 41.19C87.2658 41.19 86.9438 41.2927 86.6918 41.498C86.4491 41.7033 86.2951 41.9927 86.2298 42.366H89.1278ZM86.1598 43.836C86.1598 44.928 86.6731 45.474 87.6998 45.474C88.2504 45.474 88.6658 45.25 88.9458 44.802H91.3958C90.9011 46.4447 89.6644 47.266 87.6858 47.266C87.0791 47.266 86.5238 47.1773 86.0198 47C85.5158 46.8133 85.0818 46.552 84.7178 46.216C84.3631 45.88 84.0878 45.4787 83.8918 45.012C83.6958 44.5453 83.5978 44.0227 83.5978 43.444C83.5978 42.8467 83.6911 42.31 83.8778 41.834C84.0644 41.3487 84.3304 40.938 84.6758 40.602C85.0211 40.266 85.4364 40.0093 85.9218 39.832C86.4164 39.6453 86.9718 39.552 87.5878 39.552C88.1944 39.552 88.7404 39.6453 89.2258 39.832C89.7111 40.0093 90.1218 40.2707 90.4578 40.616C90.7938 40.9613 91.0504 41.386 91.2278 41.89C91.4051 42.3847 91.4938 42.9447 91.4938 43.57V43.836H86.1598ZM98.3602 42.142C97.9216 41.8433 97.4782 41.694 97.0302 41.694C96.7876 41.694 96.5589 41.736 96.3442 41.82C96.1389 41.904 95.9569 42.0253 95.7982 42.184C95.6396 42.3333 95.5136 42.5153 95.4202 42.73C95.3362 42.9353 95.2942 43.1687 95.2942 43.43C95.2942 43.682 95.3362 43.9153 95.4202 44.13C95.5136 44.3353 95.6349 44.5173 95.7842 44.676C95.9429 44.8253 96.1296 44.942 96.3442 45.026C96.5589 45.11 96.7876 45.152 97.0302 45.152C97.5062 45.152 97.9496 44.9887 98.3602 44.662V46.818C97.7349 47.0887 97.1422 47.224 96.5822 47.224C96.0596 47.224 95.5602 47.1353 95.0842 46.958C94.6176 46.7807 94.2022 46.5287 93.8382 46.202C93.4836 45.866 93.1989 45.4693 92.9842 45.012C92.7696 44.5453 92.6622 44.0273 92.6622 43.458C92.6622 42.8887 92.7649 42.3707 92.9702 41.904C93.1756 41.428 93.4556 41.022 93.8102 40.686C94.1649 40.3407 94.5849 40.0747 95.0702 39.888C95.5649 39.692 96.0922 39.594 96.6522 39.594C97.2682 39.594 97.8376 39.7247 98.3602 39.986V42.142ZM104.44 39.818H107.142L104.3 43.262L107.52 47H104.622L102.34 44.13V47H99.8055V39.818H102.34V42.702L104.44 39.818ZM110.939 39.818V43.836L113.949 39.818H116.483V47H113.949V42.996L110.925 47H108.405V39.818H110.939ZM120.938 43.108L118.026 39.818H121.33L122.562 41.302L123.822 39.818H127.126L124.144 43.108L127.742 47H124.382L122.548 44.872L120.7 47H117.354L120.938 43.108ZM138.788 42.142C138.349 41.8433 137.906 41.694 137.458 41.694C137.215 41.694 136.987 41.736 136.772 41.82C136.567 41.904 136.385 42.0253 136.226 42.184C136.067 42.3333 135.941 42.5153 135.848 42.73C135.764 42.9353 135.722 43.1687 135.722 43.43C135.722 43.682 135.764 43.9153 135.848 44.13C135.941 44.3353 136.063 44.5173 136.212 44.676C136.371 44.8253 136.557 44.942 136.772 45.026C136.987 45.11 137.215 45.152 137.458 45.152C137.934 45.152 138.377 44.9887 138.788 44.662V46.818C138.163 47.0887 137.57 47.224 137.01 47.224C136.487 47.224 135.988 47.1353 135.512 46.958C135.045 46.7807 134.63 46.5287 134.266 46.202C133.911 45.866 133.627 45.4693 133.412 45.012C133.197 44.5453 133.09 44.0273 133.09 43.458C133.09 42.8887 133.193 42.3707 133.398 41.904C133.603 41.428 133.883 41.022 134.238 40.686C134.593 40.3407 135.013 40.0747 135.498 39.888C135.993 39.692 136.52 39.594 137.08 39.594C137.696 39.594 138.265 39.7247 138.788 39.986V42.142ZM142.767 39.818V43.836L145.777 39.818H148.311V47H145.777V42.996L142.753 47H140.233V39.818H142.767ZM155.468 42.142C155.029 41.8433 154.586 41.694 154.138 41.694C153.895 41.694 153.666 41.736 153.452 41.82C153.246 41.904 153.064 42.0253 152.906 42.184C152.747 42.3333 152.621 42.5153 152.528 42.73C152.444 42.9353 152.402 43.1687 152.402 43.43C152.402 43.682 152.444 43.9153 152.528 44.13C152.621 44.3353 152.742 44.5173 152.892 44.676C153.05 44.8253 153.237 44.942 153.452 45.026C153.666 45.11 153.895 45.152 154.138 45.152C154.614 45.152 155.057 44.9887 155.468 44.662V46.818C154.842 47.0887 154.25 47.224 153.69 47.224C153.167 47.224 152.668 47.1353 152.192 46.958C151.725 46.7807 151.31 46.5287 150.946 46.202C150.591 45.866 150.306 45.4693 150.092 45.012C149.877 44.5453 149.77 44.0273 149.77 43.458C149.77 42.8887 149.872 42.3707 150.078 41.904C150.283 41.428 150.563 41.022 150.918 40.686C151.272 40.3407 151.692 40.0747 152.178 39.888C152.672 39.692 153.2 39.594 153.76 39.594C154.376 39.594 154.945 39.7247 155.468 39.986V42.142ZM162.219 41.932H160.539V47H158.005V41.932H156.325V39.818H162.219V41.932ZM168.753 42.366C168.669 42.0113 168.496 41.7267 168.235 41.512C167.973 41.2973 167.656 41.19 167.283 41.19C166.891 41.19 166.569 41.2927 166.317 41.498C166.074 41.7033 165.92 41.9927 165.855 42.366H168.753ZM165.785 43.836C165.785 44.928 166.298 45.474 167.325 45.474C167.875 45.474 168.291 45.25 168.571 44.802H171.021C170.526 46.4447 169.289 47.266 167.311 47.266C166.704 47.266 166.149 47.1773 165.645 47C165.141 46.8133 164.707 46.552 164.343 46.216C163.988 45.88 163.713 45.4787 163.517 45.012C163.321 44.5453 163.223 44.0227 163.223 43.444C163.223 42.8467 163.316 42.31 163.503 41.834C163.689 41.3487 163.955 40.938 164.301 40.602C164.646 40.266 165.061 40.0093 165.547 39.832C166.041 39.6453 166.597 39.552 167.213 39.552C167.819 39.552 168.365 39.6453 168.851 39.832C169.336 40.0093 169.747 40.2707 170.083 40.616C170.419 40.9613 170.675 41.386 170.853 41.89C171.03 42.3847 171.119 42.9447 171.119 43.57V43.836H165.785ZM176.333 47L174.779 42.772L174.079 47H171.937L173.309 39.818H175.395L176.879 43.696L178.363 39.818H180.449L181.821 47H179.665L178.979 42.772L177.425 47H176.333ZM191.692 41.666H190.908C190.666 41.666 190.474 41.736 190.334 41.876C190.194 42.0067 190.124 42.1887 190.124 42.422C190.124 42.6647 190.194 42.856 190.334 42.996C190.474 43.1267 190.666 43.192 190.908 43.192H191.692V41.666ZM189.074 44.564C188.664 44.4333 188.346 44.1767 188.122 43.794C187.898 43.4113 187.786 42.94 187.786 42.38C187.786 42.0253 187.842 41.694 187.954 41.386C188.076 41.0687 188.253 40.798 188.486 40.574C188.72 40.3407 189.009 40.1587 189.354 40.028C189.7 39.888 190.101 39.818 190.558 39.818H194.226V47H191.692V44.76H191.258L190.026 47H187.352L189.074 44.564ZM195.834 39.72C196.067 39.6733 196.296 39.636 196.52 39.608C196.753 39.5707 197 39.552 197.262 39.552C197.719 39.552 198.144 39.6033 198.536 39.706C198.928 39.8087 199.264 39.9533 199.544 40.14C199.833 40.3267 200.057 40.546 200.216 40.798C200.374 41.05 200.454 41.3207 200.454 41.61C200.454 41.9273 200.356 42.2167 200.16 42.478C199.973 42.73 199.67 42.9633 199.25 43.178C199.754 43.3367 200.118 43.556 200.342 43.836C200.575 44.1067 200.692 44.452 200.692 44.872C200.692 45.2173 200.608 45.5393 200.44 45.838C200.281 46.1273 200.048 46.3793 199.74 46.594C199.441 46.7993 199.082 46.9627 198.662 47.084C198.242 47.2053 197.78 47.266 197.276 47.266C197.033 47.266 196.786 47.252 196.534 47.224C196.282 47.196 196.048 47.1493 195.834 47.084V45.04C195.964 45.0867 196.114 45.124 196.282 45.152C196.459 45.1707 196.627 45.18 196.786 45.18C197.122 45.18 197.406 45.1333 197.64 45.04C197.882 44.9373 198.004 44.816 198.004 44.676C198.004 44.5173 197.868 44.382 197.598 44.27C197.327 44.1487 196.972 44.088 196.534 44.088H196.422V42.604C196.926 42.5947 197.29 42.548 197.514 42.464C197.747 42.38 197.864 42.2587 197.864 42.1C197.864 41.9507 197.784 41.8387 197.626 41.764C197.467 41.6893 197.252 41.652 196.982 41.652C196.786 41.652 196.585 41.6707 196.38 41.708C196.174 41.736 195.992 41.7733 195.834 41.82V39.72ZM212.345 39.818V47H209.811V39.818H212.345ZM204.645 45.18H205.625C206.129 45.18 206.381 44.942 206.381 44.466C206.381 44.0087 206.129 43.78 205.625 43.78H204.645V45.18ZM204.645 39.818V41.946H206.129C206.988 41.946 207.641 42.1467 208.089 42.548C208.537 42.94 208.761 43.514 208.761 44.27C208.761 44.6807 208.701 45.054 208.579 45.39C208.458 45.7167 208.276 46.0013 208.033 46.244C207.8 46.4867 207.511 46.6733 207.165 46.804C206.82 46.9347 206.419 47 205.961 47H202.111V39.818H204.645ZM218.709 39.818H221.411L218.569 43.262L221.789 47H218.891L216.609 44.13V47H214.075V39.818H216.609V42.702L218.709 39.818ZM225.069 43.374C225.069 43.6167 225.111 43.8407 225.195 44.046C225.288 44.242 225.405 44.4147 225.545 44.564C225.694 44.7133 225.867 44.83 226.063 44.914C226.268 44.998 226.483 45.04 226.707 45.04C226.931 45.04 227.141 44.998 227.337 44.914C227.542 44.83 227.715 44.7133 227.855 44.564C228.004 44.4147 228.121 44.242 228.205 44.046C228.298 43.8407 228.345 43.6213 228.345 43.388C228.345 43.164 228.298 42.954 228.205 42.758C228.121 42.5527 228.004 42.3753 227.855 42.226C227.715 42.0767 227.542 41.96 227.337 41.876C227.141 41.792 226.931 41.75 226.707 41.75C226.483 41.75 226.268 41.792 226.063 41.876C225.867 41.96 225.694 42.0767 225.545 42.226C225.405 42.3753 225.288 42.548 225.195 42.744C225.111 42.94 225.069 43.15 225.069 43.374ZM222.395 43.346C222.395 42.814 222.502 42.3193 222.717 41.862C222.931 41.3953 223.23 40.994 223.613 40.658C223.995 40.3127 224.448 40.042 224.971 39.846C225.503 39.65 226.081 39.552 226.707 39.552C227.323 39.552 227.892 39.65 228.415 39.846C228.947 40.0327 229.404 40.2987 229.787 40.644C230.179 40.98 230.482 41.386 230.697 41.862C230.911 42.3287 231.019 42.8467 231.019 43.416C231.019 43.9853 230.907 44.508 230.683 44.984C230.468 45.4507 230.169 45.8567 229.787 46.202C229.404 46.538 228.942 46.7993 228.401 46.986C227.869 47.1727 227.29 47.266 226.665 47.266C226.049 47.266 225.479 47.1727 224.957 46.986C224.434 46.7993 223.981 46.5333 223.599 46.188C223.225 45.8427 222.931 45.432 222.717 44.956C222.502 44.4707 222.395 43.934 222.395 43.346ZM236.229 45.236C236.425 45.236 236.575 45.18 236.677 45.068C236.78 44.956 236.831 44.8067 236.831 44.62C236.831 44.2187 236.631 44.018 236.229 44.018H234.843V45.236H236.229ZM236.047 42.59C236.318 42.59 236.453 42.4173 236.453 42.072C236.453 41.7267 236.318 41.554 236.047 41.554H234.843V42.59H236.047ZM232.477 39.818H236.285C236.995 39.818 237.531 39.9813 237.895 40.308C238.269 40.6253 238.455 41.0873 238.455 41.694C238.455 42.0487 238.399 42.338 238.287 42.562C238.175 42.786 237.984 42.9773 237.713 43.136C238.693 43.332 239.183 43.9247 239.183 44.914C239.183 45.5767 238.931 46.09 238.427 46.454C237.933 46.818 237.247 47 236.369 47H232.477V39.818ZM21.262 60.374C21.262 60.6167 21.304 60.8407 21.388 61.046C21.4813 61.242 21.598 61.4147 21.738 61.564C21.8873 61.7133 22.06 61.83 22.256 61.914C22.4613 61.998 22.676 62.04 22.9 62.04C23.124 62.04 23.334 61.998 23.53 61.914C23.7353 61.83 23.908 61.7133 24.048 61.564C24.1973 61.4147 24.314 61.242 24.398 61.046C24.4913 60.8407 24.538 60.6213 24.538 60.388C24.538 60.164 24.4913 59.954 24.398 59.758C24.314 59.5527 24.1973 59.3753 24.048 59.226C23.908 59.0767 23.7353 58.96 23.53 58.876C23.334 58.792 23.124 58.75 22.9 58.75C22.676 58.75 22.4613 58.792 22.256 58.876C22.06 58.96 21.8873 59.0767 21.738 59.226C21.598 59.3753 21.4813 59.548 21.388 59.744C21.304 59.94 21.262 60.15 21.262 60.374ZM18.588 60.346C18.588 59.814 18.6953 59.3193 18.91 58.862C19.1247 58.3953 19.4233 57.994 19.806 57.658C20.1887 57.3127 20.6413 57.042 21.164 56.846C21.696 56.65 22.2747 56.552 22.9 56.552C23.516 56.552 24.0853 56.65 24.608 56.846C25.14 57.0327 25.5973 57.2987 25.98 57.644C26.372 57.98 26.6753 58.386 26.89 58.862C27.1047 59.3287 27.212 59.8467 27.212 60.416C27.212 60.9853 27.1 61.508 26.876 61.984C26.6613 62.4507 26.3627 62.8567 25.98 63.202C25.5973 63.538 25.1353 63.7993 24.594 63.986C24.062 64.1727 23.4833 64.266 22.858 64.266C22.242 64.266 21.6727 64.1727 21.15 63.986C20.6273 63.7993 20.1747 63.5333 19.792 63.188C19.4187 62.8427 19.1247 62.432 18.91 61.956C18.6953 61.4707 18.588 60.934 18.588 60.346ZM32.7027 58.75C32.4787 58.75 32.2641 58.792 32.0587 58.876C31.8627 58.96 31.6901 59.0767 31.5407 59.226C31.4007 59.3753 31.2841 59.548 31.1907 59.744C31.1067 59.94 31.0647 60.1547 31.0647 60.388C31.0647 60.612 31.1067 60.8267 31.1907 61.032C31.2747 61.228 31.3867 61.4007 31.5267 61.55C31.6761 61.6993 31.8487 61.8207 32.0447 61.914C32.2501 61.998 32.4694 62.04 32.7027 62.04C32.9267 62.04 33.1367 61.998 33.3327 61.914C33.5381 61.8207 33.7154 61.6993 33.8647 61.55C34.0141 61.4007 34.1307 61.228 34.2147 61.032C34.2987 60.8267 34.3407 60.612 34.3407 60.388C34.3407 60.164 34.2987 59.954 34.2147 59.758C34.1307 59.5527 34.0141 59.3753 33.8647 59.226C33.7154 59.0767 33.5381 58.96 33.3327 58.876C33.1367 58.792 32.9267 58.75 32.7027 58.75ZM35.5307 54.872C35.4001 54.9933 35.2787 55.096 35.1667 55.18C35.0641 55.2547 34.9381 55.3247 34.7887 55.39C34.6394 55.4553 34.4527 55.5253 34.2287 55.6C34.0047 55.6747 33.7107 55.768 33.3467 55.88C33.0294 55.9827 32.7727 56.0667 32.5767 56.132C32.3807 56.1973 32.2221 56.258 32.1007 56.314C31.9794 56.37 31.8814 56.4307 31.8067 56.496C31.7414 56.552 31.6761 56.622 31.6107 56.706L31.5267 56.818C31.7414 56.734 31.9561 56.6687 32.1707 56.622C32.3947 56.5753 32.6467 56.552 32.9267 56.552C33.4961 56.552 34.0281 56.65 34.5227 56.846C35.0267 57.042 35.4654 57.3127 35.8387 57.658C36.2121 58.0033 36.5014 58.414 36.7067 58.89C36.9214 59.366 37.0287 59.8887 37.0287 60.458C37.0287 61.0087 36.9214 61.5173 36.7067 61.984C36.5014 62.4507 36.2074 62.852 35.8247 63.188C35.4421 63.524 34.9754 63.79 34.4247 63.986C33.8741 64.1727 33.2581 64.266 32.5767 64.266C31.9514 64.266 31.3821 64.1773 30.8687 64C30.3554 63.8227 29.9121 63.5473 29.5387 63.174C29.1747 62.8007 28.8901 62.3247 28.6847 61.746C28.4887 61.158 28.3907 60.458 28.3907 59.646C28.3907 58.3393 28.6521 57.2287 29.1747 56.314C29.6974 55.39 30.4534 54.718 31.4427 54.298C31.5641 54.242 31.6621 54.2047 31.7367 54.186C31.8114 54.158 31.8907 54.1347 31.9747 54.116C32.0681 54.088 32.1801 54.0553 32.3107 54.018C32.4507 53.9713 32.6514 53.906 32.9127 53.822C33.3234 53.6913 33.6687 53.5747 33.9487 53.472C34.2287 53.3693 34.4667 53.2667 34.6627 53.164C34.8587 53.052 35.0221 52.9353 35.1527 52.814C35.2834 52.6927 35.4094 52.548 35.5307 52.38V54.872ZM41.0775 63.02L37.6055 56.818H40.5455L42.4635 60.5L44.3255 56.818H47.2375L41.4695 67.584H38.6275L41.0775 63.02ZM53.1337 59.142C52.695 58.8433 52.2517 58.694 51.8037 58.694C51.561 58.694 51.3323 58.736 51.1177 58.82C50.9123 58.904 50.7303 59.0253 50.5717 59.184C50.413 59.3333 50.287 59.5153 50.1937 59.73C50.1097 59.9353 50.0677 60.1687 50.0677 60.43C50.0677 60.682 50.1097 60.9153 50.1937 61.13C50.287 61.3353 50.4083 61.5173 50.5577 61.676C50.7163 61.8253 50.903 61.942 51.1177 62.026C51.3323 62.11 51.561 62.152 51.8037 62.152C52.2797 62.152 52.723 61.9887 53.1337 61.662V63.818C52.5083 64.0887 51.9157 64.224 51.3557 64.224C50.833 64.224 50.3337 64.1353 49.8577 63.958C49.391 63.7807 48.9757 63.5287 48.6117 63.202C48.257 62.866 47.9723 62.4693 47.7577 62.012C47.543 61.5453 47.4357 61.0273 47.4357 60.458C47.4357 59.8887 47.5383 59.3707 47.7437 58.904C47.949 58.428 48.229 58.022 48.5837 57.686C48.9383 57.3407 49.3583 57.0747 49.8437 56.888C50.3383 56.692 50.8657 56.594 51.4257 56.594C52.0417 56.594 52.611 56.7247 53.1337 56.986V59.142ZM54.2429 61.914C54.2709 61.9233 54.3129 61.928 54.3689 61.928C54.4903 61.928 54.5976 61.9187 54.6909 61.9C54.7843 61.8813 54.8589 61.844 54.9149 61.788C54.9709 61.7227 55.0129 61.6293 55.0409 61.508C55.0689 61.3867 55.0829 61.228 55.0829 61.032V56.818H62.0829V64H59.5489V58.932H57.6169V61.312C57.6169 61.8253 57.5376 62.2687 57.3789 62.642C57.2296 63.0153 57.0196 63.3233 56.7489 63.566C56.4783 63.8087 56.1469 63.986 55.7549 64.098C55.3723 64.2193 54.9523 64.28 54.4949 64.28H54.2429V61.914ZM66.1731 60.388C66.1731 60.6213 66.2151 60.8407 66.2991 61.046C66.3831 61.242 66.4951 61.4147 66.6351 61.564C66.7845 61.7133 66.9571 61.83 67.1531 61.914C67.3585 61.998 67.5778 62.04 67.8111 62.04C68.0351 62.04 68.2451 61.998 68.4411 61.914C68.6465 61.83 68.8191 61.7133 68.9591 61.564C69.1085 61.4147 69.2251 61.242 69.3091 61.046C69.4025 60.85 69.4491 60.64 69.4491 60.416C69.4491 60.192 69.4025 59.982 69.3091 59.786C69.2251 59.5807 69.1085 59.4033 68.9591 59.254C68.8191 59.1047 68.6465 58.988 68.4411 58.904C68.2451 58.82 68.0351 58.778 67.8111 58.778C67.5778 58.778 67.3585 58.82 67.1531 58.904C66.9571 58.988 66.7845 59.1047 66.6351 59.254C66.4951 59.4033 66.3831 59.576 66.2991 59.772C66.2151 59.9587 66.1731 60.164 66.1731 60.388ZM69.3651 56.818H71.9131V64H69.3651V63.202C68.8238 63.8833 68.0911 64.224 67.1671 64.224C66.6445 64.224 66.1638 64.1307 65.7251 63.944C65.2865 63.748 64.9038 63.4773 64.5771 63.132C64.2505 62.7867 63.9938 62.3807 63.8071 61.914C63.6298 61.4473 63.5411 60.9387 63.5411 60.388C63.5411 59.8747 63.6298 59.3893 63.8071 58.932C63.9845 58.4653 64.2318 58.0593 64.5491 57.714C64.8665 57.3687 65.2445 57.098 65.6831 56.902C66.1218 56.6967 66.6071 56.594 67.1391 56.594C68.0351 56.594 68.7771 56.9067 69.3651 57.532V56.818ZM77.3895 62.236C77.5855 62.236 77.7349 62.18 77.8375 62.068C77.9402 61.956 77.9915 61.8067 77.9915 61.62C77.9915 61.2187 77.7909 61.018 77.3895 61.018H76.0035V62.236H77.3895ZM77.2075 59.59C77.4782 59.59 77.6135 59.4173 77.6135 59.072C77.6135 58.7267 77.4782 58.554 77.2075 58.554H76.0035V59.59H77.2075ZM73.6375 56.818H77.4455C78.1549 56.818 78.6915 56.9813 79.0555 57.308C79.4289 57.6253 79.6155 58.0873 79.6155 58.694C79.6155 59.0487 79.5595 59.338 79.4475 59.562C79.3355 59.786 79.1442 59.9773 78.8735 60.136C79.8535 60.332 80.3435 60.9247 80.3435 61.914C80.3435 62.5767 80.0915 63.09 79.5875 63.454C79.0929 63.818 78.4069 64 77.5295 64H73.6375V56.818ZM81.2859 61.914C81.3139 61.9233 81.3559 61.928 81.4119 61.928C81.5332 61.928 81.6406 61.9187 81.7339 61.9C81.8272 61.8813 81.9019 61.844 81.9579 61.788C82.0139 61.7227 82.0559 61.6293 82.0839 61.508C82.1119 61.3867 82.1259 61.228 82.1259 61.032V56.818H89.1259V64H86.5919V58.932H84.6599V61.312C84.6599 61.8253 84.5806 62.2687 84.4219 62.642C84.2726 63.0153 84.0626 63.3233 83.7919 63.566C83.5212 63.8087 83.1899 63.986 82.7979 64.098C82.4152 64.2193 81.9952 64.28 81.5379 64.28H81.2859V61.914ZM93.3981 56.818V60.836L96.4081 56.818H98.9421V64H96.4081V59.996L93.3841 64H90.8641V56.818H93.3981ZM104.433 62.236C104.629 62.236 104.778 62.18 104.881 62.068C104.983 61.956 105.035 61.8067 105.035 61.62C105.035 61.2187 104.834 61.018 104.433 61.018H103.047V62.236H104.433ZM104.251 59.59C104.521 59.59 104.657 59.4173 104.657 59.072C104.657 58.7267 104.521 58.554 104.251 58.554H103.047V59.59H104.251ZM100.681 56.818H104.489C105.198 56.818 105.735 56.9813 106.099 57.308C106.472 57.6253 106.659 58.0873 106.659 58.694C106.659 59.0487 106.603 59.338 106.491 59.562C106.379 59.786 106.187 59.9773 105.917 60.136C106.897 60.332 107.387 60.9247 107.387 61.914C107.387 62.5767 107.135 63.09 106.631 63.454C106.136 63.818 105.45 64 104.573 64H100.681V56.818ZM111.017 60.388C111.017 60.6213 111.059 60.8407 111.143 61.046C111.227 61.242 111.339 61.4147 111.479 61.564C111.628 61.7133 111.801 61.83 111.997 61.914C112.202 61.998 112.422 62.04 112.655 62.04C112.879 62.04 113.089 61.998 113.285 61.914C113.49 61.83 113.663 61.7133 113.803 61.564C113.952 61.4147 114.069 61.242 114.153 61.046C114.246 60.85 114.293 60.64 114.293 60.416C114.293 60.192 114.246 59.982 114.153 59.786C114.069 59.5807 113.952 59.4033 113.803 59.254C113.663 59.1047 113.49 58.988 113.285 58.904C113.089 58.82 112.879 58.778 112.655 58.778C112.422 58.778 112.202 58.82 111.997 58.904C111.801 58.988 111.628 59.1047 111.479 59.254C111.339 59.4033 111.227 59.576 111.143 59.772C111.059 59.9587 111.017 60.164 111.017 60.388ZM114.209 56.818H116.757V64H114.209V63.202C113.668 63.8833 112.935 64.224 112.011 64.224C111.488 64.224 111.008 64.1307 110.569 63.944C110.13 63.748 109.748 63.4773 109.421 63.132C109.094 62.7867 108.838 62.3807 108.651 61.914C108.474 61.4473 108.385 60.9387 108.385 60.388C108.385 59.8747 108.474 59.3893 108.651 58.932C108.828 58.4653 109.076 58.0593 109.393 57.714C109.71 57.3687 110.088 57.098 110.527 56.902C110.966 56.6967 111.451 56.594 111.983 56.594C112.879 56.594 113.621 56.9067 114.209 57.532V56.818ZM123.731 59.366C123.647 59.0113 123.475 58.7267 123.213 58.512C122.952 58.2973 122.635 58.19 122.261 58.19C121.869 58.19 121.547 58.2927 121.295 58.498C121.053 58.7033 120.899 58.9927 120.833 59.366H123.731ZM120.763 60.836C120.763 61.928 121.277 62.474 122.303 62.474C122.854 62.474 123.269 62.25 123.549 61.802H125.999C125.505 63.4447 124.268 64.266 122.289 64.266C121.683 64.266 121.127 64.1773 120.623 64C120.119 63.8133 119.685 63.552 119.321 63.216C118.967 62.88 118.691 62.4787 118.495 62.012C118.299 61.5453 118.201 61.0227 118.201 60.444C118.201 59.8467 118.295 59.31 118.481 58.834C118.668 58.3487 118.934 57.938 119.279 57.602C119.625 57.266 120.04 57.0093 120.525 56.832C121.02 56.6453 121.575 56.552 122.191 56.552C122.798 56.552 123.344 56.6453 123.829 56.832C124.315 57.0093 124.725 57.2707 125.061 57.616C125.397 57.9613 125.654 58.386 125.831 58.89C126.009 59.3847 126.097 59.9447 126.097 60.57V60.836H120.763ZM132.852 58.932H131.172V64H128.638V58.932H126.958V56.818H132.852V58.932ZM143.853 59.296V56.818H146.387V64H143.853V61.382H141.277V64H138.743V56.818H141.277V59.296H143.853ZM150.474 60.388C150.474 60.6213 150.516 60.8407 150.6 61.046C150.684 61.242 150.796 61.4147 150.936 61.564C151.085 61.7133 151.258 61.83 151.454 61.914C151.659 61.998 151.879 62.04 152.112 62.04C152.336 62.04 152.546 61.998 152.742 61.914C152.947 61.83 153.12 61.7133 153.26 61.564C153.409 61.4147 153.526 61.242 153.61 61.046C153.703 60.85 153.75 60.64 153.75 60.416C153.75 60.192 153.703 59.982 153.61 59.786C153.526 59.5807 153.409 59.4033 153.26 59.254C153.12 59.1047 152.947 58.988 152.742 58.904C152.546 58.82 152.336 58.778 152.112 58.778C151.879 58.778 151.659 58.82 151.454 58.904C151.258 58.988 151.085 59.1047 150.936 59.254C150.796 59.4033 150.684 59.576 150.6 59.772C150.516 59.9587 150.474 60.164 150.474 60.388ZM153.666 56.818H156.214V64H153.666V63.202C153.125 63.8833 152.392 64.224 151.468 64.224C150.945 64.224 150.465 64.1307 150.026 63.944C149.587 63.748 149.205 63.4773 148.878 63.132C148.551 62.7867 148.295 62.3807 148.108 61.914C147.931 61.4473 147.842 60.9387 147.842 60.388C147.842 59.8747 147.931 59.3893 148.108 58.932C148.285 58.4653 148.533 58.0593 148.85 57.714C149.167 57.3687 149.545 57.098 149.984 56.902C150.423 56.6967 150.908 56.594 151.44 56.594C152.336 56.594 153.078 56.9067 153.666 57.532V56.818ZM157.602 61.914C157.63 61.9233 157.672 61.928 157.728 61.928C157.85 61.928 157.957 61.9187 158.05 61.9C158.144 61.8813 158.218 61.844 158.274 61.788C158.33 61.7227 158.372 61.6293 158.4 61.508C158.428 61.3867 158.442 61.228 158.442 61.032V56.818H165.442V64H162.908V58.932H160.976V61.312C160.976 61.8253 160.897 62.2687 160.738 62.642C160.589 63.0153 160.379 63.3233 160.108 63.566C159.838 63.8087 159.506 63.986 159.114 64.098C158.732 64.2193 158.312 64.28 157.854 64.28H157.602V61.914ZM169.715 56.818V60.836L172.725 56.818H175.259V64H172.725V59.996L169.701 64H167.181V56.818H169.715ZM181.323 62.292C181.155 62.3293 180.982 62.362 180.805 62.39C180.637 62.4087 180.455 62.418 180.259 62.418C179.624 62.418 179.078 62.334 178.621 62.166C178.164 61.9887 177.79 61.7367 177.501 61.41C177.212 61.074 176.997 60.6633 176.857 60.178C176.726 59.6927 176.661 59.1373 176.661 58.512V56.818H179.195V58.596C179.195 58.96 179.223 59.2587 179.279 59.492C179.344 59.716 179.433 59.8887 179.545 60.01C179.657 60.1313 179.788 60.2153 179.937 60.262C180.086 60.2993 180.25 60.318 180.427 60.318C180.791 60.318 181.09 60.2013 181.323 59.968V56.818H183.857V64H181.323V62.292ZM188.131 56.818V60.836L191.141 56.818H193.675V64H191.141V59.996L188.117 64H185.597V56.818H188.131ZM200.663 59.366C200.579 59.0113 200.406 58.7267 200.145 58.512C199.884 58.2973 199.566 58.19 199.193 58.19C198.801 58.19 198.479 58.2927 198.227 58.498C197.984 58.7033 197.83 58.9927 197.765 59.366H200.663ZM197.695 60.836C197.695 61.928 198.208 62.474 199.235 62.474C199.786 62.474 200.201 62.25 200.481 61.802H202.931C202.436 63.4447 201.2 64.266 199.221 64.266C198.614 64.266 198.059 64.1773 197.555 64C197.051 63.8133 196.617 63.552 196.253 63.216C195.898 62.88 195.623 62.4787 195.427 62.012C195.231 61.5453 195.133 61.0227 195.133 60.444C195.133 59.8467 195.226 59.31 195.413 58.834C195.6 58.3487 195.866 57.938 196.211 57.602C196.556 57.266 196.972 57.0093 197.457 56.832C197.952 56.6453 198.507 56.552 199.123 56.552C199.73 56.552 200.276 56.6453 200.761 56.832C201.246 57.0093 201.657 57.2707 201.993 57.616C202.329 57.9613 202.586 58.386 202.763 58.89C202.94 59.3847 203.029 59.9447 203.029 60.57V60.836H197.695ZM21.22 77.388C21.22 77.6213 21.262 77.8407 21.346 78.046C21.43 78.242 21.542 78.4147 21.682 78.564C21.8313 78.7133 22.004 78.83 22.2 78.914C22.4053 78.998 22.6247 79.04 22.858 79.04C23.082 79.04 23.292 78.998 23.488 78.914C23.6933 78.83 23.866 78.7133 24.006 78.564C24.1553 78.4147 24.272 78.242 24.356 78.046C24.4493 77.85 24.496 77.64 24.496 77.416C24.496 77.192 24.4493 76.982 24.356 76.786C24.272 76.5807 24.1553 76.4033 24.006 76.254C23.866 76.1047 23.6933 75.988 23.488 75.904C23.292 75.82 23.082 75.778 22.858 75.778C22.6247 75.778 22.4053 75.82 22.2 75.904C22.004 75.988 21.8313 76.1047 21.682 76.254C21.542 76.4033 21.43 76.576 21.346 76.772C21.262 76.9587 21.22 77.164 21.22 77.388ZM24.412 73.818H26.96V81H24.412V80.202C23.8707 80.8833 23.138 81.224 22.214 81.224C21.6913 81.224 21.2107 81.1307 20.772 80.944C20.3333 80.748 19.9507 80.4773 19.624 80.132C19.2973 79.7867 19.0407 79.3807 18.854 78.914C18.6767 78.4473 18.588 77.9387 18.588 77.388C18.588 76.8747 18.6767 76.3893 18.854 75.932C19.0313 75.4653 19.2787 75.0593 19.596 74.714C19.9133 74.3687 20.2913 74.098 20.73 73.902C21.1687 73.6967 21.654 73.594 22.186 73.594C23.082 73.594 23.824 73.9067 24.412 74.532V73.818ZM28.3484 78.914C28.3764 78.9233 28.4184 78.928 28.4744 78.928C28.5957 78.928 28.7031 78.9187 28.7964 78.9C28.8897 78.8813 28.9644 78.844 29.0204 78.788C29.0764 78.7227 29.1184 78.6293 29.1464 78.508C29.1744 78.3867 29.1884 78.228 29.1884 78.032V73.818H36.1884V81H33.6544V75.932H31.7224V78.312C31.7224 78.8253 31.6431 79.2687 31.4844 79.642C31.3351 80.0153 31.1251 80.3233 30.8544 80.566C30.5837 80.8087 30.2524 80.986 29.8604 81.098C29.4777 81.2193 29.0577 81.28 28.6004 81.28H28.3484V78.914ZM40.1526 77.416C40.1526 77.6307 40.1899 77.836 40.2646 78.032C40.3486 78.2187 40.4606 78.3913 40.6006 78.55C40.7499 78.6993 40.9273 78.8207 41.1326 78.914C41.3473 78.998 41.5853 79.04 41.8466 79.04V75.778C41.5853 75.778 41.3473 75.8247 41.1326 75.918C40.9273 76.002 40.7499 76.1233 40.6006 76.282C40.4606 76.4313 40.3486 76.604 40.2646 76.8C40.1899 76.996 40.1526 77.2013 40.1526 77.416ZM45.8646 77.416C45.8646 77.2013 45.8226 76.996 45.7386 76.8C45.6639 76.604 45.5519 76.4313 45.4026 76.282C45.2626 76.1233 45.0853 76.002 44.8706 75.918C44.6653 75.8247 44.4319 75.778 44.1706 75.778V79.04C44.4319 79.04 44.6653 78.998 44.8706 78.914C45.0853 78.8207 45.2626 78.6993 45.4026 78.55C45.5519 78.3913 45.6639 78.2187 45.7386 78.032C45.8226 77.836 45.8646 77.6307 45.8646 77.416ZM41.8466 84.584V81.14C41.6973 81.1773 41.5479 81.2007 41.3986 81.21C41.2586 81.2193 41.0999 81.224 40.9226 81.224C40.4373 81.224 39.9939 81.1307 39.5926 80.944C39.1913 80.7573 38.8459 80.5007 38.5566 80.174C38.2673 79.838 38.0433 79.4367 37.8846 78.97C37.7259 78.5033 37.6466 77.99 37.6466 77.43C37.6466 76.8607 37.7259 76.3427 37.8846 75.876C38.0433 75.4 38.2673 74.994 38.5566 74.658C38.8459 74.322 39.1913 74.0607 39.5926 73.874C39.9939 73.6873 40.4373 73.594 40.9226 73.594C41.0906 73.594 41.2493 73.6033 41.3986 73.622C41.5479 73.6313 41.6973 73.6593 41.8466 73.706V70.878H44.1706V73.706C44.3293 73.6593 44.4786 73.6313 44.6186 73.622C44.7679 73.6033 44.9219 73.594 45.0806 73.594C45.5659 73.594 46.0093 73.6873 46.4106 73.874C46.8213 74.0607 47.1713 74.322 47.4606 74.658C47.7499 74.994 47.9739 75.4 48.1326 75.876C48.3006 76.3427 48.3846 76.856 48.3846 77.416C48.3846 77.9853 48.3006 78.5033 48.1326 78.97C47.9739 79.4367 47.7499 79.838 47.4606 80.174C47.1713 80.51 46.8213 80.7713 46.4106 80.958C46.0093 81.1353 45.5659 81.224 45.0806 81.224C44.9219 81.224 44.7679 81.2193 44.6186 81.21C44.4786 81.2007 44.3293 81.1773 44.1706 81.14V84.584H41.8466ZM52.1868 77.388C52.1868 77.6213 52.2288 77.8407 52.3128 78.046C52.3968 78.242 52.5088 78.4147 52.6488 78.564C52.7981 78.7133 52.9708 78.83 53.1668 78.914C53.3721 78.998 53.5915 79.04 53.8248 79.04C54.0488 79.04 54.2588 78.998 54.4548 78.914C54.6601 78.83 54.8328 78.7133 54.9728 78.564C55.1221 78.4147 55.2388 78.242 55.3228 78.046C55.4161 77.85 55.4628 77.64 55.4628 77.416C55.4628 77.192 55.4161 76.982 55.3228 76.786C55.2388 76.5807 55.1221 76.4033 54.9728 76.254C54.8328 76.1047 54.6601 75.988 54.4548 75.904C54.2588 75.82 54.0488 75.778 53.8248 75.778C53.5915 75.778 53.3721 75.82 53.1668 75.904C52.9708 75.988 52.7981 76.1047 52.6488 76.254C52.5088 76.4033 52.3968 76.576 52.3128 76.772C52.2288 76.9587 52.1868 77.164 52.1868 77.388ZM55.3788 73.818H57.9268V81H55.3788V80.202C54.8375 80.8833 54.1048 81.224 53.1808 81.224C52.6581 81.224 52.1775 81.1307 51.7388 80.944C51.3001 80.748 50.9175 80.4773 50.5908 80.132C50.2641 79.7867 50.0075 79.3807 49.8208 78.914C49.6435 78.4473 49.5548 77.9387 49.5548 77.388C49.5548 76.8747 49.6435 76.3893 49.8208 75.932C49.9981 75.4653 50.2455 75.0593 50.5628 74.714C50.8801 74.3687 51.2581 74.098 51.6968 73.902C52.1355 73.6967 52.6208 73.594 53.1528 73.594C54.0488 73.594 54.7908 73.9067 55.3788 74.532V73.818ZM63.4032 79.236C63.5992 79.236 63.7485 79.18 63.8512 79.068C63.9539 78.956 64.0052 78.8067 64.0052 78.62C64.0052 78.2187 63.8045 78.018 63.4032 78.018H62.0172V79.236H63.4032ZM63.2212 76.59C63.4919 76.59 63.6272 76.4173 63.6272 76.072C63.6272 75.7267 63.4919 75.554 63.2212 75.554H62.0172V76.59H63.2212ZM59.6512 73.818H63.4592C64.1685 73.818 64.7052 73.9813 65.0692 74.308C65.4425 74.6253 65.6292 75.0873 65.6292 75.694C65.6292 76.0487 65.5732 76.338 65.4612 76.562C65.3492 76.786 65.1579 76.9773 64.8872 77.136C65.8672 77.332 66.3572 77.9247 66.3572 78.914C66.3572 79.5767 66.1052 80.09 65.6012 80.454C65.1065 80.818 64.4205 81 63.5432 81H59.6512V73.818ZM70.1696 73.818V77.836L73.1796 73.818H75.7136V81H73.1796V76.996L70.1556 81H67.6356V73.818H70.1696ZM82.758 75.932H81.078V81H78.544V75.932H76.864V73.818H82.758V75.932ZM86.2854 77.374C86.2854 77.6167 86.3274 77.8407 86.4114 78.046C86.5048 78.242 86.6214 78.4147 86.7614 78.564C86.9108 78.7133 87.0834 78.83 87.2794 78.914C87.4848 78.998 87.6994 79.04 87.9234 79.04C88.1474 79.04 88.3574 78.998 88.5534 78.914C88.7588 78.83 88.9314 78.7133 89.0714 78.564C89.2208 78.4147 89.3374 78.242 89.4214 78.046C89.5148 77.8407 89.5614 77.6213 89.5614 77.388C89.5614 77.164 89.5148 76.954 89.4214 76.758C89.3374 76.5527 89.2208 76.3753 89.0714 76.226C88.9314 76.0767 88.7588 75.96 88.5534 75.876C88.3574 75.792 88.1474 75.75 87.9234 75.75C87.6994 75.75 87.4848 75.792 87.2794 75.876C87.0834 75.96 86.9108 76.0767 86.7614 76.226C86.6214 76.3753 86.5048 76.548 86.4114 76.744C86.3274 76.94 86.2854 77.15 86.2854 77.374ZM83.6114 77.346C83.6114 76.814 83.7188 76.3193 83.9334 75.862C84.1481 75.3953 84.4468 74.994 84.8294 74.658C85.2121 74.3127 85.6648 74.042 86.1874 73.846C86.7194 73.65 87.2981 73.552 87.9234 73.552C88.5394 73.552 89.1088 73.65 89.6314 73.846C90.1634 74.0327 90.6208 74.2987 91.0034 74.644C91.3954 74.98 91.6988 75.386 91.9134 75.862C92.1281 76.3287 92.2354 76.8467 92.2354 77.416C92.2354 77.9853 92.1234 78.508 91.8994 78.984C91.6848 79.4507 91.3861 79.8567 91.0034 80.202C90.6208 80.538 90.1588 80.7993 89.6174 80.986C89.0854 81.1727 88.5068 81.266 87.8814 81.266C87.2654 81.266 86.6961 81.1727 86.1734 80.986C85.6508 80.7993 85.1981 80.5333 84.8154 80.188C84.4421 79.8427 84.1481 79.432 83.9334 78.956C83.7188 78.4707 83.6114 77.934 83.6114 77.346ZM97.4462 79.236C97.6422 79.236 97.7915 79.18 97.8942 79.068C97.9968 78.956 98.0482 78.8067 98.0482 78.62C98.0482 78.2187 97.8475 78.018 97.4462 78.018H96.0602V79.236H97.4462ZM97.2642 76.59C97.5348 76.59 97.6702 76.4173 97.6702 76.072C97.6702 75.7267 97.5348 75.554 97.2642 75.554H96.0602V76.59H97.2642ZM93.6942 73.818H97.5022C98.2115 73.818 98.7482 73.9813 99.1122 74.308C99.4855 74.6253 99.6722 75.0873 99.6722 75.694C99.6722 76.0487 99.6162 76.338 99.5042 76.562C99.3922 76.786 99.2008 76.9773 98.9302 77.136C99.9102 77.332 100.4 77.9247 100.4 78.914C100.4 79.5767 100.148 80.09 99.6442 80.454C99.1495 80.818 98.4635 81 97.5862 81H93.6942V73.818ZM111.546 76.296V73.818H114.08V81H111.546V78.382H108.97V81H106.436V73.818H108.97V76.296H111.546ZM121.065 76.366C120.981 76.0113 120.809 75.7267 120.547 75.512C120.286 75.2973 119.969 75.19 119.595 75.19C119.203 75.19 118.881 75.2927 118.629 75.498C118.387 75.7033 118.233 75.9927 118.167 76.366H121.065ZM118.097 77.836C118.097 78.928 118.611 79.474 119.637 79.474C120.188 79.474 120.603 79.25 120.883 78.802H123.333C122.839 80.4447 121.602 81.266 119.623 81.266C119.017 81.266 118.461 81.1773 117.957 81C117.453 80.8133 117.019 80.552 116.655 80.216C116.301 79.88 116.025 79.4787 115.829 79.012C115.633 78.5453 115.535 78.0227 115.535 77.444C115.535 76.8467 115.629 76.31 115.815 75.834C116.002 75.3487 116.268 74.938 116.613 74.602C116.959 74.266 117.374 74.0093 117.859 73.832C118.354 73.6453 118.909 73.552 119.525 73.552C120.132 73.552 120.678 73.6453 121.163 73.832C121.649 74.0093 122.059 74.2707 122.395 74.616C122.731 74.9613 122.988 75.386 123.165 75.89C123.343 76.3847 123.431 76.9447 123.431 77.57V77.836H118.097ZM127.274 77.374C127.274 77.6167 127.316 77.8407 127.4 78.046C127.493 78.242 127.61 78.4147 127.75 78.564C127.899 78.7133 128.072 78.83 128.268 78.914C128.473 78.998 128.688 79.04 128.912 79.04C129.136 79.04 129.346 78.998 129.542 78.914C129.747 78.83 129.92 78.7133 130.06 78.564C130.209 78.4147 130.326 78.242 130.41 78.046C130.503 77.8407 130.55 77.6213 130.55 77.388C130.55 77.164 130.503 76.954 130.41 76.758C130.326 76.5527 130.209 76.3753 130.06 76.226C129.92 76.0767 129.747 75.96 129.542 75.876C129.346 75.792 129.136 75.75 128.912 75.75C128.688 75.75 128.473 75.792 128.268 75.876C128.072 75.96 127.899 76.0767 127.75 76.226C127.61 76.3753 127.493 76.548 127.4 76.744C127.316 76.94 127.274 77.15 127.274 77.374ZM124.6 77.346C124.6 76.814 124.707 76.3193 124.922 75.862C125.136 75.3953 125.435 74.994 125.818 74.658C126.2 74.3127 126.653 74.042 127.176 73.846C127.708 73.65 128.286 73.552 128.912 73.552C129.528 73.552 130.097 73.65 130.62 73.846C131.152 74.0327 131.609 74.2987 131.992 74.644C132.384 74.98 132.687 75.386 132.902 75.862C133.116 76.3287 133.224 76.8467 133.224 77.416C133.224 77.9853 133.112 78.508 132.888 78.984C132.673 79.4507 132.374 79.8567 131.992 80.202C131.609 80.538 131.147 80.7993 130.606 80.986C130.074 81.1727 129.495 81.266 128.87 81.266C128.254 81.266 127.684 81.1727 127.162 80.986C126.639 80.7993 126.186 80.5333 125.804 80.188C125.43 79.8427 125.136 79.432 124.922 78.956C124.707 78.4707 124.6 77.934 124.6 77.346ZM140.03 75.932H138.112V78.088C138.112 78.2747 138.108 78.424 138.098 78.536C138.089 78.648 138.075 78.7647 138.056 78.886H140.03V75.932ZM134.906 78.886C135.158 78.886 135.331 78.802 135.424 78.634C135.518 78.466 135.564 78.2047 135.564 77.85V73.818H142.564V78.886H143.418V82.47H140.884V81H137.09V82.47H134.556V78.886H134.906ZM147.402 73.818V77.836L150.412 73.818H152.946V81H150.412V76.996L147.388 81H144.868V73.818H147.402ZM159.794 76.296V73.818H162.328V81H159.794V78.382H157.218V81H154.684V73.818H157.218V76.296H159.794ZM166.415 77.388C166.415 77.6213 166.457 77.8407 166.541 78.046C166.625 78.242 166.737 78.4147 166.877 78.564C167.027 78.7133 167.199 78.83 167.395 78.914C167.601 78.998 167.82 79.04 168.053 79.04C168.277 79.04 168.487 78.998 168.683 78.914C168.889 78.83 169.061 78.7133 169.201 78.564C169.351 78.4147 169.467 78.242 169.551 78.046C169.645 77.85 169.691 77.64 169.691 77.416C169.691 77.192 169.645 76.982 169.551 76.786C169.467 76.5807 169.351 76.4033 169.201 76.254C169.061 76.1047 168.889 75.988 168.683 75.904C168.487 75.82 168.277 75.778 168.053 75.778C167.82 75.778 167.601 75.82 167.395 75.904C167.199 75.988 167.027 76.1047 166.877 76.254C166.737 76.4033 166.625 76.576 166.541 76.772C166.457 76.9587 166.415 77.164 166.415 77.388ZM169.607 73.818H172.155V81H169.607V80.202C169.066 80.8833 168.333 81.224 167.409 81.224C166.887 81.224 166.406 81.1307 165.967 80.944C165.529 80.748 165.146 80.4773 164.819 80.132C164.493 79.7867 164.236 79.3807 164.049 78.914C163.872 78.4473 163.783 77.9387 163.783 77.388C163.783 76.8747 163.872 76.3893 164.049 75.932C164.227 75.4653 164.474 75.0593 164.791 74.714C165.109 74.3687 165.487 74.098 165.925 73.902C166.364 73.6967 166.849 73.594 167.381 73.594C168.277 73.594 169.019 73.9067 169.607 74.532V73.818ZM178.514 73.818H181.216L178.374 77.262L181.594 81H178.696L176.414 78.13V81H173.88V73.818H176.414V76.702L178.514 73.818ZM184.873 77.374C184.873 77.6167 184.915 77.8407 184.999 78.046C185.093 78.242 185.209 78.4147 185.349 78.564C185.499 78.7133 185.671 78.83 185.867 78.914C186.073 78.998 186.287 79.04 186.511 79.04C186.735 79.04 186.945 78.998 187.141 78.914C187.347 78.83 187.519 78.7133 187.659 78.564C187.809 78.4147 187.925 78.242 188.009 78.046C188.103 77.8407 188.149 77.6213 188.149 77.388C188.149 77.164 188.103 76.954 188.009 76.758C187.925 76.5527 187.809 76.3753 187.659 76.226C187.519 76.0767 187.347 75.96 187.141 75.876C186.945 75.792 186.735 75.75 186.511 75.75C186.287 75.75 186.073 75.792 185.867 75.876C185.671 75.96 185.499 76.0767 185.349 76.226C185.209 76.3753 185.093 76.548 184.999 76.744C184.915 76.94 184.873 77.15 184.873 77.374ZM182.199 77.346C182.199 76.814 182.307 76.3193 182.521 75.862C182.736 75.3953 183.035 74.994 183.417 74.658C183.8 74.3127 184.253 74.042 184.775 73.846C185.307 73.65 185.886 73.552 186.511 73.552C187.127 73.552 187.697 73.65 188.219 73.846C188.751 74.0327 189.209 74.2987 189.591 74.644C189.983 74.98 190.287 75.386 190.501 75.862C190.716 76.3287 190.823 76.8467 190.823 77.416C190.823 77.9853 190.711 78.508 190.487 78.984C190.273 79.4507 189.974 79.8567 189.591 80.202C189.209 80.538 188.747 80.7993 188.205 80.986C187.673 81.1727 187.095 81.266 186.469 81.266C185.853 81.266 185.284 81.1727 184.761 80.986C184.239 80.7993 183.786 80.5333 183.403 80.188C183.03 79.8427 182.736 79.432 182.521 78.956C182.307 78.4707 182.199 77.934 182.199 77.346ZM196.034 79.236C196.23 79.236 196.379 79.18 196.482 79.068C196.585 78.956 196.636 78.8067 196.636 78.62C196.636 78.2187 196.435 78.018 196.034 78.018H194.648V79.236H196.034ZM195.852 76.59C196.123 76.59 196.258 76.4173 196.258 76.072C196.258 75.7267 196.123 75.554 195.852 75.554H194.648V76.59H195.852ZM192.282 73.818H196.09C196.799 73.818 197.336 73.9813 197.7 74.308C198.073 74.6253 198.26 75.0873 198.26 75.694C198.26 76.0487 198.204 76.338 198.092 76.562C197.98 76.786 197.789 76.9773 197.518 77.136C198.498 77.332 198.988 77.9247 198.988 78.914C198.988 79.5767 198.736 80.09 198.232 80.454C197.737 80.818 197.051 81 196.174 81H192.282V73.818ZM202.66 77.374C202.66 77.6167 202.702 77.8407 202.786 78.046C202.88 78.242 202.996 78.4147 203.136 78.564C203.286 78.7133 203.458 78.83 203.654 78.914C203.86 78.998 204.074 79.04 204.298 79.04C204.522 79.04 204.732 78.998 204.928 78.914C205.134 78.83 205.306 78.7133 205.446 78.564C205.596 78.4147 205.712 78.242 205.796 78.046C205.89 77.8407 205.936 77.6213 205.936 77.388C205.936 77.164 205.89 76.954 205.796 76.758C205.712 76.5527 205.596 76.3753 205.446 76.226C205.306 76.0767 205.134 75.96 204.928 75.876C204.732 75.792 204.522 75.75 204.298 75.75C204.074 75.75 203.86 75.792 203.654 75.876C203.458 75.96 203.286 76.0767 203.136 76.226C202.996 76.3753 202.88 76.548 202.786 76.744C202.702 76.94 202.66 77.15 202.66 77.374ZM199.986 77.346C199.986 76.814 200.094 76.3193 200.308 75.862C200.523 75.3953 200.822 74.994 201.204 74.658C201.587 74.3127 202.04 74.042 202.562 73.846C203.094 73.65 203.673 73.552 204.298 73.552C204.914 73.552 205.484 73.65 206.006 73.846C206.538 74.0327 206.996 74.2987 207.378 74.644C207.77 74.98 208.074 75.386 208.288 75.862C208.503 76.3287 208.61 76.8467 208.61 77.416C208.61 77.9853 208.498 78.508 208.274 78.984C208.06 79.4507 207.761 79.8567 207.378 80.202C206.996 80.538 206.534 80.7993 205.992 80.986C205.46 81.1727 204.882 81.266 204.256 81.266C203.64 81.266 203.071 81.1727 202.548 80.986C202.026 80.7993 201.573 80.5333 201.19 80.188C200.817 79.8427 200.523 79.432 200.308 78.956C200.094 78.4707 199.986 77.934 199.986 77.346ZM210.069 81V73.818H214.563V75.932H212.589V81H210.069ZM218.11 77.374C218.11 77.6167 218.152 77.8407 218.236 78.046C218.329 78.242 218.446 78.4147 218.586 78.564C218.735 78.7133 218.908 78.83 219.104 78.914C219.309 78.998 219.524 79.04 219.748 79.04C219.972 79.04 220.182 78.998 220.378 78.914C220.583 78.83 220.756 78.7133 220.896 78.564C221.045 78.4147 221.162 78.242 221.246 78.046C221.339 77.8407 221.386 77.6213 221.386 77.388C221.386 77.164 221.339 76.954 221.246 76.758C221.162 76.5527 221.045 76.3753 220.896 76.226C220.756 76.0767 220.583 75.96 220.378 75.876C220.182 75.792 219.972 75.75 219.748 75.75C219.524 75.75 219.309 75.792 219.104 75.876C218.908 75.96 218.735 76.0767 218.586 76.226C218.446 76.3753 218.329 76.548 218.236 76.744C218.152 76.94 218.11 77.15 218.11 77.374ZM215.436 77.346C215.436 76.814 215.543 76.3193 215.758 75.862C215.972 75.3953 216.271 74.994 216.654 74.658C217.036 74.3127 217.489 74.042 218.012 73.846C218.544 73.65 219.122 73.552 219.748 73.552C220.364 73.552 220.933 73.65 221.456 73.846C221.988 74.0327 222.445 74.2987 222.828 74.644C223.22 74.98 223.523 75.386 223.738 75.862C223.952 76.3287 224.06 76.8467 224.06 77.416C224.06 77.9853 223.948 78.508 223.724 78.984C223.509 79.4507 223.21 79.8567 222.828 80.202C222.445 80.538 221.983 80.7993 221.442 80.986C220.91 81.1727 220.331 81.266 219.706 81.266C219.09 81.266 218.52 81.1727 217.998 80.986C217.475 80.7993 217.022 80.5333 216.64 80.188C216.266 79.8427 215.972 79.432 215.758 78.956C215.543 78.4707 215.436 77.934 215.436 77.346ZM24.594 94.43C24.594 94.206 24.552 93.996 24.468 93.8C24.3933 93.5947 24.2813 93.4173 24.132 93.268C23.9827 93.1187 23.8053 93.002 23.6 92.918C23.404 92.8247 23.1893 92.778 22.956 92.778C22.732 92.778 22.522 92.82 22.326 92.904C22.13 92.988 21.9573 93.1047 21.808 93.254C21.668 93.4033 21.5513 93.5807 21.458 93.786C21.374 93.982 21.332 94.192 21.332 94.416C21.332 94.64 21.374 94.85 21.458 95.046C21.542 95.242 21.6587 95.4147 21.808 95.564C21.9573 95.704 22.13 95.8207 22.326 95.914C22.5313 95.998 22.746 96.04 22.97 96.04C23.194 96.04 23.404 95.998 23.6 95.914C23.796 95.83 23.964 95.7133 24.104 95.564C24.2533 95.4147 24.37 95.242 24.454 95.046C24.5473 94.85 24.594 94.6447 24.594 94.43ZM21.402 101.584H18.868V90.818H21.402V91.616C21.9433 90.9347 22.6807 90.594 23.614 90.594C24.1273 90.594 24.6033 90.6967 25.042 90.902C25.49 91.098 25.8773 91.3687 26.204 91.714C26.5307 92.0593 26.7827 92.4653 26.96 92.932C27.1467 93.3987 27.24 93.898 27.24 94.43C27.24 94.962 27.1467 95.4567 26.96 95.914C26.7827 96.3713 26.5307 96.7727 26.204 97.118C25.8867 97.4633 25.5087 97.734 25.07 97.93C24.6313 98.126 24.1553 98.224 23.642 98.224C22.746 98.224 21.9993 97.916 21.402 97.3V101.584ZM31.0364 94.388C31.0364 94.6213 31.0784 94.8407 31.1624 95.046C31.2464 95.242 31.3584 95.4147 31.4984 95.564C31.6477 95.7133 31.8204 95.83 32.0164 95.914C32.2217 95.998 32.4411 96.04 32.6744 96.04C32.8984 96.04 33.1084 95.998 33.3044 95.914C33.5097 95.83 33.6824 95.7133 33.8224 95.564C33.9717 95.4147 34.0884 95.242 34.1724 95.046C34.2657 94.85 34.3124 94.64 34.3124 94.416C34.3124 94.192 34.2657 93.982 34.1724 93.786C34.0884 93.5807 33.9717 93.4033 33.8224 93.254C33.6824 93.1047 33.5097 92.988 33.3044 92.904C33.1084 92.82 32.8984 92.778 32.6744 92.778C32.4411 92.778 32.2217 92.82 32.0164 92.904C31.8204 92.988 31.6477 93.1047 31.4984 93.254C31.3584 93.4033 31.2464 93.576 31.1624 93.772C31.0784 93.9587 31.0364 94.164 31.0364 94.388ZM34.2284 90.818H36.7764V98H34.2284V97.202C33.6871 97.8833 32.9544 98.224 32.0304 98.224C31.5077 98.224 31.0271 98.1307 30.5884 97.944C30.1497 97.748 29.7671 97.4773 29.4404 97.132C29.1137 96.7867 28.8571 96.3807 28.6704 95.914C28.4931 95.4473 28.4044 94.9387 28.4044 94.388C28.4044 93.8747 28.4931 93.3893 28.6704 92.932C28.8477 92.4653 29.0951 92.0593 29.4124 91.714C29.7297 91.3687 30.1077 91.098 30.5464 90.902C30.9851 90.6967 31.4704 90.594 32.0024 90.594C32.8984 90.594 33.6404 90.9067 34.2284 91.532V90.818ZM38.3748 90.72C38.6081 90.6733 38.8368 90.636 39.0608 90.608C39.2941 90.5707 39.5415 90.552 39.8028 90.552C40.2601 90.552 40.6848 90.6033 41.0768 90.706C41.4688 90.8087 41.8048 90.9533 42.0848 91.14C42.3741 91.3267 42.5981 91.546 42.7568 91.798C42.9155 92.05 42.9948 92.3207 42.9948 92.61C42.9948 92.9273 42.8968 93.2167 42.7008 93.478C42.5141 93.73 42.2108 93.9633 41.7908 94.178C42.2948 94.3367 42.6588 94.556 42.8828 94.836C43.1161 95.1067 43.2328 95.452 43.2328 95.872C43.2328 96.2173 43.1488 96.5393 42.9808 96.838C42.8221 97.1273 42.5888 97.3793 42.2808 97.594C41.9821 97.7993 41.6228 97.9627 41.2028 98.084C40.7828 98.2053 40.3208 98.266 39.8168 98.266C39.5741 98.266 39.3268 98.252 39.0748 98.224C38.8228 98.196 38.5895 98.1493 38.3748 98.084V96.04C38.5055 96.0867 38.6548 96.124 38.8228 96.152C39.0001 96.1707 39.1681 96.18 39.3268 96.18C39.6628 96.18 39.9475 96.1333 40.1808 96.04C40.4235 95.9373 40.5448 95.816 40.5448 95.676C40.5448 95.5173 40.4095 95.382 40.1388 95.27C39.8681 95.1487 39.5135 95.088 39.0748 95.088H38.9628V93.604C39.4668 93.5947 39.8308 93.548 40.0548 93.464C40.2881 93.38 40.4048 93.2587 40.4048 93.1C40.4048 92.9507 40.3255 92.8387 40.1668 92.764C40.0081 92.6893 39.7935 92.652 39.5228 92.652C39.3268 92.652 39.1261 92.6707 38.9208 92.708C38.7155 92.736 38.5335 92.7733 38.3748 92.82V90.72ZM48.4465 98L46.8925 93.772L46.1925 98H44.0505L45.4225 90.818H47.5085L48.9925 94.696L50.4765 90.818H52.5625L53.9345 98H51.7785L51.0925 93.772L49.5385 98H48.4465ZM60.2938 93.366C60.2098 93.0113 60.0371 92.7267 59.7758 92.512C59.5144 92.2973 59.1971 92.19 58.8238 92.19C58.4318 92.19 58.1098 92.2927 57.8578 92.498C57.6151 92.7033 57.4611 92.9927 57.3958 93.366H60.2938ZM57.3258 94.836C57.3258 95.928 57.8391 96.474 58.8658 96.474C59.4164 96.474 59.8318 96.25 60.1118 95.802H62.5618C62.0671 97.4447 60.8304 98.266 58.8518 98.266C58.2451 98.266 57.6898 98.1773 57.1858 98C56.6818 97.8133 56.2478 97.552 55.8838 97.216C55.5291 96.88 55.2538 96.4787 55.0578 96.012C54.8618 95.5453 54.7638 95.0227 54.7638 94.444C54.7638 93.8467 54.8571 93.31 55.0438 92.834C55.2304 92.3487 55.4964 91.938 55.8418 91.602C56.1871 91.266 56.6024 91.0093 57.0878 90.832C57.5824 90.6453 58.1378 90.552 58.7538 90.552C59.3604 90.552 59.9064 90.6453 60.3918 90.832C60.8771 91.0093 61.2878 91.2707 61.6238 91.616C61.9598 91.9613 62.2164 92.386 62.3938 92.89C62.5711 93.3847 62.6598 93.9447 62.6598 94.57V94.836H57.3258ZM69.8342 94.43C69.8342 94.206 69.7922 93.996 69.7082 93.8C69.6336 93.5947 69.5216 93.4173 69.3722 93.268C69.2229 93.1187 69.0456 93.002 68.8402 92.918C68.6442 92.8247 68.4296 92.778 68.1962 92.778C67.9722 92.778 67.7622 92.82 67.5662 92.904C67.3702 92.988 67.1976 93.1047 67.0482 93.254C66.9082 93.4033 66.7916 93.5807 66.6982 93.786C66.6142 93.982 66.5722 94.192 66.5722 94.416C66.5722 94.64 66.6142 94.85 66.6982 95.046C66.7822 95.242 66.8989 95.4147 67.0482 95.564C67.1976 95.704 67.3702 95.8207 67.5662 95.914C67.7716 95.998 67.9862 96.04 68.2102 96.04C68.4342 96.04 68.6442 95.998 68.8402 95.914C69.0362 95.83 69.2042 95.7133 69.3442 95.564C69.4936 95.4147 69.6102 95.242 69.6942 95.046C69.7876 94.85 69.8342 94.6447 69.8342 94.43ZM66.6422 101.584H64.1082V90.818H66.6422V91.616C67.1836 90.9347 67.9209 90.594 68.8542 90.594C69.3676 90.594 69.8436 90.6967 70.2822 90.902C70.7302 91.098 71.1176 91.3687 71.4442 91.714C71.7709 92.0593 72.0229 92.4653 72.2002 92.932C72.3869 93.3987 72.4802 93.898 72.4802 94.43C72.4802 94.962 72.3869 95.4567 72.2002 95.914C72.0229 96.3713 71.7709 96.7727 71.4442 97.118C71.1269 97.4633 70.7489 97.734 70.3102 97.93C69.8716 98.126 69.3956 98.224 68.8822 98.224C67.9862 98.224 67.2396 97.916 66.6422 97.3V101.584ZM76.2766 94.388C76.2766 94.6213 76.3186 94.8407 76.4026 95.046C76.4866 95.242 76.5986 95.4147 76.7386 95.564C76.888 95.7133 77.0606 95.83 77.2566 95.914C77.462 95.998 77.6813 96.04 77.9146 96.04C78.1386 96.04 78.3486 95.998 78.5446 95.914C78.75 95.83 78.9226 95.7133 79.0626 95.564C79.212 95.4147 79.3286 95.242 79.4126 95.046C79.506 94.85 79.5526 94.64 79.5526 94.416C79.5526 94.192 79.506 93.982 79.4126 93.786C79.3286 93.5807 79.212 93.4033 79.0626 93.254C78.9226 93.1047 78.75 92.988 78.5446 92.904C78.3486 92.82 78.1386 92.778 77.9146 92.778C77.6813 92.778 77.462 92.82 77.2566 92.904C77.0606 92.988 76.888 93.1047 76.7386 93.254C76.5986 93.4033 76.4866 93.576 76.4026 93.772C76.3186 93.9587 76.2766 94.164 76.2766 94.388ZM79.4686 90.818H82.0166V98H79.4686V97.202C78.9273 97.8833 78.1946 98.224 77.2706 98.224C76.748 98.224 76.2673 98.1307 75.8286 97.944C75.39 97.748 75.0073 97.4773 74.6806 97.132C74.354 96.7867 74.0973 96.3807 73.9106 95.914C73.7333 95.4473 73.6446 94.9387 73.6446 94.388C73.6446 93.8747 73.7333 93.3893 73.9106 92.932C74.088 92.4653 74.3353 92.0593 74.6526 91.714C74.97 91.3687 75.348 91.098 75.7866 90.902C76.2253 90.6967 76.7106 90.594 77.2426 90.594C78.1386 90.594 78.8806 90.9067 79.4686 91.532V90.818ZM83.615 96.656C83.615 96.432 83.657 96.222 83.741 96.026C83.825 95.8207 83.9417 95.6433 84.091 95.494C84.2404 95.3447 84.413 95.228 84.609 95.144C84.8144 95.06 85.029 95.018 85.253 95.018C85.477 95.018 85.687 95.06 85.883 95.144C86.0884 95.228 86.2657 95.3447 86.415 95.494C86.5644 95.6433 86.681 95.8207 86.765 96.026C86.849 96.222 86.891 96.432 86.891 96.656C86.891 96.88 86.849 97.0947 86.765 97.3C86.681 97.496 86.5644 97.6687 86.415 97.818C86.2657 97.9673 86.0884 98.084 85.883 98.168C85.687 98.252 85.477 98.294 85.253 98.294C85.029 98.294 84.8144 98.252 84.609 98.168C84.413 98.084 84.2404 97.9673 84.091 97.818C83.9417 97.6687 83.825 97.496 83.741 97.3C83.657 97.0947 83.615 96.88 83.615 96.656Z" fill="white"/>
</svg>
