<svg width="256" height="118" viewBox="0 0 256 118" fill="none" xmlns="http://www.w3.org/2000/svg">
<rect width="256" height="118" fill="#2B66FF"/>
<path d="M23.08 24.988C23.08 26.024 22.9027 26.9293 22.548 27.704C22.2027 28.4693 21.6893 29.0667 21.008 29.496C20.3267 29.9253 19.482 30.14 18.474 30.14C17.438 30.14 16.5747 29.9253 15.884 29.496C15.2027 29.0667 14.694 28.4647 14.358 27.69C14.022 26.9153 13.854 26.01 13.854 24.974C13.854 23.9473 14.022 23.0513 14.358 22.286C14.694 21.5207 15.2027 20.9233 15.884 20.494C16.5747 20.0647 17.4427 19.85 18.488 19.85C19.4867 19.85 20.3267 20.0647 21.008 20.494C21.6893 20.914 22.2027 21.5113 22.548 22.286C22.9027 23.0513 23.08 23.952 23.08 24.988ZM15.184 24.988C15.184 26.248 15.45 27.242 15.982 27.97C16.514 28.6887 17.3447 29.048 18.474 29.048C19.6127 29.048 20.4433 28.6887 20.966 27.97C21.4887 27.242 21.75 26.248 21.75 24.988C21.75 23.728 21.4887 22.7433 20.966 22.034C20.4433 21.3153 19.6173 20.956 18.488 20.956C17.3587 20.956 16.5233 21.3153 15.982 22.034C15.45 22.7433 15.184 23.728 15.184 24.988ZM30.3075 23.532H27.8575V30H26.6395V23.532H24.2175V22.496H30.3075V23.532ZM33.0177 22.496V25.618H37.0917V22.496H38.3237V30H37.0917V26.654H33.0177V30H31.7857V22.496H33.0177ZM47.2238 26.234C47.2238 27.4753 46.9064 28.4367 46.2718 29.118C45.6464 29.7993 44.7971 30.14 43.7238 30.14C43.0611 30.14 42.4684 29.9907 41.9458 29.692C41.4324 29.384 41.0264 28.9407 40.7278 28.362C40.4291 27.774 40.2798 27.0647 40.2798 26.234C40.2798 24.9927 40.5924 24.036 41.2178 23.364C41.8431 22.692 42.6924 22.356 43.7658 22.356C44.4471 22.356 45.0444 22.51 45.5578 22.818C46.0804 23.1167 46.4864 23.5553 46.7758 24.134C47.0744 24.7033 47.2238 25.4033 47.2238 26.234ZM41.5538 26.234C41.5538 27.1207 41.7264 27.8253 42.0718 28.348C42.4264 28.8613 42.9864 29.118 43.7518 29.118C44.5078 29.118 45.0631 28.8613 45.4178 28.348C45.7724 27.8253 45.9498 27.1207 45.9498 26.234C45.9498 25.3473 45.7724 24.652 45.4178 24.148C45.0631 23.644 44.5031 23.392 43.7378 23.392C42.9724 23.392 42.4171 23.644 42.0718 24.148C41.7264 24.652 41.5538 25.3473 41.5538 26.234ZM52.1863 30.14C51.5237 30.14 50.931 30.0047 50.4083 29.734C49.895 29.4633 49.489 29.0433 49.1903 28.474C48.901 27.9047 48.7563 27.1767 48.7563 26.29C48.7563 25.366 48.9103 24.6147 49.2183 24.036C49.5263 23.4573 49.9417 23.0327 50.4643 22.762C50.9963 22.4913 51.5983 22.356 52.2703 22.356C52.653 22.356 53.0217 22.398 53.3763 22.482C53.731 22.5567 54.0203 22.65 54.2443 22.762L53.8663 23.784C53.6423 23.7 53.381 23.6207 53.0823 23.546C52.7837 23.4713 52.5037 23.434 52.2423 23.434C50.7677 23.434 50.0303 24.3813 50.0303 26.276C50.0303 27.1813 50.2077 27.8767 50.5623 28.362C50.9263 28.838 51.463 29.076 52.1723 29.076C52.583 29.076 52.9423 29.034 53.2503 28.95C53.5677 28.866 53.857 28.7633 54.1183 28.642V29.734C53.8663 29.8647 53.5863 29.9627 53.2783 30.028C52.9797 30.1027 52.6157 30.14 52.1863 30.14ZM57.0649 27.074C57.0649 27.186 57.0602 27.354 57.0509 27.578C57.0416 27.802 57.0276 28.026 57.0089 28.25C56.9996 28.474 56.9902 28.6513 56.9809 28.782L60.9989 22.496H62.5109V30H61.3629V25.576C61.3629 25.4267 61.3629 25.2307 61.3629 24.988C61.3722 24.7453 61.3816 24.5073 61.3909 24.274C61.4002 24.0313 61.4096 23.8493 61.4189 23.728L57.4289 30H55.9029V22.496H57.0649V27.074ZM70.079 23.532H67.629V30H66.411V23.532H63.989V22.496H70.079V23.532ZM74.3185 22.356C74.9625 22.356 75.5131 22.496 75.9705 22.776C76.4371 23.056 76.7918 23.4527 77.0345 23.966C77.2865 24.47 77.4125 25.0627 77.4125 25.744V26.486H72.2745C72.2931 27.3353 72.5078 27.984 72.9185 28.432C73.3385 28.8707 73.9218 29.09 74.6685 29.09C75.1445 29.09 75.5645 29.048 75.9285 28.964C76.3018 28.8707 76.6845 28.74 77.0765 28.572V29.65C76.6938 29.818 76.3158 29.9393 75.9425 30.014C75.5691 30.098 75.1258 30.14 74.6125 30.14C73.9031 30.14 73.2731 29.9953 72.7225 29.706C72.1811 29.4167 71.7565 28.9873 71.4485 28.418C71.1498 27.8393 71.0005 27.1347 71.0005 26.304C71.0005 25.4827 71.1358 24.778 71.4065 24.19C71.6865 23.602 72.0738 23.1493 72.5685 22.832C73.0725 22.5147 73.6558 22.356 74.3185 22.356ZM74.3045 23.364C73.7165 23.364 73.2498 23.5553 72.9045 23.938C72.5685 24.3113 72.3678 24.834 72.3025 25.506H76.1245C76.1151 24.8713 75.9658 24.358 75.6765 23.966C75.3871 23.5647 74.9298 23.364 74.3045 23.364ZM85.0348 30H83.7888V23.518H81.5768C81.4555 25.0953 81.2875 26.3693 81.0728 27.34C80.8581 28.3013 80.5735 29.0013 80.2188 29.44C79.8641 29.8787 79.4161 30.098 78.8748 30.098C78.7535 30.098 78.6321 30.0887 78.5108 30.07C78.3988 30.0607 78.3055 30.0373 78.2308 30V29.076C78.2868 29.0947 78.3475 29.1087 78.4128 29.118C78.4781 29.1273 78.5435 29.132 78.6088 29.132C79.1128 29.132 79.5141 28.5953 79.8128 27.522C80.1208 26.4487 80.3541 24.7733 80.5128 22.496H85.0348V30ZM90.8746 25.576C92.8252 25.576 93.8006 26.2853 93.8006 27.704C93.8006 28.404 93.5626 28.964 93.0866 29.384C92.6106 29.7947 91.8546 30 90.8186 30H87.4166V22.496H88.6486V25.576H90.8746ZM92.5686 27.774C92.5686 27.3167 92.4052 27.0087 92.0786 26.85C91.7612 26.682 91.3132 26.598 90.7346 26.598H88.6486V29.006H90.7626C91.2852 29.006 91.7146 28.9127 92.0506 28.726C92.3959 28.5393 92.5686 28.222 92.5686 27.774ZM96.9611 22.496V25.618H101.035V22.496H102.267V30H101.035V26.654H96.9611V30H95.7291V22.496H96.9611ZM107.485 22.37C108.4 22.37 109.076 22.5707 109.515 22.972C109.954 23.3733 110.173 24.0127 110.173 24.89V30H109.277L109.039 28.936H108.983C108.656 29.3467 108.311 29.65 107.947 29.846C107.592 30.042 107.098 30.14 106.463 30.14C105.782 30.14 105.217 29.9627 104.769 29.608C104.321 29.244 104.097 28.6793 104.097 27.914C104.097 27.1673 104.391 26.5933 104.979 26.192C105.567 25.7813 106.472 25.5573 107.695 25.52L108.969 25.478V25.03C108.969 24.4047 108.834 23.9707 108.563 23.728C108.292 23.4853 107.91 23.364 107.415 23.364C107.023 23.364 106.65 23.4247 106.295 23.546C105.94 23.658 105.609 23.7887 105.301 23.938L104.923 23.014C105.25 22.8367 105.637 22.6873 106.085 22.566C106.533 22.4353 107 22.37 107.485 22.37ZM107.849 26.374C106.916 26.4113 106.267 26.5607 105.903 26.822C105.548 27.0833 105.371 27.452 105.371 27.928C105.371 28.348 105.497 28.656 105.749 28.852C106.01 29.048 106.342 29.146 106.743 29.146C107.378 29.146 107.905 28.9733 108.325 28.628C108.745 28.2733 108.955 27.732 108.955 27.004V26.332L107.849 26.374ZM112.953 30H111.525L113.667 26.85C113.377 26.7753 113.097 26.6587 112.827 26.5C112.556 26.332 112.337 26.1033 112.169 25.814C112.001 25.5153 111.917 25.1467 111.917 24.708C111.917 23.9893 112.159 23.4433 112.645 23.07C113.13 22.6873 113.774 22.496 114.577 22.496H117.937V30H116.705V27.018H114.885L112.953 30ZM113.107 24.722C113.107 25.1513 113.265 25.4733 113.583 25.688C113.909 25.8933 114.362 25.996 114.941 25.996H116.705V23.518H114.703C114.133 23.518 113.723 23.63 113.471 23.854C113.228 24.078 113.107 24.3673 113.107 24.722ZM127.218 30.14C126.555 30.14 125.962 30.0047 125.44 29.734C124.926 29.4633 124.52 29.0433 124.222 28.474C123.932 27.9047 123.788 27.1767 123.788 26.29C123.788 25.366 123.942 24.6147 124.25 24.036C124.558 23.4573 124.973 23.0327 125.496 22.762C126.028 22.4913 126.63 22.356 127.302 22.356C127.684 22.356 128.053 22.398 128.408 22.482C128.762 22.5567 129.052 22.65 129.276 22.762L128.898 23.784C128.674 23.7 128.412 23.6207 128.114 23.546C127.815 23.4713 127.535 23.434 127.274 23.434C125.799 23.434 125.062 24.3813 125.062 26.276C125.062 27.1813 125.239 27.8767 125.594 28.362C125.958 28.838 126.494 29.076 127.204 29.076C127.614 29.076 127.974 29.034 128.282 28.95C128.599 28.866 128.888 28.7633 129.15 28.642V29.734C128.898 29.8647 128.618 29.9627 128.31 30.028C128.011 30.1027 127.647 30.14 127.218 30.14ZM136.646 30H135.4V23.518H133.188C133.067 25.0953 132.899 26.3693 132.684 27.34C132.469 28.3013 132.185 29.0013 131.83 29.44C131.475 29.8787 131.027 30.098 130.486 30.098C130.365 30.098 130.243 30.0887 130.122 30.07C130.01 30.0607 129.917 30.0373 129.842 30V29.076C129.898 29.0947 129.959 29.1087 130.024 29.118C130.089 29.1273 130.155 29.132 130.22 29.132C130.724 29.132 131.125 28.5953 131.424 27.522C131.732 26.4487 131.965 24.7733 132.124 22.496H136.646V30ZM145.552 26.234C145.552 27.4753 145.235 28.4367 144.6 29.118C143.975 29.7993 143.125 30.14 142.052 30.14C141.389 30.14 140.797 29.9907 140.274 29.692C139.761 29.384 139.355 28.9407 139.056 28.362C138.757 27.774 138.608 27.0647 138.608 26.234C138.608 24.9927 138.921 24.036 139.546 23.364C140.171 22.692 141.021 22.356 142.094 22.356C142.775 22.356 143.373 22.51 143.886 22.818C144.409 23.1167 144.815 23.5553 145.104 24.134C145.403 24.7033 145.552 25.4033 145.552 26.234ZM139.882 26.234C139.882 27.1207 140.055 27.8253 140.4 28.348C140.755 28.8613 141.315 29.118 142.08 29.118C142.836 29.118 143.391 28.8613 143.746 28.348C144.101 27.8253 144.278 27.1207 144.278 26.234C144.278 25.3473 144.101 24.652 143.746 24.148C143.391 23.644 142.831 23.392 142.066 23.392C141.301 23.392 140.745 23.644 140.4 24.148C140.055 24.652 139.882 25.3473 139.882 26.234ZM156.233 22.496L153.139 26.136L156.499 30H155.099L151.851 26.192V30H150.703V26.192L147.455 30H146.055L149.415 26.136L146.321 22.496H147.665L150.703 26.136V22.496H151.851V26.136L154.903 22.496H156.233ZM158.963 22.496V25.618H163.037V22.496H164.269V30H163.037V26.654H158.963V30H157.731V22.496H158.963ZM173.169 26.234C173.169 27.4753 172.852 28.4367 172.217 29.118C171.592 29.7993 170.742 30.14 169.669 30.14C169.006 30.14 168.414 29.9907 167.891 29.692C167.378 29.384 166.972 28.9407 166.673 28.362C166.374 27.774 166.225 27.0647 166.225 26.234C166.225 24.9927 166.538 24.036 167.163 23.364C167.788 22.692 168.638 22.356 169.711 22.356C170.392 22.356 170.99 22.51 171.503 22.818C172.026 23.1167 172.432 23.5553 172.721 24.134C173.02 24.7033 173.169 25.4033 173.169 26.234ZM167.499 26.234C167.499 27.1207 167.672 27.8253 168.017 28.348C168.372 28.8613 168.932 29.118 169.697 29.118C170.453 29.118 171.008 28.8613 171.363 28.348C171.718 27.8253 171.895 27.1207 171.895 26.234C171.895 25.3473 171.718 24.652 171.363 24.148C171.008 23.644 170.448 23.392 169.683 23.392C168.918 23.392 168.362 23.644 168.017 24.148C167.672 24.652 167.499 25.3473 167.499 26.234ZM178.132 30.14C177.469 30.14 176.876 30.0047 176.354 29.734C175.84 29.4633 175.434 29.0433 175.136 28.474C174.846 27.9047 174.702 27.1767 174.702 26.29C174.702 25.366 174.856 24.6147 175.164 24.036C175.472 23.4573 175.887 23.0327 176.41 22.762C176.942 22.4913 177.544 22.356 178.216 22.356C178.598 22.356 178.967 22.398 179.322 22.482C179.676 22.5567 179.966 22.65 180.19 22.762L179.812 23.784C179.588 23.7 179.326 23.6207 179.028 23.546C178.729 23.4713 178.449 23.434 178.188 23.434C176.713 23.434 175.976 24.3813 175.976 26.276C175.976 27.1813 176.153 27.8767 176.508 28.362C176.872 28.838 177.408 29.076 178.118 29.076C178.528 29.076 178.888 29.034 179.196 28.95C179.513 28.866 179.802 28.7633 180.064 28.642V29.734C179.812 29.8647 179.532 29.9627 179.224 30.028C178.925 30.1027 178.561 30.14 178.132 30.14ZM187.028 23.532H184.578V30H183.36V23.532H180.938V22.496H187.028V23.532ZM191.964 25.576C193.915 25.576 194.89 26.2853 194.89 27.704C194.89 28.404 194.652 28.964 194.176 29.384C193.7 29.7947 192.944 30 191.908 30H188.506V22.496H189.738V25.576H191.964ZM193.658 27.774C193.658 27.3167 193.495 27.0087 193.168 26.85C192.851 26.682 192.403 26.598 191.824 26.598H189.738V29.006H191.852C192.375 29.006 192.804 28.9127 193.14 28.726C193.486 28.5393 193.658 28.222 193.658 27.774ZM18.67 39.384C19.4167 39.4493 20.0653 39.6453 20.616 39.972C21.176 40.2987 21.61 40.7373 21.918 41.288C22.226 41.8387 22.38 42.492 22.38 43.248C22.38 44.3773 22.0487 45.278 21.386 45.95C20.7327 46.622 19.8273 47.0093 18.67 47.112V50.36H17.466V47.112C16.7287 47.0467 16.08 46.8553 15.52 46.538C14.96 46.2113 14.526 45.7727 14.218 45.222C13.91 44.662 13.756 44.004 13.756 43.248C13.756 42.1093 14.0827 41.204 14.736 40.532C15.3987 39.86 16.3227 39.4773 17.508 39.384V36.36H18.67V39.384ZM17.508 40.406C16.6493 40.49 16.024 40.7747 15.632 41.26C15.24 41.736 15.044 42.3987 15.044 43.248C15.044 44.0973 15.24 44.7647 15.632 45.25C16.0333 45.7353 16.6587 46.02 17.508 46.104V40.406ZM18.67 46.104C19.51 46.0107 20.126 45.7213 20.518 45.236C20.91 44.7507 21.106 44.088 21.106 43.248C21.106 42.408 20.9053 41.75 20.504 41.274C20.112 40.798 19.5007 40.5133 18.67 40.42V46.104ZM30.8585 43.234C30.8585 44.4753 30.5412 45.4367 29.9065 46.118C29.2812 46.7993 28.4319 47.14 27.3585 47.14C26.6959 47.14 26.1032 46.9907 25.5805 46.692C25.0672 46.384 24.6612 45.9407 24.3625 45.362C24.0639 44.774 23.9145 44.0647 23.9145 43.234C23.9145 41.9927 24.2272 41.036 24.8525 40.364C25.4779 39.692 26.3272 39.356 27.4005 39.356C28.0819 39.356 28.6792 39.51 29.1925 39.818C29.7152 40.1167 30.1212 40.5553 30.4105 41.134C30.7092 41.7033 30.8585 42.4033 30.8585 43.234ZM25.1885 43.234C25.1885 44.1207 25.3612 44.8253 25.7065 45.348C26.0612 45.8613 26.6212 46.118 27.3865 46.118C28.1425 46.118 28.6979 45.8613 29.0525 45.348C29.4072 44.8253 29.5845 44.1207 29.5845 43.234C29.5845 42.3473 29.4072 41.652 29.0525 41.148C28.6979 40.644 28.1379 40.392 27.3725 40.392C26.6072 40.392 26.0519 40.644 25.7065 41.148C25.3612 41.652 25.1885 42.3473 25.1885 43.234ZM34.0431 39.496V42.618H38.1171V39.496H39.3491V47H38.1171V43.654H34.0431V47H32.8111V39.496H34.0431ZM44.6232 39.356C45.2672 39.356 45.8178 39.496 46.2752 39.776C46.7418 40.056 47.0965 40.4527 47.3392 40.966C47.5912 41.47 47.7172 42.0627 47.7172 42.744V43.486H42.5792C42.5978 44.3353 42.8125 44.984 43.2232 45.432C43.6432 45.8707 44.2265 46.09 44.9732 46.09C45.4492 46.09 45.8692 46.048 46.2332 45.964C46.6065 45.8707 46.9892 45.74 47.3812 45.572V46.65C46.9985 46.818 46.6205 46.9393 46.2472 47.014C45.8738 47.098 45.4305 47.14 44.9172 47.14C44.2078 47.14 43.5778 46.9953 43.0272 46.706C42.4858 46.4167 42.0612 45.9873 41.7532 45.418C41.4545 44.8393 41.3052 44.1347 41.3052 43.304C41.3052 42.4827 41.4405 41.778 41.7112 41.19C41.9912 40.602 42.3785 40.1493 42.8732 39.832C43.3772 39.5147 43.9605 39.356 44.6232 39.356ZM44.6092 40.364C44.0212 40.364 43.5545 40.5553 43.2092 40.938C42.8732 41.3113 42.6725 41.834 42.6072 42.506H46.4292C46.4198 41.8713 46.2705 41.358 45.9812 40.966C45.6918 40.5647 45.2345 40.364 44.6092 40.364ZM54.8075 40.532H52.3575V47H51.1395V40.532H48.7175V39.496H54.8075V40.532ZM57.4477 44.074C57.4477 44.186 57.443 44.354 57.4337 44.578C57.4244 44.802 57.4104 45.026 57.3917 45.25C57.3824 45.474 57.373 45.6513 57.3637 45.782L61.3817 39.496H62.8937V47H61.7457V42.576C61.7457 42.4267 61.7457 42.2307 61.7457 41.988C61.755 41.7453 61.7644 41.5073 61.7737 41.274C61.783 41.0313 61.7924 40.8493 61.8017 40.728L57.8117 47H56.2857V39.496H57.4477V44.074ZM66.3598 42.226C66.3598 43.0847 66.8405 43.514 67.8018 43.514C68.2685 43.514 68.6931 43.444 69.0758 43.304C69.4585 43.1547 69.8505 42.9587 70.2518 42.716V39.496H71.4838V47H70.2518V43.654C69.8318 43.9247 69.4165 44.1393 69.0058 44.298C68.6045 44.4473 68.1191 44.522 67.5498 44.522C66.7845 44.522 66.1871 44.3213 65.7578 43.92C65.3378 43.5187 65.1278 42.982 65.1278 42.31V39.496H66.3598V42.226ZM76.7657 39.356C77.4097 39.356 77.9604 39.496 78.4177 39.776C78.8844 40.056 79.2391 40.4527 79.4817 40.966C79.7337 41.47 79.8597 42.0627 79.8597 42.744V43.486H74.7217C74.7404 44.3353 74.9551 44.984 75.3657 45.432C75.7857 45.8707 76.3691 46.09 77.1157 46.09C77.5917 46.09 78.0117 46.048 78.3757 45.964C78.7491 45.8707 79.1317 45.74 79.5237 45.572V46.65C79.1411 46.818 78.7631 46.9393 78.3897 47.014C78.0164 47.098 77.5731 47.14 77.0597 47.14C76.3504 47.14 75.7204 46.9953 75.1697 46.706C74.6284 46.4167 74.2037 45.9873 73.8957 45.418C73.5971 44.8393 73.4477 44.1347 73.4477 43.304C73.4477 42.4827 73.5831 41.778 73.8537 41.19C74.1337 40.602 74.5211 40.1493 75.0157 39.832C75.5197 39.5147 76.1031 39.356 76.7657 39.356ZM76.7517 40.364C76.1637 40.364 75.6971 40.5553 75.3517 40.938C75.0157 41.3113 74.8151 41.834 74.7497 42.506H78.5717C78.5624 41.8713 78.4131 41.358 78.1237 40.966C77.8344 40.5647 77.3771 40.364 76.7517 40.364ZM84.7801 47.14C84.1174 47.14 83.5247 47.0047 83.0021 46.734C82.4887 46.4633 82.0827 46.0433 81.7841 45.474C81.4947 44.9047 81.3501 44.1767 81.3501 43.29C81.3501 42.366 81.5041 41.6147 81.8121 41.036C82.1201 40.4573 82.5354 40.0327 83.0581 39.762C83.5901 39.4913 84.1921 39.356 84.8641 39.356C85.2467 39.356 85.6154 39.398 85.9701 39.482C86.3247 39.5567 86.6141 39.65 86.8381 39.762L86.4601 40.784C86.2361 40.7 85.9747 40.6207 85.6761 40.546C85.3774 40.4713 85.0974 40.434 84.8361 40.434C83.3614 40.434 82.6241 41.3813 82.6241 43.276C82.6241 44.1813 82.8014 44.8767 83.1561 45.362C83.5201 45.838 84.0567 46.076 84.7661 46.076C85.1767 46.076 85.5361 46.034 85.8441 45.95C86.1614 45.866 86.4507 45.7633 86.7121 45.642V46.734C86.4601 46.8647 86.1801 46.9627 85.8721 47.028C85.5734 47.1027 85.2094 47.14 84.7801 47.14ZM92.9346 39.496H94.2786L91.0726 43.108L94.5446 47H93.1166L89.7286 43.192V47H88.4966V39.496H89.7286V43.136L92.9346 39.496ZM97.0688 44.074C97.0688 44.186 97.0641 44.354 97.0548 44.578C97.0455 44.802 97.0315 45.026 97.0128 45.25C97.0035 45.474 96.9941 45.6513 96.9848 45.782L101.003 39.496H102.515V47H101.367V42.576C101.367 42.4267 101.367 42.2307 101.367 41.988C101.376 41.7453 101.385 41.5073 101.395 41.274C101.404 41.0313 101.413 40.8493 101.423 40.728L97.4328 47H95.9068V39.496H97.0688V44.074ZM106.681 43.164L104.091 39.496H105.491L107.423 42.324L109.341 39.496H110.727L108.137 43.164L110.867 47H109.467L107.423 44.004L105.351 47H103.965L106.681 43.164ZM119.22 47.14C118.557 47.14 117.964 47.0047 117.442 46.734C116.928 46.4633 116.522 46.0433 116.224 45.474C115.934 44.9047 115.79 44.1767 115.79 43.29C115.79 42.366 115.944 41.6147 116.252 41.036C116.56 40.4573 116.975 40.0327 117.498 39.762C118.03 39.4913 118.632 39.356 119.304 39.356C119.686 39.356 120.055 39.398 120.41 39.482C120.764 39.5567 121.054 39.65 121.278 39.762L120.9 40.784C120.676 40.7 120.414 40.6207 120.116 40.546C119.817 40.4713 119.537 40.434 119.276 40.434C117.801 40.434 117.064 41.3813 117.064 43.276C117.064 44.1813 117.241 44.8767 117.596 45.362C117.96 45.838 118.496 46.076 119.206 46.076C119.616 46.076 119.976 46.034 120.284 45.95C120.601 45.866 120.89 45.7633 121.152 45.642V46.734C120.9 46.8647 120.62 46.9627 120.312 47.028C120.013 47.1027 119.649 47.14 119.22 47.14ZM124.098 44.074C124.098 44.186 124.093 44.354 124.084 44.578C124.075 44.802 124.061 45.026 124.042 45.25C124.033 45.474 124.023 45.6513 124.014 45.782L128.032 39.496H129.544V47H128.396V42.576C128.396 42.4267 128.396 42.2307 128.396 41.988C128.405 41.7453 128.415 41.5073 128.424 41.274C128.433 41.0313 128.443 40.8493 128.452 40.728L124.462 47H122.936V39.496H124.098V44.074ZM134.942 47.14C134.28 47.14 133.687 47.0047 133.164 46.734C132.651 46.4633 132.245 46.0433 131.946 45.474C131.657 44.9047 131.512 44.1767 131.512 43.29C131.512 42.366 131.666 41.6147 131.974 41.036C132.282 40.4573 132.698 40.0327 133.22 39.762C133.752 39.4913 134.354 39.356 135.026 39.356C135.409 39.356 135.778 39.398 136.132 39.482C136.487 39.5567 136.776 39.65 137 39.762L136.622 40.784C136.398 40.7 136.137 40.6207 135.838 40.546C135.54 40.4713 135.26 40.434 134.998 40.434C133.524 40.434 132.786 41.3813 132.786 43.276C132.786 44.1813 132.964 44.8767 133.318 45.362C133.682 45.838 134.219 46.076 134.928 46.076C135.339 46.076 135.698 46.034 136.006 45.95C136.324 45.866 136.613 45.7633 136.874 45.642V46.734C136.622 46.8647 136.342 46.9627 136.034 47.028C135.736 47.1027 135.372 47.14 134.942 47.14ZM143.839 40.532H141.389V47H140.171V40.532H137.749V39.496H143.839V40.532ZM148.078 39.356C148.722 39.356 149.273 39.496 149.73 39.776C150.197 40.056 150.552 40.4527 150.794 40.966C151.046 41.47 151.172 42.0627 151.172 42.744V43.486H146.034C146.053 44.3353 146.268 44.984 146.678 45.432C147.098 45.8707 147.682 46.09 148.428 46.09C148.904 46.09 149.324 46.048 149.688 45.964C150.062 45.8707 150.444 45.74 150.836 45.572V46.65C150.454 46.818 150.076 46.9393 149.702 47.014C149.329 47.098 148.886 47.14 148.372 47.14C147.663 47.14 147.033 46.9953 146.482 46.706C145.941 46.4167 145.516 45.9873 145.208 45.418C144.91 44.8393 144.76 44.1347 144.76 43.304C144.76 42.4827 144.896 41.778 145.166 41.19C145.446 40.602 145.834 40.1493 146.328 39.832C146.832 39.5147 147.416 39.356 148.078 39.356ZM148.064 40.364C147.476 40.364 147.01 40.5553 146.664 40.938C146.328 41.3113 146.128 41.834 146.062 42.506H149.884C149.875 41.8713 149.726 41.358 149.436 40.966C149.147 40.5647 148.69 40.364 148.064 40.364ZM161.133 39.496V47H160.027V42.212C160.027 42.016 160.031 41.8107 160.041 41.596C160.059 41.3813 160.078 41.1713 160.097 40.966H160.055L157.605 47H156.569L154.189 40.966H154.147C154.175 41.386 154.189 41.8153 154.189 42.254V47H153.083V39.496H154.721L157.087 45.53L159.495 39.496H161.133ZM170.994 39.356C171.918 39.356 172.66 39.678 173.22 40.322C173.79 40.966 174.074 41.9367 174.074 43.234C174.074 44.5127 173.79 45.4833 173.22 46.146C172.66 46.8087 171.914 47.14 170.98 47.14C170.402 47.14 169.921 47.0327 169.538 46.818C169.165 46.594 168.871 46.3373 168.656 46.048H168.572C168.591 46.2067 168.61 46.4073 168.628 46.65C168.647 46.8927 168.656 47.1027 168.656 47.28V50.36H167.424V39.496H168.432L168.6 40.518H168.656C168.88 40.1913 169.174 39.916 169.538 39.692C169.902 39.468 170.388 39.356 170.994 39.356ZM170.77 40.392C170.005 40.392 169.464 40.6067 169.146 41.036C168.838 41.4653 168.675 42.1187 168.656 42.996V43.234C168.656 44.158 168.806 44.872 169.104 45.376C169.412 45.8707 169.977 46.118 170.798 46.118C171.256 46.118 171.629 45.992 171.918 45.74C172.217 45.488 172.436 45.1473 172.576 44.718C172.726 44.2793 172.8 43.78 172.8 43.22C172.8 42.3613 172.632 41.6753 172.296 41.162C171.97 40.6487 171.461 40.392 170.77 40.392ZM178.88 39.37C179.794 39.37 180.471 39.5707 180.91 39.972C181.348 40.3733 181.568 41.0127 181.568 41.89V47H180.672L180.434 45.936H180.378C180.051 46.3467 179.706 46.65 179.342 46.846C178.987 47.042 178.492 47.14 177.858 47.14C177.176 47.14 176.612 46.9627 176.164 46.608C175.716 46.244 175.492 45.6793 175.492 44.914C175.492 44.1673 175.786 43.5933 176.374 43.192C176.962 42.7813 177.867 42.5573 179.09 42.52L180.364 42.478V42.03C180.364 41.4047 180.228 40.9707 179.958 40.728C179.687 40.4853 179.304 40.364 178.81 40.364C178.418 40.364 178.044 40.4247 177.69 40.546C177.335 40.658 177.004 40.7887 176.696 40.938L176.318 40.014C176.644 39.8367 177.032 39.6873 177.48 39.566C177.928 39.4353 178.394 39.37 178.88 39.37ZM179.244 43.374C178.31 43.4113 177.662 43.5607 177.298 43.822C176.943 44.0833 176.766 44.452 176.766 44.928C176.766 45.348 176.892 45.656 177.144 45.852C177.405 46.048 177.736 46.146 178.138 46.146C178.772 46.146 179.3 45.9733 179.72 45.628C180.14 45.2733 180.35 44.732 180.35 44.004V43.332L179.244 43.374ZM185.859 39.356C186.718 39.356 187.399 39.5287 187.903 39.874C188.417 40.21 188.673 40.6953 188.673 41.33C188.673 41.7873 188.547 42.1513 188.295 42.422C188.043 42.6833 187.698 42.8747 187.259 42.996V43.052C187.558 43.136 187.833 43.2527 188.085 43.402C188.337 43.5513 188.538 43.7473 188.687 43.99C188.846 44.2327 188.925 44.5453 188.925 44.928C188.925 45.5533 188.664 46.0807 188.141 46.51C187.628 46.93 186.821 47.14 185.719 47.14C185.178 47.14 184.688 47.0933 184.249 47C183.811 46.916 183.447 46.7993 183.157 46.65V45.544C183.475 45.6933 183.848 45.8287 184.277 45.95C184.716 46.0713 185.192 46.132 185.705 46.132C186.265 46.132 186.737 46.0387 187.119 45.852C187.511 45.656 187.707 45.3247 187.707 44.858C187.707 44.018 186.993 43.598 185.565 43.598H184.557V42.59H185.369C186.013 42.59 186.527 42.506 186.909 42.338C187.301 42.1607 187.497 41.862 187.497 41.442C187.497 41.0873 187.348 40.8213 187.049 40.644C186.76 40.4667 186.34 40.378 185.789 40.378C185.379 40.378 185.015 40.42 184.697 40.504C184.389 40.5787 184.049 40.6953 183.675 40.854L183.241 39.874C184.025 39.5287 184.898 39.356 185.859 39.356ZM196.461 47H195.215V40.518H193.003C192.881 42.0953 192.713 43.3693 192.499 44.34C192.284 45.3013 191.999 46.0013 191.645 46.44C191.29 46.8787 190.842 47.098 190.301 47.098C190.179 47.098 190.058 47.0887 189.937 47.07C189.825 47.0607 189.731 47.0373 189.657 47V46.076C189.713 46.0947 189.773 46.1087 189.839 46.118C189.904 46.1273 189.969 46.132 190.035 46.132C190.539 46.132 190.94 45.5953 191.239 44.522C191.547 43.4487 191.78 41.7733 191.939 39.496H196.461V47ZM200.004 44.074C200.004 44.186 200 44.354 199.99 44.578C199.981 44.802 199.967 45.026 199.948 45.25C199.939 45.474 199.93 45.6513 199.92 45.782L203.938 39.496H205.45V47H204.302V42.576C204.302 42.4267 204.302 42.2307 204.302 41.988C204.312 41.7453 204.321 41.5073 204.33 41.274C204.34 41.0313 204.349 40.8493 204.358 40.728L200.368 47H198.842V39.496H200.004V44.074ZM208.916 42.226C208.916 43.0847 209.397 43.514 210.358 43.514C210.825 43.514 211.25 43.444 211.632 43.304C212.015 43.1547 212.407 42.9587 212.808 42.716V39.496H214.04V47H212.808V43.654C212.388 43.9247 211.973 44.1393 211.562 44.298C211.161 44.4473 210.676 44.522 210.106 44.522C209.341 44.522 208.744 44.3213 208.314 43.92C207.894 43.5187 207.684 42.982 207.684 42.31V39.496H208.916V42.226ZM217.656 39.496V42.618H221.73V39.496H222.962V47H221.73V43.654H217.656V47H216.424V39.496H217.656ZM225.338 47V39.496H226.57V42.576H228.516C229.487 42.576 230.206 42.7533 230.672 43.108C231.139 43.4627 231.372 43.9947 231.372 44.704C231.372 45.404 231.144 45.964 230.686 46.384C230.229 46.7947 229.487 47 228.46 47H225.338ZM232.618 47V39.496H233.85V47H232.618ZM228.348 46.006C228.88 46.006 229.314 45.9173 229.65 45.74C229.986 45.5533 230.154 45.2313 230.154 44.774C230.154 44.3167 230 44.0087 229.692 43.85C229.384 43.682 228.941 43.598 228.362 43.598H226.57V46.006H228.348ZM238.013 43.164L235.423 39.496H236.823L238.755 42.324L240.673 39.496H242.059L239.469 43.164L242.199 47H240.799L238.755 44.004L236.683 47H235.297L238.013 43.164ZM14.652 64H13.224L15.366 60.85C15.0767 60.7753 14.7967 60.6587 14.526 60.5C14.2553 60.332 14.036 60.1033 13.868 59.814C13.7 59.5153 13.616 59.1467 13.616 58.708C13.616 57.9893 13.8587 57.4433 14.344 57.07C14.8293 56.6873 15.4733 56.496 16.276 56.496H19.636V64H18.404V61.018H16.584L14.652 64ZM14.806 58.722C14.806 59.1513 14.9647 59.4733 15.282 59.688C15.6087 59.8933 16.0613 59.996 16.64 59.996H18.404V57.518H16.402C15.8327 57.518 15.422 57.63 15.17 57.854C14.9273 58.078 14.806 58.3673 14.806 58.722ZM23.9843 56.356C24.843 56.356 25.5243 56.5287 26.0283 56.874C26.5416 57.21 26.7983 57.6953 26.7983 58.33C26.7983 58.7873 26.6723 59.1513 26.4203 59.422C26.1683 59.6833 25.823 59.8747 25.3843 59.996V60.052C25.683 60.136 25.9583 60.2527 26.2103 60.402C26.4623 60.5513 26.663 60.7473 26.8123 60.99C26.971 61.2327 27.0503 61.5453 27.0503 61.928C27.0503 62.5533 26.789 63.0807 26.2663 63.51C25.753 63.93 24.9456 64.14 23.8443 64.14C23.303 64.14 22.813 64.0933 22.3743 64C21.9356 63.916 21.5716 63.7993 21.2823 63.65V62.544C21.5996 62.6933 21.973 62.8287 22.4023 62.95C22.841 63.0713 23.317 63.132 23.8303 63.132C24.3903 63.132 24.8616 63.0387 25.2443 62.852C25.6363 62.656 25.8323 62.3247 25.8323 61.858C25.8323 61.018 25.1183 60.598 23.6903 60.598H22.6823V59.59H23.4943C24.1383 59.59 24.6516 59.506 25.0343 59.338C25.4263 59.1607 25.6223 58.862 25.6223 58.442C25.6223 58.0873 25.473 57.8213 25.1743 57.644C24.885 57.4667 24.465 57.378 23.9143 57.378C23.5036 57.378 23.1396 57.42 22.8223 57.504C22.5143 57.5787 22.1736 57.6953 21.8003 57.854L21.3663 56.874C22.1503 56.5287 23.023 56.356 23.9843 56.356ZM28.8736 64V56.496H30.1056V59.576H32.0516C33.0223 59.576 33.7409 59.7533 34.2076 60.108C34.6743 60.4627 34.9076 60.9947 34.9076 61.704C34.9076 62.404 34.6789 62.964 34.2216 63.384C33.7643 63.7947 33.0223 64 31.9956 64H28.8736ZM36.1536 64V56.496H37.3856V64H36.1536ZM31.8836 63.006C32.4156 63.006 32.8496 62.9173 33.1856 62.74C33.5216 62.5533 33.6896 62.2313 33.6896 61.774C33.6896 61.3167 33.5356 61.0087 33.2276 60.85C32.9196 60.682 32.4763 60.598 31.8976 60.598H30.1056V63.006H31.8836ZM44.2081 56.496H45.5521L42.3461 60.108L45.8181 64H44.3901L41.0021 60.192V64H39.7701V56.496H41.0021V60.136L44.2081 56.496ZM53.4308 60.234C53.4308 61.4753 53.1135 62.4367 52.4788 63.118C51.8535 63.7993 51.0041 64.14 49.9308 64.14C49.2681 64.14 48.6755 63.9907 48.1528 63.692C47.6395 63.384 47.2335 62.9407 46.9348 62.362C46.6361 61.774 46.4868 61.0647 46.4868 60.234C46.4868 58.9927 46.7995 58.036 47.4248 57.364C48.0501 56.692 48.8995 56.356 49.9728 56.356C50.6541 56.356 51.2515 56.51 51.7648 56.818C52.2875 57.1167 52.6935 57.5553 52.9828 58.134C53.2815 58.7033 53.4308 59.4033 53.4308 60.234ZM47.7608 60.234C47.7608 61.1207 47.9335 61.8253 48.2788 62.348C48.6335 62.8613 49.1935 63.118 49.9588 63.118C50.7148 63.118 51.2701 62.8613 51.6248 62.348C51.9795 61.8253 52.1568 61.1207 52.1568 60.234C52.1568 59.3473 51.9795 58.652 51.6248 58.148C51.2701 57.644 50.7101 57.392 49.9448 57.392C49.1795 57.392 48.6241 57.644 48.2788 58.148C47.9335 58.652 47.7608 59.3473 47.7608 60.234ZM61.4174 58.386C61.4174 58.8527 61.2774 59.2167 60.9974 59.478C60.7174 59.7393 60.358 59.9167 59.9194 60.01V60.066C60.386 60.1313 60.792 60.2993 61.1374 60.57C61.4827 60.8313 61.6554 61.242 61.6554 61.802C61.6554 62.4367 61.4174 62.964 60.9414 63.384C60.4747 63.7947 59.7 64 58.6174 64H55.3834V56.496H58.6034C59.1354 56.496 59.6114 56.5567 60.0314 56.678C60.4607 56.79 60.7967 56.986 61.0394 57.266C61.2914 57.5367 61.4174 57.91 61.4174 58.386ZM60.1714 58.54C60.1714 58.1853 60.0407 57.9287 59.7794 57.77C59.5274 57.602 59.112 57.518 58.5334 57.518H56.6154V59.576H58.3094C59.5507 59.576 60.1714 59.2307 60.1714 58.54ZM60.3814 61.802C60.3814 61.3727 60.218 61.0647 59.8914 60.878C59.5647 60.6913 59.084 60.598 58.4494 60.598H56.6154V63.006H58.4774C59.0934 63.006 59.5647 62.9173 59.8914 62.74C60.218 62.5533 60.3814 62.2407 60.3814 61.802ZM73.8702 60.234C73.8702 61.4753 73.5529 62.4367 72.9183 63.118C72.2929 63.7993 71.4436 64.14 70.3703 64.14C69.7076 64.14 69.1149 63.9907 68.5923 63.692C68.0789 63.384 67.6729 62.9407 67.3743 62.362C67.0756 61.774 66.9263 61.0647 66.9263 60.234C66.9263 58.9927 67.2389 58.036 67.8643 57.364C68.4896 56.692 69.3389 56.356 70.4123 56.356C71.0936 56.356 71.6909 56.51 72.2043 56.818C72.7269 57.1167 73.1329 57.5553 73.4223 58.134C73.7209 58.7033 73.8702 59.4033 73.8702 60.234ZM68.2003 60.234C68.2003 61.1207 68.3729 61.8253 68.7183 62.348C69.0729 62.8613 69.6329 63.118 70.3983 63.118C71.1543 63.118 71.7096 62.8613 72.0643 62.348C72.4189 61.8253 72.5963 61.1207 72.5963 60.234C72.5963 59.3473 72.4189 58.652 72.0643 58.148C71.7096 57.644 71.1496 57.392 70.3843 57.392C69.6189 57.392 69.0636 57.644 68.7183 58.148C68.3729 58.652 68.2003 59.3473 68.2003 60.234ZM75.4308 59.492C75.4308 57.8493 75.6781 56.5707 76.1728 55.656C76.6675 54.732 77.4655 54.1533 78.5668 53.92C79.1735 53.7893 79.7661 53.6727 80.3448 53.57C80.9235 53.4673 81.4648 53.374 81.9688 53.29L82.1788 54.368C81.8521 54.4147 81.4835 54.4753 81.0728 54.55C80.6621 54.6153 80.2561 54.6853 79.8548 54.76C79.4535 54.8253 79.1081 54.8907 78.8188 54.956C78.2121 55.0867 77.7315 55.404 77.3768 55.908C77.0221 56.4027 76.8215 57.1773 76.7748 58.232H76.8588C76.9895 58.0547 77.1668 57.8727 77.3908 57.686C77.6241 57.4993 77.8995 57.3407 78.2168 57.21C78.5435 57.0793 78.9121 57.014 79.3228 57.014C80.2935 57.014 81.0261 57.3267 81.5208 57.952C82.0155 58.5773 82.2628 59.3893 82.2628 60.388C82.2628 61.2187 82.1181 61.914 81.8288 62.474C81.5395 63.034 81.1381 63.454 80.6248 63.734C80.1115 64.0047 79.5141 64.14 78.8328 64.14C77.7968 64.14 76.9708 63.7433 76.3548 62.95C75.7388 62.1567 75.4308 61.004 75.4308 59.492ZM78.9308 63.118C79.5375 63.118 80.0275 62.922 80.4008 62.53C80.7741 62.138 80.9608 61.466 80.9608 60.514C80.9608 59.7487 80.8161 59.1467 80.5268 58.708C80.2468 58.26 79.7801 58.036 79.1268 58.036C78.7161 58.036 78.3428 58.1293 78.0068 58.316C77.6708 58.4933 77.3908 58.6987 77.1668 58.932C76.9428 59.1653 76.7841 59.3613 76.6908 59.52C76.6908 59.9773 76.7235 60.4207 76.7888 60.85C76.8541 61.2793 76.9661 61.6667 77.1248 62.012C77.2928 62.348 77.5215 62.6187 77.8108 62.824C78.1095 63.02 78.4828 63.118 78.9308 63.118ZM83.0277 56.496H84.3437L85.9677 60.766C86.1077 61.1393 86.2337 61.4987 86.3457 61.844C86.4577 62.18 86.5417 62.502 86.5977 62.81H86.6537C86.7097 62.5767 86.7983 62.2733 86.9197 61.9C87.041 61.5173 87.167 61.1347 87.2977 60.752L88.8237 56.496H90.1537L86.9197 65.036C86.6583 65.7453 86.3177 66.31 85.8977 66.73C85.487 67.15 84.9177 67.36 84.1897 67.36C83.9657 67.36 83.7697 67.346 83.6017 67.318C83.4337 67.2993 83.289 67.276 83.1677 67.248V66.268C83.2703 66.2867 83.3917 66.3053 83.5317 66.324C83.681 66.3427 83.835 66.352 83.9937 66.352C84.423 66.352 84.7683 66.2307 85.0297 65.988C85.3003 65.7453 85.5103 65.4233 85.6597 65.022L86.0517 64.028L83.0277 56.496ZM94.3504 64.14C93.6877 64.14 93.0951 64.0047 92.5724 63.734C92.0591 63.4633 91.6531 63.0433 91.3544 62.474C91.0651 61.9047 90.9204 61.1767 90.9204 60.29C90.9204 59.366 91.0744 58.6147 91.3824 58.036C91.6904 57.4573 92.1057 57.0327 92.6284 56.762C93.1604 56.4913 93.7624 56.356 94.4344 56.356C94.8171 56.356 95.1857 56.398 95.5404 56.482C95.8951 56.5567 96.1844 56.65 96.4084 56.762L96.0304 57.784C95.8064 57.7 95.5451 57.6207 95.2464 57.546C94.9477 57.4713 94.6677 57.434 94.4064 57.434C92.9317 57.434 92.1944 58.3813 92.1944 60.276C92.1944 61.1813 92.3717 61.8767 92.7264 62.362C93.0904 62.838 93.6271 63.076 94.3364 63.076C94.7471 63.076 95.1064 63.034 95.4144 62.95C95.7317 62.866 96.0211 62.7633 96.2824 62.642V63.734C96.0304 63.8647 95.7504 63.9627 95.4424 64.028C95.1437 64.1027 94.7797 64.14 94.3504 64.14ZM103.779 64H102.533V57.518H100.321C100.2 59.0953 100.032 60.3693 99.817 61.34C99.6023 62.3013 99.3176 63.0013 98.963 63.44C98.6083 63.8787 98.1603 64.098 97.619 64.098C97.4976 64.098 97.3763 64.0887 97.255 64.07C97.143 64.0607 97.0496 64.0373 96.975 64V63.076C97.031 63.0947 97.0916 63.1087 97.157 63.118C97.2223 63.1273 97.2876 63.132 97.353 63.132C97.857 63.132 98.2583 62.5953 98.557 61.522C98.865 60.4487 99.0983 58.7733 99.257 56.496H103.779V64ZM109.003 56.37C109.917 56.37 110.594 56.5707 111.033 56.972C111.471 57.3733 111.691 58.0127 111.691 58.89V64H110.795L110.557 62.936H110.501C110.174 63.3467 109.829 63.65 109.465 63.846C109.11 64.042 108.615 64.14 107.981 64.14C107.299 64.14 106.735 63.9627 106.287 63.608C105.839 63.244 105.615 62.6793 105.615 61.914C105.615 61.1673 105.909 60.5933 106.497 60.192C107.085 59.7813 107.99 59.5573 109.213 59.52L110.487 59.478V59.03C110.487 58.4047 110.351 57.9707 110.081 57.728C109.81 57.4853 109.427 57.364 108.933 57.364C108.541 57.364 108.167 57.4247 107.813 57.546C107.458 57.658 107.127 57.7887 106.819 57.938L106.441 57.014C106.767 56.8367 107.155 56.6873 107.603 56.566C108.051 56.4353 108.517 56.37 109.003 56.37ZM109.367 60.374C108.433 60.4113 107.785 60.5607 107.421 60.822C107.066 61.0833 106.889 61.452 106.889 61.928C106.889 62.348 107.015 62.656 107.267 62.852C107.528 63.048 107.859 63.146 108.261 63.146C108.895 63.146 109.423 62.9733 109.843 62.628C110.263 62.2733 110.473 61.732 110.473 61.004V60.332L109.367 60.374ZM120.042 58.386C120.042 58.8527 119.902 59.2167 119.622 59.478C119.342 59.7393 118.983 59.9167 118.544 60.01V60.066C119.011 60.1313 119.417 60.2993 119.762 60.57C120.108 60.8313 120.28 61.242 120.28 61.802C120.28 62.4367 120.042 62.964 119.566 63.384C119.1 63.7947 118.325 64 117.242 64H114.008V56.496H117.228C117.76 56.496 118.236 56.5567 118.656 56.678C119.086 56.79 119.422 56.986 119.664 57.266C119.916 57.5367 120.042 57.91 120.042 58.386ZM118.796 58.54C118.796 58.1853 118.666 57.9287 118.404 57.77C118.152 57.602 117.737 57.518 117.158 57.518H115.24V59.576H116.934C118.176 59.576 118.796 59.2307 118.796 58.54ZM119.006 61.802C119.006 61.3727 118.843 61.0647 118.516 60.878C118.19 60.6913 117.709 60.598 117.074 60.598H115.24V63.006H117.102C117.718 63.006 118.19 62.9173 118.516 62.74C118.843 62.5533 119.006 62.2407 119.006 61.802ZM127.787 64H126.541V57.518H124.329C124.207 59.0953 124.039 60.3693 123.825 61.34C123.61 62.3013 123.325 63.0013 122.971 63.44C122.616 63.8787 122.168 64.098 121.627 64.098C121.505 64.098 121.384 64.0887 121.263 64.07C121.151 64.0607 121.057 64.0373 120.983 64V63.076C121.039 63.0947 121.099 63.1087 121.165 63.118C121.23 63.1273 121.295 63.132 121.361 63.132C121.865 63.132 122.266 62.5953 122.565 61.522C122.873 60.4487 123.106 58.7733 123.265 56.496H127.787V64ZM131.331 61.074C131.331 61.186 131.326 61.354 131.317 61.578C131.307 61.802 131.293 62.026 131.275 62.25C131.265 62.474 131.256 62.6513 131.247 62.782L135.265 56.496H136.777V64H135.629V59.576C135.629 59.4267 135.629 59.2307 135.629 58.988C135.638 58.7453 135.647 58.5073 135.657 58.274C135.666 58.0313 135.675 57.8493 135.685 57.728L131.695 64H130.169V56.496H131.331V61.074ZM145.199 58.386C145.199 58.8527 145.059 59.2167 144.779 59.478C144.499 59.7393 144.139 59.9167 143.701 60.01V60.066C144.167 60.1313 144.573 60.2993 144.919 60.57C145.264 60.8313 145.437 61.242 145.437 61.802C145.437 62.4367 145.199 62.964 144.723 63.384C144.256 63.7947 143.481 64 142.399 64H139.165V56.496H142.385C142.917 56.496 143.393 56.5567 143.813 56.678C144.242 56.79 144.578 56.986 144.821 57.266C145.073 57.5367 145.199 57.91 145.199 58.386ZM143.953 58.54C143.953 58.1853 143.822 57.9287 143.561 57.77C143.309 57.602 142.893 57.518 142.315 57.518H140.397V59.576H142.091C143.332 59.576 143.953 59.2307 143.953 58.54ZM144.163 61.802C144.163 61.3727 143.999 61.0647 143.673 60.878C143.346 60.6913 142.865 60.598 142.231 60.598H140.397V63.006H142.259C142.875 63.006 143.346 62.9173 143.673 62.74C143.999 62.5533 144.163 62.2407 144.163 61.802ZM150.073 56.37C150.988 56.37 151.664 56.5707 152.103 56.972C152.542 57.3733 152.761 58.0127 152.761 58.89V64H151.865L151.627 62.936H151.571C151.244 63.3467 150.899 63.65 150.535 63.846C150.18 64.042 149.686 64.14 149.051 64.14C148.37 64.14 147.805 63.9627 147.357 63.608C146.909 63.244 146.685 62.6793 146.685 61.914C146.685 61.1673 146.979 60.5933 147.567 60.192C148.155 59.7813 149.06 59.5573 150.283 59.52L151.557 59.478V59.03C151.557 58.4047 151.422 57.9707 151.151 57.728C150.88 57.4853 150.498 57.364 150.003 57.364C149.611 57.364 149.238 57.4247 148.883 57.546C148.528 57.658 148.197 57.7887 147.889 57.938L147.511 57.014C147.838 56.8367 148.225 56.6873 148.673 56.566C149.121 56.4353 149.588 56.37 150.073 56.37ZM150.437 60.374C149.504 60.4113 148.855 60.5607 148.491 60.822C148.136 61.0833 147.959 61.452 147.959 61.928C147.959 62.348 148.085 62.656 148.337 62.852C148.598 63.048 148.93 63.146 149.331 63.146C149.966 63.146 150.493 62.9733 150.913 62.628C151.333 62.2733 151.543 61.732 151.543 61.004V60.332L150.437 60.374ZM157.977 56.356C158.621 56.356 159.171 56.496 159.629 56.776C160.095 57.056 160.45 57.4527 160.693 57.966C160.945 58.47 161.071 59.0627 161.071 59.744V60.486H155.933C155.951 61.3353 156.166 61.984 156.577 62.432C156.997 62.8707 157.58 63.09 158.327 63.09C158.803 63.09 159.223 63.048 159.587 62.964C159.96 62.8707 160.343 62.74 160.735 62.572V63.65C160.352 63.818 159.974 63.9393 159.601 64.014C159.227 64.098 158.784 64.14 158.271 64.14C157.561 64.14 156.931 63.9953 156.381 63.706C155.839 63.4167 155.415 62.9873 155.107 62.418C154.808 61.8393 154.659 61.1347 154.659 60.304C154.659 59.4827 154.794 58.778 155.065 58.19C155.345 57.602 155.732 57.1493 156.227 56.832C156.731 56.5147 157.314 56.356 157.977 56.356ZM157.963 57.364C157.375 57.364 156.908 57.5553 156.563 57.938C156.227 58.3113 156.026 58.834 155.961 59.506H159.783C159.773 58.8713 159.624 58.358 159.335 57.966C159.045 57.5647 158.588 57.364 157.963 57.364ZM168.161 57.532H165.711V64H164.493V57.532H162.071V56.496H168.161V57.532ZM174.768 56.496V59.618H178.842V56.496H180.074V64H178.842V60.654H174.768V64H173.536V56.496H174.768ZM185.292 56.37C186.206 56.37 186.883 56.5707 187.322 56.972C187.76 57.3733 187.98 58.0127 187.98 58.89V64H187.084L186.846 62.936H186.79C186.463 63.3467 186.118 63.65 185.754 63.846C185.399 64.042 184.904 64.14 184.27 64.14C183.588 64.14 183.024 63.9627 182.576 63.608C182.128 63.244 181.904 62.6793 181.904 61.914C181.904 61.1673 182.198 60.5933 182.786 60.192C183.374 59.7813 184.279 59.5573 185.502 59.52L186.776 59.478V59.03C186.776 58.4047 186.64 57.9707 186.37 57.728C186.099 57.4853 185.716 57.364 185.222 57.364C184.83 57.364 184.456 57.4247 184.102 57.546C183.747 57.658 183.416 57.7887 183.108 57.938L182.73 57.014C183.056 56.8367 183.444 56.6873 183.892 56.566C184.34 56.4353 184.806 56.37 185.292 56.37ZM185.656 60.374C184.722 60.4113 184.074 60.5607 183.71 60.822C183.355 61.0833 183.178 61.452 183.178 61.928C183.178 62.348 183.304 62.656 183.556 62.852C183.817 63.048 184.148 63.146 184.55 63.146C185.184 63.146 185.712 62.9733 186.132 62.628C186.552 62.2733 186.762 61.732 186.762 61.004V60.332L185.656 60.374ZM196.009 64H194.763V57.518H192.551C192.43 59.0953 192.262 60.3693 192.047 61.34C191.833 62.3013 191.548 63.0013 191.193 63.44C190.839 63.8787 190.391 64.098 189.849 64.098C189.728 64.098 189.607 64.0887 189.485 64.07C189.373 64.0607 189.28 64.0373 189.205 64V63.076C189.261 63.0947 189.322 63.1087 189.387 63.118C189.453 63.1273 189.518 63.132 189.583 63.132C190.087 63.132 190.489 62.5953 190.787 61.522C191.095 60.4487 191.329 58.7733 191.487 56.496H196.009V64ZM199.553 61.074C199.553 61.186 199.549 61.354 199.539 61.578C199.53 61.802 199.516 62.026 199.497 62.25C199.488 62.474 199.479 62.6513 199.469 62.782L203.487 56.496H204.999V64H203.851V59.576C203.851 59.4267 203.851 59.2307 203.851 58.988C203.861 58.7453 203.87 58.5073 203.879 58.274C203.889 58.0313 203.898 57.8493 203.907 57.728L199.917 64H198.391V56.496H199.553V61.074ZM208.465 59.226C208.465 60.0847 208.946 60.514 209.907 60.514C210.374 60.514 210.799 60.444 211.181 60.304C211.564 60.1547 211.956 59.9587 212.357 59.716V56.496H213.589V64H212.357V60.654C211.937 60.9247 211.522 61.1393 211.111 61.298C210.71 61.4473 210.225 61.522 209.655 61.522C208.89 61.522 208.293 61.3213 207.863 60.92C207.443 60.5187 207.233 59.982 207.233 59.31V56.496H208.465V59.226ZM217.135 61.074C217.135 61.186 217.131 61.354 217.121 61.578C217.112 61.802 217.098 62.026 217.079 62.25C217.07 62.474 217.061 62.6513 217.051 62.782L221.069 56.496H222.581V64H221.433V59.576C221.433 59.4267 221.433 59.2307 221.433 58.988C221.443 58.7453 221.452 58.5073 221.461 58.274C221.471 58.0313 221.48 57.8493 221.489 57.728L217.499 64H215.973V56.496H217.135V61.074ZM227.867 56.356C228.511 56.356 229.062 56.496 229.519 56.776C229.986 57.056 230.341 57.4527 230.583 57.966C230.835 58.47 230.961 59.0627 230.961 59.744V60.486H225.823C225.842 61.3353 226.057 61.984 226.467 62.432C226.887 62.8707 227.471 63.09 228.217 63.09C228.693 63.09 229.113 63.048 229.477 62.964C229.851 62.8707 230.233 62.74 230.625 62.572V63.65C230.243 63.818 229.865 63.9393 229.491 64.014C229.118 64.098 228.675 64.14 228.161 64.14C227.452 64.14 226.822 63.9953 226.271 63.706C225.73 63.4167 225.305 62.9873 224.997 62.418C224.699 61.8393 224.549 61.1347 224.549 60.304C224.549 59.4827 224.685 58.778 224.955 58.19C225.235 57.602 225.623 57.1493 226.117 56.832C226.621 56.5147 227.205 56.356 227.867 56.356ZM227.853 57.364C227.265 57.364 226.799 57.5553 226.453 57.938C226.117 58.3113 225.917 58.834 225.851 59.506H229.673C229.664 58.8713 229.515 58.358 229.225 57.966C228.936 57.5647 228.479 57.364 227.853 57.364ZM17.032 73.37C17.9467 73.37 18.6233 73.5707 19.062 73.972C19.5007 74.3733 19.72 75.0127 19.72 75.89V81H18.824L18.586 79.936H18.53C18.2033 80.3467 17.858 80.65 17.494 80.846C17.1393 81.042 16.6447 81.14 16.01 81.14C15.3287 81.14 14.764 80.9627 14.316 80.608C13.868 80.244 13.644 79.6793 13.644 78.914C13.644 78.1673 13.938 77.5933 14.526 77.192C15.114 76.7813 16.0193 76.5573 17.242 76.52L18.516 76.478V76.03C18.516 75.4047 18.3807 74.9707 18.11 74.728C17.8393 74.4853 17.4567 74.364 16.962 74.364C16.57 74.364 16.1967 74.4247 15.842 74.546C15.4873 74.658 15.156 74.7887 14.848 74.938L14.47 74.014C14.7967 73.8367 15.184 73.6873 15.632 73.566C16.08 73.4353 16.5467 73.37 17.032 73.37ZM17.396 77.374C16.4627 77.4113 15.814 77.5607 15.45 77.822C15.0953 78.0833 14.918 78.452 14.918 78.928C14.918 79.348 15.044 79.656 15.296 79.852C15.5573 80.048 15.8887 80.146 16.29 80.146C16.9247 80.146 17.452 79.9733 17.872 79.628C18.292 79.2733 18.502 78.732 18.502 78.004V77.332L17.396 77.374ZM27.7497 81H26.5037V74.518H24.2917C24.1703 76.0953 24.0023 77.3693 23.7877 78.34C23.573 79.3013 23.2883 80.0013 22.9337 80.44C22.579 80.8787 22.131 81.098 21.5897 81.098C21.4683 81.098 21.347 81.0887 21.2257 81.07C21.1137 81.0607 21.0203 81.0373 20.9457 81V80.076C21.0017 80.0947 21.0623 80.1087 21.1277 80.118C21.193 80.1273 21.2583 80.132 21.3237 80.132C21.8277 80.132 22.229 79.5953 22.5277 78.522C22.8357 77.4487 23.069 75.7733 23.2277 73.496H27.7497V81ZM34.6114 73.384C35.3581 73.4493 36.0067 73.6453 36.5574 73.972C37.1174 74.2987 37.5514 74.7373 37.8594 75.288C38.1674 75.8387 38.3214 76.492 38.3214 77.248C38.3214 78.3773 37.9901 79.278 37.3274 79.95C36.6741 80.622 35.7687 81.0093 34.6114 81.112V84.36H33.4074V81.112C32.6701 81.0467 32.0214 80.8553 31.4614 80.538C30.9014 80.2113 30.4674 79.7727 30.1594 79.222C29.8514 78.662 29.6974 78.004 29.6974 77.248C29.6974 76.1093 30.0241 75.204 30.6774 74.532C31.3401 73.86 32.2641 73.4773 33.4494 73.384V70.36H34.6114V73.384ZM33.4494 74.406C32.5907 74.49 31.9654 74.7747 31.5734 75.26C31.1814 75.736 30.9854 76.3987 30.9854 77.248C30.9854 78.0973 31.1814 78.7647 31.5734 79.25C31.9747 79.7353 32.6001 80.02 33.4494 80.104V74.406ZM34.6114 80.104C35.4514 80.0107 36.0674 79.7213 36.4594 79.236C36.8514 78.7507 37.0474 78.088 37.0474 77.248C37.0474 76.408 36.8467 75.75 36.4454 75.274C36.0534 74.798 35.4421 74.5133 34.6114 74.42V80.104ZM43.1179 73.37C44.0326 73.37 44.7093 73.5707 45.1479 73.972C45.5866 74.3733 45.8059 75.0127 45.8059 75.89V81H44.9099L44.6719 79.936H44.6159C44.2893 80.3467 43.9439 80.65 43.5799 80.846C43.2253 81.042 42.7306 81.14 42.0959 81.14C41.4146 81.14 40.8499 80.9627 40.4019 80.608C39.9539 80.244 39.7299 79.6793 39.7299 78.914C39.7299 78.1673 40.0239 77.5933 40.6119 77.192C41.1999 76.7813 42.1053 76.5573 43.3279 76.52L44.6019 76.478V76.03C44.6019 75.4047 44.4666 74.9707 44.1959 74.728C43.9253 74.4853 43.5426 74.364 43.0479 74.364C42.6559 74.364 42.2826 74.4247 41.9279 74.546C41.5733 74.658 41.2419 74.7887 40.9339 74.938L40.5559 74.014C40.8826 73.8367 41.2699 73.6873 41.7179 73.566C42.1659 73.4353 42.6326 73.37 43.1179 73.37ZM43.4819 77.374C42.5486 77.4113 41.8999 77.5607 41.5359 77.822C41.1813 78.0833 41.0039 78.452 41.0039 78.928C41.0039 79.348 41.1299 79.656 41.3819 79.852C41.6433 80.048 41.9746 80.146 42.3759 80.146C43.0106 80.146 43.5379 79.9733 43.9579 79.628C44.3779 79.2733 44.5879 78.732 44.5879 78.004V77.332L43.4819 77.374ZM54.1576 75.386C54.1576 75.8527 54.0176 76.2167 53.7376 76.478C53.4576 76.7393 53.0983 76.9167 52.6596 77.01V77.066C53.1263 77.1313 53.5323 77.2993 53.8776 77.57C54.2229 77.8313 54.3956 78.242 54.3956 78.802C54.3956 79.4367 54.1576 79.964 53.6816 80.384C53.2149 80.7947 52.4403 81 51.3576 81H48.1236V73.496H51.3436C51.8756 73.496 52.3516 73.5567 52.7716 73.678C53.2009 73.79 53.5369 73.986 53.7796 74.266C54.0316 74.5367 54.1576 74.91 54.1576 75.386ZM52.9116 75.54C52.9116 75.1853 52.7809 74.9287 52.5196 74.77C52.2676 74.602 51.8523 74.518 51.2736 74.518H49.3556V76.576H51.0496C52.2909 76.576 52.9116 76.2307 52.9116 75.54ZM53.1216 78.802C53.1216 78.3727 52.9583 78.0647 52.6316 77.878C52.3049 77.6913 51.8243 77.598 51.1896 77.598H49.3556V80.006H51.2176C51.8336 80.006 52.3049 79.9173 52.6316 79.74C52.9583 79.5533 53.1216 79.2407 53.1216 78.802ZM57.352 78.074C57.352 78.186 57.3473 78.354 57.338 78.578C57.3287 78.802 57.3147 79.026 57.296 79.25C57.2867 79.474 57.2773 79.6513 57.268 79.782L61.286 73.496H62.798V81H61.65V76.576C61.65 76.4267 61.65 76.2307 61.65 75.988C61.6593 75.7453 61.6687 75.5073 61.678 75.274C61.6873 75.0313 61.6967 74.8493 61.706 74.728L57.716 81H56.19V73.496H57.352V78.074ZM70.3661 74.532H67.9161V81H66.6981V74.532H64.2761V73.496H70.3661V74.532ZM78.2316 77.234C78.2316 78.4753 77.9142 79.4367 77.2796 80.118C76.6542 80.7993 75.8049 81.14 74.7316 81.14C74.0689 81.14 73.4762 80.9907 72.9536 80.692C72.4402 80.384 72.0342 79.9407 71.7356 79.362C71.4369 78.774 71.2876 78.0647 71.2876 77.234C71.2876 75.9927 71.6002 75.036 72.2256 74.364C72.8509 73.692 73.7002 73.356 74.7736 73.356C75.4549 73.356 76.0522 73.51 76.5656 73.818C77.0882 74.1167 77.4942 74.5553 77.7836 75.134C78.0822 75.7033 78.2316 76.4033 78.2316 77.234ZM72.5616 77.234C72.5616 78.1207 72.7342 78.8253 73.0796 79.348C73.4342 79.8613 73.9942 80.118 74.7596 80.118C75.5156 80.118 76.0709 79.8613 76.4256 79.348C76.7802 78.8253 76.9576 78.1207 76.9576 77.234C76.9576 76.3473 76.7802 75.652 76.4256 75.148C76.0709 74.644 75.5109 74.392 74.7456 74.392C73.9802 74.392 73.4249 74.644 73.0796 75.148C72.7342 75.652 72.5616 76.3473 72.5616 77.234ZM86.2181 75.386C86.2181 75.8527 86.0781 76.2167 85.7981 76.478C85.5181 76.7393 85.1588 76.9167 84.7201 77.01V77.066C85.1868 77.1313 85.5928 77.2993 85.9381 77.57C86.2835 77.8313 86.4561 78.242 86.4561 78.802C86.4561 79.4367 86.2181 79.964 85.7421 80.384C85.2755 80.7947 84.5008 81 83.4181 81H80.1841V73.496H83.4041C83.9361 73.496 84.4121 73.5567 84.8321 73.678C85.2615 73.79 85.5975 73.986 85.8401 74.266C86.0921 74.5367 86.2181 74.91 86.2181 75.386ZM84.9721 75.54C84.9721 75.1853 84.8415 74.9287 84.5801 74.77C84.3281 74.602 83.9128 74.518 83.3341 74.518H81.4161V76.576H83.1101C84.3515 76.576 84.9721 76.2307 84.9721 75.54ZM85.1821 78.802C85.1821 78.3727 85.0188 78.0647 84.6921 77.878C84.3655 77.6913 83.8848 77.598 83.2501 77.598H81.4161V80.006H83.2781C83.8941 80.006 84.3655 79.9173 84.6921 79.74C85.0188 79.5533 85.1821 79.2407 85.1821 78.802ZM93.379 73.496V76.618H97.453V73.496H98.685V81H97.453V77.654H93.379V81H92.147V73.496H93.379ZM103.959 73.356C104.603 73.356 105.154 73.496 105.611 73.776C106.078 74.056 106.432 74.4527 106.675 74.966C106.927 75.47 107.053 76.0627 107.053 76.744V77.486H101.915C101.934 78.3353 102.148 78.984 102.559 79.432C102.979 79.8707 103.562 80.09 104.309 80.09C104.785 80.09 105.205 80.048 105.569 79.964C105.942 79.8707 106.325 79.74 106.717 79.572V80.65C106.334 80.818 105.956 80.9393 105.583 81.014C105.21 81.098 104.766 81.14 104.253 81.14C103.544 81.14 102.914 80.9953 102.363 80.706C101.822 80.4167 101.397 79.9873 101.089 79.418C100.79 78.8393 100.641 78.1347 100.641 77.304C100.641 76.4827 100.776 75.778 101.047 75.19C101.327 74.602 101.714 74.1493 102.209 73.832C102.713 73.5147 103.296 73.356 103.959 73.356ZM103.945 74.364C103.357 74.364 102.89 74.5553 102.545 74.938C102.209 75.3113 102.008 75.834 101.943 76.506H105.765C105.756 75.8713 105.606 75.358 105.317 74.966C105.028 74.5647 104.57 74.364 103.945 74.364ZM115.487 77.234C115.487 78.4753 115.17 79.4367 114.535 80.118C113.91 80.7993 113.061 81.14 111.987 81.14C111.325 81.14 110.732 80.9907 110.209 80.692C109.696 80.384 109.29 79.9407 108.991 79.362C108.693 78.774 108.543 78.0647 108.543 77.234C108.543 75.9927 108.856 75.036 109.481 74.364C110.107 73.692 110.956 73.356 112.029 73.356C112.711 73.356 113.308 73.51 113.821 73.818C114.344 74.1167 114.75 74.5553 115.039 75.134C115.338 75.7033 115.487 76.4033 115.487 77.234ZM109.817 77.234C109.817 78.1207 109.99 78.8253 110.335 79.348C110.69 79.8613 111.25 80.118 112.015 80.118C112.771 80.118 113.327 79.8613 113.681 79.348C114.036 78.8253 114.213 78.1207 114.213 77.234C114.213 76.3473 114.036 75.652 113.681 75.148C113.327 74.644 112.767 74.392 112.001 74.392C111.236 74.392 110.681 74.644 110.335 75.148C109.99 75.652 109.817 76.3473 109.817 77.234ZM123.012 73.496V79.964H124.104V83.604H122.914V81H117.692V83.604H116.516V79.964H117.118C117.762 79.0773 118.243 78.0693 118.56 76.94C118.887 75.8013 119.055 74.6533 119.064 73.496H123.012ZM120.156 74.462C120.119 75.0967 120.021 75.7547 119.862 76.436C119.703 77.108 119.498 77.752 119.246 78.368C119.003 78.984 118.719 79.516 118.392 79.964H121.822V74.462H120.156ZM126.737 78.074C126.737 78.186 126.732 78.354 126.723 78.578C126.713 78.802 126.699 79.026 126.681 79.25C126.671 79.474 126.662 79.6513 126.653 79.782L130.671 73.496H132.183V81H131.035V76.576C131.035 76.4267 131.035 76.2307 131.035 75.988C131.044 75.7453 131.053 75.5073 131.063 75.274C131.072 75.0313 131.081 74.8493 131.091 74.728L127.101 81H125.575V73.496H126.737V78.074ZM135.803 73.496V76.618H139.877V73.496H141.109V81H139.877V77.654H135.803V81H134.571V73.496H135.803ZM146.327 73.37C147.242 73.37 147.918 73.5707 148.357 73.972C148.796 74.3733 149.015 75.0127 149.015 75.89V81H148.119L147.881 79.936H147.825C147.498 80.3467 147.153 80.65 146.789 80.846C146.434 81.042 145.94 81.14 145.305 81.14C144.624 81.14 144.059 80.9627 143.611 80.608C143.163 80.244 142.939 79.6793 142.939 78.914C142.939 78.1673 143.233 77.5933 143.821 77.192C144.409 76.7813 145.314 76.5573 146.537 76.52L147.811 76.478V76.03C147.811 75.4047 147.676 74.9707 147.405 74.728C147.134 74.4853 146.752 74.364 146.257 74.364C145.865 74.364 145.492 74.4247 145.137 74.546C144.782 74.658 144.451 74.7887 144.143 74.938L143.765 74.014C144.092 73.8367 144.479 73.6873 144.927 73.566C145.375 73.4353 145.842 73.37 146.327 73.37ZM146.691 77.374C145.758 77.4113 145.109 77.5607 144.745 77.822C144.39 78.0833 144.213 78.452 144.213 78.928C144.213 79.348 144.339 79.656 144.591 79.852C144.852 80.048 145.184 80.146 145.585 80.146C146.22 80.146 146.747 79.9733 147.167 79.628C147.587 79.2733 147.797 78.732 147.797 78.004V77.332L146.691 77.374ZM155.771 73.496H157.115L153.909 77.108L157.381 81H155.953L152.565 77.192V81H151.333V73.496H152.565V77.136L155.771 73.496ZM164.993 77.234C164.993 78.4753 164.676 79.4367 164.041 80.118C163.416 80.7993 162.567 81.14 161.493 81.14C160.831 81.14 160.238 80.9907 159.715 80.692C159.202 80.384 158.796 79.9407 158.497 79.362C158.199 78.774 158.049 78.0647 158.049 77.234C158.049 75.9927 158.362 75.036 158.987 74.364C159.613 73.692 160.462 73.356 161.535 73.356C162.217 73.356 162.814 73.51 163.327 73.818C163.85 74.1167 164.256 74.5553 164.545 75.134C164.844 75.7033 164.993 76.4033 164.993 77.234ZM159.323 77.234C159.323 78.1207 159.496 78.8253 159.841 79.348C160.196 79.8613 160.756 80.118 161.521 80.118C162.277 80.118 162.833 79.8613 163.187 79.348C163.542 78.8253 163.719 78.1207 163.719 77.234C163.719 76.3473 163.542 75.652 163.187 75.148C162.833 74.644 162.273 74.392 161.507 74.392C160.742 74.392 160.187 74.644 159.841 75.148C159.496 75.652 159.323 76.3473 159.323 77.234ZM172.98 75.386C172.98 75.8527 172.84 76.2167 172.56 76.478C172.28 76.7393 171.921 76.9167 171.482 77.01V77.066C171.949 77.1313 172.355 77.2993 172.7 77.57C173.045 77.8313 173.218 78.242 173.218 78.802C173.218 79.4367 172.98 79.964 172.504 80.384C172.037 80.7947 171.263 81 170.18 81H166.946V73.496H170.166C170.698 73.496 171.174 73.5567 171.594 73.678C172.023 73.79 172.359 73.986 172.602 74.266C172.854 74.5367 172.98 74.91 172.98 75.386ZM171.734 75.54C171.734 75.1853 171.603 74.9287 171.342 74.77C171.09 74.602 170.675 74.518 170.096 74.518H168.178V76.576H169.872C171.113 76.576 171.734 76.2307 171.734 75.54ZM171.944 78.802C171.944 78.3727 171.781 78.0647 171.454 77.878C171.127 77.6913 170.647 77.598 170.012 77.598H168.178V80.006H170.04C170.656 80.006 171.127 79.9173 171.454 79.74C171.781 79.5533 171.944 79.2407 171.944 78.802ZM181.536 77.234C181.536 78.4753 181.219 79.4367 180.584 80.118C179.959 80.7993 179.11 81.14 178.036 81.14C177.374 81.14 176.781 80.9907 176.258 80.692C175.745 80.384 175.339 79.9407 175.04 79.362C174.742 78.774 174.592 78.0647 174.592 77.234C174.592 75.9927 174.905 75.036 175.53 74.364C176.156 73.692 177.005 73.356 178.078 73.356C178.76 73.356 179.357 73.51 179.87 73.818C180.393 74.1167 180.799 74.5553 181.088 75.134C181.387 75.7033 181.536 76.4033 181.536 77.234ZM175.866 77.234C175.866 78.1207 176.039 78.8253 176.384 79.348C176.739 79.8613 177.299 80.118 178.064 80.118C178.82 80.118 179.376 79.8613 179.73 79.348C180.085 78.8253 180.262 78.1207 180.262 77.234C180.262 76.3473 180.085 75.652 179.73 75.148C179.376 74.644 178.816 74.392 178.05 74.392C177.285 74.392 176.73 74.644 176.384 75.148C176.039 75.652 175.866 76.3473 175.866 77.234ZM188.067 73.496V74.532H184.721V81H183.489V73.496H188.067ZM195.933 77.234C195.933 78.4753 195.615 79.4367 194.981 80.118C194.355 80.7993 193.506 81.14 192.433 81.14C191.77 81.14 191.177 80.9907 190.655 80.692C190.141 80.384 189.735 79.9407 189.437 79.362C189.138 78.774 188.989 78.0647 188.989 77.234C188.989 75.9927 189.301 75.036 189.927 74.364C190.552 73.692 191.401 73.356 192.475 73.356C193.156 73.356 193.753 73.51 194.267 73.818C194.789 74.1167 195.195 74.5553 195.485 75.134C195.783 75.7033 195.933 76.4033 195.933 77.234ZM190.263 77.234C190.263 78.1207 190.435 78.8253 190.781 79.348C191.135 79.8613 191.695 80.118 192.461 80.118C193.217 80.118 193.772 79.8613 194.127 79.348C194.481 78.8253 194.659 78.1207 194.659 77.234C194.659 76.3473 194.481 75.652 194.127 75.148C193.772 74.644 193.212 74.392 192.447 74.392C191.681 74.392 191.126 74.644 190.781 75.148C190.435 75.652 190.263 76.3473 190.263 77.234ZM17.76 90.356C18.684 90.356 19.426 90.678 19.986 91.322C20.5553 91.966 20.84 92.9367 20.84 94.234C20.84 95.5127 20.5553 96.4833 19.986 97.146C19.426 97.8087 18.6793 98.14 17.746 98.14C17.1673 98.14 16.6867 98.0327 16.304 97.818C15.9307 97.594 15.6367 97.3373 15.422 97.048H15.338C15.3567 97.2067 15.3753 97.4073 15.394 97.65C15.4127 97.8927 15.422 98.1027 15.422 98.28V101.36H14.19V90.496H15.198L15.366 91.518H15.422C15.646 91.1913 15.94 90.916 16.304 90.692C16.668 90.468 17.1533 90.356 17.76 90.356ZM17.536 91.392C16.7707 91.392 16.2293 91.6067 15.912 92.036C15.604 92.4653 15.4407 93.1187 15.422 93.996V94.234C15.422 95.158 15.5713 95.872 15.87 96.376C16.178 96.8707 16.7427 97.118 17.564 97.118C18.0213 97.118 18.3947 96.992 18.684 96.74C18.9827 96.488 19.202 96.1473 19.342 95.718C19.4913 95.2793 19.566 94.78 19.566 94.22C19.566 93.3613 19.398 92.6753 19.062 92.162C18.7353 91.6487 18.2267 91.392 17.536 91.392ZM25.6453 90.37C26.5599 90.37 27.2366 90.5707 27.6753 90.972C28.1139 91.3733 28.3333 92.0127 28.3333 92.89V98H27.4373L27.1993 96.936H27.1433C26.8166 97.3467 26.4713 97.65 26.1073 97.846C25.7526 98.042 25.2579 98.14 24.6233 98.14C23.9419 98.14 23.3773 97.9627 22.9293 97.608C22.4813 97.244 22.2573 96.6793 22.2573 95.914C22.2573 95.1673 22.5513 94.5933 23.1393 94.192C23.7273 93.7813 24.6326 93.5573 25.8553 93.52L27.1293 93.478V93.03C27.1293 92.4047 26.9939 91.9707 26.7233 91.728C26.4526 91.4853 26.0699 91.364 25.5753 91.364C25.1833 91.364 24.8099 91.4247 24.4553 91.546C24.1006 91.658 23.7693 91.7887 23.4613 91.938L23.0833 91.014C23.4099 90.8367 23.7973 90.6873 24.2453 90.566C24.6933 90.4353 25.1599 90.37 25.6453 90.37ZM26.0093 94.374C25.0759 94.4113 24.4273 94.5607 24.0633 94.822C23.7086 95.0833 23.5313 95.452 23.5313 95.928C23.5313 96.348 23.6573 96.656 23.9093 96.852C24.1706 97.048 24.5019 97.146 24.9033 97.146C25.5379 97.146 26.0653 96.9733 26.4853 96.628C26.9053 96.2733 27.1153 95.732 27.1153 95.004V94.332L26.0093 94.374ZM32.6249 90.356C33.4836 90.356 34.1649 90.5287 34.6689 90.874C35.1823 91.21 35.4389 91.6953 35.4389 92.33C35.4389 92.7873 35.3129 93.1513 35.0609 93.422C34.8089 93.6833 34.4636 93.8747 34.0249 93.996V94.052C34.3236 94.136 34.5989 94.2527 34.8509 94.402C35.1029 94.5513 35.3036 94.7473 35.4529 94.99C35.6116 95.2327 35.6909 95.5453 35.6909 95.928C35.6909 96.5533 35.4296 97.0807 34.9069 97.51C34.3936 97.93 33.5863 98.14 32.4849 98.14C31.9436 98.14 31.4536 98.0933 31.0149 98C30.5763 97.916 30.2123 97.7993 29.9229 97.65V96.544C30.2403 96.6933 30.6136 96.8287 31.0429 96.95C31.4816 97.0713 31.9576 97.132 32.4709 97.132C33.0309 97.132 33.5023 97.0387 33.8849 96.852C34.2769 96.656 34.4729 96.3247 34.4729 95.858C34.4729 95.018 33.7589 94.598 32.3309 94.598H31.3229V93.59H32.1349C32.7789 93.59 33.2923 93.506 33.6749 93.338C34.0669 93.1607 34.2629 92.862 34.2629 92.442C34.2629 92.0873 34.1136 91.8213 33.8149 91.644C33.5256 91.4667 33.1056 91.378 32.5549 91.378C32.1443 91.378 31.7803 91.42 31.4629 91.504C31.1549 91.5787 30.8143 91.6953 30.4409 91.854L30.0069 90.874C30.7909 90.5287 31.6636 90.356 32.6249 90.356ZM45.5642 90.496V98H44.4582V93.212C44.4582 93.016 44.4629 92.8107 44.4722 92.596C44.4909 92.3813 44.5096 92.1713 44.5282 91.966H44.4862L42.0362 98H41.0002L38.6202 91.966H38.5782C38.6062 92.386 38.6202 92.8153 38.6202 93.254V98H37.5142V90.496H39.1522L41.5182 96.53L43.9262 90.496H45.5642ZM50.8575 90.356C51.5015 90.356 52.0522 90.496 52.5095 90.776C52.9762 91.056 53.3309 91.4527 53.5735 91.966C53.8255 92.47 53.9515 93.0627 53.9515 93.744V94.486H48.8135C48.8322 95.3353 49.0469 95.984 49.4575 96.432C49.8775 96.8707 50.4609 97.09 51.2075 97.09C51.6835 97.09 52.1035 97.048 52.4675 96.964C52.8409 96.8707 53.2235 96.74 53.6155 96.572V97.65C53.2329 97.818 52.8549 97.9393 52.4815 98.014C52.1082 98.098 51.6649 98.14 51.1515 98.14C50.4422 98.14 49.8122 97.9953 49.2615 97.706C48.7202 97.4167 48.2955 96.9873 47.9875 96.418C47.6889 95.8393 47.5395 95.1347 47.5395 94.304C47.5395 93.4827 47.6749 92.778 47.9455 92.19C48.2255 91.602 48.6129 91.1493 49.1075 90.832C49.6115 90.5147 50.1949 90.356 50.8575 90.356ZM50.8435 91.364C50.2555 91.364 49.7889 91.5553 49.4435 91.938C49.1075 92.3113 48.9069 92.834 48.8415 93.506H52.6635C52.6542 92.8713 52.5049 92.358 52.2155 91.966C51.9262 91.5647 51.4689 91.364 50.8435 91.364ZM59.4319 90.356C60.3559 90.356 61.0979 90.678 61.6579 91.322C62.2272 91.966 62.5119 92.9367 62.5119 94.234C62.5119 95.5127 62.2272 96.4833 61.6579 97.146C61.0979 97.8087 60.3512 98.14 59.4179 98.14C58.8392 98.14 58.3585 98.0327 57.9759 97.818C57.6025 97.594 57.3085 97.3373 57.0939 97.048H57.0099C57.0285 97.2067 57.0472 97.4073 57.0659 97.65C57.0845 97.8927 57.0939 98.1027 57.0939 98.28V101.36H55.8619V90.496H56.8699L57.0379 91.518H57.0939C57.3179 91.1913 57.6119 90.916 57.9759 90.692C58.3399 90.468 58.8252 90.356 59.4319 90.356ZM59.2079 91.392C58.4425 91.392 57.9012 91.6067 57.5839 92.036C57.2759 92.4653 57.1125 93.1187 57.0939 93.996V94.234C57.0939 95.158 57.2432 95.872 57.5419 96.376C57.8499 96.8707 58.4145 97.118 59.2359 97.118C59.6932 97.118 60.0665 96.992 60.3559 96.74C60.6545 96.488 60.8739 96.1473 61.0139 95.718C61.1632 95.2793 61.2379 94.78 61.2379 94.22C61.2379 93.3613 61.0699 92.6753 60.7339 92.162C60.4072 91.6487 59.8985 91.392 59.2079 91.392ZM67.3172 90.37C68.2318 90.37 68.9085 90.5707 69.3472 90.972C69.7858 91.3733 70.0052 92.0127 70.0052 92.89V98H69.1092L68.8712 96.936H68.8152C68.4885 97.3467 68.1432 97.65 67.7792 97.846C67.4245 98.042 66.9298 98.14 66.2952 98.14C65.6138 98.14 65.0492 97.9627 64.6012 97.608C64.1532 97.244 63.9292 96.6793 63.9292 95.914C63.9292 95.1673 64.2232 94.5933 64.8112 94.192C65.3992 93.7813 66.3045 93.5573 67.5272 93.52L68.8012 93.478V93.03C68.8012 92.4047 68.6658 91.9707 68.3952 91.728C68.1245 91.4853 67.7418 91.364 67.2472 91.364C66.8552 91.364 66.4818 91.4247 66.1272 91.546C65.7725 91.658 65.4412 91.7887 65.1332 91.938L64.7552 91.014C65.0818 90.8367 65.4692 90.6873 65.9172 90.566C66.3652 90.4353 66.8318 90.37 67.3172 90.37ZM67.6812 94.374C66.7478 94.4113 66.0992 94.5607 65.7352 94.822C65.3805 95.0833 65.2032 95.452 65.2032 95.928C65.2032 96.348 65.3292 96.656 65.5812 96.852C65.8425 97.048 66.1738 97.146 66.5752 97.146C67.2098 97.146 67.7372 96.9733 68.1572 96.628C68.5772 96.2733 68.7872 95.732 68.7872 95.004V94.332L67.6812 94.374ZM73.8348 97.328C73.8348 97.524 73.7648 97.7013 73.6248 97.86C73.4848 98.0093 73.3028 98.084 73.0788 98.084C72.8548 98.084 72.6728 98.0093 72.5328 97.86C72.3928 97.7013 72.3228 97.524 72.3228 97.328C72.3228 97.132 72.3928 96.9593 72.5328 96.81C72.6728 96.6513 72.8548 96.572 73.0788 96.572C73.3028 96.572 73.4848 96.6513 73.6248 96.81C73.7648 96.9593 73.8348 97.132 73.8348 97.328Z" fill="white"/>
</svg>
