<svg width="381" height="131" viewBox="0 0 381 131" fill="none" xmlns="http://www.w3.org/2000/svg">
<rect width="380" height="131" fill="#FFA842"/>
<path d="M77.877 70.666L65.8994 35.8076L53.1699 70.666H77.877ZM60.3135 24.0986H72.3984L101.026 103H89.3174L81.3145 79.3672H50.1084L41.5684 103H30.6113L60.3135 24.0986ZM116.871 87.6924C116.871 90.4854 117.892 92.6875 119.933 94.2988C121.974 95.9102 124.391 96.7158 127.184 96.7158C130.585 96.7158 133.88 95.9281 137.066 94.3525C142.438 91.7386 145.123 87.4596 145.123 81.5156V73.7275C143.941 74.4795 142.42 75.1061 140.558 75.6074C138.696 76.1087 136.869 76.4668 135.079 76.6816L129.225 77.4336C125.715 77.8991 123.084 78.6331 121.329 79.6357C118.357 81.3187 116.871 84.0042 116.871 87.6924ZM140.289 68.1416C142.509 67.8551 143.995 66.9242 144.747 65.3486C145.177 64.4893 145.392 63.2539 145.392 61.6426C145.392 58.3483 144.21 55.9671 141.847 54.499C139.519 52.9951 136.171 52.2432 131.803 52.2432C126.754 52.2432 123.173 53.6038 121.061 56.3252C119.879 57.8291 119.109 60.0671 118.751 63.0391H109.728C109.907 55.9492 112.198 51.0257 116.603 48.2686C121.043 45.4756 126.181 44.0791 132.018 44.0791C138.785 44.0791 144.282 45.3682 148.507 47.9463C152.696 50.5244 154.791 54.5348 154.791 59.9775V93.1172C154.791 94.1198 154.988 94.9255 155.382 95.5342C155.812 96.1429 156.689 96.4473 158.014 96.4473C158.443 96.4473 158.927 96.4294 159.464 96.3936C160.001 96.3219 160.574 96.2324 161.183 96.125V103.269C159.679 103.698 158.533 103.967 157.745 104.074C156.957 104.182 155.883 104.235 154.522 104.235C151.192 104.235 148.775 103.054 147.271 100.69C146.484 99.4372 145.929 97.6647 145.606 95.373C143.637 97.9512 140.808 100.189 137.12 102.087C133.432 103.985 129.368 104.934 124.928 104.934C119.592 104.934 115.224 103.322 111.822 100.1C108.456 96.8411 106.773 92.777 106.773 87.9072C106.773 82.5719 108.438 78.4362 111.769 75.5C115.099 72.5638 119.467 70.7555 124.874 70.0752L140.289 68.1416Z" fill="black"/>
<path d="M207.83 78.1777H211.363V88.8477H224.793V78.1777H228.326V104H224.793V91.9238H211.363V104H207.83V78.1777ZM241.176 84.752C242.512 84.752 243.807 85.0684 245.061 85.7012C246.314 86.3223 247.27 87.1309 247.926 88.127C248.559 89.0762 248.98 90.1836 249.191 91.4492C249.379 92.3164 249.473 93.6992 249.473 95.5977H235.674C235.732 97.5078 236.184 99.043 237.027 100.203C237.871 101.352 239.178 101.926 240.947 101.926C242.6 101.926 243.918 101.381 244.902 100.291C245.465 99.6582 245.863 98.9258 246.098 98.0938H249.209C249.127 98.7852 248.852 99.5586 248.383 100.414C247.926 101.258 247.41 101.949 246.836 102.488C245.875 103.426 244.686 104.059 243.268 104.387C242.506 104.574 241.645 104.668 240.684 104.668C238.34 104.668 236.354 103.818 234.725 102.119C233.096 100.408 232.281 98.0176 232.281 94.9473C232.281 91.9238 233.102 89.4688 234.742 87.582C236.383 85.6953 238.527 84.752 241.176 84.752ZM246.221 93.084C246.092 91.7129 245.793 90.6172 245.324 89.7969C244.457 88.2734 243.01 87.5117 240.982 87.5117C239.529 87.5117 238.311 88.0391 237.326 89.0938C236.342 90.1367 235.82 91.4668 235.762 93.084H246.221ZM253.463 78.1777H256.627V104H253.463V78.1777ZM262.938 85.1738L267.965 100.502L273.221 85.1738H276.684L269.582 104H266.207L259.264 85.1738H262.938ZM287.23 84.752C288.566 84.752 289.861 85.0684 291.115 85.7012C292.369 86.3223 293.324 87.1309 293.98 88.127C294.613 89.0762 295.035 90.1836 295.246 91.4492C295.434 92.3164 295.527 93.6992 295.527 95.5977H281.729C281.787 97.5078 282.238 99.043 283.082 100.203C283.926 101.352 285.232 101.926 287.002 101.926C288.654 101.926 289.973 101.381 290.957 100.291C291.52 99.6582 291.918 98.9258 292.152 98.0938H295.264C295.182 98.7852 294.906 99.5586 294.438 100.414C293.98 101.258 293.465 101.949 292.891 102.488C291.93 103.426 290.74 104.059 289.322 104.387C288.561 104.574 287.699 104.668 286.738 104.668C284.395 104.668 282.408 103.818 280.779 102.119C279.15 100.408 278.336 98.0176 278.336 94.9473C278.336 91.9238 279.156 89.4688 280.797 87.582C282.438 85.6953 284.582 84.752 287.23 84.752ZM292.275 93.084C292.146 91.7129 291.848 90.6172 291.379 89.7969C290.512 88.2734 289.064 87.5117 287.037 87.5117C285.584 87.5117 284.365 88.0391 283.381 89.0938C282.396 90.1367 281.875 91.4668 281.816 93.084H292.275ZM300.062 79.918H303.262V85.1738H306.268V87.7578H303.262V100.045C303.262 100.701 303.484 101.141 303.93 101.363C304.176 101.492 304.586 101.557 305.16 101.557C305.312 101.557 305.477 101.557 305.652 101.557C305.828 101.545 306.033 101.527 306.268 101.504V104C305.904 104.105 305.523 104.182 305.125 104.229C304.738 104.275 304.316 104.299 303.859 104.299C302.383 104.299 301.381 103.924 300.854 103.174C300.326 102.412 300.062 101.428 300.062 100.221V87.7578H297.514V85.1738H300.062V79.918ZM309.449 85.2617H312.666V104H309.449V85.2617ZM309.449 78.1777H312.666V81.7637H309.449V78.1777ZM324.725 84.6289C326.846 84.6289 328.568 85.1445 329.893 86.1758C331.229 87.207 332.031 88.9824 332.301 91.502H329.225C329.037 90.3418 328.609 89.3809 327.941 88.6191C327.273 87.8457 326.201 87.459 324.725 87.459C322.709 87.459 321.268 88.4434 320.4 90.4121C319.838 91.6895 319.557 93.2656 319.557 95.1406C319.557 97.0273 319.955 98.6152 320.752 99.9043C321.549 101.193 322.803 101.838 324.514 101.838C325.826 101.838 326.863 101.439 327.625 100.643C328.398 99.834 328.932 98.7324 329.225 97.3379H332.301C331.949 99.834 331.07 101.662 329.664 102.822C328.258 103.971 326.459 104.545 324.268 104.545C321.807 104.545 319.844 103.648 318.379 101.855C316.914 100.051 316.182 97.8008 316.182 95.1055C316.182 91.8008 316.984 89.2285 318.59 87.3887C320.195 85.5488 322.24 84.6289 324.725 84.6289ZM337.891 98.9902C337.891 99.9043 338.225 100.625 338.893 101.152C339.561 101.68 340.352 101.943 341.266 101.943C342.379 101.943 343.457 101.686 344.5 101.17C346.258 100.314 347.137 98.9141 347.137 96.9688V94.4199C346.75 94.666 346.252 94.8711 345.643 95.0352C345.033 95.1992 344.436 95.3164 343.85 95.3867L341.934 95.6328C340.785 95.7852 339.924 96.0254 339.35 96.3535C338.377 96.9043 337.891 97.7832 337.891 98.9902ZM345.555 92.5918C346.281 92.498 346.768 92.1934 347.014 91.6777C347.154 91.3965 347.225 90.9922 347.225 90.4648C347.225 89.3867 346.838 88.6074 346.064 88.127C345.303 87.6348 344.207 87.3887 342.777 87.3887C341.125 87.3887 339.953 87.834 339.262 88.7246C338.875 89.2168 338.623 89.9492 338.506 90.9219H335.553C335.611 88.6016 336.361 86.9902 337.803 86.0879C339.256 85.1738 340.938 84.7168 342.848 84.7168C345.062 84.7168 346.861 85.1387 348.244 85.9824C349.615 86.8262 350.301 88.1387 350.301 89.9199V100.766C350.301 101.094 350.365 101.357 350.494 101.557C350.635 101.756 350.922 101.855 351.355 101.855C351.496 101.855 351.654 101.85 351.83 101.838C352.006 101.814 352.193 101.785 352.393 101.75V104.088C351.9 104.229 351.525 104.316 351.268 104.352C351.01 104.387 350.658 104.404 350.213 104.404C349.123 104.404 348.332 104.018 347.84 103.244C347.582 102.834 347.4 102.254 347.295 101.504C346.65 102.348 345.725 103.08 344.518 103.701C343.311 104.322 341.98 104.633 340.527 104.633C338.781 104.633 337.352 104.105 336.238 103.051C335.137 101.984 334.586 100.654 334.586 99.0605C334.586 97.3145 335.131 95.9609 336.221 95C337.311 94.0391 338.74 93.4473 340.51 93.2246L345.555 92.5918Z" fill="black"/>
</svg>
