<svg width="35" height="29" viewBox="0 0 35 29" fill="none" xmlns="http://www.w3.org/2000/svg">
<path d="M13.2049 27.2193C13.2838 25.9715 13.358 24.7641 13.4369 23.5566C13.5225 22.2573 13.6223 20.9589 13.6927 19.6587C13.6947 19.4896 13.7339 19.323 13.8074 19.1702C13.8809 19.0175 13.9871 18.8822 14.1187 18.7737C18.8734 14.5633 23.6245 10.3469 28.3722 6.12459C28.4589 6.06354 28.5372 5.99169 28.6052 5.91085C28.7127 5.74585 28.7954 5.56399 28.8905 5.38962C28.668 5.34556 28.4293 5.23025 28.2248 5.27525C27.9336 5.35606 27.6581 5.48439 27.4099 5.65492C21.4945 9.33351 15.5822 13.019 9.67312 16.7113C9.54159 16.806 9.38817 16.8668 9.22676 16.8883C9.06536 16.9097 8.90108 16.8911 8.74882 16.8341C6.26974 16.0401 3.78115 15.2751 1.29923 14.4905C0.994602 14.4015 0.704006 14.2712 0.435781 14.1033C-0.072967 13.7677 -0.159501 13.2474 0.299798 12.8565C0.745542 12.478 1.25073 12.1734 1.79561 11.9546C4.1872 11.0097 6.59686 10.1088 9.00081 9.19477C16.8618 6.20365 24.7244 3.21346 32.5886 0.224219C32.7161 0.175471 32.8435 0.130474 32.9738 0.0882879C34.0055 -0.227636 34.9555 0.32734 34.9964 1.38479C35.0249 2.13476 34.8794 2.89973 34.7216 3.63938C33.0384 11.5084 31.3439 19.3756 29.6379 27.2409C29.2442 29.0623 27.989 29.5105 26.4542 28.3921L18.7013 22.7439C18.5986 22.8301 18.4939 22.9089 18.4008 22.9989C17.1582 24.1863 15.9163 25.3753 14.675 26.5659C14.2842 26.9371 13.8563 27.2268 13.2049 27.2193Z" fill="#FFA842"/>
</svg>
