<svg width="169" height="169" viewBox="0 0 169 169" fill="none" xmlns="http://www.w3.org/2000/svg">
<mask id="mask0" mask-type="alpha" maskUnits="userSpaceOnUse" x="0" y="0" width="169" height="169">
<circle cx="84.5" cy="84.5" r="84.5" fill="#2B66FF"/>
</mask>
<g mask="url(#mask0)">
<circle cx="84.5" cy="84.5" r="84.5" fill="#2B66FF"/>
<path d="M120.551 256C117.501 253.854 115.036 251.665 112.179 250.277C105.617 247.015 98.7268 244.418 92.2715 240.977C89.3075 239.403 86.7568 236.735 84.5765 234.102C83.0019 232.199 82.3108 231.298 80.4298 233.659C76.6678 238.366 71.0319 238.108 65.8235 238.666C59.8884 239.267 53.8963 239.382 47.9682 240.018C46.0944 240.226 44.3416 241.556 41.912 242.651C41.5842 241.048 41 239.532 41 238.022C41 229.674 41.1924 221.332 41.228 212.984C41.228 209.407 43.5151 209.056 46.2155 209.049C53.0626 209.049 59.924 209.135 66.764 208.82C70.7825 208.641 72.5851 206.331 72.6635 202.253C73.1385 177.129 73.5779 152.004 73.9816 126.88C74.0743 121.55 73.3618 120.907 68.0109 120.563C67.1986 120.513 66.4078 120.127 65.5884 119.991C59.1046 118.875 52.5924 117.845 46.1371 116.593C45.0684 116.378 43.4225 114.983 43.4082 114.103C43.2087 104.539 43.28 94.9667 43.28 84.9799C52.4713 86.6897 60.6223 88.2778 68.8018 89.6943C74.4305 90.6672 74.9506 89.9733 74.6585 84.3647C74.4091 79.5788 72.065 76.6171 67.676 75.1291C61.1566 72.9328 54.6444 70.7151 48.0965 68.6119C45.2465 67.7105 43.7716 66.2368 43.8215 62.9747C44.0352 54.5259 43.9355 46.0629 44.0566 37.6071C44.0566 36.2622 44.5696 34.9244 44.9615 33C48.2034 35.0675 50.7826 37.1778 53.711 38.4942C61.805 42.114 70.013 45.5121 78.2638 48.7743C81.7693 50.1621 83.7928 52.7089 85.2676 55.9281C86.4005 58.4033 87.341 58.2889 89.4215 56.5219C91.5696 54.6015 94.1725 53.2665 96.9811 52.6445C103.394 51.5499 109.942 51.2137 116.418 50.4983C117.921 50.3007 119.373 49.815 120.693 49.0676C123.586 47.4579 124.968 47.9444 124.968 51.2853C125.054 57.831 124.968 64.384 124.697 70.9226C124.32 79.7576 124.213 79.822 115.285 80.5374C111.522 80.8841 107.74 80.9844 103.964 80.8378C100.594 80.659 98.3848 82.4331 97.7934 85.1302C97.1735 87.9416 97.7293 91.0822 98.1853 94.0224C98.285 94.6448 100.116 95.26 101.221 95.4532C106.828 96.3045 112.464 96.9412 118.071 97.7782C123.272 98.5579 124.484 100.432 124.27 105.79C123.978 112.458 123.878 119.132 123.85 125.821C123.85 129.019 122.581 130.114 119.453 129.398C114.252 128.246 108.98 127.424 103.778 126.158C97.0239 124.512 95.9409 125.299 95.9409 132.117C95.9409 140.1 95.8768 148.084 95.7556 156.061C95.5276 171.42 95.1999 186.772 94.979 202.124C94.8579 210.079 97.0025 212.984 104.377 215.717C108.802 217.369 113.148 219.258 117.508 221.089C118.867 221.576 120.03 222.494 120.825 223.703C121.619 224.912 122 226.347 121.912 227.792C121.826 236.012 121.769 244.246 121.577 252.452C121.662 253.575 120.971 254.719 120.551 256Z" fill="white"/>
<circle cx="57" cy="72" r="6" fill="white"/>
<circle cx="110" cy="81" r="6" fill="white"/>
</g>
</svg>
