<svg width="169" height="169" viewBox="0 0 169 169" fill="none" xmlns="http://www.w3.org/2000/svg">
<circle cx="84.5" cy="84.5" r="83.5" fill="#090909" stroke="white" stroke-width="2"/>
<path d="M40.4353 107.123C38.9861 105.878 37.7025 104.83 36.4696 103.697C33.5578 101.043 32.0782 97.6111 31.4026 93.8239C30.4501 88.4138 31.0817 83.1626 34.4428 78.6992C35.9122 76.7515 38.0741 75.2265 40.1616 73.8909C41.4149 73.0861 41.7763 72.4403 41.3878 71.0945C40.3912 67.8566 40.1862 64.4263 40.7899 61.0925C42.1816 53.8226 46.1946 49.0211 53.6768 46.83C59.1321 45.2272 64.3477 46.0793 69.3132 48.7269C70.7151 49.4742 71.1981 49.0651 71.34 47.3169C71.5596 44.2466 71.4954 41.0783 72.2791 38.1467C74.3531 30.3696 78.9032 26.3728 86.838 26.0178C88.8648 25.9265 89.1417 26.1226 89.0505 28.1447C88.858 32.4694 88.5371 36.7908 88.2837 41.1121C88.1925 42.6574 87.4089 43.2221 85.8753 43.2221C83.808 43.2221 81.7035 43.2221 79.6801 43.6042C76.694 44.1452 74.7247 45.9711 73.8194 48.9805C73.3161 50.6408 73.7687 51.8682 74.799 53.1396C80.2341 59.8414 80.9469 67.2973 77.8966 75.1521C75.5726 81.1337 70.8029 84.4272 64.6787 85.4145C56.8858 86.669 50.0962 84.4678 44.884 78.2528C44.4597 77.7223 44.0812 77.1567 43.7524 76.5622C42.6039 74.6179 41.2764 74.5063 39.7968 76.2511C36.3209 80.3594 37.9254 86.057 42.989 87.9336C47.4985 89.6243 52.1972 89.2625 56.8385 89.4519C66.111 89.8272 75.3868 90.0639 84.6626 90.375C91.459 90.6049 98.2622 90.7706 105.052 91.129C110.99 91.4401 116.834 92.4815 122.164 95.234C127.698 98.0946 130.876 102.883 132.119 108.939C133.072 113.581 133.383 118.254 132.389 122.951C131.376 127.756 128.964 131.546 124.046 132.804C120.725 133.667 117.302 134.067 113.872 133.991C106.102 133.764 98.3703 133.139 90.6247 132.601C78.7613 131.776 66.925 131.763 55.0719 132.919C49.986 133.382 44.8745 133.495 39.7732 133.257C35.2096 133.078 32.3991 130.17 31.6661 125.781C31.2078 123.01 31.2158 120.181 31.6898 117.412C32.4667 112.827 35.5035 109.682 39.6144 107.576C39.807 107.478 39.9961 107.366 40.4353 107.123ZM130.596 118.599C130.596 115.847 128.991 113.568 125.769 112.915C121.475 112.049 117.111 111.309 112.76 111.136C94.7187 110.46 76.667 110.068 58.6221 109.507C54.3017 109.371 49.8394 109.622 45.7183 108.57C41.8743 107.586 39.6381 109.108 37.2465 111.333C35.5372 112.915 34.9799 114.876 35.3143 117.135C35.6994 119.715 36.5202 120.432 39.0942 120.34C39.8237 120.303 40.5461 120.178 41.246 119.969C43.9483 119.201 46.6507 118.457 49.326 117.578C59.7435 114.149 70.3942 112.472 81.3759 113.131C91.7157 113.75 101.728 116.019 111.619 118.978C116.246 120.364 120.888 121.737 125.596 122.789C128.836 123.522 130.565 121.845 130.596 118.599ZM55.4975 63.9869L55.4637 63.4256C51.7919 63.7976 48.1167 64.1357 44.4584 64.5956C44.0057 64.6531 43.6308 65.3395 43.2187 65.7351C43.6342 66.0529 44.0091 66.5635 44.4685 66.6548C46.9412 67.1417 49.4206 67.7369 51.9202 67.8992C57.0142 68.2238 62.1182 68.4007 67.2324 68.43C70.0226 68.43 72.8195 68.0412 75.6063 67.7538C76.4272 67.6726 77.2379 67.3074 76.8494 66.2186C76.4103 64.9811 72.4142 64.2946 71.5461 65.2651C69.2423 67.8315 67.6344 67.7368 65.4658 65.0216C65.0378 64.4824 64.4205 64.1268 63.7396 64.0275C61.0103 63.9294 58.2505 63.9869 55.4975 63.9869Z" fill="#FFA842"/>
<path d="M83 67.0757C83.1585 60.747 84.7399 55.9312 88.577 52.365C92.7615 48.4847 97.9609 46.8198 103.781 47.4243C106.733 47.7238 109.597 48.6028 112.21 50.0112C113.337 50.6191 113.943 50.3489 113.896 49.0217C113.709 44.6884 114.517 40.3699 116.257 36.3981C118.775 30.6131 123.159 26.5302 129.956 27.0435C131.882 27.1887 132.124 27.496 131.956 29.4581C131.592 33.7538 131.214 38.0461 130.944 42.3452C130.853 43.8142 130.304 44.2904 128.84 44.1755C127.06 43.9987 125.265 44.0044 123.486 44.1924C121.689 44.4089 120.012 45.2078 118.71 46.4674C117.409 47.727 116.554 49.3783 116.277 51.1695C116.139 52.1455 116.776 53.4558 117.45 54.2933C121.604 59.4434 122.906 65.3398 121.766 71.682C119.598 83.7383 108.232 89.0403 97.8867 86.288C90.8766 84.4272 86.1561 80.1146 84.0621 73.1477C83.3709 70.8648 83.2259 68.4197 83 67.0757ZM104.168 69.8077V69.5578C106.866 69.5578 109.563 69.6558 112.241 69.5241C114.252 69.3987 116.251 69.1256 118.222 68.7068C118.634 68.6224 119.281 67.6633 119.166 67.356C118.661 66.0051 114.739 65.6674 113.798 66.8359C112.065 68.9803 109.52 68.95 108.137 66.5927C107.483 65.4715 106.68 65.1473 105.568 65.1271C101.586 65.0528 97.6035 64.9042 93.6213 64.9616C91.4923 65.0282 89.3718 65.2608 87.2789 65.6573C86.7158 65.7518 86.2673 66.4982 85.7683 66.9473C86.2134 67.3728 86.6045 67.9064 87.117 68.1969C87.6679 68.4763 88.2707 68.6385 88.8872 68.673C93.999 69.0648 99.0837 69.4329 104.168 69.8077Z" fill="#FFA842"/>
</svg>
