<svg width="599" height="436" viewBox="0 0 599 436" fill="none" xmlns="http://www.w3.org/2000/svg">
<ellipse cx="299.5" cy="216.5" rx="299.5" ry="145.5" fill="#FFA842"/>
<path d="M167.88 133.434C177.702 124.079 189.234 118.98 201.842 115.777C217.71 111.733 233.86 112.652 249.947 112.574C268.077 112.489 286.214 112.624 304.344 112.779C319.229 112.913 334.121 113.239 348.984 113.394C359.704 113.522 370.388 113.585 381.143 113.592C391.898 113.599 402.604 113.727 413.317 113.649C416.145 113.649 416.371 115.572 416.47 117.382C416.725 122.261 416.718 127.148 416.824 132.034C416.958 138.405 416.965 144.776 417.276 151.168C417.439 154.781 416.725 155.439 413.119 155.495C408.636 155.483 404.16 155.831 399.733 156.535C391 158.069 389.02 163.585 389.02 171.858C389.02 193.071 390.116 214.15 390.618 235.314C390.824 244.329 390.689 253.317 393.256 262.106C393.801 264.301 394.994 266.281 396.681 267.788C398.367 269.295 400.468 270.26 402.71 270.556C407.751 271.231 412.834 271.546 417.92 271.496C421.25 271.56 422.353 272.72 422.389 276.234C422.424 287.116 422.82 297.992 423.23 308.867C423.435 314.616 422.912 315.139 417.163 314.934C411.711 314.729 406.26 315.019 400.815 314.849C390.265 314.524 379.722 313.88 369.165 313.647C357.13 313.336 345.081 313.421 333.018 313.265C322.262 313.102 311.514 312.664 300.766 312.664C296.969 312.657 295.951 311.398 295.894 307.637C295.817 296.401 295.237 285.143 294.855 273.9C294.756 270.888 296.191 269.58 299.204 269.665C303.927 269.764 308.644 269.573 313.346 269.665C320.933 269.771 324.865 265.217 325.628 258.556C326.604 250.269 326.427 241.833 326.512 233.461C326.519 232.719 324.744 231.269 323.853 231.311C315.764 231.707 307.357 231.22 299.656 233.263C289.078 236.063 280.989 242.88 277.962 254.193C275.593 263.138 274.2 272.437 270.927 281.028C263.205 301.28 247.953 312.303 226.407 314.545C214.393 315.797 202.422 316.214 190.493 313.364C173.742 309.341 160.773 300.53 154.855 283.948C152.323 276.877 151.546 269.085 150.711 261.547C149.969 254.851 150.45 248.02 149.976 241.282C149.778 238.368 150.874 237.739 153.306 237.767C165.827 237.899 178.345 238.02 190.861 238.128C194.248 238.163 197.621 238.298 200.979 238.347C203.504 238.368 204.536 239.5 204.508 242.074C204.428 248.838 204.461 255.603 204.607 262.368C204.636 264.495 204.972 266.608 205.604 268.64C207.195 273.497 212.194 274.777 215.539 270.938C217.546 268.436 219.101 265.602 220.135 262.566C222.666 255.791 224.272 248.628 227.256 242.081C232.347 230.908 242.345 225.407 253.419 221.575C254.005 221.37 254.896 221.511 255.2 221.094C256.047 220.037 256.829 218.929 257.541 217.777C256.282 217.297 254.939 216.25 253.793 216.434C248.497 217.318 243.293 218.845 237.94 219.559C219.35 222.183 200.803 223.081 182.87 215.897C164.938 208.712 155.039 195.249 153.207 176.009C151.885 162.142 154.565 149.308 163.475 138.193C164.175 137.309 164.875 136.411 165.624 135.576C166.374 134.742 167.357 133.957 167.88 133.434ZM224.936 157.963C219.265 163.45 217.349 173.753 220.156 181.383C223.508 190.49 231.76 194.16 240.266 194.634C252.231 195.284 264.308 194.634 276.258 194.761C291.296 194.874 306.305 195.11 321.287 195.468C324.766 195.553 325.812 193.983 325.756 190.999C325.657 186.375 325.459 181.736 325.338 177.105C325.173 169.727 325.013 162.345 324.858 154.958C324.794 152.391 323.726 151.253 320.884 151.309C314.781 151.415 308.672 151.062 302.562 151.019C284.644 150.906 266.719 150.602 248.815 150.857C240.344 150.913 231.626 151.316 224.95 157.949L224.936 157.963Z" fill="black"/>
<path d="M224.949 157.95C231.603 151.296 240.343 150.914 248.821 150.794C266.725 150.54 284.65 150.844 302.569 150.957C308.678 150.999 314.787 151.353 320.89 151.247C323.718 151.247 324.8 152.329 324.864 154.896C325.029 162.273 325.189 169.655 325.344 177.042C325.465 181.674 325.663 186.312 325.762 190.937C325.825 193.928 324.779 195.498 321.293 195.406C306.283 195.038 291.267 194.809 276.243 194.72C264.25 194.621 252.215 195.243 240.251 194.592C231.745 194.119 223.493 190.449 220.141 181.341C217.362 173.74 219.278 163.437 224.949 157.95Z" fill="#FFA842"/>
</svg>
