<svg width="171" height="179" viewBox="0 0 171 179" fill="none" xmlns="http://www.w3.org/2000/svg">
<g clip-path="url(#clip0)">
<path d="M170.339 178.645L0.0305657 178.674L0 0.0292969L170.308 0.000157611L170.339 178.645ZM120.689 155.936L120.69 156.758C127.627 156.756 134.564 156.714 141.531 156.754C145.277 156.783 145.575 156.366 145.104 152.668C144.072 144.534 142.945 136.4 142.36 128.254C141.913 122.061 142.197 115.803 142.238 109.574C142.284 102.372 142.382 95.173 142.532 87.9756C142.609 84.4444 143.126 80.9012 142.959 77.3878C142.768 73.547 142.046 69.736 141.48 65.9191C139.811 54.7005 134.111 46.067 124.701 39.7862C115.72 33.7972 105.525 31.8994 95.092 31.2759C85.1813 30.6596 75.235 31.5895 65.6102 34.0321C58.6401 35.7346 52.1708 39.0594 46.7291 43.7357C39.7451 49.793 35.1434 57.7851 32.0126 66.3666C29.4294 73.4711 28.0016 81.0102 26.1151 88.3588C25.6456 90.3816 25.357 92.4422 25.2527 94.5162C25.2768 94.8664 25.3895 95.2047 25.5802 95.4995C25.7708 95.7942 26.0332 96.0357 26.3428 96.2012C26.837 96.3143 27.7718 95.7186 28.0873 95.1767C29.0815 93.4735 29.9208 91.663 30.7423 89.8645C32.2186 86.5041 34.3571 83.4757 37.0301 80.9604C39.7032 78.4451 42.8558 76.4944 46.2997 75.2249C57.6132 70.9355 69.0823 71.7732 80.415 75.3322C84.7273 76.6159 88.4637 79.35 90.9921 83.0717C93.875 87.4301 93.9711 92.6465 93.6266 97.7142C93.5732 98.4883 91.9596 99.7212 91.0128 99.775C80.4252 100.372 69.8257 100.708 59.2381 101.251C50.9014 101.675 42.6243 102.165 34.3412 102.857C29.9466 103.227 27.4044 105.896 26.768 110.308C25.4059 119.741 25.4611 129.144 29.4464 137.926C32.9194 145.578 38.4465 151.496 46.8908 154.001C54.8112 156.382 62.8383 156.762 71.0142 155.748C72.1956 155.629 73.3297 155.222 74.3162 154.561C75.3027 153.901 76.1114 153.007 76.6706 151.96C78.4565 148.982 80.1531 146.004 81.8855 142.991C84.9573 137.684 88.0052 132.366 91.1366 127.096C91.4759 126.536 92.3274 126.286 92.9586 125.904C93.2862 126.559 93.8639 127.208 93.8819 127.869C93.9718 131.121 93.6746 134.42 93.9431 137.629C94.3727 142.822 95.0763 147.991 95.7858 153.147C96.072 155.22 97.3941 156.029 99.5735 155.999C106.618 155.867 113.651 155.937 120.689 155.936Z" fill="#FFA842"/>
<path d="M120.69 155.936C113.651 155.937 106.612 155.867 99.5738 155.981C97.3944 156.011 96.0723 155.202 95.7861 153.129C95.0766 147.973 94.373 142.804 93.9434 137.611C93.6749 134.378 93.9721 131.103 93.8822 127.851C93.8821 127.19 93.2865 126.541 92.9588 125.887C92.3634 126.28 91.4762 126.53 91.1369 127.078C88.0055 132.348 84.9576 137.667 81.8858 142.973C80.1534 145.951 78.4449 148.976 76.6709 151.942C76.1117 152.989 75.3031 153.883 74.3165 154.543C73.33 155.204 72.1959 155.612 71.0145 155.73C62.8387 156.744 54.8115 156.328 46.8911 153.983C38.4468 151.466 32.9197 145.548 29.4467 137.908C25.4614 129.126 25.4062 119.723 26.7683 110.29C27.4047 105.878 29.9469 103.209 34.3415 102.839C42.6246 102.147 50.9315 101.646 59.2384 101.233C69.826 100.69 80.4255 100.348 91.0131 99.757C91.9599 99.7033 93.5735 98.4704 93.6269 97.6962C93.9714 92.6286 93.8753 87.4122 90.9924 83.0537C88.464 79.332 84.7276 76.598 80.4153 75.3143C69.1005 71.7433 57.6075 70.9176 46.3001 75.207C42.8545 76.4785 39.7008 78.4319 37.0277 80.9504C34.3546 83.4689 32.2169 86.5007 30.7426 89.8645C29.9211 91.6511 29.0818 93.4734 28.0876 95.1766C27.7721 95.7186 26.8373 96.3142 26.3431 96.2012C26.0335 96.0356 25.7711 95.7941 25.5805 95.4994C25.3898 95.2047 25.2771 94.8663 25.253 94.5161C25.3573 92.4421 25.6459 90.3815 26.1154 88.3587C27.9721 80.9922 29.4297 73.4711 32.0129 66.3665C35.1258 57.791 39.7513 49.7929 46.7294 43.7356C52.1613 39.0592 58.6201 35.7304 65.5807 34.0201C75.2055 31.5775 85.1518 30.6476 95.0626 31.2639C105.496 31.8874 115.691 33.7852 124.671 39.7742C134.081 46.055 139.781 54.6587 141.451 65.9071C142.017 69.7241 142.738 73.535 142.929 77.3759C143.103 80.8892 142.579 84.4324 142.502 87.9636C142.349 95.165 142.251 102.364 142.208 109.562C142.168 115.791 141.883 122.067 142.331 128.242C142.928 136.418 144.043 144.552 145.074 152.656C145.545 156.354 145.248 156.771 141.502 156.742C134.565 156.684 127.627 156.744 120.66 156.746L120.69 155.936ZM87.0478 103.539L87.0478 103.39C84.0704 103.73 81.1288 103.987 78.2051 104.47C77.3893 104.607 76.2104 105.333 76.0199 106.018C74.4786 111.628 75.5936 120.113 83.9841 120.832C91.5051 121.474 94.7026 120.027 94.1534 112.327C94.0758 111.249 94.0042 110.166 93.8492 109.094C93.5928 107.236 93.8901 104.526 92.8181 103.735C91.496 102.848 89.0189 103.557 87.0478 103.557L87.0478 103.539Z" fill="#090909"/>
<path d="M87.0478 103.557C89.0189 103.557 91.4959 102.847 92.8002 103.776C93.8722 104.544 93.5749 107.254 93.8313 109.135C93.9863 110.207 94.058 111.291 94.1356 112.369C94.7026 120.044 91.4872 121.492 83.984 120.85C75.5936 120.131 74.4547 111.646 76.0199 106.036C76.2103 105.351 77.3893 104.624 78.2051 104.487C81.1288 103.993 84.0942 103.748 87.0478 103.408L87.0478 103.557Z" fill="#FFA842"/>
</g>
<defs>
<clipPath id="clip0">
<rect width="170.308" height="178.645" fill="white" transform="translate(0 0.0292969) rotate(-0.00980316)"/>
</clipPath>
</defs>
</svg>
