<svg width="167" height="143" viewBox="0 0 167 143" fill="none" xmlns="http://www.w3.org/2000/svg">
<rect x="0.109375" y="0.300293" width="166" height="142" rx="25" fill="#2B66FF"/>
<path d="M152.463 20.8468C151.139 22.735 149.789 24.2615 148.933 26.0306C146.92 30.0939 145.318 34.36 143.195 38.3571C142.224 40.1924 140.578 41.7718 138.954 43.1218C137.78 44.0968 137.224 44.5247 138.68 45.6894C141.584 48.0189 141.425 51.5086 141.77 54.7336C142.14 58.4086 142.211 62.1188 142.604 65.7894C142.732 66.9497 143.553 68.035 144.228 69.5394C143.239 69.7424 142.304 70.1041 141.372 70.1041C136.222 70.1041 131.076 69.985 125.926 69.963C123.719 69.963 123.503 68.5468 123.498 66.8747C123.498 62.635 123.551 58.3865 123.357 54.1512C123.247 51.663 121.821 50.5468 119.305 50.4983C103.806 50.2041 88.3057 49.9321 72.8058 49.6821C69.5178 49.6247 69.1206 50.0659 68.9088 53.3791C68.8779 53.8821 68.6396 54.3718 68.5557 54.8791C67.8672 58.8938 67.2317 62.9262 66.4593 66.9233C66.3269 67.585 65.4663 68.6041 64.9235 68.613C59.0227 68.7365 53.1176 68.6924 46.9565 68.6924C48.0113 63.0012 48.9911 57.9541 49.8649 52.8894C50.4651 49.4041 50.037 49.0821 46.5769 49.263C43.6244 49.4174 41.7972 50.8689 40.8792 53.5865C39.5243 57.6233 38.1562 61.6556 36.8586 65.71C36.3025 67.4747 35.3934 68.388 33.3808 68.3571C28.1686 68.2247 22.9476 68.2865 17.7309 68.2115C16.9012 68.2115 16.0759 67.8938 14.8887 67.6512C16.1641 65.6438 17.4661 64.0468 18.2782 62.2336C20.5114 57.2218 22.6077 52.1394 24.6202 47.0306C25.4764 44.86 27.0476 43.6071 29.0336 42.6939C30.5607 41.9924 30.4901 41.41 29.4 40.1218C28.2152 38.7917 27.3916 37.18 27.0079 35.4409C26.3326 31.4703 26.1252 27.4159 25.6839 23.4056C25.562 22.4749 25.2623 21.5763 24.8012 20.7586C23.8082 18.9674 24.1083 18.1115 26.1693 18.1115C30.2076 18.0586 34.2503 18.1115 38.2841 18.2792C43.7347 18.513 43.7744 18.5792 44.2158 24.1071C44.4296 26.4374 44.4916 28.7791 44.4011 31.1174C44.2908 33.2042 45.3853 34.5718 47.0492 34.938C48.7836 35.3218 50.7211 34.9777 52.535 34.6953C52.919 34.6336 53.2985 33.4997 53.4177 32.8159C53.9429 29.3439 54.3357 25.8542 54.8521 22.3821C55.3331 19.1615 56.4894 18.4115 59.7951 18.5439C63.9084 18.7247 68.0261 18.7865 72.1526 18.8042C74.1254 18.8042 74.8007 19.5895 74.3593 21.5262C73.6488 24.7468 73.1412 28.0115 72.3601 31.2321C71.345 35.4144 71.8304 36.085 76.0364 36.085C80.9618 36.085 85.8871 36.1247 90.8081 36.1997C100.284 36.3409 109.755 36.5439 119.226 36.6806C124.134 36.7556 125.926 35.4277 127.611 30.8615C128.631 28.1218 129.796 25.4306 130.926 22.7306C131.227 21.8896 131.792 21.1689 132.538 20.6772C133.284 20.1854 134.17 19.9492 135.061 20.0042C140.132 20.0571 145.212 20.0924 150.274 20.2115C150.967 20.1586 151.673 20.5865 152.463 20.8468Z" fill="white"/>
<path d="M16.0488 122.406C21.3449 117.442 22.2806 110.776 25.1713 105.085C26.1776 103.1 27.378 101.52 29.3597 100.475C29.9025 100.188 30.2997 99.6233 30.8999 99.0542C25.2464 95.0836 27.0161 88.9601 26.0187 83.6836C25.723 82.1174 26.0584 80.4321 25.7495 78.8703C25.4582 77.4056 24.6991 76.0292 23.9841 74.26C25.061 74.0262 26.0805 73.6292 27.1044 73.6203C32.0916 73.5806 37.0831 73.6865 42.0703 73.66C43.637 73.66 44.3917 74.2027 44.4226 75.813C44.4888 79.8542 44.6874 83.8909 44.7007 87.9321C44.7007 92.2512 45.4465 93.0321 49.882 93.1689C62.9413 93.5748 76.0094 93.6718 89.073 93.8968C91.2797 93.9365 93.4865 93.9806 95.6932 94.0821C97.4585 94.1659 98.4913 93.4204 98.7825 91.6954C99.5858 87.2218 100.393 82.7439 101.153 78.2615C101.669 75.213 101.987 74.7851 105.125 74.7895C109.75 74.7895 114.393 74.9439 119.005 75.0983C120.276 75.138 120.938 75.6233 120.576 77.238C119.446 82.2365 118.528 87.2836 117.513 92.3086C117.257 93.5836 117.69 94.1615 119.022 94.3953C122.906 95.0748 125.59 93.9056 126.993 90.3365C128.348 86.8821 129.442 83.3218 130.524 79.7703C131.676 76.0115 132.638 75.3056 136.482 75.438C140.957 75.5968 145.441 75.6365 149.921 75.7512C150.768 75.7733 151.615 75.9145 152.622 76.0159C152.516 76.6115 152.564 77.0351 152.379 77.2733C148.605 82.1615 146.509 87.8615 144.338 93.5483C143.137 96.6762 141.69 99.6056 138.384 101.101C137.06 101.701 136.95 102.579 138 103.687C139.602 105.332 140.5 107.536 140.502 109.832C140.497 112.758 140.644 115.683 140.944 118.594C141.219 120.24 141.772 121.828 142.581 123.288C143.256 124.612 142.952 125.401 141.615 125.392C136.107 125.344 130.581 125.176 125.095 124.991C123.162 124.925 123.047 123.434 122.986 121.973C122.827 118.312 122.822 114.628 122.394 110.997C122.275 109.995 120.973 108.504 120.046 108.35C118.281 108.094 115.884 108.05 114.75 109.056C113.616 110.062 113.718 112.435 113.373 114.226C112.822 117.098 112.464 120.01 111.758 122.838C111.577 123.557 110.39 124.51 109.653 124.519C104.798 124.589 99.9433 124.492 95.0885 124.325C92.6611 124.241 92.4405 123.822 92.8818 121.479C93.6203 117.676 94.3559 113.875 95.0885 110.075C95.4681 108.072 95.0091 107.573 92.9789 107.538C79.315 107.297 65.6511 107.044 51.9872 106.779C50.5219 106.753 49.0523 106.832 47.5738 106.823C44.1534 106.823 42.1232 108.729 40.9537 111.676C40.0004 114.041 39.1883 116.472 38.3939 118.894C37.2552 122.313 36.3196 123.134 32.7492 123.147C27.8282 123.147 22.9073 123.037 17.9907 122.939C17.5229 122.953 17.0595 122.701 16.0488 122.406Z" fill="white"/>
</svg>
