<svg width="221" height="233" viewBox="0 0 221 233" fill="none" xmlns="http://www.w3.org/2000/svg">
<path d="M156.576 203.37C147.442 203.37 138.308 203.277 129.175 203.425C126.347 203.464 124.631 202.407 124.26 199.704C123.341 192.979 122.429 186.237 121.872 179.465C121.525 175.247 121.911 170.976 121.795 166.735C121.795 165.873 121.022 165.026 120.597 164.172C119.825 164.685 118.673 165.011 118.233 165.725C114.168 172.599 110.212 179.534 106.225 186.455C103.976 190.338 101.758 194.283 99.4557 198.151C98.7297 199.517 97.6802 200.682 96.3999 201.544C95.1196 202.405 93.6478 202.937 92.1147 203.091C81.5052 204.411 71.0888 203.867 60.8115 200.807C49.8543 197.522 42.6834 189.802 38.1784 179.837C33.0088 168.381 32.9393 156.118 34.7088 143.815C35.5356 138.06 38.8352 134.581 44.5379 134.099C55.2866 133.198 66.0661 132.546 76.8456 132.01C90.5847 131.303 104.339 130.861 118.078 130.092C119.307 130.022 121.401 128.414 121.471 127.405C121.919 120.795 121.795 113.991 118.055 108.306C114.775 103.452 109.927 99.8849 104.332 98.2096C89.6497 93.5496 74.7361 92.47 60.062 98.062C55.5906 99.7196 51.4978 102.267 48.0285 105.551C44.5591 108.835 41.7845 112.789 39.8706 117.176C38.8043 119.506 37.7147 121.882 36.4243 124.104C36.0147 124.81 34.8015 125.587 34.1602 125.44C33.7586 125.224 33.4181 124.909 33.1708 124.524C32.9234 124.14 32.7773 123.698 32.7461 123.242C32.8819 120.537 33.2568 117.849 33.8665 115.211C36.2775 105.603 38.1706 95.7942 41.5243 86.5285C45.5656 75.3445 51.5697 64.9139 60.6261 57.0152C67.6759 50.917 76.0579 46.5769 85.0906 44.3477C97.5808 41.1641 110.488 39.9535 123.348 40.7595C136.887 41.575 150.116 44.0526 161.768 51.8659C173.977 60.0597 181.372 71.2826 183.536 85.9538C184.27 90.9322 185.205 95.9029 185.452 100.912C185.677 105.495 184.997 110.116 184.896 114.722C184.695 124.114 184.566 133.504 184.51 142.891C184.456 151.015 184.085 159.201 184.664 167.255C185.437 177.919 186.882 188.528 188.219 199.099C188.829 203.922 188.443 204.465 183.582 204.427C174.58 204.349 165.578 204.427 156.537 204.427L156.576 203.37ZM112.932 135.024V134.829C109.068 135.272 105.251 135.606 101.457 136.235C100.398 136.414 98.8684 137.361 98.6211 138.255C96.6197 145.571 98.0647 156.638 108.952 157.578C118.712 158.417 122.862 156.53 122.151 146.487C122.05 145.081 121.957 143.668 121.757 142.27C121.424 139.847 121.811 136.313 120.42 135.28C118.704 134.123 115.49 135.047 112.932 135.047V135.024Z" fill="#FFA842"/>
</svg>
