<svg width="102" height="79" viewBox="0 0 102 79" fill="none" xmlns="http://www.w3.org/2000/svg">
<path d="M0 79V0H102V79H0ZM54.3746 70.1931C56.4495 70.5091 59.0392 69.5927 61.4447 68.2149C64.3426 66.5528 67.3549 64.9886 69.9256 62.9061C72.3342 60.9596 74.1804 58.3431 76.3602 56.1026C79.9222 52.456 82.4389 48.0699 84.7013 43.608C87.7391 37.6324 89.9888 31.3282 90.3701 24.5279C90.5512 21.2731 90.7101 18.0152 89.5058 14.8836C88.365 11.9132 86.4712 11.0126 83.3731 11.9258C81.7589 12.3998 81.4824 13.1456 82.2895 14.6087C85.0032 19.5256 86.5507 24.7207 86.1026 30.4087C85.5879 37.0447 82.7026 42.8117 79.2772 48.3101C77.7456 50.7717 75.5849 52.8415 73.7864 55.1483C70.1131 59.8504 65.6454 63.5286 59.805 65.0865C53.6755 66.7234 49.6686 64.9538 47.0376 59.6387C46.8088 59.2202 46.7404 58.7334 46.8449 58.2685C46.9495 57.8037 47.2201 57.3923 47.6064 57.1107C52.9892 52.7214 57.2979 47.3526 61.432 41.8574C64.8218 37.4443 67.6411 32.6256 69.8239 27.5141C71.435 23.6431 72.6361 19.6805 71.8544 15.4082C71.5366 13.6196 69.7858 11.6162 68.2034 11.5087C64.9718 11.2749 61.8482 11.771 59.16 13.7397C57.1804 15.1838 55.312 16.7764 53.3196 18.2016C50.5551 20.1798 48.7439 23.0016 47.1297 25.7856C45.0484 29.388 43.431 33.2969 41.9789 37.209C41.0415 39.737 40.7237 42.502 40.1963 45.1722C39.923 46.5563 39.5798 47.9751 39.6465 49.3624C39.7927 52.4813 40.1963 55.5907 40.4441 58.7096C40.4727 59.1046 40.317 59.705 40.031 59.9041C36.0368 62.6912 31.9187 65.1782 26.8536 65.5226C22.4432 65.8386 21.2961 64.7926 19.577 61.4336C18.0295 58.4031 18.5379 55.1136 18.9415 51.9536C19.3196 49.1475 20.1712 46.3793 21.8458 43.9177C22.9198 42.3377 23.4123 40.3564 24.5213 38.808C27.235 35.076 30.0821 31.4199 32.9705 27.808C34.6355 25.7224 36.5421 23.8169 38.2865 21.804C40.5903 19.1622 42.8559 16.4889 45.1469 13.8376C45.8905 12.9781 45.6585 12.226 44.4351 11.9669C39.4908 10.9304 34.4671 10.7914 29.4593 11.1295C27.235 11.2812 25.0583 12.1091 22.834 12.4567C20.5589 12.8138 18.8144 14.0968 17.1589 15.465C14.5819 17.5854 13.6636 20.4104 13.9019 23.7221C14.048 25.656 14.9282 27.2771 16.7998 27.4478C18.4172 27.5963 20.1331 27.2771 21.7282 26.86C23.0374 26.5219 23.209 25.6434 22.5004 24.3067C21.6098 22.7196 21.0115 20.9871 20.7336 19.1907C20.435 16.7764 22.0333 14.6687 24.0351 14.2737C29.2082 13.253 34.2193 14.0336 39.1381 15.7115C40.0183 16.0275 40.2153 16.5015 39.4877 17.2062C37.5811 19.0422 35.7191 20.8971 33.8157 22.7236C32.3032 24.1803 30.6095 25.4791 29.2622 27.0717C26.2499 30.6046 23.3234 34.2133 20.543 37.92C18.8319 40.1775 17.3232 42.5799 16.034 45.0995C14.8964 47.3684 14.2006 49.8648 13.3712 52.2822C12.1883 55.5976 11.8948 59.1623 12.5196 62.6249C13.171 66.1009 16.7426 69.9371 20.4 70.0604C24.2544 70.1868 28.0262 70.5849 31.5215 68.4456C34.251 66.7803 37.1172 65.3267 39.8086 63.6045C41.6389 62.4353 41.5944 62.2773 42.6112 64.287C44.9022 68.8058 48.7535 70.3858 54.3746 70.1931Z" fill="#2B66FF"/>
<path d="M54.3736 70.1933C48.7525 70.386 44.9013 68.806 42.6166 64.2872C41.5998 62.2775 41.6443 62.4355 39.814 63.6047C37.1226 65.3269 34.2564 66.7805 31.5269 68.4458C28.0316 70.5851 24.2503 70.1869 20.4054 70.0605C16.748 69.9373 13.1764 66.1105 12.525 62.6251C11.9003 59.1625 12.1938 55.5978 13.3766 52.2824C14.206 49.865 14.9019 47.3686 16.0394 45.0997C17.3265 42.5803 18.8332 40.178 20.5421 37.9202C23.3224 34.2135 26.2617 30.6048 29.2518 27.0719C30.5991 25.4919 32.2927 24.1805 33.8052 22.7237C35.7118 20.8973 37.5834 19.0423 39.4772 17.2064C40.2049 16.5017 40.0079 16.0119 39.1277 15.7117C34.2088 14.0337 29.1978 13.2532 24.0247 14.2739C22.0228 14.6689 20.4245 16.7766 20.7232 19.1909C21.001 20.9872 21.5993 22.7198 22.4899 24.3069C23.1985 25.6436 23.0269 26.5189 21.7178 26.8602C20.129 27.2773 18.4067 27.5965 16.7893 27.4479C14.9178 27.2773 14.0376 25.6562 13.8914 23.7223C13.6436 20.4106 14.5714 17.5856 17.1579 15.4652C18.823 14.0969 20.5675 12.814 22.8426 12.4569C25.0669 12.1093 27.2404 11.2814 29.4678 11.1297C34.4757 10.7916 39.4994 10.9306 44.4437 11.9671C45.6671 12.2262 45.8991 12.9783 45.1555 13.8378C42.8645 16.4891 40.5989 19.1624 38.2951 21.8042C36.5411 23.8171 34.6346 25.7226 32.9695 27.8082C30.0811 31.4232 27.234 35.0762 24.5426 38.8334C23.4336 40.3818 22.9538 42.3631 21.8671 43.9431C20.1925 46.4048 19.3409 49.1729 18.9628 51.979C18.5434 55.1137 18.035 58.4159 19.5983 61.459C21.3174 64.8181 22.4581 65.8514 26.875 65.5481C31.94 65.2036 36.0581 62.7041 40.0523 59.9296C40.3383 59.7305 40.494 59.1301 40.4654 58.7351C40.2176 55.6162 39.8299 52.5067 39.6678 49.3878C39.6011 48.0006 39.9443 46.5817 40.2176 45.1977C40.745 42.5275 41.0628 39.7656 42.0002 37.2345C43.4523 33.3224 45.0697 29.4135 47.151 25.8111C48.7652 23.0176 50.5764 20.1957 53.3409 18.2271C55.3333 16.8019 57.2017 15.2093 59.1813 13.7651C61.8727 11.7965 64.9931 11.3003 68.2247 11.5342C69.8135 11.6479 71.5484 13.6451 71.8757 15.4336C72.6574 19.7059 71.4563 23.6686 69.8452 27.5396C67.6624 32.651 64.8431 37.4698 61.4533 41.8828C57.3224 47.3781 53.0105 52.7469 47.6277 57.1361C47.2414 57.4178 46.9708 57.8292 46.8663 58.294C46.7617 58.7589 46.8301 59.2456 47.0589 59.6641C49.6899 64.9793 53.6968 66.7489 59.8264 65.112C65.6667 63.5541 70.1344 59.8759 73.8077 55.1738C75.6062 52.867 77.7669 50.7972 79.2985 48.3355C82.7239 42.8371 85.6092 37.0828 86.1239 30.4341C86.5656 24.7461 85.0181 19.5574 82.3108 14.6341C81.5037 13.1711 81.7802 12.4221 83.3944 11.9513C86.4925 11.0381 88.3864 11.9513 89.5271 14.9091C90.7092 18.0122 90.5598 21.2796 90.3692 24.5344C89.9878 31.3347 87.7381 37.6389 84.7004 43.6145C82.4379 48.0701 79.934 52.4467 76.3593 56.1028C74.1794 58.3433 72.3333 60.9597 69.9247 62.9063C67.354 64.9887 64.3417 66.5529 61.4437 68.2151C59.0383 69.5929 56.4486 70.5029 54.3736 70.1933ZM45.6258 54.9842C46.4996 54.4217 47.0621 54.2005 47.4307 53.8023C50.3604 50.6423 53.4299 47.6024 56.1086 44.2497C60.106 39.2379 63.6108 33.888 65.8479 27.8177C66.995 24.7051 67.5193 21.5324 66.9314 18.2429C66.4389 15.5063 64.1065 14.1349 61.6376 15.3989C59.7269 16.3719 57.9709 17.6198 56.4264 19.1024C51.8284 23.5706 49.245 29.2491 47.2114 35.1994C45.7243 39.5318 45.3049 44.019 45.397 48.5631C45.4383 50.5823 45.5368 52.5984 45.6258 54.9842Z" fill="white"/>
<path d="M45.6262 54.9841C45.5373 52.592 45.4261 50.5601 45.3911 48.5567C45.3085 44.0126 45.7089 39.5254 47.2055 35.193C49.2455 29.2427 51.8289 23.5642 56.4204 19.096C57.9693 17.6146 59.7296 16.3688 61.6444 15.3988C64.1133 14.1348 66.4457 15.5125 66.9382 18.2428C67.5261 21.5323 67.0018 24.705 65.8547 27.8176C63.6304 33.8879 60.1128 39.2378 56.1154 44.2496C53.4367 47.6023 50.3672 50.6486 47.4375 53.8023C47.0625 54.2067 46.5001 54.4279 45.6262 54.9841Z" fill="#2B66FF"/>
</svg>
