<svg width="177" height="105" viewBox="0 0 177 105" fill="none" xmlns="http://www.w3.org/2000/svg">
<rect x="177" width="105" height="177" rx="52.5" transform="rotate(90 177 0)" fill="#FFA842"/>
<path d="M75.0331 71.5219C75.217 70.7675 75.5045 70.0208 75.5511 69.2559C75.6935 67.3645 75.5873 65.4445 75.8437 63.574C76.2581 60.5535 76.9029 57.5642 77.3976 54.5541C77.6306 53.1727 77.7498 51.773 77.9543 50.3915C78.3454 47.7561 78.7468 45.1206 79.1741 42.4904C79.3165 41.6084 79.6118 40.7473 79.7076 39.8602C79.7593 39.3591 79.6514 38.8544 79.3994 38.4189C78.9462 37.7242 78.3635 37.6384 77.9595 38.5307C77.5514 39.3858 77.2001 40.267 76.9081 41.1688C75.564 45.7893 74.2277 50.4149 72.9665 55.0588C72.4279 57.0413 72.1249 59.0862 71.6302 61.0816C71.3557 62.1873 70.8663 63.2384 70.5477 64.3362C70.0919 65.918 69.9262 67.6247 69.2295 69.0842C68.3542 70.9184 68.2118 72.9138 67.5488 74.7844C66.6087 77.438 65.8318 80.1541 65.0886 82.8728C64.3971 85.4016 63.8558 87.9694 63.2265 90.5164C62.8847 91.8927 61.7038 92.759 60.0697 92.7564C58.1325 92.7564 56.1851 92.6862 54.2609 92.5951C51.9612 92.4858 51.9301 92.3219 52.0285 90.1288C52.1373 88.0318 52.0285 85.9245 52.0674 83.8224C52.0855 82.9275 52.2979 82.0377 52.3393 81.1427C52.4558 78.6036 52.505 76.0618 52.6242 73.5226C52.7148 71.5974 52.9194 69.6774 52.9841 67.7522C53.0748 64.971 53.023 62.1847 53.1499 59.4062C53.2561 57.1297 53.6083 54.8663 53.717 52.5925C53.8724 49.3587 53.8362 46.1171 54.0071 42.8858C54.1495 40.2634 54.525 37.6514 54.7115 35.0289C54.8617 32.9268 54.8772 30.8169 54.9705 28.7096C55.0559 26.7818 55.1181 24.8488 55.3201 22.9314C55.3563 22.5724 55.9986 22 56.356 22C58.8499 22 61.3464 22.0885 63.8377 22.2185C65.8758 22.3252 66.0571 22.6114 65.8758 24.6042C65.578 27.8797 65.275 31.1577 65.0083 34.4358C64.7959 37.0634 64.6509 39.6936 64.4489 42.3213C64.1899 45.7034 63.9309 49.0595 63.6176 52.4234C63.3327 55.4621 63.0271 58.4982 62.6387 61.5291C62.0068 66.4722 61.2842 71.4153 60.6498 76.3766C60.5928 76.8188 60.9087 77.3079 61.0434 77.7736C61.5613 77.4328 62.3719 77.1935 62.5247 76.733C63.2214 74.6179 63.7704 72.4533 64.2987 70.2862C64.827 68.119 65.1559 65.892 65.7697 63.7509C66.4533 61.3652 67.409 59.068 68.1574 56.6953C68.5666 55.3945 68.7556 54.0234 69.1182 52.7044C69.7786 50.3031 70.4545 47.9018 71.19 45.5239C71.7986 43.5701 72.5703 41.6657 73.1608 39.7067C73.9377 37.0894 74.6265 34.4384 75.3646 31.8055C75.8618 30.026 76.372 28.2517 76.8951 26.4826C77.1774 25.5174 77.4131 24.5236 77.8171 23.6208C77.9375 23.4027 78.1057 23.2148 78.3089 23.0715C78.5121 22.9282 78.7451 22.8331 78.9902 22.7935C80.8031 22.7493 82.6159 22.8481 84.4287 22.895C85.4413 22.9236 85.9825 23.4153 85.8323 24.4559C85.5319 26.6829 85.1538 28.8969 84.8793 31.1265C84.4753 34.3993 84.1593 37.6852 83.7553 40.958C83.5585 42.5658 83.2374 44.1606 82.9991 45.7658C82.7402 47.5297 82.5278 49.2988 82.287 51.0654C82.1937 51.7418 82.0617 52.4156 81.9788 53.092C81.7017 55.4075 81.4971 57.7307 81.1578 60.0332C80.7357 62.8949 80.1608 65.7307 79.7439 68.5925C79.4331 70.7258 79.2932 72.8852 79.0265 75.0289C78.941 75.7027 78.5629 76.3532 78.5552 77.0192C78.5552 77.4406 78.8944 78.1275 79.2285 78.2367C79.9536 78.4709 80.2204 77.9167 80.3473 77.1961C80.4742 76.4754 80.8238 75.7626 81.0491 75.0419C81.769 72.7421 82.5019 70.4449 83.1778 68.132C83.4239 67.2787 83.4627 66.3655 83.6958 65.507C84.3044 63.2852 84.9907 61.0842 85.6122 58.8676C86.257 56.599 86.8268 54.3044 87.5079 52.0462C88.4298 48.9945 89.502 45.9896 90.3695 42.9223C91.2241 39.8966 91.8431 36.8032 92.677 33.7698C93.1949 31.9096 93.9226 30.1275 94.5286 28.2829C94.9197 27.0992 95.2693 25.8998 95.6267 24.7031C95.8701 23.8836 96.2663 23.3008 97.253 23.3763C99.0658 23.5141 100.861 23.6572 102.668 23.7171C103.642 23.7509 104.004 24.2088 103.906 25.1037C103.795 26.1444 103.632 27.1512 103.489 28.1737C103.139 30.679 102.782 33.1818 102.435 35.6898C102.101 38.1223 101.795 40.56 101.448 42.9925C101.14 45.1258 100.752 47.2488 100.469 49.3873C100.102 52.1606 99.8143 54.9418 99.4673 57.7125C99.2264 59.6377 98.926 61.5525 98.6903 63.4751C98.4676 65.278 98.32 67.0888 98.074 68.8865C97.8487 70.5359 97.556 72.1749 97.2582 73.814C97.0407 75.0185 96.6911 76.2023 96.5642 77.4146C96.515 77.8751 96.9241 78.3824 97.1235 78.8715C97.455 78.5723 97.9807 78.333 98.0869 77.9688C99.0969 74.4644 100.05 70.9444 100.993 67.4192C101.49 65.559 101.863 63.665 102.43 61.8283C102.922 60.2335 103.681 58.7245 104.186 57.1323C104.748 55.3736 105.131 53.5603 105.631 51.7834C106.327 49.3041 107.071 46.8403 107.775 44.3636C108.811 40.7525 109.805 37.1337 110.841 33.5252C111.657 30.6816 112.457 27.8328 113.392 25.0283C113.545 24.573 114.366 24.0501 114.866 24.0631C117.054 24.1151 119.235 24.4169 121.423 24.5132C124.272 24.638 124.153 25.161 123.85 27.4114C123.448 30.3876 123.492 33.4263 123.347 36.439C123.163 40.1854 122.972 43.9291 122.801 47.6754C122.651 50.9665 122.557 54.2628 122.373 57.5616C122.262 59.5258 121.982 61.4797 121.855 63.4413C121.806 64.24 122.089 65.0569 122.052 65.8582C121.915 69.0114 121.659 72.1619 121.534 75.3151C121.341 80.5183 121.192 85.7311 121.086 90.9535C121.029 93.5551 120.527 94.0962 117.979 93.987C115.928 93.8959 113.879 93.771 111.828 93.706C110.562 93.667 110.142 92.8839 110.233 91.8198C110.461 89.1349 110.828 86.4631 111.056 83.7782C111.196 82.1262 111.219 80.4611 111.217 78.8013C111.217 77.4458 110.733 75.9681 111.118 74.7558C111.895 72.3258 111.352 69.8257 111.937 67.4062C112.242 66.1444 112.074 64.7733 112.17 63.4543C112.232 62.64 112.38 61.8309 112.509 61.0218C113.05 57.6188 113.636 54.2237 114.13 50.8156C114.413 48.8878 114.555 46.9418 114.752 45.001C114.915 43.3828 115.101 41.7645 115.195 40.1437C115.185 39.9463 115.134 39.7531 115.045 39.5769C114.955 39.4007 114.83 39.2454 114.677 39.1213C114.55 39.0224 113.866 39.3086 113.778 39.548C113.369 40.6537 113.084 41.8036 112.742 42.9301C112.279 44.5119 111.823 46.0936 111.352 47.6728C110.603 50.1782 109.798 52.668 109.104 55.1837C108.068 58.8642 107.068 62.5559 106.105 66.2588C105.75 67.6195 105.587 69.027 105.253 70.3954C104.965 71.5974 104.587 72.7785 104.217 73.9649C103.354 76.7772 102.43 79.574 101.627 82.4071C101.138 84.1398 100.918 85.9505 100.413 87.6806C99.8583 89.5928 99.1176 91.453 98.4443 93.3756H93.1716C90.9496 93.3756 90.4187 92.6133 90.815 90.4253C91.1827 88.4091 91.3329 86.3538 91.5919 84.3141C91.8742 81.9727 92.1409 79.6312 92.4258 77.2897C92.8436 73.84 93.2666 70.3894 93.6947 66.9379C93.8061 66.0403 93.9537 65.148 94.0858 64.253C94.4354 62.0468 94.8627 59.8484 95.1372 57.6319C95.5438 54.4345 95.8002 51.2162 96.2301 48.0215C96.4114 46.6712 96.9293 45.373 97.1831 44.0306C97.4619 42.6766 97.6283 41.3017 97.6803 39.92C97.6803 39.3997 97.1235 38.8793 96.8205 38.359C96.4787 38.692 95.9556 38.9652 95.8235 39.3685C95.1864 41.3379 94.6296 43.3359 94.0858 45.334C92.91 49.6475 91.7991 53.9766 90.5819 58.2771C89.9966 60.3428 89.1705 62.3408 88.5645 64.4013C88.1424 65.8296 87.9714 67.3359 87.5674 68.772C86.876 71.2384 86.0835 73.6735 85.3454 76.1268C84.6074 78.5801 83.8719 81.0205 83.1727 83.4764C82.5252 85.7554 81.9218 88.0475 81.3106 90.3369C81.2226 90.6647 81.1993 91.0133 81.1371 91.3489C80.9714 92.2569 80.57 92.9749 79.5367 92.9827C77.7834 92.9983 76.0224 93.0374 74.2743 92.9177C72.85 92.8214 72.5884 92.3818 72.7542 90.9587C73.052 88.3805 73.342 85.8049 73.6683 83.2318C74.119 79.665 74.6084 76.1034 75.0435 72.534C75.0849 72.214 74.857 71.8575 74.756 71.5193L75.0331 71.5219Z" fill="black"/>
<path d="M113.364 8.71731C116.566 8.91435 119.655 9.05588 122.731 9.34727C123.163 9.3889 123.818 10.141 123.866 10.6211C123.976 11.6895 124.2 12.7413 123.602 13.8958C121.733 17.4452 119.147 19.6848 115.276 20.4868C111.057 21.3902 106.686 21.0971 102.609 19.6376C98.7539 18.25 95.8624 15.6414 95.1172 11.0679C94.7195 8.63683 95.2831 7.87921 97.5952 8.01519C99.6492 8.12897 101.703 8.25941 103.755 8.42037C105.256 8.53692 105.437 9.02535 105.248 10.5767C105.019 12.2452 104.989 13.9372 105.158 15.6136C105.379 17.4813 106.807 18.4304 108.642 18.3888C109.395 18.3721 110.199 18.6663 110.894 18.4582C113.696 17.6589 114.135 14.7145 113.83 11.9365C113.719 10.9458 113.546 9.96336 113.364 8.71731Z" fill="black"/>
</svg>
