<svg width="153" height="155" viewBox="0 0 153 155" fill="none" xmlns="http://www.w3.org/2000/svg">
<path d="M43.2184 1.75532L148.027 6.31482C150.774 6.31482 153 8.54107 153 11.2873V87.8958C153 91.9135 152.395 95.9083 151.204 99.7457L136.339 147.674C134.987 152.03 130.957 155 126.396 155C121.584 155 117.399 151.703 116.274 147.024L109.247 117.812C105.04 100.325 89.68 87.7962 71.7046 87.19L39.9818 86.1201C17.9012 85.3754 0.605791 66.8705 1.35302 44.7899L1.50277 40.3647C2.25504 18.1351 20.9971 0.788636 43.2184 1.75532Z" fill="#FFA842"/>
<path d="M22.3062 17.6094C22.9157 17.3965 23.5366 16.9746 24.1348 17.0012C32.7327 17.4345 41.3193 18.0085 49.9173 18.3848C59.5071 18.7991 69.1008 19.0233 78.6907 19.3806C83.4989 19.5593 88.3033 19.9204 93.1115 20.08C101.759 20.3651 110.41 20.5589 119.061 20.7908C123.653 20.9124 128.245 21.0151 132.838 21.1709C133.216 21.1709 133.595 21.6574 134 21.9311C133.621 22.163 133.266 22.5773 132.887 22.5925C131.358 22.6628 129.826 22.6552 128.298 22.5697C125.925 22.429 124.225 23.9988 124.198 26.4429C124.141 30.9471 124.153 35.4512 124.001 39.9516C123.763 46.9949 123.407 54.0153 123.108 61.0737C123.043 62.5942 123.006 64.1488 122.968 65.6844C122.93 67.22 123.933 68.4287 125.497 68.5047C127.605 68.6111 129.714 68.7099 131.823 68.6909C133.171 68.6909 133.671 69.2915 133.534 70.523C133.103 74.4723 132.637 78.4177 132.19 82.3631C131.986 84.1534 131.812 85.9437 131.6 87.7301C130.842 94.6746 130.112 101.619 129.328 108.56C128.571 115.356 127.787 122.148 127.026 128.941C126.935 129.731 126.951 130.533 126.829 131.316C126.707 131.888 126.545 132.451 126.345 133L125.921 132.943C125.758 131.312 125.614 129.674 125.432 128.043C124.762 122.004 124.043 115.968 123.422 109.924C122.949 105.336 122.616 100.737 122.188 96.1417C121.658 90.4402 121.082 84.7387 120.537 79.0373C120.302 76.5666 120.087 74.0922 119.89 71.6139C119.814 70.6599 119.587 70.0479 118.398 70.0517C111.432 70.0517 104.466 70.1163 97.5032 69.9453C92.2028 69.816 86.9025 69.2953 81.5832 69.09C75.7263 68.862 69.8466 68.8696 64.0049 68.6491C52.8817 68.2348 41.7623 67.7179 30.6429 67.2732C27.9927 67.1667 25.3425 67.2314 22.7188 67.0945C22.132 67.0641 21.583 66.5206 21 66.2127C21.602 65.9314 22.1964 65.4335 22.8059 65.4107C24.1196 65.3613 25.4561 65.5855 26.7547 65.6463C28.6817 65.7414 29.9463 64.5403 30.0068 62.6056C30.3703 51.0505 30.7337 39.4942 31.0972 27.9367C31.1578 26.0856 31.1881 24.2307 31.2448 22.3758C31.3244 19.9508 30.0106 18.6128 27.599 18.6812C25.8536 18.7573 24.0704 18.9435 22.3062 17.6094ZM96.3106 21.703V21.4712C94.3116 21.4712 92.3088 21.4484 90.3061 21.4712C89.4522 21.4558 88.6266 21.7786 88.008 22.3697C87.3895 22.9609 87.0276 23.7728 87.0009 24.6298C86.7775 30.6088 86.6223 36.5915 86.3724 42.5705C86.1907 47.2799 85.8916 51.9894 85.744 56.6988C85.6531 59.713 85.6834 62.731 85.7856 65.7414C85.8272 66.9805 86.5807 67.7559 87.955 67.7863C91.9567 67.8699 95.9585 68.022 99.9603 68.0904C102.573 68.136 103.61 67.1249 103.72 64.5175C103.841 61.6629 103.913 58.816 104.023 55.9462C104.255 49.8114 104.491 43.6741 104.731 37.5342C104.886 33.5165 104.958 29.4913 105.234 25.4812C105.397 23.1246 104.382 21.7334 102.001 21.6802C100.097 21.6726 98.2036 21.703 96.3106 21.703ZM49.1374 43.9275H49.2282C48.9708 50.3891 48.6793 56.8508 48.471 63.3125C48.384 65.9732 49.3305 66.8665 51.9201 66.9159C55.2404 66.9805 58.5947 66.7828 61.8696 67.2048C65.258 67.6419 66.4696 65.844 66.5604 62.8982C66.8671 52.9434 67.3176 42.9924 67.6546 33.0376C67.7681 29.8144 67.8439 26.5759 67.8514 23.3641C67.8514 22.0489 66.7156 20.8858 65.5799 20.8364C61.6879 20.6616 57.7883 20.5931 53.9077 20.3043C53.372 20.2548 52.8319 20.3236 52.3255 20.5059C51.819 20.6882 51.3585 20.9795 50.9761 21.3594C50.5937 21.7394 50.2987 22.1987 50.1119 22.7052C49.925 23.2117 49.8509 23.7532 49.8946 24.2915C50.0039 25.1857 50.0607 26.0855 50.0649 26.9864C49.7772 32.6347 49.4516 38.2792 49.1412 43.9275H49.1374Z" fill="black"/>
</svg>
