<svg width="130" height="185" viewBox="0 0 130 185" fill="none" xmlns="http://www.w3.org/2000/svg">
<rect x="23.166" width="83.6222" height="184.623" rx="41.8111" transform="rotate(0.181463 23.166 0)" fill="#FFA842"/>
<path d="M67.0018 165.279C61.0754 167.445 55.7501 167.965 50.473 165.695C46.125 163.824 43.3367 160.353 41.4891 156.079C39.321 151.125 39.1076 145.89 39.1887 140.593C39.366 129.164 39.4609 117.73 39.6264 106.308C39.8437 91.2859 40.0114 76.2615 40.3744 61.2436C40.4929 56.3019 41.0527 51.3692 42.9134 46.685C44.1459 43.4905 46.1406 40.6457 48.7238 38.3984C53.2414 34.4965 57.9139 30.7743 62.4306 26.8699C64.7141 24.884 66.4865 22.5084 66.4902 19.2654C66.4896 18.332 67.0512 18.0234 67.7759 17.7906C71.0225 16.7383 74.2677 15.6847 77.5114 14.6297C78.8304 14.1964 80.1454 13.7492 81.4563 13.2881C82.2979 12.9809 82.7416 13.1071 82.9359 14.1369C84.161 20.6918 82.9765 26.763 78.8887 32.0006C76.8995 34.5562 74.3975 36.7486 71.9518 38.906C68.5271 41.9337 64.8769 44.7065 61.438 47.7191C58.4296 50.3556 57.369 54.0188 56.8225 57.8114C56.4829 60.1656 56.3936 62.558 56.2525 64.9349C56.2339 65.3104 56.6074 65.7101 56.8007 66.0977C57.0871 65.7454 57.5023 65.4383 57.6348 65.0355C58.3882 62.781 58.7828 60.3722 59.8051 58.2703C62.5011 52.7799 69.1365 50.0069 74.0405 52.4069C76.8676 53.7898 78.5244 56.2453 79.5505 59.1124C81.2448 63.8421 81.5943 68.7397 81.5408 73.7412C81.416 85.1166 81.4058 96.4904 81.3175 107.887C81.2293 119.283 81.1634 130.655 80.9289 142.03C80.8382 146.834 79.9997 151.509 77.7561 155.854C75.2712 160.66 71.438 163.807 67.0018 165.279ZM63.3429 72.0549C62.6725 71.6627 61.9604 70.9746 61.1524 70.8372C60.0114 70.6399 59.1377 71.4198 58.8834 72.5153C58.5832 73.7372 58.4215 74.9889 58.4011 76.247C58.2911 85.8707 58.2686 95.4972 58.1501 105.121C57.9882 117.493 57.7586 129.86 57.5949 142.226C57.5649 144.292 57.5607 146.365 57.7282 148.419C57.8265 149.628 58.465 150.683 59.8595 150.848C61.3166 151.019 61.9253 149.979 62.393 148.86C62.5581 148.442 62.6476 147.997 62.6574 147.548C62.7268 145.479 62.7679 143.413 62.8021 141.343C62.9839 130.685 63.1924 120.028 63.3245 109.367C63.4659 98.1743 63.5642 86.9738 63.6196 75.766C63.6199 74.6537 63.454 73.5357 63.3429 72.0549Z" fill="black"/>
</svg>
