<svg width="87" height="88" viewBox="0 0 87 88" fill="none" xmlns="http://www.w3.org/2000/svg">
<g clip-path="url(#clip0)">
<path d="M84.6344 1.77726C84.7274 5.04788 84.9138 8.01574 84.896 10.9821C84.6796 30.9903 84.4461 50.9976 84.1956 71.0042C84.1455 75.1787 83.9305 79.3545 84.0371 83.5201C84.09 85.381 83.413 85.7304 81.8204 85.7652C65.8991 86.0972 49.9774 86.4626 34.0553 86.8613C23.9941 87.0983 13.9475 87.2989 3.92009 87.6188C2.16323 87.6748 1.5558 87.2945 1.5643 85.3836C1.52878 64.2443 1.39915 43.1081 1.29697 21.9709C1.26838 15.8084 1.24371 9.6457 1.22296 3.48291C1.21388 3.16343 1.27932 2.84158 1.31736 2.3847L84.6344 1.77726ZM25.3066 42.1255C25.1256 41.5557 25.0024 41.3638 25.0251 41.1952C25.0614 40.8668 25.1604 40.5487 25.3164 40.2586C26.9896 37.5352 28.9146 35.1075 31.7982 33.5406C36.6298 30.9083 41.8537 30.2021 47.1955 29.6399C52.5486 29.1339 57.8696 28.3169 63.1326 27.193C68.4758 25.9873 71.3265 22.1591 71.8309 16.5631C72.0188 14.4747 71.5742 13.8853 69.5334 13.8944C66.2172 13.9123 62.8991 13.8662 59.5915 14.0477C58.5915 14.1376 57.6597 14.605 56.9793 15.3581C55.5997 17.0889 53.8787 17.8553 51.8122 18.201C45.0841 19.291 38.2457 19.9528 31.6642 21.6417C22.9129 23.9154 16.532 29.2112 14.7019 38.8425C13.8347 43.2755 13.8589 47.8395 14.773 52.2584C16.0165 58.1703 19.3846 62.6035 25.0339 64.4338C36.0352 67.996 47.2083 67.6595 58.2607 64.457C64.7426 62.5755 69.6082 58.655 70.845 51.4848C72.1244 44.0215 69.4816 37.3468 61.8778 34.4197C55.2782 31.8803 48.486 32.0969 41.6946 33.169C35.9427 34.0799 30.5502 35.8947 26.8318 40.9617C26.5145 41.3955 25.9524 41.6453 25.3066 42.1255Z" fill="#2B66FF"/>
<path d="M25.3047 42.1217C25.9504 41.6415 26.5124 41.3917 26.8415 40.9576C30.5593 35.8914 35.9513 34.0768 41.7025 33.166C48.493 32.0941 55.2843 31.8775 61.8832 34.4165C69.486 37.3432 72.1285 44.017 70.8492 51.4792C69.6205 58.6481 64.7554 62.568 58.2665 64.4495C47.2154 67.6516 36.0437 67.988 25.0437 64.4263C19.3838 62.6086 16.0275 58.1637 14.7841 52.2526C13.8663 47.8353 13.8381 43.2722 14.7012 38.8391C16.5227 29.1895 22.9113 23.9141 31.65 21.6531C38.2304 19.9525 45.0679 19.2908 51.7955 18.2129C53.8622 17.8792 55.5826 17.101 56.962 15.3705C57.6424 14.6174 58.574 14.1501 59.5739 14.0602C62.8812 13.8788 66.1988 13.9248 69.5146 13.907C71.5552 13.8978 71.9997 14.4871 71.8118 16.5753C71.308 22.1864 68.4571 25.9981 63.1146 27.2036C57.8523 28.3274 52.5319 29.1442 47.1795 29.6502C41.8385 30.2202 36.619 30.9183 31.784 33.5503C28.9047 35.1169 26.9799 37.5442 25.303 40.2673C25.147 40.5574 25.0481 40.8755 25.0117 41.2038C25.0009 41.376 25.1237 41.5519 25.3047 42.1217ZM44.4123 56.431C46.2438 55.9729 49.7822 55.3604 53.0988 54.1276C56.6871 52.7902 57.8063 48.6701 55.4192 45.8768C54.3516 44.628 52.5659 43.526 50.9865 43.3286C46.7554 42.7684 42.4871 42.5451 38.2203 42.6608C35.3462 42.7525 32.4446 43.5364 30.197 45.7902C27.7203 48.2671 28.0631 52.3206 31.5268 54.1924C34.9906 56.0641 38.8613 56.2404 44.4123 56.431Z" fill="white"/>
<path d="M44.4227 56.435C38.8743 56.2446 35.065 56.1026 31.543 54.1987C28.021 52.2948 27.7384 48.2873 30.2216 45.8047C32.4682 43.5532 35.3687 42.778 38.2414 42.6784C42.5042 42.5686 46.7682 42.7971 50.9946 43.3618C52.5693 43.5591 54.3581 44.6599 55.4253 45.9074C57.8113 48.698 56.6927 52.8139 53.1059 54.15C49.7906 55.3776 46.2532 55.9655 44.4227 56.435Z" fill="#2B66FF"/>
</g>
<defs>
<clipPath id="clip0">
<rect width="87" height="88" fill="white"/>
</clipPath>
</defs>
</svg>
