<svg width="115" height="113" viewBox="0 0 115 113" fill="none" xmlns="http://www.w3.org/2000/svg">
<path d="M115 113H0V0H115V113ZM47.4563 61.132C46.2134 61.8787 45.4827 61.7617 44.8952 60.7412C43.2681 57.8988 41.5783 55.0912 39.9638 52.2413C37.4528 47.801 35.0022 43.3183 32.4536 38.8979C31.9891 38.0964 31.517 37.1556 30.239 37.1307C25.6817 37.066 21.1243 36.9142 16.567 36.8146C14.6763 36.7748 14.375 37.1481 14.6286 39.0547C14.6512 39.219 14.6914 39.3808 14.7014 39.5525C14.7516 40.5307 14.4252 41.8648 14.94 42.3899C15.5426 43.0047 16.8708 42.95 17.8953 43.1366C23.9918 44.187 29.91 45.5584 33.7141 51.1014C35.9262 54.3371 38.2136 57.5155 40.4258 60.7487C40.9154 61.468 40.5563 61.9384 39.7001 61.9683C39.0308 62.0014 38.36 61.9956 37.6914 61.9509C33.2353 61.5709 28.7801 61.1793 24.3258 60.7761C23.7181 60.7213 23.2034 60.6715 22.9598 61.4606C21.8374 65.1044 20.6573 68.7284 19.5123 72.3623C18.508 75.5656 17.5036 78.7764 16.5218 81.9847C15.5677 85.096 14.6311 88.2346 13.6217 91.3458C13.2828 92.3887 13.6493 92.7471 14.6412 92.7372C15.1835 92.7372 15.7284 92.6973 16.2682 92.7148C20.238 92.8566 24.2078 92.991 28.1775 93.1678C29.2522 93.215 29.7041 92.8193 29.9352 91.754C31.3413 85.4843 32.7599 79.2145 34.3217 72.9796C34.8842 70.7395 35.8107 68.5741 37.7115 67.0209C40.5664 64.6838 43.941 64.6465 47.3634 64.97C47.7325 65.0049 48.2573 65.5773 48.3477 65.9656C48.5938 67.0242 48.716 68.1075 48.7118 69.1938C48.5862 76.8599 48.4272 84.526 48.2347 92.1921C48.2121 93.1429 48.4858 93.5809 49.4626 93.6008C53.7679 93.6888 58.0733 93.7917 62.3787 93.9095C63.2098 93.9319 63.5764 93.6606 63.5915 92.7695C63.6894 86.9229 63.7949 81.0713 63.9731 75.2346C64.0635 72.3374 64.3021 69.4452 64.4954 66.5505C64.5431 65.8437 64.7641 65.2065 65.6856 65.2886C67.4734 65.4479 69.3013 65.4454 71.0364 65.8387C73.61 66.4211 75.787 67.7502 76.7738 70.3587C77.4618 72.1707 78.1648 74.0075 78.5314 75.8942C79.704 81.7035 80.7285 87.5402 81.7956 93.3694C81.9212 94.0464 82.0869 94.4645 82.9557 94.4844C87.6787 94.5939 92.3992 94.7732 97.1198 94.9399C98.1091 94.9748 98.3878 94.5367 98.1467 93.6307C97.5416 91.3483 96.9691 89.0535 96.3539 86.7736C94.2824 79.0851 92.1707 71.409 90.152 63.7081C89.8532 62.5582 89.4338 62.16 88.2186 62.2147C83.6989 62.4437 79.1943 62.5781 74.6797 62.7125C73.9264 62.7349 73.1505 62.5731 72.1688 62.4636C72.4575 61.8513 72.5655 61.4431 72.8065 61.137C75.4957 57.7097 78.1473 54.2524 80.9319 50.9023C82.3807 49.16 84.2965 47.9926 86.4559 47.1315C90.0942 45.6779 93.9359 45.4041 97.755 44.9959C98.7594 44.8864 99.1862 44.5529 99.1461 43.5498C99.0984 42.3924 99.1109 41.2326 99.1461 40.0652C99.1611 39.2936 98.8623 38.9278 98.0463 38.9128C93.0722 38.8182 88.0955 38.6789 83.1214 38.6191C82.8663 38.6414 82.619 38.7178 82.3963 38.8433C82.1736 38.9687 81.9807 39.1401 81.8308 39.3459C79.2646 43.4204 76.7763 47.5421 74.2327 51.6291C72.2843 54.7652 70.2605 57.8515 68.3271 60.9976C67.5512 62.257 67.3579 62.369 65.8689 61.5925C65.963 61.1692 66.088 60.7533 66.243 60.348C69.005 54.3744 71.752 48.361 74.6018 42.4273C76.6106 38.2408 78.5992 34.0269 80.9243 30.0122C82.9958 26.4355 86.0039 23.6802 90.2901 22.8962C92.5825 22.4756 94.9403 22.3611 97.2754 22.2242C99.1009 22.1171 99.2013 22.0922 99.1737 20.3325C99.1511 18.879 99.0833 17.4229 99.1737 15.9793C99.2365 14.9389 98.8121 14.7074 97.868 14.69C91.8418 14.573 85.8156 14.4411 79.8045 14.242C78.8177 14.2121 78.4285 14.5307 78.1121 15.4317C76.0155 21.4202 73.8611 27.3913 71.7068 33.3524C70.2705 37.295 68.8242 41.2284 67.3679 45.1527C65.4797 50.2029 63.5438 55.2356 61.6455 60.2833C61.3442 61.0847 60.7717 61.2117 60.041 61.0623C59.1446 60.8781 59.4384 60.2584 59.5263 59.6884C60.0938 55.9549 60.6889 52.2389 61.1986 48.5029C62.1201 41.7254 62.901 34.928 63.9154 28.1629C64.5695 23.7792 64.7798 19.3417 64.5431 14.9165C64.4979 14.0429 64.1313 13.672 63.2249 13.672C61.5099 13.672 59.795 13.6247 58.0825 13.5799C55.4913 13.5152 52.9 13.4281 50.2987 13.3659C49.6534 13.3509 48.9729 13.3659 49.0106 14.2943C49.1236 17.281 49.0734 20.2678 49.3948 23.2322C50.1882 30.5224 51.17 37.7903 52.0413 45.0731C52.6238 49.9266 53.1628 54.7859 53.6583 59.6511C53.696 60.0294 53.3269 60.6865 52.9904 60.8159C52.3476 61.0648 51.7575 60.9105 51.4663 60.0319C49.2441 53.3116 47.0395 46.5665 44.6868 39.8711C41.6737 31.304 38.5401 22.7842 35.4843 14.2345C35.1076 13.1742 34.4523 12.7113 33.3425 12.7212C31.5446 12.7361 29.746 12.7254 27.9465 12.6889C23.929 12.6042 19.9116 12.4872 15.8941 12.4051C15.2111 12.3902 14.2946 12.2309 14.2972 13.2862C14.2972 15.148 14.3901 17.0197 14.5483 18.864C14.5759 19.2025 15.068 19.7078 15.417 19.775C16.77 20.0358 18.1376 20.2162 19.5123 20.3151C23.9115 20.6412 27.6879 22.2067 30.6508 25.542C32.9734 28.1579 34.4724 31.2667 35.9237 34.3729C38.0429 38.9576 40.014 43.6095 42.0102 48.2515C43.8582 52.5176 45.6359 56.7912 47.4563 61.132Z" fill="#FFA842"/>
<path d="M47.4571 61.1319C45.6266 56.7911 43.8489 52.5175 42.0209 48.2638C40.0248 43.6219 38.0537 38.97 35.9345 34.3852C34.4932 31.2715 32.9942 28.1628 30.6616 25.5543C27.6987 22.2141 23.9223 20.6485 19.5231 20.3274C18.1484 20.2285 16.7808 20.0482 15.4278 19.7873C15.0788 19.7201 14.5867 19.2149 14.559 18.8764C14.3983 17.0221 14.308 15.1603 14.308 13.2985C14.308 12.2432 15.2219 12.4025 15.9049 12.4174C19.9224 12.4996 23.9398 12.6166 27.9573 12.7012C29.7551 12.7394 31.5538 12.7501 33.3533 12.7335C34.4631 12.7335 35.1109 13.1865 35.4951 14.2468C38.5509 22.7965 41.692 31.3163 44.6976 39.8834C47.0428 46.5713 49.2474 53.309 51.4771 60.0442C51.7683 60.9228 52.3584 61.0746 53.0012 60.8282C53.3376 60.6988 53.7068 60.0417 53.6691 59.6634C53.1669 54.7999 52.6279 49.9406 52.0521 45.0854C51.1808 37.8026 50.199 30.5348 49.4056 23.2445C49.0842 20.2851 49.1344 17.2859 49.0214 14.3066C48.9837 13.3732 49.6642 13.3633 50.3095 13.3782C52.9007 13.4404 55.492 13.5275 58.0933 13.5922C59.8058 13.637 61.5207 13.6968 63.2357 13.6843C64.1421 13.6843 64.5087 14.0552 64.5539 14.9288C64.7906 19.354 64.5803 23.7915 63.9262 28.1752C62.9218 34.9403 62.1309 41.7377 61.2094 48.5152C60.7072 52.2487 60.1046 55.9822 59.5371 59.7007C59.4492 60.2707 59.1554 60.8905 60.0518 61.0746C60.7825 61.224 61.355 61.097 61.6563 60.2956C63.5546 55.2479 65.4905 50.2152 67.3787 45.165C68.8451 41.2457 70.2855 37.3148 71.7 33.3722C73.8544 27.3987 76.0087 21.4251 78.1053 15.4515C78.4217 14.5505 78.8109 14.2319 79.7977 14.2618C85.8239 14.4584 91.8501 14.5928 97.8612 14.7098C98.8053 14.7272 99.2297 14.9587 99.1669 15.9991C99.0765 17.4427 99.1443 18.8988 99.1669 20.3523C99.1945 22.112 99.0941 22.1369 97.2687 22.244C94.9335 22.3809 92.5758 22.4929 90.2833 22.916C85.9972 23.7 83.0016 26.4553 80.9176 30.032C78.5925 34.0268 76.5837 38.2407 74.575 42.4272C71.7251 48.3733 68.9882 54.3743 66.2161 60.3479C66.0612 60.7532 65.9361 61.1691 65.842 61.5924C67.331 62.3689 67.5243 62.2569 68.3002 60.9975C70.2336 57.8539 72.2574 54.775 74.2059 51.6289C76.7494 47.542 79.2277 43.4153 81.8039 39.3458C81.9568 39.1397 82.1528 38.9689 82.3787 38.8451C82.6045 38.7214 82.8547 38.6476 83.1121 38.629C88.0862 38.6887 93.0629 38.8281 98.037 38.9227C98.853 38.9376 99.1518 39.3035 99.1368 40.0751C99.1142 41.2324 99.1016 42.3923 99.1368 43.5596C99.177 44.5552 98.7526 44.8962 97.7457 45.0057C93.9266 45.4139 90.0849 45.6877 86.4466 47.1413C84.2973 48.0025 82.3814 49.1673 80.9226 50.9121C78.153 54.2598 75.5015 57.7095 72.8173 61.1369C72.5663 61.443 72.4683 61.8512 72.1796 62.4635C73.1613 62.5631 73.9372 62.7124 74.6905 62.7124C79.2101 62.583 83.7298 62.4486 88.2294 62.2146C89.4446 62.1524 89.864 62.5506 90.1628 63.708C92.1715 71.4089 94.2932 79.085 96.3647 86.7734C96.9799 89.0533 97.5524 91.3482 98.1575 93.6306C98.4086 94.5366 98.1199 94.9746 97.1306 94.9398C92.41 94.773 87.6895 94.5938 82.9665 94.4843C82.0977 94.4644 81.932 94.0463 81.8064 93.3692C80.7393 87.54 79.7148 81.7034 78.5422 75.8941C78.1631 74.0074 77.46 72.1606 76.7846 70.3586C75.7978 67.7501 73.6208 66.421 71.0472 65.8386C69.3121 65.4453 67.4842 65.4478 65.6964 65.2885C64.7749 65.2064 64.5539 65.8435 64.5062 66.5504C64.3129 69.4451 64.0743 72.3373 63.9839 75.2345C63.8057 81.0786 63.7002 86.9327 63.6023 92.7694C63.5872 93.6605 63.2206 93.9318 62.3895 93.9094C58.0741 93.7832 53.7662 93.6754 49.4658 93.5858C48.484 93.5659 48.2104 93.1278 48.238 92.177C48.4322 84.5109 48.5912 76.8449 48.715 69.1788C48.7229 68.1022 48.6066 67.0283 48.3685 65.9779C48.2782 65.5772 47.7534 65.0048 47.3843 64.9824C43.9619 64.6588 40.5872 64.6961 37.7323 67.0333C35.8315 68.5864 34.905 70.7668 34.3426 72.9919C32.7808 79.2144 31.3621 85.4966 29.956 91.7663C29.7049 92.8316 29.263 93.2274 28.1983 93.1801C24.2286 93.0034 20.2588 92.869 16.2891 92.7271C15.7492 92.7097 15.2044 92.747 14.662 92.7495C13.6576 92.7495 13.3036 92.401 13.6426 91.3581C14.6469 88.2444 15.5885 85.1058 16.5577 81.9771C17.5621 78.7688 18.5414 75.5581 19.5482 72.3547C20.6932 68.7208 21.8733 65.0968 22.9957 61.453C23.2468 60.664 23.749 60.7063 24.3617 60.7685C28.816 61.1667 33.2712 61.5583 37.7273 61.9433C38.3959 61.988 39.0667 61.9938 39.736 61.9607C40.5922 61.9309 40.9513 61.4629 40.4617 60.7411C38.2495 57.5054 35.9621 54.327 33.75 51.0938C29.9485 45.5459 24.0302 44.1744 17.9312 43.1291C16.9068 42.9523 15.5785 43.0071 14.9759 42.3824C14.4737 41.8572 14.7875 40.5231 14.7373 39.5449C14.7373 39.3806 14.6871 39.2189 14.6645 39.0471C14.4134 37.1455 14.7122 36.7722 16.6029 36.807C21.1602 36.9066 25.7176 37.0559 30.2749 37.1231C31.5529 37.143 32.0325 38.0889 32.4895 38.8903C35.0381 43.3107 37.4837 47.7934 39.9997 52.2338C41.6142 55.0837 43.304 57.8912 44.9311 60.7337C45.4935 61.7616 46.2242 61.8786 47.4571 61.1319Z" fill="#090909"/>
</svg>
