<svg width="254" height="142" viewBox="0 0 254 142" fill="none" xmlns="http://www.w3.org/2000/svg">
<path d="M128.16 2.06537C40.894 1.61752 7.6933 93.6159 2.00123 139.671L251.548 140.015C246.779 94.2187 215.426 2.51321 128.16 2.06537Z" fill="#090909" stroke="white" stroke-width="3"/>
<path d="M136.466 87.3683C135.934 87.2609 135.397 87.1812 134.857 87.1295C128.92 86.9545 122.98 86.7895 117.039 86.6345C114.503 86.5657 111.967 86.4996 109.429 86.4798C108.335 86.4783 107.708 85.9689 107.214 85.0191C103.355 77.6007 99.4981 70.1822 95.5621 62.8071C92.7545 57.552 89.9114 52.3159 86.9178 47.1666C85.0857 44.015 83.0156 40.9881 80.9182 38.0047C79.3471 35.778 77.0754 34.3309 74.6037 33.2071C74.3142 33.0761 73.9235 33.0212 73.7626 32.798C73.4898 32.4332 73.1626 31.9052 73.256 31.5464C73.3357 31.2446 73.9811 30.8838 74.3692 30.8952C78.3125 30.9904 82.2558 31.1781 86.1991 31.2977C92.1756 31.4637 98.155 31.5209 104.131 31.744C109.968 31.9614 115.797 32.3556 121.62 32.6166C126.506 32.8327 131.395 32.9591 136.281 33.1589C136.667 33.1758 137.317 33.3807 137.36 33.5955C137.444 34.0063 137.329 34.6833 137.036 34.9113C134.404 37.0832 133.952 39.9897 133.986 43.1062C134.054 49.089 135.563 54.8345 137.367 60.4717C138.782 64.8954 140.574 69.2 142.213 73.5534C142.382 73.9969 142.652 74.4025 143.069 75.1862C143.343 74.4415 143.56 74.0692 143.618 73.6723C144.07 71.0541 144.644 68.4415 144.883 65.8013C145.247 61.758 145.659 57.6848 145.512 53.6408C145.317 49.405 144.8 45.1898 143.966 41.0314C143.543 38.8009 142.745 36.4937 140.723 34.9517C140.436 34.7338 140.297 34.1353 140.342 33.7601C140.364 33.5807 140.99 33.3395 141.337 33.3481C145.163 33.454 149.013 33.6307 152.85 33.7393C157.107 33.8675 161.368 33.9632 165.625 34.0697C171.889 34.2252 178.151 34.3797 184.413 34.5334C184.73 34.5339 185.115 34.5344 185.339 34.6843C185.694 34.9567 186.117 35.3299 186.171 35.7106C186.212 35.9826 185.747 36.4661 185.402 36.6124C182.479 37.8457 179.477 38.9076 176.606 40.2498C171.683 42.5463 167.369 45.7439 163.494 49.524C157.589 55.2837 153.092 62.0843 148.967 69.1491C147.597 71.4832 146.345 73.8773 144.921 76.1705C144.074 77.5291 144.354 78.7124 144.984 79.9778C146.047 82.1276 147.068 84.2937 148.09 86.4598C148.19 86.788 148.257 87.1251 148.291 87.4662C147.304 87.4649 146.425 87.4854 145.545 87.4624C143.905 87.4112 142.265 87.3573 140.642 87.2572C140.235 87.2029 139.822 87.2821 139.465 87.4829C139.107 87.6836 138.825 87.9948 138.662 88.3694C137.667 90.2961 136.684 92.2255 135.632 94.1222C131.582 101.424 128.107 109.052 123.014 115.751C120.276 119.346 117.197 122.596 113.049 124.524C111.191 125.345 109.215 125.871 107.193 126.083C99.6793 126.967 92.639 125.396 86.2497 121.36C81.3649 118.275 77.7279 113.989 74.9145 108.974C71.5587 102.986 69.5671 96.552 68.4614 89.8226C67.2731 82.4564 67.3194 74.9452 68.5987 67.5941C69.701 60.963 71.8739 54.7684 75.3662 49.0243C75.81 48.2934 76.2537 47.5625 76.7657 46.8833C76.96 46.6307 77.4469 46.3214 77.6326 46.4059C77.7926 46.5027 77.9302 46.632 78.0365 46.7854C78.1427 46.9388 78.2151 47.1128 78.249 47.296C78.3321 47.8328 78.3166 48.3801 78.2031 48.9113C77.287 53.3128 77.9178 57.6267 79.005 61.8814C80.7175 68.5763 83.6769 74.729 88.0995 80.0461C92.6148 85.4776 98.1759 89.5998 104.901 92.081C109.918 93.9345 115.108 93.9253 120.342 93.8754C124.168 93.8399 127.855 93.1733 131.306 91.579C133.369 90.6517 135.148 89.1992 136.466 87.3683Z" fill="#FFA842"/>
</svg>
