<svg width="95" height="93" viewBox="0 0 95 93" fill="none" xmlns="http://www.w3.org/2000/svg">
<rect x="1" y="1" width="93" height="91" fill="#090909" stroke="white" stroke-width="2"/>
<mask id="path-2-outside-1" maskUnits="userSpaceOnUse" x="17" y="21" width="61" height="62" fill="black">
<rect fill="white" x="17" y="21" width="61" height="62"/>
<path d="M37.2346 62.8927C37.3801 62.2849 37.6077 61.6834 37.6446 61.0673C37.7574 59.5437 37.6733 57.997 37.8763 56.4901C38.2043 54.057 38.7148 51.649 39.1064 49.2242C39.2909 48.1113 39.3852 46.9838 39.5472 45.871C39.8568 43.748 40.1746 41.625 40.5128 39.5062C40.6256 38.7957 40.8593 38.102 40.9352 37.3873C40.9761 36.9837 40.8907 36.5772 40.6912 36.2263C40.3324 35.6667 39.8711 35.5976 39.5513 36.3164C39.2282 37.0052 38.9501 37.7151 38.7189 38.4415C37.6549 42.1636 36.5969 45.8898 35.5985 49.6307C35.1721 51.2277 34.9322 52.875 34.5406 54.4824C34.3233 55.3731 33.9358 56.2198 33.6836 57.1042C33.3228 58.3784 33.1916 59.7532 32.6401 60.929C31.9471 62.4065 31.8343 64.0139 31.3095 65.5207C30.5652 67.6584 29.9502 69.8464 29.3618 72.0364C28.8144 74.0735 28.3859 76.142 27.8877 78.1938C27.6171 79.3024 26.6822 80.0003 25.3885 79.9982C23.8549 79.9982 22.3132 79.9416 20.7899 79.8683C18.9693 79.7803 18.9447 79.6482 19.0226 77.8815C19.1087 76.1923 19.0226 74.4948 19.0533 72.8014C19.0677 72.0805 19.2358 71.3637 19.2686 70.6428C19.3609 68.5973 19.3998 66.5498 19.4941 64.5043C19.5659 62.9534 19.7279 61.4068 19.7791 59.8559C19.8509 57.6156 19.8099 55.371 19.9103 53.1327C19.9944 51.299 20.2732 49.4757 20.3593 47.644C20.4823 45.0389 20.4536 42.4276 20.5889 39.8247C20.7017 37.7122 20.999 35.6081 21.1466 33.4955C21.2655 31.8022 21.2778 30.1025 21.3516 28.4049C21.4193 26.852 21.4685 25.2949 21.6284 23.7503C21.6571 23.4611 22.1656 23 22.4485 23C24.4228 23 26.3992 23.0713 28.3715 23.176C29.985 23.262 30.1286 23.4925 29.985 25.0978C29.7493 27.7364 29.5094 30.3771 29.2982 33.0177C29.1301 35.1344 29.0153 37.2532 28.8554 39.3699C28.6504 42.0944 28.4453 44.7979 28.1973 47.5077C27.9717 49.9556 27.7298 52.4013 27.4223 54.8429C26.922 58.8248 26.35 62.8067 25.8477 66.8033C25.8026 67.1596 26.0527 67.5536 26.1594 67.9288C26.5694 67.6542 27.2111 67.4614 27.3321 67.0905C27.8836 65.3866 28.3182 63.6429 28.7365 61.8972C29.1547 60.1514 29.4151 58.3575 29.901 56.6327C30.4422 54.7108 31.1988 52.8603 31.7913 50.949C32.1152 49.9011 32.2649 48.7966 32.5519 47.7341C33.0747 45.7997 33.6098 43.8653 34.1921 41.9498C34.6739 40.3759 35.2848 38.8418 35.7523 37.2637C36.3673 35.1554 36.9127 33.0198 37.497 30.8989C37.8906 29.4654 38.2945 28.0361 38.7087 26.611C38.9321 25.8335 39.1187 25.0329 39.4385 24.3057C39.5339 24.1299 39.667 23.9786 39.8279 23.8632C39.9888 23.7477 40.1732 23.6711 40.3673 23.6392C41.8024 23.6036 43.2376 23.6832 44.6727 23.7209C45.4743 23.744 45.9028 24.1401 45.7839 24.9784C45.5461 26.7724 45.2468 28.5558 45.0294 30.3519C44.7096 32.9884 44.4595 35.6353 44.1396 38.2718C43.9838 39.5669 43.7296 40.8516 43.541 42.1447C43.336 43.5656 43.1679 44.9907 42.9772 46.4138C42.9034 46.9587 42.7988 47.5015 42.7332 48.0464C42.5138 49.9116 42.3519 51.7831 42.0833 53.6378C41.7491 55.9431 41.294 58.2275 40.9639 60.5328C40.7179 62.2514 40.6071 63.9908 40.396 65.7177C40.3283 66.2605 40.029 66.7845 40.0228 67.321C40.0228 67.6605 40.2914 68.2138 40.5559 68.3018C41.1299 68.4904 41.3411 68.044 41.4416 67.4635C41.542 66.883 41.8188 66.3087 41.9972 65.7282C42.5671 63.8756 43.1474 62.025 43.6825 60.1619C43.8772 59.4745 43.908 58.7389 44.0925 58.0473C44.5743 56.2575 45.1176 54.4845 45.6096 52.6989C46.1201 50.8714 46.5712 49.023 47.1104 47.2039C47.8403 44.7455 48.6891 42.3249 49.3759 39.8541C50.0524 37.4167 50.5424 34.9248 51.2026 32.4812C51.6126 30.9827 52.1888 29.5471 52.6685 28.0612C52.9781 27.1077 53.2549 26.1415 53.5378 25.1775C53.7305 24.5173 54.0442 24.0479 54.8253 24.1087C56.2605 24.2197 57.6813 24.335 59.1123 24.3832C59.8832 24.4104 60.1702 24.7793 60.0923 25.5002C60.0041 26.3385 59.875 27.1496 59.7622 27.9732C59.4854 29.9914 59.2025 32.0075 58.9278 34.0279C58.6633 35.9874 58.4214 37.9511 58.1466 39.9106C57.9027 41.6292 57.5951 43.3393 57.3717 45.062C57.0805 47.2961 56.853 49.5364 56.5782 51.7684C56.3876 53.3193 56.1497 54.8617 55.9632 56.4105C55.7869 57.8629 55.67 59.3215 55.4752 60.7697C55.2969 62.0984 55.0652 63.4187 54.8294 64.739C54.6572 65.7094 54.3804 66.6629 54.28 67.6395C54.241 68.0105 54.5649 68.4192 54.7228 68.8132C54.9852 68.5722 55.4014 68.3794 55.4855 68.0859C56.2851 65.263 57.0395 62.4274 57.7858 59.5877C58.1795 58.0892 58.4747 56.5635 58.9237 55.0839C59.3132 53.7992 59.9139 52.5837 60.3137 51.3011C60.7586 49.8843 61.062 48.4236 61.4577 46.9922C62.0092 44.9949 62.5976 43.0103 63.1553 41.0151C63.9754 38.1062 64.7627 35.191 65.5827 32.2842C66.2286 29.9935 66.8621 27.6987 67.6022 25.4395C67.7232 25.0727 68.3731 24.6515 68.7688 24.6619C70.5012 24.7038 72.2275 24.947 73.9599 25.0245C76.2151 25.1251 76.1208 25.5463 75.8809 27.3592C75.5631 29.7567 75.598 32.2045 75.4832 34.6314C75.3376 37.6493 75.1859 40.6651 75.0506 43.683C74.9317 46.3341 74.8579 48.9894 74.7123 51.6469C74.6241 53.2291 74.4027 54.8031 74.3023 56.3833C74.2633 57.0267 74.4868 57.6847 74.4581 58.3302C74.3494 60.8703 74.1464 63.4082 74.048 65.9483C73.895 70.1398 73.7767 74.339 73.6933 78.5459C73.6482 80.6416 73.2505 81.0775 71.2331 80.9895C69.6093 80.9162 67.9876 80.8156 66.3639 80.7632C65.3613 80.7317 65.0292 80.1009 65.1009 79.2437C65.2814 77.0809 65.5725 74.9286 65.7529 72.7658C65.8636 71.435 65.8821 70.0937 65.88 68.7566C65.88 67.6647 65.4966 66.4743 65.8021 65.4977C66.4172 63.5403 65.9866 61.5262 66.45 59.5772C66.6919 58.5607 66.5586 57.4563 66.6345 56.3937C66.6837 55.7378 66.8006 55.086 66.9031 54.4342C67.3316 51.693 67.7949 48.958 68.1865 46.2126C68.41 44.6596 68.5227 43.092 68.6785 41.5286C68.8077 40.225 68.9553 38.9214 69.0291 37.6158C69.0215 37.4567 68.9809 37.3011 68.9103 37.1591C68.8396 37.0172 68.7404 36.8921 68.6191 36.7922C68.5186 36.7125 67.9774 36.943 67.9077 37.1359C67.5837 38.0266 67.3582 38.9529 67.0876 39.8603C66.7206 41.1346 66.3598 42.4088 65.9866 43.6809C65.3941 45.6991 64.7565 47.7047 64.2071 49.7313C63.387 52.6961 62.5956 55.67 61.8329 58.653C61.552 59.749 61.4229 60.8828 61.1584 61.9852C60.9308 62.9534 60.6315 63.9049 60.3383 64.8606C59.6556 67.1261 58.9237 69.379 58.2881 71.6613C57.9006 73.0571 57.7264 74.5157 57.3266 75.9094C56.8878 77.4498 56.3015 78.9482 55.7684 80.497H51.5942C49.8351 80.497 49.4148 79.8829 49.7285 78.1204C50.0196 76.4962 50.1385 74.8406 50.3436 73.1975C50.567 71.3113 50.7782 69.4251 51.0037 67.539C51.3345 64.76 51.6694 61.9803 52.0083 59.2C52.0965 58.4769 52.2134 57.7581 52.3179 57.0371C52.5947 55.2599 52.933 53.489 53.1503 51.7034C53.4722 49.1278 53.6752 46.5353 54.0155 43.9617C54.159 42.874 54.569 41.8282 54.77 40.7468C54.9907 39.6561 55.1224 38.5486 55.1636 37.4355C55.1636 37.0164 54.7228 36.5972 54.4829 36.1781C54.2123 36.4464 53.7982 36.6664 53.6936 36.9913C53.1893 38.5777 52.7485 40.1873 52.3179 41.7968C51.3871 45.2716 50.5076 48.7589 49.544 52.2232C49.0806 53.8872 48.4266 55.4968 47.9469 57.1566C47.6127 58.3072 47.4774 59.5206 47.1575 60.6775C46.6101 62.6642 45.9828 64.6259 45.3985 66.6022C44.8142 68.5785 44.2319 70.5443 43.6784 72.5227C43.1658 74.3585 42.6881 76.2049 42.2043 78.0492C42.1346 78.3132 42.1161 78.5941 42.0669 78.8644C41.9357 79.5958 41.6179 80.1743 40.7999 80.1805C39.4119 80.1931 38.0177 80.2245 36.6339 80.1281C35.5062 80.0506 35.2992 79.6964 35.4304 78.55C35.6662 76.4732 35.8958 74.3984 36.1541 72.3257C36.5108 69.4524 36.8983 66.5833 37.2428 63.7079C37.2756 63.4501 37.0951 63.163 37.0152 62.8906L37.2346 62.8927Z"/>
</mask>
<path d="M37.2346 62.8927C37.3801 62.2849 37.6077 61.6834 37.6446 61.0673C37.7574 59.5437 37.6733 57.997 37.8763 56.4901C38.2043 54.057 38.7148 51.649 39.1064 49.2242C39.2909 48.1113 39.3852 46.9838 39.5472 45.871C39.8568 43.748 40.1746 41.625 40.5128 39.5062C40.6256 38.7957 40.8593 38.102 40.9352 37.3873C40.9761 36.9837 40.8907 36.5772 40.6912 36.2263C40.3324 35.6667 39.8711 35.5976 39.5513 36.3164C39.2282 37.0052 38.9501 37.7151 38.7189 38.4415C37.6549 42.1636 36.5969 45.8898 35.5985 49.6307C35.1721 51.2277 34.9322 52.875 34.5406 54.4824C34.3233 55.3731 33.9358 56.2198 33.6836 57.1042C33.3228 58.3784 33.1916 59.7532 32.6401 60.929C31.9471 62.4065 31.8343 64.0139 31.3095 65.5207C30.5652 67.6584 29.9502 69.8464 29.3618 72.0364C28.8144 74.0735 28.3859 76.142 27.8877 78.1938C27.6171 79.3024 26.6822 80.0003 25.3885 79.9982C23.8549 79.9982 22.3132 79.9416 20.7899 79.8683C18.9693 79.7803 18.9447 79.6482 19.0226 77.8815C19.1087 76.1923 19.0226 74.4948 19.0533 72.8014C19.0677 72.0805 19.2358 71.3637 19.2686 70.6428C19.3609 68.5973 19.3998 66.5498 19.4941 64.5043C19.5659 62.9534 19.7279 61.4068 19.7791 59.8559C19.8509 57.6156 19.8099 55.371 19.9103 53.1327C19.9944 51.299 20.2732 49.4757 20.3593 47.644C20.4823 45.0389 20.4536 42.4276 20.5889 39.8247C20.7017 37.7122 20.999 35.6081 21.1466 33.4955C21.2655 31.8022 21.2778 30.1025 21.3516 28.4049C21.4193 26.852 21.4685 25.2949 21.6284 23.7503C21.6571 23.4611 22.1656 23 22.4485 23C24.4228 23 26.3992 23.0713 28.3715 23.176C29.985 23.262 30.1286 23.4925 29.985 25.0978C29.7493 27.7364 29.5094 30.3771 29.2982 33.0177C29.1301 35.1344 29.0153 37.2532 28.8554 39.3699C28.6504 42.0944 28.4453 44.7979 28.1973 47.5077C27.9717 49.9556 27.7298 52.4013 27.4223 54.8429C26.922 58.8248 26.35 62.8067 25.8477 66.8033C25.8026 67.1596 26.0527 67.5536 26.1594 67.9288C26.5694 67.6542 27.2111 67.4614 27.3321 67.0905C27.8836 65.3866 28.3182 63.6429 28.7365 61.8972C29.1547 60.1514 29.4151 58.3575 29.901 56.6327C30.4422 54.7108 31.1988 52.8603 31.7913 50.949C32.1152 49.9011 32.2649 48.7966 32.5519 47.7341C33.0747 45.7997 33.6098 43.8653 34.1921 41.9498C34.6739 40.3759 35.2848 38.8418 35.7523 37.2637C36.3673 35.1554 36.9127 33.0198 37.497 30.8989C37.8906 29.4654 38.2945 28.0361 38.7087 26.611C38.9321 25.8335 39.1187 25.0329 39.4385 24.3057C39.5339 24.1299 39.667 23.9786 39.8279 23.8632C39.9888 23.7477 40.1732 23.6711 40.3673 23.6392C41.8024 23.6036 43.2376 23.6832 44.6727 23.7209C45.4743 23.744 45.9028 24.1401 45.7839 24.9784C45.5461 26.7724 45.2468 28.5558 45.0294 30.3519C44.7096 32.9884 44.4595 35.6353 44.1396 38.2718C43.9838 39.5669 43.7296 40.8516 43.541 42.1447C43.336 43.5656 43.1679 44.9907 42.9772 46.4138C42.9034 46.9587 42.7988 47.5015 42.7332 48.0464C42.5138 49.9116 42.3519 51.7831 42.0833 53.6378C41.7491 55.9431 41.294 58.2275 40.9639 60.5328C40.7179 62.2514 40.6071 63.9908 40.396 65.7177C40.3283 66.2605 40.029 66.7845 40.0228 67.321C40.0228 67.6605 40.2914 68.2138 40.5559 68.3018C41.1299 68.4904 41.3411 68.044 41.4416 67.4635C41.542 66.883 41.8188 66.3087 41.9972 65.7282C42.5671 63.8756 43.1474 62.025 43.6825 60.1619C43.8772 59.4745 43.908 58.7389 44.0925 58.0473C44.5743 56.2575 45.1176 54.4845 45.6096 52.6989C46.1201 50.8714 46.5712 49.023 47.1104 47.2039C47.8403 44.7455 48.6891 42.3249 49.3759 39.8541C50.0524 37.4167 50.5424 34.9248 51.2026 32.4812C51.6126 30.9827 52.1888 29.5471 52.6685 28.0612C52.9781 27.1077 53.2549 26.1415 53.5378 25.1775C53.7305 24.5173 54.0442 24.0479 54.8253 24.1087C56.2605 24.2197 57.6813 24.335 59.1123 24.3832C59.8832 24.4104 60.1702 24.7793 60.0923 25.5002C60.0041 26.3385 59.875 27.1496 59.7622 27.9732C59.4854 29.9914 59.2025 32.0075 58.9278 34.0279C58.6633 35.9874 58.4214 37.9511 58.1466 39.9106C57.9027 41.6292 57.5951 43.3393 57.3717 45.062C57.0805 47.2961 56.853 49.5364 56.5782 51.7684C56.3876 53.3193 56.1497 54.8617 55.9632 56.4105C55.7869 57.8629 55.67 59.3215 55.4752 60.7697C55.2969 62.0984 55.0652 63.4187 54.8294 64.739C54.6572 65.7094 54.3804 66.6629 54.28 67.6395C54.241 68.0105 54.5649 68.4192 54.7228 68.8132C54.9852 68.5722 55.4014 68.3794 55.4855 68.0859C56.2851 65.263 57.0395 62.4274 57.7858 59.5877C58.1795 58.0892 58.4747 56.5635 58.9237 55.0839C59.3132 53.7992 59.9139 52.5837 60.3137 51.3011C60.7586 49.8843 61.062 48.4236 61.4577 46.9922C62.0092 44.9949 62.5976 43.0103 63.1553 41.0151C63.9754 38.1062 64.7627 35.191 65.5827 32.2842C66.2286 29.9935 66.8621 27.6987 67.6022 25.4395C67.7232 25.0727 68.3731 24.6515 68.7688 24.6619C70.5012 24.7038 72.2275 24.947 73.9599 25.0245C76.2151 25.1251 76.1208 25.5463 75.8809 27.3592C75.5631 29.7567 75.598 32.2045 75.4832 34.6314C75.3376 37.6493 75.1859 40.6651 75.0506 43.683C74.9317 46.3341 74.8579 48.9894 74.7123 51.6469C74.6241 53.2291 74.4027 54.8031 74.3023 56.3833C74.2633 57.0267 74.4868 57.6847 74.4581 58.3302C74.3494 60.8703 74.1464 63.4082 74.048 65.9483C73.895 70.1398 73.7767 74.339 73.6933 78.5459C73.6482 80.6416 73.2505 81.0775 71.2331 80.9895C69.6093 80.9162 67.9876 80.8156 66.3639 80.7632C65.3613 80.7317 65.0292 80.1009 65.1009 79.2437C65.2814 77.0809 65.5725 74.9286 65.7529 72.7658C65.8636 71.435 65.8821 70.0937 65.88 68.7566C65.88 67.6647 65.4966 66.4743 65.8021 65.4977C66.4172 63.5403 65.9866 61.5262 66.45 59.5772C66.6919 58.5607 66.5586 57.4563 66.6345 56.3937C66.6837 55.7378 66.8006 55.086 66.9031 54.4342C67.3316 51.693 67.7949 48.958 68.1865 46.2126C68.41 44.6596 68.5227 43.092 68.6785 41.5286C68.8077 40.225 68.9553 38.9214 69.0291 37.6158C69.0215 37.4567 68.9809 37.3011 68.9103 37.1591C68.8396 37.0172 68.7404 36.8921 68.6191 36.7922C68.5186 36.7125 67.9774 36.943 67.9077 37.1359C67.5837 38.0266 67.3582 38.9529 67.0876 39.8603C66.7206 41.1346 66.3598 42.4088 65.9866 43.6809C65.3941 45.6991 64.7565 47.7047 64.2071 49.7313C63.387 52.6961 62.5956 55.67 61.8329 58.653C61.552 59.749 61.4229 60.8828 61.1584 61.9852C60.9308 62.9534 60.6315 63.9049 60.3383 64.8606C59.6556 67.1261 58.9237 69.379 58.2881 71.6613C57.9006 73.0571 57.7264 74.5157 57.3266 75.9094C56.8878 77.4498 56.3015 78.9482 55.7684 80.497H51.5942C49.8351 80.497 49.4148 79.8829 49.7285 78.1204C50.0196 76.4962 50.1385 74.8406 50.3436 73.1975C50.567 71.3113 50.7782 69.4251 51.0037 67.539C51.3345 64.76 51.6694 61.9803 52.0083 59.2C52.0965 58.4769 52.2134 57.7581 52.3179 57.0371C52.5947 55.2599 52.933 53.489 53.1503 51.7034C53.4722 49.1278 53.6752 46.5353 54.0155 43.9617C54.159 42.874 54.569 41.8282 54.77 40.7468C54.9907 39.6561 55.1224 38.5486 55.1636 37.4355C55.1636 37.0164 54.7228 36.5972 54.4829 36.1781C54.2123 36.4464 53.7982 36.6664 53.6936 36.9913C53.1893 38.5777 52.7485 40.1873 52.3179 41.7968C51.3871 45.2716 50.5076 48.7589 49.544 52.2232C49.0806 53.8872 48.4266 55.4968 47.9469 57.1566C47.6127 58.3072 47.4774 59.5206 47.1575 60.6775C46.6101 62.6642 45.9828 64.6259 45.3985 66.6022C44.8142 68.5785 44.2319 70.5443 43.6784 72.5227C43.1658 74.3585 42.6881 76.2049 42.2043 78.0492C42.1346 78.3132 42.1161 78.5941 42.0669 78.8644C41.9357 79.5958 41.6179 80.1743 40.7999 80.1805C39.4119 80.1931 38.0177 80.2245 36.6339 80.1281C35.5062 80.0506 35.2992 79.6964 35.4304 78.55C35.6662 76.4732 35.8958 74.3984 36.1541 72.3257C36.5108 69.4524 36.8983 66.5833 37.2428 63.7079C37.2756 63.4501 37.0951 63.163 37.0152 62.8906L37.2346 62.8927Z" fill="black"/>
<path d="M37.2346 62.8927C37.3801 62.2849 37.6077 61.6834 37.6446 61.0673C37.7574 59.5437 37.6733 57.997 37.8763 56.4901C38.2043 54.057 38.7148 51.649 39.1064 49.2242C39.2909 48.1113 39.3852 46.9838 39.5472 45.871C39.8568 43.748 40.1746 41.625 40.5128 39.5062C40.6256 38.7957 40.8593 38.102 40.9352 37.3873C40.9761 36.9837 40.8907 36.5772 40.6912 36.2263C40.3324 35.6667 39.8711 35.5976 39.5513 36.3164C39.2282 37.0052 38.9501 37.7151 38.7189 38.4415C37.6549 42.1636 36.5969 45.8898 35.5985 49.6307C35.1721 51.2277 34.9322 52.875 34.5406 54.4824C34.3233 55.3731 33.9358 56.2198 33.6836 57.1042C33.3228 58.3784 33.1916 59.7532 32.6401 60.929C31.9471 62.4065 31.8343 64.0139 31.3095 65.5207C30.5652 67.6584 29.9502 69.8464 29.3618 72.0364C28.8144 74.0735 28.3859 76.142 27.8877 78.1938C27.6171 79.3024 26.6822 80.0003 25.3885 79.9982C23.8549 79.9982 22.3132 79.9416 20.7899 79.8683C18.9693 79.7803 18.9447 79.6482 19.0226 77.8815C19.1087 76.1923 19.0226 74.4948 19.0533 72.8014C19.0677 72.0805 19.2358 71.3637 19.2686 70.6428C19.3609 68.5973 19.3998 66.5498 19.4941 64.5043C19.5659 62.9534 19.7279 61.4068 19.7791 59.8559C19.8509 57.6156 19.8099 55.371 19.9103 53.1327C19.9944 51.299 20.2732 49.4757 20.3593 47.644C20.4823 45.0389 20.4536 42.4276 20.5889 39.8247C20.7017 37.7122 20.999 35.6081 21.1466 33.4955C21.2655 31.8022 21.2778 30.1025 21.3516 28.4049C21.4193 26.852 21.4685 25.2949 21.6284 23.7503C21.6571 23.4611 22.1656 23 22.4485 23C24.4228 23 26.3992 23.0713 28.3715 23.176C29.985 23.262 30.1286 23.4925 29.985 25.0978C29.7493 27.7364 29.5094 30.3771 29.2982 33.0177C29.1301 35.1344 29.0153 37.2532 28.8554 39.3699C28.6504 42.0944 28.4453 44.7979 28.1973 47.5077C27.9717 49.9556 27.7298 52.4013 27.4223 54.8429C26.922 58.8248 26.35 62.8067 25.8477 66.8033C25.8026 67.1596 26.0527 67.5536 26.1594 67.9288C26.5694 67.6542 27.2111 67.4614 27.3321 67.0905C27.8836 65.3866 28.3182 63.6429 28.7365 61.8972C29.1547 60.1514 29.4151 58.3575 29.901 56.6327C30.4422 54.7108 31.1988 52.8603 31.7913 50.949C32.1152 49.9011 32.2649 48.7966 32.5519 47.7341C33.0747 45.7997 33.6098 43.8653 34.1921 41.9498C34.6739 40.3759 35.2848 38.8418 35.7523 37.2637C36.3673 35.1554 36.9127 33.0198 37.497 30.8989C37.8906 29.4654 38.2945 28.0361 38.7087 26.611C38.9321 25.8335 39.1187 25.0329 39.4385 24.3057C39.5339 24.1299 39.667 23.9786 39.8279 23.8632C39.9888 23.7477 40.1732 23.6711 40.3673 23.6392C41.8024 23.6036 43.2376 23.6832 44.6727 23.7209C45.4743 23.744 45.9028 24.1401 45.7839 24.9784C45.5461 26.7724 45.2468 28.5558 45.0294 30.3519C44.7096 32.9884 44.4595 35.6353 44.1396 38.2718C43.9838 39.5669 43.7296 40.8516 43.541 42.1447C43.336 43.5656 43.1679 44.9907 42.9772 46.4138C42.9034 46.9587 42.7988 47.5015 42.7332 48.0464C42.5138 49.9116 42.3519 51.7831 42.0833 53.6378C41.7491 55.9431 41.294 58.2275 40.9639 60.5328C40.7179 62.2514 40.6071 63.9908 40.396 65.7177C40.3283 66.2605 40.029 66.7845 40.0228 67.321C40.0228 67.6605 40.2914 68.2138 40.5559 68.3018C41.1299 68.4904 41.3411 68.044 41.4416 67.4635C41.542 66.883 41.8188 66.3087 41.9972 65.7282C42.5671 63.8756 43.1474 62.025 43.6825 60.1619C43.8772 59.4745 43.908 58.7389 44.0925 58.0473C44.5743 56.2575 45.1176 54.4845 45.6096 52.6989C46.1201 50.8714 46.5712 49.023 47.1104 47.2039C47.8403 44.7455 48.6891 42.3249 49.3759 39.8541C50.0524 37.4167 50.5424 34.9248 51.2026 32.4812C51.6126 30.9827 52.1888 29.5471 52.6685 28.0612C52.9781 27.1077 53.2549 26.1415 53.5378 25.1775C53.7305 24.5173 54.0442 24.0479 54.8253 24.1087C56.2605 24.2197 57.6813 24.335 59.1123 24.3832C59.8832 24.4104 60.1702 24.7793 60.0923 25.5002C60.0041 26.3385 59.875 27.1496 59.7622 27.9732C59.4854 29.9914 59.2025 32.0075 58.9278 34.0279C58.6633 35.9874 58.4214 37.9511 58.1466 39.9106C57.9027 41.6292 57.5951 43.3393 57.3717 45.062C57.0805 47.2961 56.853 49.5364 56.5782 51.7684C56.3876 53.3193 56.1497 54.8617 55.9632 56.4105C55.7869 57.8629 55.67 59.3215 55.4752 60.7697C55.2969 62.0984 55.0652 63.4187 54.8294 64.739C54.6572 65.7094 54.3804 66.6629 54.28 67.6395C54.241 68.0105 54.5649 68.4192 54.7228 68.8132C54.9852 68.5722 55.4014 68.3794 55.4855 68.0859C56.2851 65.263 57.0395 62.4274 57.7858 59.5877C58.1795 58.0892 58.4747 56.5635 58.9237 55.0839C59.3132 53.7992 59.9139 52.5837 60.3137 51.3011C60.7586 49.8843 61.062 48.4236 61.4577 46.9922C62.0092 44.9949 62.5976 43.0103 63.1553 41.0151C63.9754 38.1062 64.7627 35.191 65.5827 32.2842C66.2286 29.9935 66.8621 27.6987 67.6022 25.4395C67.7232 25.0727 68.3731 24.6515 68.7688 24.6619C70.5012 24.7038 72.2275 24.947 73.9599 25.0245C76.2151 25.1251 76.1208 25.5463 75.8809 27.3592C75.5631 29.7567 75.598 32.2045 75.4832 34.6314C75.3376 37.6493 75.1859 40.6651 75.0506 43.683C74.9317 46.3341 74.8579 48.9894 74.7123 51.6469C74.6241 53.2291 74.4027 54.8031 74.3023 56.3833C74.2633 57.0267 74.4868 57.6847 74.4581 58.3302C74.3494 60.8703 74.1464 63.4082 74.048 65.9483C73.895 70.1398 73.7767 74.339 73.6933 78.5459C73.6482 80.6416 73.2505 81.0775 71.2331 80.9895C69.6093 80.9162 67.9876 80.8156 66.3639 80.7632C65.3613 80.7317 65.0292 80.1009 65.1009 79.2437C65.2814 77.0809 65.5725 74.9286 65.7529 72.7658C65.8636 71.435 65.8821 70.0937 65.88 68.7566C65.88 67.6647 65.4966 66.4743 65.8021 65.4977C66.4172 63.5403 65.9866 61.5262 66.45 59.5772C66.6919 58.5607 66.5586 57.4563 66.6345 56.3937C66.6837 55.7378 66.8006 55.086 66.9031 54.4342C67.3316 51.693 67.7949 48.958 68.1865 46.2126C68.41 44.6596 68.5227 43.092 68.6785 41.5286C68.8077 40.225 68.9553 38.9214 69.0291 37.6158C69.0215 37.4567 68.9809 37.3011 68.9103 37.1591C68.8396 37.0172 68.7404 36.8921 68.6191 36.7922C68.5186 36.7125 67.9774 36.943 67.9077 37.1359C67.5837 38.0266 67.3582 38.9529 67.0876 39.8603C66.7206 41.1346 66.3598 42.4088 65.9866 43.6809C65.3941 45.6991 64.7565 47.7047 64.2071 49.7313C63.387 52.6961 62.5956 55.67 61.8329 58.653C61.552 59.749 61.4229 60.8828 61.1584 61.9852C60.9308 62.9534 60.6315 63.9049 60.3383 64.8606C59.6556 67.1261 58.9237 69.379 58.2881 71.6613C57.9006 73.0571 57.7264 74.5157 57.3266 75.9094C56.8878 77.4498 56.3015 78.9482 55.7684 80.497H51.5942C49.8351 80.497 49.4148 79.8829 49.7285 78.1204C50.0196 76.4962 50.1385 74.8406 50.3436 73.1975C50.567 71.3113 50.7782 69.4251 51.0037 67.539C51.3345 64.76 51.6694 61.9803 52.0083 59.2C52.0965 58.4769 52.2134 57.7581 52.3179 57.0371C52.5947 55.2599 52.933 53.489 53.1503 51.7034C53.4722 49.1278 53.6752 46.5353 54.0155 43.9617C54.159 42.874 54.569 41.8282 54.77 40.7468C54.9907 39.6561 55.1224 38.5486 55.1636 37.4355C55.1636 37.0164 54.7228 36.5972 54.4829 36.1781C54.2123 36.4464 53.7982 36.6664 53.6936 36.9913C53.1893 38.5777 52.7485 40.1873 52.3179 41.7968C51.3871 45.2716 50.5076 48.7589 49.544 52.2232C49.0806 53.8872 48.4266 55.4968 47.9469 57.1566C47.6127 58.3072 47.4774 59.5206 47.1575 60.6775C46.6101 62.6642 45.9828 64.6259 45.3985 66.6022C44.8142 68.5785 44.2319 70.5443 43.6784 72.5227C43.1658 74.3585 42.6881 76.2049 42.2043 78.0492C42.1346 78.3132 42.1161 78.5941 42.0669 78.8644C41.9357 79.5958 41.6179 80.1743 40.7999 80.1805C39.4119 80.1931 38.0177 80.2245 36.6339 80.1281C35.5062 80.0506 35.2992 79.6964 35.4304 78.55C35.6662 76.4732 35.8958 74.3984 36.1541 72.3257C36.5108 69.4524 36.8983 66.5833 37.2428 63.7079C37.2756 63.4501 37.0951 63.163 37.0152 62.8906L37.2346 62.8927Z" stroke="white" stroke-width="4" mask="url(#path-2-outside-1)"/>
<mask id="path-3-outside-2" maskUnits="userSpaceOnUse" x="51" y="12" width="28" height="13" fill="black">
<rect fill="white" x="51" y="12" width="28" height="13"/>
<path d="M67.5645 14.4966C70.1041 14.633 72.554 14.731 74.9934 14.9327C75.3359 14.9615 75.856 15.4822 75.8936 15.8146C75.9813 16.5543 76.1588 17.2824 75.6847 18.0817C74.2019 20.539 72.1509 22.0895 69.0807 22.6447C65.7346 23.2701 62.2679 23.0672 59.0348 22.0568C55.9772 21.0962 53.684 19.2902 53.0929 16.1239C52.7776 14.4409 53.2245 13.9164 55.0582 14.0105C56.6873 14.0893 58.3164 14.1796 59.9434 14.291C61.1338 14.3717 61.2779 14.7099 61.1276 15.7839C60.9464 16.939 60.9225 18.1104 61.0566 19.271C61.232 20.564 62.364 21.2211 63.8197 21.1922C64.417 21.1807 65.054 21.3844 65.6054 21.2403C67.8276 20.6869 68.1764 18.6485 67.9341 16.7253C67.8464 16.0394 67.7086 15.3593 67.5645 14.4966Z"/>
</mask>
<path d="M67.5645 14.4966C70.1041 14.633 72.554 14.731 74.9934 14.9327C75.3359 14.9615 75.856 15.4822 75.8936 15.8146C75.9813 16.5543 76.1588 17.2824 75.6847 18.0817C74.2019 20.539 72.1509 22.0895 69.0807 22.6447C65.7346 23.2701 62.2679 23.0672 59.0348 22.0568C55.9772 21.0962 53.684 19.2902 53.0929 16.1239C52.7776 14.4409 53.2245 13.9164 55.0582 14.0105C56.6873 14.0893 58.3164 14.1796 59.9434 14.291C61.1338 14.3717 61.2779 14.7099 61.1276 15.7839C60.9464 16.939 60.9225 18.1104 61.0566 19.271C61.232 20.564 62.364 21.2211 63.8197 21.1922C64.417 21.1807 65.054 21.3844 65.6054 21.2403C67.8276 20.6869 68.1764 18.6485 67.9341 16.7253C67.8464 16.0394 67.7086 15.3593 67.5645 14.4966Z" fill="black"/>
<path d="M67.5645 14.4966L67.6717 12.4995C67.0658 12.4669 66.4778 12.7113 66.0734 13.1637C65.669 13.6161 65.4918 14.2276 65.5918 14.8261L67.5645 14.4966ZM74.9934 14.9327L75.1611 12.9398L75.1582 12.9395L74.9934 14.9327ZM75.8936 15.8146L73.9062 16.0394L73.9075 16.0501L75.8936 15.8146ZM75.6847 18.0817L77.3971 19.115L77.401 19.1086L77.4049 19.102L75.6847 18.0817ZM69.0807 22.6447L68.7248 20.6766L68.7133 20.6788L69.0807 22.6447ZM59.0348 22.0568L58.4354 23.9649L58.4382 23.9657L59.0348 22.0568ZM53.0929 16.1239L55.059 15.7569L55.0587 15.7556L53.0929 16.1239ZM55.0582 14.0105L54.9557 16.0079L54.9617 16.0082L55.0582 14.0105ZM59.9434 14.291L59.8067 16.2863L59.8081 16.2864L59.9434 14.291ZM61.1276 15.7839L63.1034 16.0937L63.106 16.0775L63.1082 16.0612L61.1276 15.7839ZM61.0566 19.271L59.0698 19.5004L59.072 19.5201L59.0747 19.5399L61.0566 19.271ZM63.8197 21.1922L63.7811 19.1926L63.7801 19.1926L63.8197 21.1922ZM65.6054 21.2403L65.1222 19.2995L65.1109 19.3023L65.0997 19.3053L65.6054 21.2403ZM67.9341 16.7253L69.9185 16.4753L69.918 16.4716L67.9341 16.7253ZM67.4572 16.4937C70.0334 16.6321 72.4275 16.7274 74.8286 16.9259L75.1582 12.9395C72.6805 12.7346 70.1749 12.6339 67.6717 12.4995L67.4572 16.4937ZM74.8257 16.9257C74.4916 16.8976 74.2883 16.7772 74.2501 16.7544C74.1869 16.7167 74.1591 16.6893 74.1525 16.6829C74.1457 16.6762 74.1204 16.651 74.0844 16.5929C74.0648 16.5611 73.9432 16.3663 73.9062 16.0394L77.8809 15.5898C77.8251 15.0967 77.6245 14.7121 77.4861 14.4884C77.3313 14.2383 77.1475 14.0188 76.9632 13.8368C76.7791 13.655 76.5547 13.4712 76.2965 13.3175C76.0632 13.1786 75.6665 12.9823 75.1611 12.9398L74.8257 16.9257ZM73.9075 16.0501C73.9205 16.16 73.935 16.2675 73.9468 16.3564C73.9594 16.4505 73.9695 16.5269 73.9781 16.6004C73.9953 16.7472 74.0006 16.8384 73.9999 16.9049C73.999 16.9996 73.9885 17.021 73.9646 17.0613L77.4049 19.102C78.3031 17.5878 77.9347 16.0431 77.8797 15.5791L73.9075 16.0501ZM73.9724 17.0484C72.7686 19.0431 71.1966 20.2296 68.7248 20.6766L69.4367 24.6128C73.1052 23.9493 75.6351 22.0349 77.3971 19.115L73.9724 17.0484ZM68.7133 20.6788C65.6866 21.2444 62.551 21.0603 59.6314 20.1479L58.4382 23.9657C61.9848 25.0742 65.7825 25.2958 69.4482 24.6107L68.7133 20.6788ZM59.6343 20.1488C56.9919 19.3186 55.4664 17.9396 55.059 15.7569L51.1269 16.4909C51.9016 20.6408 54.9625 22.8738 58.4354 23.9649L59.6343 20.1488ZM55.0587 15.7556C55.0284 15.5939 55.0123 15.4721 55.0049 15.3825C54.9975 15.2917 55.0007 15.2533 55.0007 15.2539C55.0005 15.2555 54.995 15.3166 54.9581 15.4121C54.9187 15.514 54.851 15.6352 54.7456 15.7505C54.641 15.8649 54.5323 15.9372 54.45 15.9788C54.3731 16.0177 54.3297 16.0247 54.3462 16.0212C54.3631 16.0177 54.4185 16.0081 54.5264 16.0031C54.6332 15.9982 54.7737 15.9985 54.9557 16.0079L55.1608 12.0131C54.627 11.9857 54.0589 11.9938 53.5202 12.1075C52.9665 12.2243 52.3151 12.481 51.7937 13.0511C51.265 13.6293 51.0707 14.3098 51.0175 14.8869C50.9667 15.438 51.0339 15.9945 51.1271 16.4923L55.0587 15.7556ZM54.9617 16.0082C56.5816 16.0865 58.1967 16.1761 59.8067 16.2863L60.08 12.2957C58.436 12.1831 56.793 12.0921 55.1548 12.0129L54.9617 16.0082ZM59.8081 16.2864C60.0412 16.3022 60.0762 16.3237 60.0164 16.3037C59.9281 16.2741 59.6499 16.1571 59.4194 15.8394C59.1999 15.5368 59.1791 15.2641 59.1769 15.2278C59.1757 15.2068 59.1801 15.2689 59.1469 15.5065L63.1082 16.0612C63.1502 15.7618 63.193 15.3789 63.1698 14.9899C63.1457 14.5856 63.0427 14.022 62.6571 13.4905C61.8907 12.4341 60.6298 12.333 60.0786 12.2956L59.8081 16.2864ZM59.1517 15.474C58.9426 16.8074 58.915 18.1602 59.0698 19.5004L63.0434 19.0415C62.9301 18.0606 62.9502 17.0706 63.1034 16.0937L59.1517 15.474ZM59.0747 19.5399C59.2411 20.7663 59.8943 21.7597 60.8541 22.395C61.7656 22.9984 62.8424 23.212 63.8593 23.1918L63.7801 19.1926C63.3413 19.2013 63.1242 19.1008 63.062 19.0596C63.0372 19.0432 63.0403 19.0396 63.0483 19.0523C63.057 19.066 63.046 19.0581 63.0384 19.0021L59.0747 19.5399ZM63.8583 23.1919C63.9934 23.1893 64.0777 23.209 64.5231 23.2553C64.8515 23.2894 65.4603 23.3454 66.1111 23.1753L65.0997 19.3053C65.1992 19.2793 65.2137 19.3055 64.9364 19.2767C64.8752 19.2703 64.8125 19.263 64.7323 19.2537C64.6568 19.2449 64.5659 19.2344 64.472 19.225C64.286 19.2065 64.0449 19.1875 63.7811 19.1926L63.8583 23.1919ZM66.0886 23.181C67.8351 22.7461 68.976 21.6464 69.5454 20.2529C70.0659 18.9788 70.0594 17.5939 69.9184 16.4753L65.9498 16.9752C66.0512 17.7799 65.9913 18.3758 65.8425 18.74C65.777 18.9004 65.7018 18.9983 65.6232 19.0672C65.546 19.1348 65.4024 19.2297 65.1222 19.2995L66.0886 23.181ZM69.918 16.4716C69.8242 15.7386 69.6659 14.9378 69.5371 14.1671L65.5918 14.8261C65.7513 15.7807 65.8686 16.3402 65.9503 16.979L69.918 16.4716Z" fill="white" mask="url(#path-3-outside-2)"/>
</svg>
