<svg width="154" height="132" viewBox="0 0 154 132" fill="none" xmlns="http://www.w3.org/2000/svg">
<path d="M129.039 130.227L28.1874 123.061C16.191 122.209 10.0254 108.293 17.4535 98.8346L79.7143 19.5556C86.6888 10.6746 100.605 12.394 105.208 22.7055L143.799 109.15C148.417 119.495 140.34 131.029 129.039 130.227Z" fill="#090909" stroke="white" stroke-width="2"/>
<path d="M40.5198 113.982C40.0231 113.883 39.927 113.601 40.046 113.113C40.4884 111.362 41.413 109.773 42.7127 108.531C43.5456 107.659 44.5174 106.933 45.5876 106.385C46.9335 105.727 48.3343 105.042 49.7695 104.732C52.226 104.187 54.7196 103.829 57.2292 103.662C59.9347 103.505 62.6632 103.65 65.3779 103.759C67.7401 103.852 70.1 104.03 72.453 104.258C73.8928 104.4 75.3165 104.721 76.754 104.929C78.1914 105.137 79.6495 105.225 81.087 105.433C83.3599 105.764 85.6214 106.157 87.8897 106.513C89.563 106.774 91.2453 106.993 92.9254 107.282C94.6055 107.571 96.3016 107.957 97.9978 108.246C98.7485 108.376 99.5268 108.33 100.287 108.441C102.189 108.723 104.077 109.134 105.986 109.333C108.344 109.564 110.715 109.728 113.082 109.77C114.416 109.805 115.748 109.649 117.04 109.308C118.049 109.026 119.145 108.658 119.67 107.458C120.127 106.39 120.088 105.389 119.171 104.705C118.588 104.251 117.922 103.919 117.211 103.727C112.697 102.663 108.103 102.631 103.503 102.716C101.672 102.749 99.8404 102.735 98.0229 102.753C95.3792 102.779 92.7332 102.825 90.0894 102.844C86.1112 102.874 82.1284 102.978 78.1525 102.881C74.5749 102.793 70.9995 102.525 67.4288 102.238C65.8769 102.111 64.341 101.752 62.8028 101.47C61.3745 101.209 59.937 100.978 58.5339 100.617C55.588 99.8613 52.8115 98.6684 50.3738 96.8189C47.7964 94.8908 46.3521 92.3015 46.1507 89.0718C46.0737 88.031 46.1221 86.9845 46.2949 85.9554C46.6176 84.2146 47.8239 83.1442 49.3277 82.3512C51.8662 81.008 54.6381 80.7329 57.4032 80.7699C60.7565 80.8208 64.1167 81.0496 67.4494 81.4149C71.4047 81.8496 75.3371 82.4761 79.2718 83.0841C81.3937 83.4124 83.4949 83.8909 85.6099 84.2678C87.7249 84.6446 89.7896 85.0006 91.8862 85.3243C95.029 85.8098 98.1671 86.3531 101.326 86.6952C103.67 86.9495 106.041 86.9657 108.401 87.0073C109.992 87.0351 111.356 86.3415 112.572 85.3451C113.194 84.8342 113.1 82.9384 112.489 82.2703C111.496 81.186 110.2 80.7745 108.827 80.652C106.378 80.4208 103.922 80.2359 101.466 80.1896C99.0713 80.1388 96.6725 80.2798 94.2736 80.3376C91.8748 80.3954 89.4394 80.4717 87.0199 80.5202C83.9779 80.5803 80.9359 80.6797 77.8939 80.652C75.0533 80.6289 72.2127 80.5133 69.379 80.3376C67.9268 80.2088 66.4826 80.0004 65.0528 79.7134C62.6861 79.2996 60.4086 78.606 58.2981 77.4015C56.6233 76.4731 55.3084 75.0001 54.5672 73.2217C53.9926 71.9062 53.9606 70.5908 54.0155 69.2915C54.0979 67.2802 55.4782 66.1057 57.1972 65.3752C59.2801 64.4874 61.5164 64.3441 63.7367 64.2863C65.6872 64.2215 67.6397 64.2678 69.585 64.425C72.9841 64.7279 76.3694 65.1579 79.7594 65.5601C82.6847 65.9092 85.6054 66.2861 88.5261 66.6721C90.5632 66.9426 92.5844 67.3657 94.6284 67.5137C97.5514 67.7448 100.502 68.1471 103.404 67.2825C104.32 67.012 104.956 66.4641 105.192 65.4977C105.368 64.7833 104.869 63.9418 103.919 63.7546C102.447 63.4474 100.953 63.2557 99.4512 63.1812C97.2561 63.098 95.0542 63.1488 92.8591 63.2182C89.6202 63.3222 86.3836 63.5349 83.1424 63.6205C80.3293 63.6944 77.5116 63.7083 74.6962 63.6459C72.8679 63.6326 71.0432 63.4819 69.2371 63.1951C67.1541 62.8298 65.0208 62.416 63.2858 61.0497C61.5187 59.6487 60.7679 57.4963 61.4775 55.4388C62.0154 53.8944 63.4002 53.4714 64.8606 53.2934C66.8337 53.0622 68.7518 53.365 70.6585 53.8621C71.1345 53.9543 71.6151 54.0199 72.0982 54.0586C71.6061 53.187 71.2124 52.5166 70.8416 51.8322C69.6353 49.599 69.5484 47.2663 70.2419 44.862C71.1415 41.7433 73.3366 39.9885 76.2207 38.8511C77.4887 38.3471 78.7751 38.1321 80.0936 37.9425C80.2282 37.8943 80.3512 37.8179 80.4546 37.7183C80.5579 37.6187 80.6393 37.4981 80.6933 37.3646C80.9817 36.671 81.1236 35.8965 81.4532 35.2192C82.0025 34.0956 83.0715 33.5569 84.216 33.4714C85.7685 33.3697 87.3265 33.3882 88.8763 33.5269C91.3369 33.7188 93.7838 34.0933 96.2444 34.2644C97.6933 34.3661 99.2201 34.3892 100.461 33.4552C101.211 32.8888 101.775 32.0681 102.436 31.3745C102.598 31.2334 102.773 31.108 102.958 31C103.004 31.2312 103.136 31.4762 103.079 31.6704C102.319 34.2135 101.09 36.4468 98.6982 37.783C97.4827 38.4604 96.1254 38.576 94.7452 38.5321C92.2433 38.4535 89.904 37.6351 87.5327 36.96C86.4111 36.641 85.2964 36.2664 84.1565 36.0699C83.4969 35.9504 82.8182 36.0013 82.1834 36.2179C81.8217 36.3497 81.5951 36.9392 81.3937 37.3738C81.3571 37.4478 81.7141 37.8478 81.9293 37.8894C82.8449 38.0628 83.7902 38.1044 84.7035 38.2916C87.4297 38.8488 89.8926 39.9909 91.829 42.0392C93.8113 44.1337 94.7131 46.6375 94.3606 49.5851C94.1889 51.0138 93.7701 52.3917 92.9872 53.4968C92.1472 54.6735 91.1561 55.841 89.7003 56.4028C88.7183 56.7843 87.7524 57.2143 86.7773 57.6142C85.3147 58.2107 83.7559 58.109 82.2406 58.1113C79.7978 58.1439 77.3902 57.5208 75.2639 56.3057C74.0942 55.626 72.952 54.9579 71.629 54.6874C69.4522 54.2389 67.28 53.6517 65.03 53.9314C64.6145 53.9685 64.2094 54.083 63.8351 54.269C63.3773 54.5233 63.0065 54.9047 63.1004 55.5405C63.1429 55.9522 63.2896 56.3459 63.5266 56.6836C63.7635 57.0213 64.0826 57.2917 64.4531 57.4686C66.0466 58.2298 67.7794 58.6478 69.5415 58.6962C74.6092 58.8927 79.6815 58.999 84.747 59.2256C88.597 59.399 92.4516 59.6047 96.2856 59.9839C98.8653 60.2405 101.404 60.8786 103.647 62.312C105.158 63.276 106.098 64.5776 105.993 66.5126C105.902 68.1656 105.609 69.7631 104.62 71.097C103.059 73.1916 100.804 74.0493 98.3136 74.1603C96.2025 74.2698 94.0861 74.2196 91.9824 74.01C89.7117 73.7649 87.4663 73.2471 85.2185 72.7963C83.6163 72.4772 82.0254 72.1027 80.4506 71.6889C77.8481 70.9953 75.2684 70.2093 72.6682 69.4972C69.3126 68.5725 65.9639 67.6108 62.5762 66.8155C60.9304 66.4271 59.2092 66.3531 57.5153 66.1843C56.6776 66.1034 55.6292 66.7299 55.4095 67.3264C55.0936 68.1887 55.4255 69.0256 56.3068 69.7238C57.7786 70.8797 59.5388 71.3837 61.3035 71.7074C64.341 72.2599 67.4059 72.6807 70.4731 73.046C73.0024 73.3465 75.55 73.4713 78.0884 73.6979C80.8169 73.943 83.543 74.1857 86.2669 74.4839C89.3753 74.8215 92.4837 75.1775 95.5829 75.6006C97.8307 75.908 100.081 76.2525 102.294 76.7565C104.021 77.1697 105.722 77.6838 107.389 78.2962C108.534 78.6915 109.692 79.1077 110.706 79.7434C111.644 80.3803 112.491 81.1442 113.224 82.0137C113.535 82.3559 113.666 82.9916 113.647 83.4864C113.59 85.0029 113.471 86.4918 113.006 87.9876C112.443 89.7908 111.287 91.0739 109.914 92.1489C109.088 92.8009 108.012 93.1754 107 93.536C104.203 94.5533 101.296 94.5926 98.3777 94.3151C95.8828 94.084 93.3695 93.9268 90.9043 93.4967C87.8417 92.965 84.8111 92.2322 81.7851 91.4993C78.7591 90.7664 75.7148 89.9318 72.6888 89.1134C71.4756 88.7828 70.29 88.3459 69.0791 88.0037C67.2045 87.4743 65.3184 86.9865 63.4368 86.4802C61.1983 85.8768 58.9734 85.1948 56.7119 84.6955C54.3451 84.1707 51.9371 83.7938 49.4948 83.988C48.9285 84.0459 48.373 84.1836 47.8445 84.3972C46.9632 84.7394 46.5947 85.7497 46.8053 86.9403C47.0937 88.5725 48.3618 89.3053 49.6207 89.9711C51.6373 91.0346 53.869 91.4554 56.0779 91.8761C57.909 92.2298 59.786 92.4911 61.6538 92.6714C65.0002 92.9974 68.3581 93.2309 71.7114 93.5083C74.6642 93.7534 77.6169 94.0192 80.5697 94.2527C82.9845 94.4446 85.4039 94.581 87.8165 94.7845C90.4488 95.0156 93.0811 95.2468 95.7042 95.5404C97.4576 95.7369 99.1972 96.0421 100.941 96.3103C102.882 96.6085 104.833 96.8374 106.755 97.2535C108.382 97.6402 109.986 98.1148 111.562 98.6753C112.871 99.1123 114.167 99.6001 115.43 100.166C117.209 100.957 118.846 101.984 119.985 103.634C120.793 104.727 121.139 106.099 120.949 107.449C120.75 108.852 120.72 110.288 120.441 111.675C120.043 113.828 118.899 115.767 117.214 117.145C115.493 118.57 113.389 119.44 111.173 119.642C109.259 119.808 107.344 119.947 105.425 120C104.464 119.996 103.505 119.906 102.56 119.732C100.557 119.424 98.5471 119.135 96.5672 118.715C94.6582 118.31 92.7812 117.753 90.8906 117.254C89.5172 116.891 88.1141 116.544 86.7407 116.137C85.0926 115.649 83.4629 115.092 81.8194 114.586C80.9222 114.31 80.0089 114.1 79.1116 113.827C76.6098 113.067 74.124 112.255 71.613 111.515C69.2485 110.822 66.8497 110.267 64.4852 109.578C61.5254 108.712 58.5043 108.077 55.4484 107.678C54.0132 107.493 52.5643 107.412 51.1177 107.315C49.4935 107.193 47.8615 107.39 46.3109 107.893C43.5436 108.797 41.4926 110.436 40.7602 113.43C40.7231 113.574 40.678 113.716 40.6251 113.855C40.6183 113.922 40.5633 113.945 40.5198 113.982ZM87.4754 53.8921C87.2259 52.8957 87.0543 51.749 86.6514 50.6948C85.7633 48.3691 84.8592 46.0387 83.7719 43.8054C82.9401 42.0101 81.6617 40.4633 80.0615 39.3158C78.5806 38.2847 76.7792 39.0476 76.667 40.7492C76.6449 41.1983 76.6502 41.6485 76.683 42.097C76.7906 43.8702 77.3926 45.5093 77.9717 47.1623C78.8625 49.7355 80.083 52.1799 81.602 54.4331C82.3413 55.522 83.1859 56.5392 84.4655 57.0594C85.6763 57.5518 86.997 57.1033 87.2328 56.0422C87.35 55.3301 87.431 54.6125 87.4754 53.8921Z" fill="#FFA842"/>
</svg>
