<svg width="109" height="112" viewBox="0 0 109 112" fill="none" xmlns="http://www.w3.org/2000/svg">
<rect x="1" y="1" width="107" height="110" fill="#090909" stroke="white" stroke-width="2"/>
<path d="M15.6883 80.4422C14.3446 79.2909 13.1543 78.3211 12.0111 77.273C9.31114 74.8172 7.93924 71.6418 7.31281 68.1378C6.42953 63.1323 7.01525 58.2737 10.1318 54.1441C11.4943 52.3421 13.4989 50.9311 15.4346 49.6954C16.5966 48.9508 16.9317 48.3533 16.5715 47.1081C15.6474 44.1123 15.4573 40.9386 16.0171 37.854C17.3076 31.1278 21.0286 26.6853 27.9664 24.6581C33.0249 23.1752 37.861 23.9635 42.4653 26.4132C43.7652 27.1045 44.2131 26.726 44.3446 25.1086C44.5482 22.2679 44.4887 19.3365 45.2154 16.6241C47.1385 9.42857 51.3576 5.7307 58.7151 5.4022C60.5944 5.31773 60.8512 5.49919 60.7667 7.37002C60.5881 11.3714 60.2906 15.3696 60.0557 19.3678C59.9711 20.7975 59.2444 21.32 57.8224 21.32C55.9055 21.32 53.9542 21.32 52.078 21.6735C49.3091 22.174 47.4831 23.8634 46.6436 26.6478C46.1769 28.1839 46.5967 29.3195 47.552 30.4958C52.5917 36.6965 53.2525 43.5948 50.4242 50.8623C48.2692 56.3966 43.8466 59.4438 38.1679 60.3573C30.942 61.518 24.6463 59.4813 19.8134 53.7311C19.4199 53.2403 19.0689 52.717 18.7641 52.1669C17.6991 50.368 16.4682 50.2648 15.0963 51.8791C11.8733 55.6802 13.3611 60.9517 18.0562 62.688C22.2377 64.2523 26.5945 63.9175 30.8981 64.0927C39.496 64.44 48.097 64.659 56.698 64.9468C62.9999 65.1595 69.3081 65.3128 75.6038 65.6444C81.1102 65.9323 86.5289 66.8958 91.4715 69.4424C96.602 72.0891 99.5494 76.5191 100.702 82.1222C101.585 86.4176 101.873 90.7412 100.953 95.0867C100.013 99.5323 97.7765 103.039 93.2161 104.203C90.1371 105.002 86.9623 105.371 83.7819 105.301C76.5779 105.092 69.4084 104.513 62.2263 104.015C51.226 103.252 40.2509 103.24 29.26 104.309C24.5442 104.738 19.8045 104.842 15.0744 104.622C10.8428 104.457 8.2368 101.766 7.55712 97.7052C7.13214 95.1411 7.13955 92.5239 7.57904 89.9622C8.29944 85.72 11.1153 82.8105 14.9271 80.8614C15.1057 80.7707 15.2811 80.6675 15.6883 80.4422ZM99.2894 91.0603C99.2894 88.5137 97.8016 86.4051 94.8135 85.8013C90.8325 85.0004 86.7857 84.3153 82.7515 84.1557C66.0225 83.53 49.2841 83.1671 32.5519 82.6478C28.5459 82.5227 24.4083 82.7542 20.587 81.7812C17.0226 80.8708 14.9491 82.2786 12.7315 84.3372C11.1466 85.8013 10.6298 87.6158 10.9399 89.7057C11.2969 92.0927 12.0581 92.756 14.4448 92.6715C15.1212 92.6367 15.7911 92.5212 16.44 92.3273C18.9457 91.6172 21.4515 90.9289 23.9322 90.1155C33.5918 86.9432 43.4676 85.3915 53.6503 86.0015C63.2379 86.5741 72.5217 88.6733 81.6928 91.4107C85.9839 92.6934 90.2875 93.9635 94.6538 94.9365C97.6575 95.6154 99.2612 94.0637 99.2894 91.0603ZM29.6547 40.532L29.6234 40.0127C26.2187 40.3568 22.8109 40.6697 19.4187 41.0952C18.999 41.1483 18.6513 41.7834 18.2692 42.1495C18.6544 42.4435 19.0021 42.9159 19.4281 43.0004C21.7209 43.4509 24.0199 44.0015 26.3377 44.1517C31.061 44.452 35.7938 44.6158 40.5359 44.6429C43.1231 44.6429 45.7165 44.2831 48.3006 44.0172C49.0617 43.9421 49.8134 43.6042 49.4532 42.5968C49.046 41.4518 45.3406 40.8167 44.5357 41.7146C42.3995 44.0891 40.9086 44.0015 38.8977 41.4894C38.5009 40.9904 37.9285 40.6615 37.2972 40.5696C34.7664 40.4788 32.2074 40.532 29.6547 40.532Z" fill="#FFA842"/>
<path d="M55.0957 43.3422C55.2429 37.4795 56.7119 33.0182 60.2763 29.7145C64.1634 26.1199 68.9932 24.5776 74.3994 25.1376C77.1418 25.415 79.8026 26.2293 82.2298 27.534C83.276 28.0971 83.8398 27.8468 83.7959 26.6173C83.6221 22.6031 84.3721 18.6025 85.9884 14.923C88.3282 9.56392 92.4 5.78158 98.7145 6.25711C100.503 6.39163 100.729 6.67633 100.572 8.49398C100.234 12.4734 99.8828 16.4497 99.6322 20.4323C99.5477 21.7932 99.0371 22.2343 97.6778 22.1279C96.0236 21.9641 94.357 21.9694 92.7038 22.1436C91.0347 22.3441 89.4769 23.0842 88.2679 24.2511C87.0589 25.418 86.265 26.9477 86.0072 28.6071C85.8788 29.5112 86.4708 30.725 87.0972 31.5009C90.9561 36.2719 92.1651 41.7342 91.1064 47.6095C89.0924 58.7782 78.5338 63.6899 68.9243 61.1402C62.4125 59.4164 58.0274 55.4213 56.0823 48.9673C55.4402 46.8524 55.3056 44.5874 55.0957 43.3422ZM74.7596 45.8732V45.6417C77.2653 45.6417 79.7711 45.7324 82.258 45.6104C84.1262 45.4943 85.9834 45.2413 87.8145 44.8533C88.1966 44.7751 88.798 43.8866 88.6915 43.6019C88.2217 42.3505 84.579 42.0377 83.7051 43.1201C82.0951 45.1067 79.7303 45.0786 78.4461 42.8949C77.8385 41.8562 77.093 41.5559 76.0594 41.5371C72.3603 41.4683 68.6612 41.3306 64.9621 41.3838C62.9844 41.4455 61.0146 41.661 59.0704 42.0283C58.5474 42.1159 58.1308 42.8073 57.6672 43.2234C58.0807 43.6176 58.444 44.1119 58.9201 44.3809C59.4319 44.6398 59.9918 44.79 60.5645 44.822C65.3129 45.1849 70.0362 45.5259 74.7596 45.8732Z" fill="#FFA842"/>
<path d="M99.2898 91.0609C99.2898 94.0642 97.6736 95.6159 94.6699 94.9464C90.3036 93.9735 86 92.7033 81.7089 91.4206C72.5378 88.6832 63.2541 86.584 53.6664 86.0115C43.4837 85.4014 33.6205 86.95 23.9483 90.1254C21.477 90.9388 18.9618 91.6271 16.4561 92.3373C15.8072 92.5311 15.1373 92.6467 14.4609 92.6814C12.0742 92.7659 11.3287 92.1026 10.956 89.7156C10.6428 87.6258 11.1627 85.8112 12.7476 84.3471C14.9683 82.2885 17.0387 80.8807 20.6031 81.7911C24.4181 82.7641 28.562 82.5326 32.568 82.6577C49.3002 83.177 66.0386 83.5493 82.7676 84.1656C86.8018 84.3158 90.8486 85.001 94.8139 85.8019C97.7864 86.4057 99.2898 88.5143 99.2898 91.0609Z" fill="#090909"/>
<path d="M29.6554 40.533C32.2081 40.533 34.7577 40.4798 37.3073 40.5768C37.9386 40.6687 38.511 40.9977 38.9079 41.4966C40.9093 43.9994 42.4002 44.0964 44.5458 41.7218C45.3508 40.824 49.0561 41.459 49.4633 42.6041C49.8235 43.6114 49.0718 43.9493 48.3107 44.0244C45.7266 44.2841 43.1332 44.6501 40.546 44.6501C35.8101 44.6292 31.0774 44.4655 26.3478 44.1589C24.03 44.0088 21.731 43.4581 19.4382 43.0076C19.0122 42.9232 18.6646 42.4508 18.2793 42.1567C18.6614 41.7907 19.0091 41.1556 19.4288 41.1024C22.8116 40.6707 26.2194 40.3578 29.6241 40.0137L29.6554 40.533Z" fill="#090909"/>
<path d="M74.7587 45.8728C70.0353 45.5256 65.312 45.1845 60.5887 44.8154C60.0159 44.7834 59.456 44.6332 58.9443 44.3743C58.4588 44.1052 58.0955 43.6109 57.6914 43.2167C58.155 42.8006 58.5715 42.1092 59.0946 42.0217C61.0388 41.6543 63.0086 41.4388 64.9863 41.3772C68.6854 41.324 72.3845 41.4616 76.0836 41.5305C77.1172 41.5492 77.8627 41.8433 78.4703 42.8882C79.7545 45.0782 82.1193 45.1001 83.7293 43.1135C84.6031 42.0373 88.2459 42.3282 88.7157 43.5953C88.8222 43.8862 88.2208 44.7747 87.8387 44.8467C86.0076 45.2346 84.1504 45.4877 82.2822 45.6038C79.7764 45.7258 77.2707 45.635 74.7837 45.635L74.7587 45.8728Z" fill="#090909"/>
</svg>
