<svg width="120" height="117" viewBox="0 0 120 117" fill="none" xmlns="http://www.w3.org/2000/svg">
<rect x="1" y="1" width="118" height="115" fill="#090909" stroke="white" stroke-width="2"/>
<path d="M81.5231 73.9683C80.0875 73.9683 78.6385 74.0979 77.2196 73.941C72.9161 73.4667 69.5228 71.0785 66.4207 68.2366C62.3648 64.5212 58.4763 60.6148 54.3468 56.978C51.5626 54.5318 48.1894 53.1432 44.505 52.6451C41.5802 52.2528 39.2377 53.8051 36.7848 54.9992C36.3899 55.1937 35.9783 55.3404 35.57 55.5348L35.3023 55.0777C36.5807 54.0541 37.7854 52.901 39.1541 52.0071C43.2902 49.3392 47.3896 46.5825 51.6898 44.2148C58.2922 40.5779 63.4658 41.8914 68.0504 48.0632C71.2061 52.3142 74.1342 56.7494 77.4371 60.8741C81.1182 65.4629 85.9705 67.9091 91.7765 66.2783C95.123 65.3332 98.2151 63.2965 101.351 61.6179C103.121 60.6694 104.741 59.4344 106.451 58.3734C106.862 58.1771 107.294 58.0305 107.739 57.9367L108 58.3461C107.646 58.7869 107.255 59.1955 106.832 59.5675C102.007 63.1088 97.6261 67.1551 94.1458 72.0611C91.4051 75.9232 89.3939 80.181 90.3643 85.2235C91.1943 89.5359 94.7147 91.5795 98.7839 90.0271C100.655 89.3141 102.405 88.2838 104.229 87.4411C104.836 87.1987 105.457 86.9948 106.089 86.8304L106.344 87.3285C105.978 87.6987 105.592 88.0462 105.186 88.3691C101.213 91.1837 97.3149 94.1246 93.1988 96.7073C91.7832 97.5943 89.8523 97.7922 88.1089 97.9286C84.6754 98.2016 81.2889 97.7239 78.257 95.9328C73.7561 93.2819 73.5352 89.7167 75.794 85.5271C76.7299 83.7844 77.7588 82.0954 78.8761 80.4676C79.9871 78.8606 81.2755 77.3765 82.3062 75.5342C81.8937 75.678 81.4976 75.8667 81.1249 76.0972C73.6255 81.9858 66.1798 87.946 58.6302 93.7664C56.2877 95.5848 53.3262 95.3426 50.5553 95.2198C43.7152 94.9127 38.0196 91.7535 32.6453 87.6799C26.9865 83.388 22.3617 78.1271 18.3493 72.3033C15.8864 68.7176 13.8049 64.8488 13.2293 60.4545C12.453 54.5625 13.7012 48.9161 16.1675 43.5904C19.1544 37.0189 23.7192 31.3218 29.4394 27.0266C35.1775 22.6599 41.8644 19.7692 48.9323 18.5997C55.33 17.5392 61.8764 17.8882 68.1307 19.6232C78.3306 22.414 86.2583 28.3606 91.723 37.5893C92.747 39.3224 93.4598 41.2739 94.1358 43.1879C94.5273 44.2933 94.9289 44.7027 96.0533 44.1875C97.1777 43.6723 98.4292 43.2049 99.6406 42.7819C100.201 42.6276 100.771 42.5136 101.347 42.4407L101.916 43.1879C101.543 43.2741 101.176 43.3881 100.819 43.529C93.9182 46.7019 87.0213 49.8862 80.1276 53.0818C78.5548 53.8051 78.6586 52.6246 78.5481 51.6455C78.18 48.3293 78.1031 44.9381 77.3535 41.7106C75.0612 31.8371 69.2953 25.0342 59.671 21.834C54.2359 19.9949 48.3754 19.9175 42.8954 21.6123C35.6671 23.748 31.1126 28.712 28.7701 35.9482C26.6317 42.5158 27.1705 49.0969 28.7701 55.5962C31.1126 65.1695 36.1523 73.0437 44.0666 78.8504C49.0862 82.535 54.7752 84.3876 60.9158 84.7083C64.6839 84.9028 68.0136 83.3914 71.1492 81.4774C74.1041 79.6726 76.972 77.7245 79.8499 75.8038C80.5192 75.3602 81.1249 74.8212 81.7574 74.3265L81.5231 73.9683Z" fill="#FFA842"/>
</svg>
